G75*
%MOIN*%
%OFA0B0*%
%FSLAX25Y25*%
%IPPOS*%
%LPD*%
%AMOC8*
5,1,8,0,0,1.08239X$1,22.5*
%
%ADD10C,0.00800*%
%ADD11R,0.02500X0.05000*%
%ADD12R,0.01600X0.01000*%
%ADD13C,0.07400*%
%ADD14C,0.02500*%
%ADD15C,0.03400*%
%ADD16R,0.05000X0.02500*%
%ADD17R,0.01000X0.01600*%
%ADD18C,0.02600*%
%ADD19C,0.01200*%
%ADD20C,0.01000*%
%ADD21C,0.00600*%
%ADD22C,0.02900*%
D10*
X0047467Y0031650D02*
X0049800Y0031650D01*
X0048633Y0031650D02*
X0048633Y0035850D01*
X0049800Y0034917D01*
X0054300Y0033750D02*
X0054298Y0033638D01*
X0054293Y0033526D01*
X0054284Y0033414D01*
X0054271Y0033303D01*
X0054255Y0033192D01*
X0054235Y0033081D01*
X0054211Y0032972D01*
X0054184Y0032863D01*
X0054154Y0032755D01*
X0054120Y0032648D01*
X0054083Y0032542D01*
X0054042Y0032438D01*
X0053998Y0032335D01*
X0053950Y0032233D01*
X0054067Y0032583D02*
X0052200Y0034917D01*
X0052317Y0035267D02*
X0052337Y0035320D01*
X0052360Y0035371D01*
X0052387Y0035420D01*
X0052417Y0035468D01*
X0052450Y0035514D01*
X0052485Y0035557D01*
X0052524Y0035598D01*
X0052565Y0035637D01*
X0052609Y0035673D01*
X0052655Y0035705D01*
X0052702Y0035735D01*
X0052752Y0035761D01*
X0052804Y0035785D01*
X0052856Y0035804D01*
X0052910Y0035821D01*
X0052965Y0035833D01*
X0053021Y0035843D01*
X0053077Y0035848D01*
X0053133Y0035850D01*
X0053189Y0035848D01*
X0053245Y0035843D01*
X0053301Y0035833D01*
X0053356Y0035821D01*
X0053410Y0035804D01*
X0053462Y0035785D01*
X0053514Y0035761D01*
X0053564Y0035735D01*
X0053611Y0035705D01*
X0053657Y0035672D01*
X0053701Y0035637D01*
X0053742Y0035598D01*
X0053781Y0035557D01*
X0053816Y0035514D01*
X0053849Y0035468D01*
X0053879Y0035420D01*
X0053906Y0035371D01*
X0053929Y0035320D01*
X0053949Y0035267D01*
X0052317Y0035267D02*
X0052269Y0035165D01*
X0052225Y0035062D01*
X0052184Y0034958D01*
X0052147Y0034852D01*
X0052113Y0034745D01*
X0052083Y0034637D01*
X0052056Y0034528D01*
X0052032Y0034419D01*
X0052012Y0034308D01*
X0051996Y0034197D01*
X0051983Y0034086D01*
X0051974Y0033974D01*
X0051969Y0033862D01*
X0051967Y0033750D01*
X0054300Y0033750D02*
X0054298Y0033862D01*
X0054293Y0033974D01*
X0054284Y0034086D01*
X0054271Y0034197D01*
X0054255Y0034308D01*
X0054235Y0034419D01*
X0054211Y0034528D01*
X0054184Y0034637D01*
X0054154Y0034745D01*
X0054120Y0034852D01*
X0054083Y0034958D01*
X0054042Y0035062D01*
X0053998Y0035165D01*
X0053950Y0035267D01*
X0051967Y0033750D02*
X0051969Y0033638D01*
X0051974Y0033526D01*
X0051983Y0033414D01*
X0051996Y0033303D01*
X0052012Y0033192D01*
X0052032Y0033081D01*
X0052056Y0032972D01*
X0052083Y0032863D01*
X0052113Y0032755D01*
X0052147Y0032648D01*
X0052184Y0032542D01*
X0052225Y0032438D01*
X0052269Y0032335D01*
X0052317Y0032233D01*
X0053133Y0031650D02*
X0053189Y0031652D01*
X0053245Y0031657D01*
X0053301Y0031667D01*
X0053356Y0031679D01*
X0053410Y0031696D01*
X0053462Y0031715D01*
X0053514Y0031739D01*
X0053564Y0031765D01*
X0053611Y0031795D01*
X0053657Y0031827D01*
X0053701Y0031863D01*
X0053742Y0031902D01*
X0053781Y0031943D01*
X0053816Y0031986D01*
X0053849Y0032032D01*
X0053879Y0032080D01*
X0053906Y0032129D01*
X0053929Y0032180D01*
X0053949Y0032233D01*
X0053133Y0031650D02*
X0053077Y0031652D01*
X0053021Y0031657D01*
X0052965Y0031667D01*
X0052910Y0031679D01*
X0052856Y0031696D01*
X0052804Y0031715D01*
X0052752Y0031739D01*
X0052702Y0031765D01*
X0052655Y0031795D01*
X0052609Y0031827D01*
X0052565Y0031863D01*
X0052524Y0031902D01*
X0052485Y0031943D01*
X0052450Y0031986D01*
X0052417Y0032032D01*
X0052387Y0032080D01*
X0052360Y0032129D01*
X0052337Y0032180D01*
X0052317Y0032233D01*
X0056233Y0031650D02*
X0059033Y0035850D01*
X0056233Y0035850D02*
X0059033Y0031650D01*
X0059033Y0133650D02*
X0056233Y0137850D01*
X0051967Y0135750D02*
X0051969Y0135638D01*
X0051974Y0135526D01*
X0051983Y0135414D01*
X0051996Y0135303D01*
X0052012Y0135192D01*
X0052032Y0135081D01*
X0052056Y0134972D01*
X0052083Y0134863D01*
X0052113Y0134755D01*
X0052147Y0134648D01*
X0052184Y0134542D01*
X0052225Y0134438D01*
X0052269Y0134335D01*
X0052317Y0134233D01*
X0053133Y0133650D02*
X0053189Y0133652D01*
X0053245Y0133657D01*
X0053301Y0133667D01*
X0053356Y0133679D01*
X0053410Y0133696D01*
X0053462Y0133715D01*
X0053514Y0133739D01*
X0053564Y0133765D01*
X0053611Y0133795D01*
X0053657Y0133827D01*
X0053701Y0133863D01*
X0053742Y0133902D01*
X0053781Y0133943D01*
X0053816Y0133986D01*
X0053849Y0134032D01*
X0053879Y0134080D01*
X0053906Y0134129D01*
X0053929Y0134180D01*
X0053949Y0134233D01*
X0054067Y0134583D02*
X0052200Y0136917D01*
X0052317Y0137267D02*
X0052337Y0137320D01*
X0052360Y0137371D01*
X0052387Y0137420D01*
X0052417Y0137468D01*
X0052450Y0137514D01*
X0052485Y0137557D01*
X0052524Y0137598D01*
X0052565Y0137637D01*
X0052609Y0137673D01*
X0052655Y0137705D01*
X0052702Y0137735D01*
X0052752Y0137761D01*
X0052804Y0137785D01*
X0052856Y0137804D01*
X0052910Y0137821D01*
X0052965Y0137833D01*
X0053021Y0137843D01*
X0053077Y0137848D01*
X0053133Y0137850D01*
X0053189Y0137848D01*
X0053245Y0137843D01*
X0053301Y0137833D01*
X0053356Y0137821D01*
X0053410Y0137804D01*
X0053462Y0137785D01*
X0053514Y0137761D01*
X0053564Y0137735D01*
X0053611Y0137705D01*
X0053657Y0137672D01*
X0053701Y0137637D01*
X0053742Y0137598D01*
X0053781Y0137557D01*
X0053816Y0137514D01*
X0053849Y0137468D01*
X0053879Y0137420D01*
X0053906Y0137371D01*
X0053929Y0137320D01*
X0053949Y0137267D01*
X0052317Y0137267D02*
X0052269Y0137165D01*
X0052225Y0137062D01*
X0052184Y0136958D01*
X0052147Y0136852D01*
X0052113Y0136745D01*
X0052083Y0136637D01*
X0052056Y0136528D01*
X0052032Y0136419D01*
X0052012Y0136308D01*
X0051996Y0136197D01*
X0051983Y0136086D01*
X0051974Y0135974D01*
X0051969Y0135862D01*
X0051967Y0135750D01*
X0054300Y0135750D02*
X0054298Y0135862D01*
X0054293Y0135974D01*
X0054284Y0136086D01*
X0054271Y0136197D01*
X0054255Y0136308D01*
X0054235Y0136419D01*
X0054211Y0136528D01*
X0054184Y0136637D01*
X0054154Y0136745D01*
X0054120Y0136852D01*
X0054083Y0136958D01*
X0054042Y0137062D01*
X0053998Y0137165D01*
X0053950Y0137267D01*
X0052317Y0134233D02*
X0052337Y0134180D01*
X0052360Y0134129D01*
X0052387Y0134080D01*
X0052417Y0134032D01*
X0052450Y0133986D01*
X0052485Y0133943D01*
X0052524Y0133902D01*
X0052565Y0133863D01*
X0052609Y0133827D01*
X0052655Y0133795D01*
X0052702Y0133765D01*
X0052752Y0133739D01*
X0052804Y0133715D01*
X0052856Y0133696D01*
X0052910Y0133679D01*
X0052965Y0133667D01*
X0053021Y0133657D01*
X0053077Y0133652D01*
X0053133Y0133650D01*
X0056233Y0133650D02*
X0059033Y0137850D01*
X0054300Y0135750D02*
X0054298Y0135638D01*
X0054293Y0135526D01*
X0054284Y0135414D01*
X0054271Y0135303D01*
X0054255Y0135192D01*
X0054235Y0135081D01*
X0054211Y0134972D01*
X0054184Y0134863D01*
X0054154Y0134755D01*
X0054120Y0134648D01*
X0054083Y0134542D01*
X0054042Y0134438D01*
X0053998Y0134335D01*
X0053950Y0134233D01*
X0049800Y0133650D02*
X0047467Y0133650D01*
X0048633Y0133650D02*
X0048633Y0137850D01*
X0049800Y0136917D01*
X0049800Y0235650D02*
X0047467Y0235650D01*
X0048633Y0235650D02*
X0048633Y0239850D01*
X0049800Y0238917D01*
X0054300Y0237750D02*
X0054298Y0237638D01*
X0054293Y0237526D01*
X0054284Y0237414D01*
X0054271Y0237303D01*
X0054255Y0237192D01*
X0054235Y0237081D01*
X0054211Y0236972D01*
X0054184Y0236863D01*
X0054154Y0236755D01*
X0054120Y0236648D01*
X0054083Y0236542D01*
X0054042Y0236438D01*
X0053998Y0236335D01*
X0053950Y0236233D01*
X0054067Y0236583D02*
X0052200Y0238917D01*
X0052317Y0239267D02*
X0052337Y0239320D01*
X0052360Y0239371D01*
X0052387Y0239420D01*
X0052417Y0239468D01*
X0052450Y0239514D01*
X0052485Y0239557D01*
X0052524Y0239598D01*
X0052565Y0239637D01*
X0052609Y0239673D01*
X0052655Y0239705D01*
X0052702Y0239735D01*
X0052752Y0239761D01*
X0052804Y0239785D01*
X0052856Y0239804D01*
X0052910Y0239821D01*
X0052965Y0239833D01*
X0053021Y0239843D01*
X0053077Y0239848D01*
X0053133Y0239850D01*
X0053189Y0239848D01*
X0053245Y0239843D01*
X0053301Y0239833D01*
X0053356Y0239821D01*
X0053410Y0239804D01*
X0053462Y0239785D01*
X0053514Y0239761D01*
X0053564Y0239735D01*
X0053611Y0239705D01*
X0053657Y0239672D01*
X0053701Y0239637D01*
X0053742Y0239598D01*
X0053781Y0239557D01*
X0053816Y0239514D01*
X0053849Y0239468D01*
X0053879Y0239420D01*
X0053906Y0239371D01*
X0053929Y0239320D01*
X0053949Y0239267D01*
X0052317Y0239267D02*
X0052269Y0239165D01*
X0052225Y0239062D01*
X0052184Y0238958D01*
X0052147Y0238852D01*
X0052113Y0238745D01*
X0052083Y0238637D01*
X0052056Y0238528D01*
X0052032Y0238419D01*
X0052012Y0238308D01*
X0051996Y0238197D01*
X0051983Y0238086D01*
X0051974Y0237974D01*
X0051969Y0237862D01*
X0051967Y0237750D01*
X0054300Y0237750D02*
X0054298Y0237862D01*
X0054293Y0237974D01*
X0054284Y0238086D01*
X0054271Y0238197D01*
X0054255Y0238308D01*
X0054235Y0238419D01*
X0054211Y0238528D01*
X0054184Y0238637D01*
X0054154Y0238745D01*
X0054120Y0238852D01*
X0054083Y0238958D01*
X0054042Y0239062D01*
X0053998Y0239165D01*
X0053950Y0239267D01*
X0051967Y0237750D02*
X0051969Y0237638D01*
X0051974Y0237526D01*
X0051983Y0237414D01*
X0051996Y0237303D01*
X0052012Y0237192D01*
X0052032Y0237081D01*
X0052056Y0236972D01*
X0052083Y0236863D01*
X0052113Y0236755D01*
X0052147Y0236648D01*
X0052184Y0236542D01*
X0052225Y0236438D01*
X0052269Y0236335D01*
X0052317Y0236233D01*
X0053133Y0235650D02*
X0053189Y0235652D01*
X0053245Y0235657D01*
X0053301Y0235667D01*
X0053356Y0235679D01*
X0053410Y0235696D01*
X0053462Y0235715D01*
X0053514Y0235739D01*
X0053564Y0235765D01*
X0053611Y0235795D01*
X0053657Y0235827D01*
X0053701Y0235863D01*
X0053742Y0235902D01*
X0053781Y0235943D01*
X0053816Y0235986D01*
X0053849Y0236032D01*
X0053879Y0236080D01*
X0053906Y0236129D01*
X0053929Y0236180D01*
X0053949Y0236233D01*
X0053133Y0235650D02*
X0053077Y0235652D01*
X0053021Y0235657D01*
X0052965Y0235667D01*
X0052910Y0235679D01*
X0052856Y0235696D01*
X0052804Y0235715D01*
X0052752Y0235739D01*
X0052702Y0235765D01*
X0052655Y0235795D01*
X0052609Y0235827D01*
X0052565Y0235863D01*
X0052524Y0235902D01*
X0052485Y0235943D01*
X0052450Y0235986D01*
X0052417Y0236032D01*
X0052387Y0236080D01*
X0052360Y0236129D01*
X0052337Y0236180D01*
X0052317Y0236233D01*
X0056233Y0235650D02*
X0059033Y0239850D01*
X0056233Y0239850D02*
X0059033Y0235650D01*
D11*
X0060750Y0282750D03*
X0056750Y0282750D03*
X0064750Y0282750D03*
X0077150Y0282750D03*
X0080350Y0282750D03*
X0080350Y0180750D03*
X0077150Y0180750D03*
X0064750Y0180750D03*
X0060750Y0180750D03*
X0056750Y0180750D03*
X0056750Y0078750D03*
X0060750Y0078750D03*
X0064750Y0078750D03*
X0077150Y0078750D03*
X0080350Y0078750D03*
D12*
X0062750Y0078750D03*
X0058750Y0078750D03*
X0058750Y0180750D03*
X0062750Y0180750D03*
X0062750Y0282750D03*
X0058750Y0282750D03*
D13*
X0033750Y0277750D03*
X0033750Y0287750D03*
X0033750Y0297750D03*
X0033750Y0307750D03*
X0033750Y0267750D03*
X0033750Y0257750D03*
X0033750Y0205750D03*
X0033750Y0195750D03*
X0033750Y0185750D03*
X0033750Y0175750D03*
X0033750Y0165750D03*
X0033750Y0155750D03*
X0033750Y0103750D03*
X0033750Y0093750D03*
X0033750Y0083750D03*
X0033750Y0073750D03*
X0033750Y0063750D03*
X0033750Y0053750D03*
X0383750Y0063750D03*
X0383750Y0073750D03*
X0383750Y0083750D03*
X0383750Y0093750D03*
X0383750Y0165750D03*
X0383750Y0175750D03*
X0383750Y0185750D03*
X0383750Y0195750D03*
X0383750Y0267750D03*
X0383750Y0277750D03*
X0383750Y0287750D03*
X0383750Y0297750D03*
D14*
X0031750Y0031750D03*
X0031750Y0133750D03*
X0031750Y0235750D03*
X0385250Y0227250D03*
X0385250Y0125250D03*
X0385250Y0329250D03*
D15*
X0098750Y0292750D03*
X0098750Y0282750D03*
X0088750Y0282750D03*
X0088750Y0292750D03*
X0088750Y0272750D03*
X0098750Y0272750D03*
X0098750Y0190750D03*
X0098750Y0180750D03*
X0088750Y0180750D03*
X0088750Y0190750D03*
X0088750Y0170750D03*
X0098750Y0170750D03*
X0098750Y0088750D03*
X0088750Y0088750D03*
X0088750Y0078750D03*
X0088750Y0068750D03*
X0098750Y0068750D03*
X0098750Y0078750D03*
D16*
X0118750Y0078750D03*
X0118750Y0074750D03*
X0118750Y0082750D03*
X0118750Y0176750D03*
X0118750Y0180750D03*
X0118750Y0184750D03*
X0118750Y0278750D03*
X0118750Y0282750D03*
X0118750Y0286750D03*
D17*
X0118750Y0284750D03*
X0118750Y0182750D03*
X0118750Y0080750D03*
D18*
X0114250Y0086250D03*
X0094194Y0084194D03*
X0094650Y0080994D03*
X0088750Y0074750D03*
X0101750Y0062750D03*
X0095750Y0055250D03*
X0087750Y0042750D03*
X0078750Y0053750D03*
X0076750Y0058750D03*
X0068750Y0063750D03*
X0066750Y0054750D03*
X0063750Y0048750D03*
X0058750Y0060750D03*
X0052250Y0067750D03*
X0064250Y0072250D03*
X0073750Y0074250D03*
X0073694Y0084194D03*
X0073750Y0093750D03*
X0087750Y0098750D03*
X0095719Y0097750D03*
X0099750Y0101750D03*
X0135750Y0098750D03*
X0087750Y0144750D03*
X0078750Y0155750D03*
X0076750Y0160750D03*
X0068750Y0165750D03*
X0066750Y0156750D03*
X0063750Y0150750D03*
X0058750Y0162750D03*
X0052250Y0169750D03*
X0064250Y0174250D03*
X0073750Y0176250D03*
X0073694Y0186194D03*
X0073750Y0195750D03*
X0087750Y0200750D03*
X0095719Y0199750D03*
X0099750Y0203750D03*
X0094194Y0186194D03*
X0094650Y0182994D03*
X0088750Y0176750D03*
X0101750Y0164750D03*
X0095750Y0157250D03*
X0108750Y0149750D03*
X0114250Y0188250D03*
X0135750Y0200750D03*
X0087750Y0246750D03*
X0078750Y0257750D03*
X0076750Y0262750D03*
X0068750Y0267750D03*
X0066750Y0258750D03*
X0063750Y0252750D03*
X0058750Y0264750D03*
X0052250Y0271750D03*
X0064250Y0276250D03*
X0073750Y0278250D03*
X0073694Y0288194D03*
X0073750Y0297750D03*
X0087750Y0302750D03*
X0095719Y0301750D03*
X0099750Y0305750D03*
X0114250Y0290250D03*
X0094194Y0288194D03*
X0094650Y0284994D03*
X0088750Y0278750D03*
X0101750Y0266750D03*
X0095750Y0259250D03*
X0108750Y0251750D03*
X0058750Y0300250D03*
X0135750Y0302750D03*
X0058750Y0198250D03*
X0058750Y0096250D03*
X0108750Y0047750D03*
D19*
X0109750Y0051250D02*
X0112250Y0053750D01*
X0118750Y0060250D01*
X0118750Y0074750D01*
X0118750Y0078750D02*
X0129250Y0078750D01*
X0135250Y0084750D01*
X0135250Y0098250D01*
X0135750Y0098750D01*
X0118750Y0082750D02*
X0110719Y0082750D01*
X0095719Y0097750D01*
X0109750Y0051250D02*
X0051250Y0051250D01*
X0038750Y0063750D01*
X0033750Y0063750D01*
X0051250Y0153250D02*
X0038750Y0165750D01*
X0033750Y0165750D01*
X0051250Y0153250D02*
X0109750Y0153250D01*
X0112250Y0155750D01*
X0118750Y0162250D01*
X0118750Y0176750D01*
X0118750Y0180750D02*
X0129250Y0180750D01*
X0135250Y0186750D01*
X0135250Y0200250D01*
X0135750Y0200750D01*
X0118750Y0184750D02*
X0110719Y0184750D01*
X0095719Y0199750D01*
X0109750Y0255250D02*
X0051250Y0255250D01*
X0038750Y0267750D01*
X0033750Y0267750D01*
X0095719Y0301750D02*
X0110719Y0286750D01*
X0118750Y0286750D01*
X0118750Y0282750D02*
X0129250Y0282750D01*
X0135250Y0288750D01*
X0135250Y0302250D01*
X0135750Y0302750D01*
X0118750Y0278750D02*
X0118750Y0264250D01*
X0112250Y0257750D01*
X0109750Y0255250D01*
D20*
X0111168Y0253415D02*
X0386650Y0253415D01*
X0386650Y0252417D02*
X0030850Y0252417D01*
X0031025Y0253303D02*
X0031754Y0252931D01*
X0032532Y0252678D01*
X0033250Y0252564D01*
X0033250Y0257250D01*
X0034250Y0257250D01*
X0034250Y0258250D01*
X0038936Y0258250D01*
X0038822Y0258968D01*
X0038569Y0259746D01*
X0038197Y0260475D01*
X0037716Y0261138D01*
X0037138Y0261716D01*
X0036475Y0262197D01*
X0035746Y0262569D01*
X0035526Y0262641D01*
X0036809Y0263172D01*
X0038328Y0264691D01*
X0038395Y0264853D01*
X0050297Y0252950D01*
X0110703Y0252950D01*
X0112353Y0254600D01*
X0112877Y0254600D01*
X0114034Y0255080D01*
X0114920Y0255966D01*
X0115400Y0257123D01*
X0115400Y0257647D01*
X0121050Y0263297D01*
X0121050Y0275800D01*
X0121954Y0275800D01*
X0122950Y0276796D01*
X0122950Y0280450D01*
X0130203Y0280450D01*
X0137550Y0287797D01*
X0137550Y0289703D01*
X0137550Y0300307D01*
X0138293Y0301051D01*
X0138750Y0302153D01*
X0138750Y0303347D01*
X0138293Y0304449D01*
X0137449Y0305293D01*
X0136347Y0305750D01*
X0135153Y0305750D01*
X0134051Y0305293D01*
X0133207Y0304449D01*
X0132750Y0303347D01*
X0132750Y0302153D01*
X0132950Y0301670D01*
X0132950Y0289703D01*
X0128297Y0285050D01*
X0122950Y0285050D01*
X0122950Y0288704D01*
X0121954Y0289700D01*
X0115546Y0289700D01*
X0114896Y0289050D01*
X0111671Y0289050D01*
X0098718Y0302003D01*
X0098718Y0302347D01*
X0098262Y0303449D01*
X0097418Y0304293D01*
X0096315Y0304750D01*
X0095122Y0304750D01*
X0094019Y0304293D01*
X0093175Y0303449D01*
X0092719Y0302347D01*
X0092719Y0301153D01*
X0093175Y0300051D01*
X0094019Y0299207D01*
X0095122Y0298750D01*
X0095466Y0298750D01*
X0098068Y0296148D01*
X0096824Y0295632D01*
X0095868Y0294676D01*
X0095350Y0293426D01*
X0095350Y0292978D01*
X0089750Y0298578D01*
X0089750Y0300507D01*
X0090293Y0301051D01*
X0090750Y0302153D01*
X0090750Y0303347D01*
X0090293Y0304449D01*
X0089449Y0305293D01*
X0088347Y0305750D01*
X0087153Y0305750D01*
X0086051Y0305293D01*
X0085207Y0304449D01*
X0084750Y0303347D01*
X0084750Y0302153D01*
X0085207Y0301051D01*
X0085750Y0300507D01*
X0085750Y0296922D01*
X0086976Y0295695D01*
X0086824Y0295632D01*
X0085868Y0294676D01*
X0085350Y0293426D01*
X0085350Y0292074D01*
X0085868Y0290824D01*
X0086497Y0290194D01*
X0075937Y0290194D01*
X0075394Y0290738D01*
X0074291Y0291194D01*
X0073098Y0291194D01*
X0071995Y0290738D01*
X0071151Y0289894D01*
X0070694Y0288791D01*
X0070694Y0287598D01*
X0071151Y0286495D01*
X0071995Y0285651D01*
X0073098Y0285194D01*
X0074200Y0285194D01*
X0074200Y0281250D01*
X0073153Y0281250D01*
X0072051Y0280793D01*
X0071207Y0279949D01*
X0070750Y0278847D01*
X0070750Y0277653D01*
X0071207Y0276551D01*
X0072051Y0275707D01*
X0073153Y0275250D01*
X0074347Y0275250D01*
X0075449Y0275707D01*
X0075993Y0276250D01*
X0083578Y0276250D01*
X0085750Y0278422D01*
X0085750Y0278153D01*
X0086207Y0277051D01*
X0087051Y0276207D01*
X0087918Y0275847D01*
X0087817Y0275827D01*
X0087234Y0275586D01*
X0086710Y0275236D01*
X0086264Y0274790D01*
X0085914Y0274266D01*
X0085673Y0273683D01*
X0085550Y0273065D01*
X0085550Y0272750D01*
X0088750Y0272750D01*
X0091950Y0272750D01*
X0091950Y0273065D01*
X0091827Y0273683D01*
X0091586Y0274266D01*
X0091236Y0274790D01*
X0090790Y0275236D01*
X0090266Y0275586D01*
X0089683Y0275827D01*
X0089582Y0275847D01*
X0090449Y0276207D01*
X0090993Y0276750D01*
X0091922Y0276750D01*
X0095350Y0273322D01*
X0095350Y0272074D01*
X0095868Y0270824D01*
X0096824Y0269868D01*
X0097108Y0269750D01*
X0089869Y0269750D01*
X0090266Y0269914D01*
X0090790Y0270264D01*
X0091236Y0270710D01*
X0091586Y0271234D01*
X0091827Y0271817D01*
X0091950Y0272435D01*
X0091950Y0272750D01*
X0088750Y0272750D01*
X0088750Y0272750D01*
X0088750Y0272750D01*
X0085550Y0272750D01*
X0085550Y0272435D01*
X0085673Y0271817D01*
X0085914Y0271234D01*
X0086264Y0270710D01*
X0086710Y0270264D01*
X0087234Y0269914D01*
X0087631Y0269750D01*
X0073578Y0269750D01*
X0067250Y0276078D01*
X0067250Y0276847D01*
X0066793Y0277949D01*
X0066193Y0278550D01*
X0066704Y0278550D01*
X0067700Y0279546D01*
X0067700Y0285954D01*
X0066750Y0286904D01*
X0066750Y0287578D01*
X0060750Y0293578D01*
X0060750Y0298007D01*
X0061293Y0298551D01*
X0061750Y0299653D01*
X0061750Y0300847D01*
X0061293Y0301949D01*
X0060449Y0302793D01*
X0059347Y0303250D01*
X0058153Y0303250D01*
X0057051Y0302793D01*
X0056207Y0301949D01*
X0055750Y0300847D01*
X0055750Y0299653D01*
X0056207Y0298551D01*
X0056750Y0298007D01*
X0056750Y0293361D01*
X0051450Y0298661D01*
X0050161Y0299950D01*
X0038684Y0299950D01*
X0038328Y0300809D01*
X0036809Y0302328D01*
X0035526Y0302859D01*
X0035746Y0302931D01*
X0036475Y0303303D01*
X0037138Y0303784D01*
X0037716Y0304362D01*
X0038197Y0305025D01*
X0038569Y0305754D01*
X0038822Y0306532D01*
X0038936Y0307250D01*
X0034250Y0307250D01*
X0034250Y0308250D01*
X0033250Y0308250D01*
X0033250Y0312936D01*
X0032532Y0312822D01*
X0031754Y0312569D01*
X0031025Y0312197D01*
X0030850Y0312071D01*
X0030850Y0317541D01*
X0032615Y0315438D01*
X0035485Y0313781D01*
X0035485Y0313781D01*
X0038750Y0313205D01*
X0042015Y0313781D01*
X0044885Y0315438D01*
X0044885Y0315438D01*
X0047016Y0317977D01*
X0047016Y0317977D01*
X0048150Y0321093D01*
X0048150Y0324407D01*
X0047016Y0327522D01*
X0047016Y0327523D01*
X0044885Y0330062D01*
X0043867Y0330650D01*
X0373541Y0330650D01*
X0371438Y0328885D01*
X0369781Y0326015D01*
X0369205Y0322750D01*
X0369205Y0322750D01*
X0369781Y0319485D01*
X0371438Y0316615D01*
X0371438Y0316615D01*
X0373977Y0314484D01*
X0373977Y0314484D01*
X0377093Y0313350D01*
X0380407Y0313350D01*
X0383522Y0314484D01*
X0383523Y0314484D01*
X0386062Y0316615D01*
X0386650Y0317633D01*
X0386650Y0302394D01*
X0384824Y0303150D01*
X0382676Y0303150D01*
X0380691Y0302328D01*
X0379172Y0300809D01*
X0378350Y0298824D01*
X0378350Y0296676D01*
X0379172Y0294691D01*
X0380691Y0293172D01*
X0381710Y0292750D01*
X0380691Y0292328D01*
X0379172Y0290809D01*
X0378350Y0288824D01*
X0378350Y0286676D01*
X0379172Y0284691D01*
X0380691Y0283172D01*
X0381710Y0282750D01*
X0380691Y0282328D01*
X0379172Y0280809D01*
X0378350Y0278824D01*
X0378350Y0276676D01*
X0379172Y0274691D01*
X0380691Y0273172D01*
X0381974Y0272641D01*
X0381754Y0272569D01*
X0381025Y0272197D01*
X0380362Y0271716D01*
X0379784Y0271138D01*
X0379303Y0270475D01*
X0378931Y0269746D01*
X0378678Y0268968D01*
X0378564Y0268250D01*
X0383250Y0268250D01*
X0383250Y0267250D01*
X0384250Y0267250D01*
X0384250Y0262564D01*
X0384968Y0262678D01*
X0385746Y0262931D01*
X0386475Y0263303D01*
X0386650Y0263429D01*
X0386650Y0247867D01*
X0386062Y0248885D01*
X0386062Y0248885D01*
X0383523Y0251016D01*
X0383522Y0251016D01*
X0380407Y0252150D01*
X0377093Y0252150D01*
X0373977Y0251016D01*
X0371438Y0248885D01*
X0369781Y0246015D01*
X0369205Y0242750D01*
X0369205Y0242750D01*
X0369781Y0239485D01*
X0371438Y0236615D01*
X0371438Y0236615D01*
X0373541Y0234850D01*
X0061015Y0234850D01*
X0061263Y0236091D01*
X0060157Y0237750D01*
X0061263Y0239409D01*
X0060922Y0241115D01*
X0059474Y0242080D01*
X0057769Y0241739D01*
X0057633Y0241536D01*
X0057498Y0241739D01*
X0055792Y0242080D01*
X0054814Y0241428D01*
X0054083Y0241950D01*
X0052184Y0241950D01*
X0050697Y0240888D01*
X0050036Y0241417D01*
X0049503Y0241950D01*
X0049370Y0241950D01*
X0049266Y0242033D01*
X0048517Y0241950D01*
X0048150Y0241950D01*
X0048150Y0244407D01*
X0047016Y0247522D01*
X0047016Y0247523D01*
X0044885Y0250062D01*
X0042015Y0251719D01*
X0042015Y0251719D01*
X0038750Y0252295D01*
X0035485Y0251719D01*
X0032615Y0250062D01*
X0032615Y0250062D01*
X0030850Y0247959D01*
X0030850Y0253429D01*
X0031025Y0253303D01*
X0030870Y0253415D02*
X0030850Y0253415D01*
X0030850Y0251418D02*
X0034963Y0251418D01*
X0035485Y0251719D02*
X0035485Y0251719D01*
X0034968Y0252678D02*
X0035746Y0252931D01*
X0036475Y0253303D01*
X0037138Y0253784D01*
X0037716Y0254362D01*
X0038197Y0255025D01*
X0038569Y0255754D01*
X0038822Y0256532D01*
X0038936Y0257250D01*
X0034250Y0257250D01*
X0034250Y0252564D01*
X0034968Y0252678D01*
X0034250Y0253415D02*
X0033250Y0253415D01*
X0033250Y0254414D02*
X0034250Y0254414D01*
X0034250Y0255412D02*
X0033250Y0255412D01*
X0033250Y0256411D02*
X0034250Y0256411D01*
X0034250Y0257409D02*
X0045838Y0257409D01*
X0044840Y0258408D02*
X0038911Y0258408D01*
X0038679Y0259406D02*
X0043841Y0259406D01*
X0042843Y0260405D02*
X0038233Y0260405D01*
X0037451Y0261403D02*
X0041844Y0261403D01*
X0040846Y0262402D02*
X0036075Y0262402D01*
X0037037Y0263400D02*
X0039847Y0263400D01*
X0038849Y0264399D02*
X0038035Y0264399D01*
X0041360Y0268393D02*
X0046750Y0268393D01*
X0046750Y0269391D02*
X0040361Y0269391D01*
X0039703Y0270050D02*
X0038642Y0270050D01*
X0038328Y0270809D01*
X0036809Y0272328D01*
X0035790Y0272750D01*
X0036809Y0273172D01*
X0038328Y0274691D01*
X0039150Y0276676D01*
X0039150Y0278824D01*
X0038657Y0280015D01*
X0046750Y0271922D01*
X0046750Y0266922D01*
X0053922Y0259750D01*
X0067578Y0259750D01*
X0068750Y0260922D01*
X0073578Y0265750D01*
X0093750Y0265750D01*
X0093750Y0261493D01*
X0093207Y0260949D01*
X0092750Y0259847D01*
X0092750Y0258653D01*
X0093207Y0257551D01*
X0093207Y0257550D01*
X0081750Y0257550D01*
X0081750Y0258347D01*
X0081293Y0259449D01*
X0080449Y0260293D01*
X0079347Y0260750D01*
X0078153Y0260750D01*
X0077051Y0260293D01*
X0076207Y0259449D01*
X0075750Y0258347D01*
X0075750Y0257550D01*
X0052203Y0257550D01*
X0039703Y0270050D01*
X0038501Y0270390D02*
X0046750Y0270390D01*
X0046750Y0271388D02*
X0037748Y0271388D01*
X0036667Y0272387D02*
X0046285Y0272387D01*
X0045286Y0273385D02*
X0037022Y0273385D01*
X0038021Y0274384D02*
X0044288Y0274384D01*
X0043289Y0275382D02*
X0038614Y0275382D01*
X0039028Y0276381D02*
X0042291Y0276381D01*
X0041292Y0277379D02*
X0039150Y0277379D01*
X0039150Y0278378D02*
X0040294Y0278378D01*
X0039295Y0279376D02*
X0038921Y0279376D01*
X0041957Y0282372D02*
X0053800Y0282372D01*
X0053800Y0283370D02*
X0040958Y0283370D01*
X0039960Y0284369D02*
X0053800Y0284369D01*
X0053800Y0285367D02*
X0038961Y0285367D01*
X0038711Y0285617D02*
X0039150Y0286676D01*
X0039150Y0288824D01*
X0038328Y0290809D01*
X0036809Y0292328D01*
X0035790Y0292750D01*
X0036809Y0293172D01*
X0038328Y0294691D01*
X0038684Y0295550D01*
X0048339Y0295550D01*
X0056939Y0286950D01*
X0054796Y0286950D01*
X0053800Y0285954D01*
X0053800Y0279546D01*
X0054750Y0278596D01*
X0054750Y0275422D01*
X0055922Y0274250D01*
X0056750Y0273422D01*
X0056750Y0266993D01*
X0056207Y0266449D01*
X0055750Y0265347D01*
X0055750Y0264153D01*
X0055917Y0263750D01*
X0055578Y0263750D01*
X0050750Y0268578D01*
X0050750Y0273578D01*
X0038711Y0285617D01*
X0039022Y0286366D02*
X0054212Y0286366D01*
X0055526Y0288363D02*
X0039150Y0288363D01*
X0039150Y0287364D02*
X0056524Y0287364D01*
X0054527Y0289361D02*
X0038927Y0289361D01*
X0038514Y0290360D02*
X0053529Y0290360D01*
X0052530Y0291358D02*
X0037778Y0291358D01*
X0036739Y0292357D02*
X0051532Y0292357D01*
X0050533Y0293355D02*
X0036992Y0293355D01*
X0037991Y0294354D02*
X0049535Y0294354D01*
X0048536Y0295353D02*
X0038602Y0295353D01*
X0038520Y0300345D02*
X0055750Y0300345D01*
X0055877Y0299347D02*
X0050765Y0299347D01*
X0051763Y0298348D02*
X0056409Y0298348D01*
X0056750Y0297350D02*
X0052762Y0297350D01*
X0053760Y0296351D02*
X0056750Y0296351D01*
X0056750Y0295353D02*
X0054759Y0295353D01*
X0055757Y0294354D02*
X0056750Y0294354D01*
X0060750Y0294354D02*
X0085734Y0294354D01*
X0085350Y0293355D02*
X0060973Y0293355D01*
X0061971Y0292357D02*
X0085350Y0292357D01*
X0085646Y0291358D02*
X0062970Y0291358D01*
X0063968Y0290360D02*
X0071617Y0290360D01*
X0070931Y0289361D02*
X0064967Y0289361D01*
X0065965Y0288363D02*
X0070694Y0288363D01*
X0070791Y0287364D02*
X0066750Y0287364D01*
X0067288Y0286366D02*
X0071280Y0286366D01*
X0072680Y0285367D02*
X0067700Y0285367D01*
X0067700Y0284369D02*
X0074200Y0284369D01*
X0074200Y0283370D02*
X0067700Y0283370D01*
X0067700Y0282372D02*
X0074200Y0282372D01*
X0074200Y0281373D02*
X0067700Y0281373D01*
X0067700Y0280375D02*
X0071632Y0280375D01*
X0070969Y0279376D02*
X0067530Y0279376D01*
X0066365Y0278378D02*
X0070750Y0278378D01*
X0070863Y0277379D02*
X0067029Y0277379D01*
X0067250Y0276381D02*
X0071377Y0276381D01*
X0072834Y0275382D02*
X0067946Y0275382D01*
X0068945Y0274384D02*
X0085993Y0274384D01*
X0085614Y0273385D02*
X0069943Y0273385D01*
X0070942Y0272387D02*
X0085560Y0272387D01*
X0085850Y0271388D02*
X0071940Y0271388D01*
X0072939Y0270390D02*
X0086585Y0270390D01*
X0090915Y0270390D02*
X0096302Y0270390D01*
X0095634Y0271388D02*
X0091650Y0271388D01*
X0091940Y0272387D02*
X0095350Y0272387D01*
X0095286Y0273385D02*
X0091886Y0273385D01*
X0091507Y0274384D02*
X0094288Y0274384D01*
X0093289Y0275382D02*
X0090570Y0275382D01*
X0090623Y0276381D02*
X0092291Y0276381D01*
X0095933Y0280375D02*
X0096317Y0280375D01*
X0095942Y0280750D02*
X0096824Y0279868D01*
X0098074Y0279350D01*
X0099426Y0279350D01*
X0100676Y0279868D01*
X0101632Y0280824D01*
X0102150Y0282074D01*
X0102150Y0283426D01*
X0101632Y0284676D01*
X0100750Y0285558D01*
X0100750Y0287578D01*
X0099578Y0288750D01*
X0098978Y0289350D01*
X0099426Y0289350D01*
X0100676Y0289868D01*
X0101632Y0290824D01*
X0102148Y0292068D01*
X0109766Y0284450D01*
X0114550Y0284450D01*
X0114550Y0280796D01*
X0114596Y0280750D01*
X0114550Y0280704D01*
X0114550Y0276796D01*
X0115546Y0275800D01*
X0116450Y0275800D01*
X0116450Y0265203D01*
X0112147Y0260900D01*
X0111623Y0260900D01*
X0110466Y0260420D01*
X0109580Y0259534D01*
X0109100Y0258377D01*
X0109100Y0257853D01*
X0108797Y0257550D01*
X0098293Y0257550D01*
X0098293Y0257551D01*
X0098750Y0258653D01*
X0098750Y0259847D01*
X0098293Y0260949D01*
X0097750Y0261493D01*
X0097750Y0265750D01*
X0099578Y0265750D01*
X0100750Y0266922D01*
X0103750Y0269922D01*
X0103750Y0275078D01*
X0100078Y0278750D01*
X0097558Y0278750D01*
X0095558Y0280750D01*
X0095942Y0280750D01*
X0096932Y0279376D02*
X0098010Y0279376D01*
X0099490Y0279376D02*
X0114550Y0279376D01*
X0114550Y0278378D02*
X0100451Y0278378D01*
X0101449Y0277379D02*
X0114550Y0277379D01*
X0114965Y0276381D02*
X0102448Y0276381D01*
X0103446Y0275382D02*
X0116450Y0275382D01*
X0116450Y0274384D02*
X0103750Y0274384D01*
X0103750Y0273385D02*
X0116450Y0273385D01*
X0116450Y0272387D02*
X0103750Y0272387D01*
X0103750Y0271388D02*
X0116450Y0271388D01*
X0116450Y0270390D02*
X0103750Y0270390D01*
X0103220Y0269391D02*
X0116450Y0269391D01*
X0116450Y0268393D02*
X0102221Y0268393D01*
X0101223Y0267394D02*
X0116450Y0267394D01*
X0116450Y0266396D02*
X0100224Y0266396D01*
X0097750Y0265397D02*
X0116450Y0265397D01*
X0115646Y0264399D02*
X0097750Y0264399D01*
X0097750Y0263400D02*
X0114647Y0263400D01*
X0113649Y0262402D02*
X0097750Y0262402D01*
X0097839Y0261403D02*
X0112650Y0261403D01*
X0110450Y0260405D02*
X0098519Y0260405D01*
X0098750Y0259406D02*
X0109526Y0259406D01*
X0109113Y0258408D02*
X0098648Y0258408D01*
X0093661Y0261403D02*
X0069232Y0261403D01*
X0070230Y0262402D02*
X0093750Y0262402D01*
X0093750Y0263400D02*
X0071229Y0263400D01*
X0072227Y0264399D02*
X0093750Y0264399D01*
X0093750Y0265397D02*
X0073226Y0265397D01*
X0068750Y0267750D02*
X0060750Y0275750D01*
X0060750Y0282750D01*
X0060650Y0282850D01*
X0060650Y0286350D01*
X0049250Y0297750D01*
X0033750Y0297750D01*
X0045750Y0297750D01*
X0047250Y0297750D01*
X0055956Y0301344D02*
X0037793Y0301344D01*
X0036775Y0302342D02*
X0056599Y0302342D01*
X0060901Y0302342D02*
X0084750Y0302342D01*
X0084750Y0303341D02*
X0036528Y0303341D01*
X0037693Y0304339D02*
X0085161Y0304339D01*
X0086158Y0305338D02*
X0038357Y0305338D01*
X0038758Y0306336D02*
X0386650Y0306336D01*
X0386650Y0305338D02*
X0137342Y0305338D01*
X0138339Y0304339D02*
X0386650Y0304339D01*
X0386650Y0303341D02*
X0138750Y0303341D01*
X0138750Y0302342D02*
X0380725Y0302342D01*
X0379707Y0301344D02*
X0138415Y0301344D01*
X0137588Y0300345D02*
X0378980Y0300345D01*
X0378566Y0299347D02*
X0137550Y0299347D01*
X0137550Y0298348D02*
X0378350Y0298348D01*
X0378350Y0297350D02*
X0137550Y0297350D01*
X0137550Y0296351D02*
X0378485Y0296351D01*
X0378898Y0295353D02*
X0137550Y0295353D01*
X0137550Y0294354D02*
X0379509Y0294354D01*
X0380508Y0293355D02*
X0137550Y0293355D01*
X0137550Y0292357D02*
X0380761Y0292357D01*
X0379722Y0291358D02*
X0137550Y0291358D01*
X0137550Y0290360D02*
X0378986Y0290360D01*
X0378573Y0289361D02*
X0137550Y0289361D01*
X0137550Y0288363D02*
X0378350Y0288363D01*
X0378350Y0287364D02*
X0137117Y0287364D01*
X0136119Y0286366D02*
X0378478Y0286366D01*
X0378892Y0285367D02*
X0135120Y0285367D01*
X0134122Y0284369D02*
X0379494Y0284369D01*
X0380493Y0283370D02*
X0133123Y0283370D01*
X0132125Y0282372D02*
X0380797Y0282372D01*
X0379737Y0281373D02*
X0131126Y0281373D01*
X0128615Y0285367D02*
X0122950Y0285367D01*
X0122950Y0286366D02*
X0129613Y0286366D01*
X0130612Y0287364D02*
X0122950Y0287364D01*
X0122950Y0288363D02*
X0131610Y0288363D01*
X0132609Y0289361D02*
X0122293Y0289361D01*
X0115207Y0289361D02*
X0111360Y0289361D01*
X0110361Y0290360D02*
X0132950Y0290360D01*
X0132950Y0291358D02*
X0109363Y0291358D01*
X0108364Y0292357D02*
X0132950Y0292357D01*
X0132950Y0293355D02*
X0107366Y0293355D01*
X0106367Y0294354D02*
X0132950Y0294354D01*
X0132950Y0295353D02*
X0105369Y0295353D01*
X0104370Y0296351D02*
X0132950Y0296351D01*
X0132950Y0297350D02*
X0103372Y0297350D01*
X0102373Y0298348D02*
X0132950Y0298348D01*
X0132950Y0299347D02*
X0101375Y0299347D01*
X0100376Y0300345D02*
X0132950Y0300345D01*
X0132950Y0301344D02*
X0099378Y0301344D01*
X0098718Y0302342D02*
X0132750Y0302342D01*
X0132750Y0303341D02*
X0098307Y0303341D01*
X0097307Y0304339D02*
X0133161Y0304339D01*
X0134158Y0305338D02*
X0089342Y0305338D01*
X0090339Y0304339D02*
X0094130Y0304339D01*
X0093130Y0303341D02*
X0090750Y0303341D01*
X0090750Y0302342D02*
X0092719Y0302342D01*
X0092719Y0301344D02*
X0090415Y0301344D01*
X0089750Y0300345D02*
X0093053Y0300345D01*
X0093879Y0299347D02*
X0089750Y0299347D01*
X0089980Y0298348D02*
X0095868Y0298348D01*
X0096866Y0297350D02*
X0090979Y0297350D01*
X0091977Y0296351D02*
X0097865Y0296351D01*
X0096544Y0295353D02*
X0092976Y0295353D01*
X0093974Y0294354D02*
X0095734Y0294354D01*
X0095350Y0293355D02*
X0094973Y0293355D01*
X0099454Y0289361D02*
X0104854Y0289361D01*
X0105853Y0288363D02*
X0099965Y0288363D01*
X0100750Y0287364D02*
X0106851Y0287364D01*
X0107850Y0286366D02*
X0100750Y0286366D01*
X0100941Y0285367D02*
X0108848Y0285367D01*
X0114550Y0284369D02*
X0101760Y0284369D01*
X0102150Y0283370D02*
X0114550Y0283370D01*
X0114550Y0282372D02*
X0102150Y0282372D01*
X0101860Y0281373D02*
X0114550Y0281373D01*
X0114550Y0280375D02*
X0101183Y0280375D01*
X0096750Y0285558D02*
X0095942Y0284750D01*
X0093255Y0284750D01*
X0091811Y0286194D01*
X0091952Y0286194D01*
X0092495Y0285651D01*
X0093598Y0285194D01*
X0094791Y0285194D01*
X0095894Y0285651D01*
X0096457Y0286214D01*
X0096750Y0285922D01*
X0096750Y0285558D01*
X0096559Y0285367D02*
X0095209Y0285367D01*
X0094650Y0284994D02*
X0092163Y0284994D01*
X0090407Y0286750D01*
X0084350Y0286750D01*
X0080350Y0282750D01*
X0085706Y0278378D02*
X0085750Y0278378D01*
X0086071Y0277379D02*
X0084708Y0277379D01*
X0083709Y0276381D02*
X0086877Y0276381D01*
X0086930Y0275382D02*
X0074666Y0275382D01*
X0092638Y0285367D02*
X0093180Y0285367D01*
X0086332Y0290360D02*
X0075771Y0290360D01*
X0086544Y0295353D02*
X0060750Y0295353D01*
X0060750Y0296351D02*
X0086321Y0296351D01*
X0085750Y0297350D02*
X0060750Y0297350D01*
X0061091Y0298348D02*
X0085750Y0298348D01*
X0085750Y0299347D02*
X0061623Y0299347D01*
X0061750Y0300345D02*
X0085750Y0300345D01*
X0085085Y0301344D02*
X0061544Y0301344D01*
X0045626Y0316321D02*
X0371788Y0316321D01*
X0371031Y0317320D02*
X0046464Y0317320D01*
X0047140Y0318318D02*
X0370454Y0318318D01*
X0369878Y0319317D02*
X0047504Y0319317D01*
X0047867Y0320315D02*
X0369634Y0320315D01*
X0369781Y0319485D02*
X0369781Y0319485D01*
X0369458Y0321314D02*
X0048150Y0321314D01*
X0048150Y0322312D02*
X0369282Y0322312D01*
X0369304Y0323311D02*
X0048150Y0323311D01*
X0048150Y0324309D02*
X0369480Y0324309D01*
X0369656Y0325308D02*
X0047822Y0325308D01*
X0047459Y0326306D02*
X0369949Y0326306D01*
X0369781Y0326015D02*
X0369781Y0326015D01*
X0370526Y0327305D02*
X0047095Y0327305D01*
X0046361Y0328303D02*
X0371102Y0328303D01*
X0371438Y0328885D02*
X0371438Y0328885D01*
X0371438Y0328885D01*
X0371934Y0329302D02*
X0045523Y0329302D01*
X0044885Y0330062D02*
X0044885Y0330062D01*
X0044885Y0330062D01*
X0044472Y0330300D02*
X0373124Y0330300D01*
X0386469Y0317320D02*
X0386650Y0317320D01*
X0386062Y0316615D02*
X0386062Y0316615D01*
X0386062Y0316615D01*
X0385712Y0316321D02*
X0386650Y0316321D01*
X0386650Y0315323D02*
X0384522Y0315323D01*
X0383084Y0314324D02*
X0386650Y0314324D01*
X0386650Y0313326D02*
X0039435Y0313326D01*
X0038750Y0313205D02*
X0038750Y0313205D01*
X0038065Y0313326D02*
X0030850Y0313326D01*
X0030850Y0314324D02*
X0034544Y0314324D01*
X0034250Y0312936D02*
X0034250Y0308250D01*
X0038936Y0308250D01*
X0038822Y0308968D01*
X0038569Y0309746D01*
X0038197Y0310475D01*
X0037716Y0311138D01*
X0037138Y0311716D01*
X0036475Y0312197D01*
X0035746Y0312569D01*
X0034968Y0312822D01*
X0034250Y0312936D01*
X0034250Y0312327D02*
X0033250Y0312327D01*
X0033250Y0311329D02*
X0034250Y0311329D01*
X0034250Y0310330D02*
X0033250Y0310330D01*
X0033250Y0309332D02*
X0034250Y0309332D01*
X0034250Y0308333D02*
X0033250Y0308333D01*
X0034250Y0307335D02*
X0386650Y0307335D01*
X0386650Y0308333D02*
X0038922Y0308333D01*
X0038704Y0309332D02*
X0386650Y0309332D01*
X0386650Y0310330D02*
X0038271Y0310330D01*
X0037525Y0311329D02*
X0386650Y0311329D01*
X0386650Y0312327D02*
X0036221Y0312327D01*
X0032814Y0315323D02*
X0030850Y0315323D01*
X0030850Y0316321D02*
X0031874Y0316321D01*
X0032615Y0315438D02*
X0032615Y0315438D01*
X0032615Y0315438D01*
X0031036Y0317320D02*
X0030850Y0317320D01*
X0030850Y0312327D02*
X0031279Y0312327D01*
X0042015Y0313781D02*
X0042015Y0313781D01*
X0042956Y0314324D02*
X0374416Y0314324D01*
X0372978Y0315323D02*
X0044686Y0315323D01*
X0042955Y0281373D02*
X0053800Y0281373D01*
X0053800Y0280375D02*
X0043954Y0280375D01*
X0044952Y0279376D02*
X0053969Y0279376D01*
X0054750Y0278378D02*
X0045951Y0278378D01*
X0046949Y0277379D02*
X0054750Y0277379D01*
X0054750Y0276381D02*
X0047948Y0276381D01*
X0048946Y0275382D02*
X0054789Y0275382D01*
X0055788Y0274384D02*
X0049945Y0274384D01*
X0050750Y0273385D02*
X0056750Y0273385D01*
X0056750Y0272387D02*
X0050750Y0272387D01*
X0050750Y0271388D02*
X0056750Y0271388D01*
X0056750Y0270390D02*
X0050750Y0270390D01*
X0050750Y0269391D02*
X0056750Y0269391D01*
X0056750Y0268393D02*
X0050936Y0268393D01*
X0051934Y0267394D02*
X0056750Y0267394D01*
X0056184Y0266396D02*
X0052933Y0266396D01*
X0053931Y0265397D02*
X0055771Y0265397D01*
X0055750Y0264399D02*
X0054930Y0264399D01*
X0052268Y0261403D02*
X0048350Y0261403D01*
X0049348Y0260405D02*
X0053267Y0260405D01*
X0051345Y0258408D02*
X0075775Y0258408D01*
X0076189Y0259406D02*
X0050347Y0259406D01*
X0051270Y0262402D02*
X0047351Y0262402D01*
X0046353Y0263400D02*
X0050271Y0263400D01*
X0049273Y0264399D02*
X0045354Y0264399D01*
X0044355Y0265397D02*
X0048274Y0265397D01*
X0047276Y0266396D02*
X0043357Y0266396D01*
X0042358Y0267394D02*
X0046750Y0267394D01*
X0046837Y0256411D02*
X0038782Y0256411D01*
X0038395Y0255412D02*
X0047835Y0255412D01*
X0048834Y0254414D02*
X0037753Y0254414D01*
X0036630Y0253415D02*
X0049832Y0253415D01*
X0045423Y0249421D02*
X0372076Y0249421D01*
X0371438Y0248885D02*
X0371438Y0248885D01*
X0371438Y0248885D01*
X0371171Y0248422D02*
X0046261Y0248422D01*
X0047052Y0247424D02*
X0370594Y0247424D01*
X0370018Y0246425D02*
X0047416Y0246425D01*
X0047779Y0245427D02*
X0369677Y0245427D01*
X0369781Y0246015D02*
X0369781Y0246015D01*
X0369501Y0244428D02*
X0048142Y0244428D01*
X0048150Y0243430D02*
X0369325Y0243430D01*
X0369261Y0242431D02*
X0048150Y0242431D01*
X0050020Y0241433D02*
X0051460Y0241433D01*
X0052184Y0241950D02*
X0052184Y0241950D01*
X0054807Y0241433D02*
X0054822Y0241433D01*
X0060445Y0241433D02*
X0369437Y0241433D01*
X0369613Y0240434D02*
X0061058Y0240434D01*
X0061258Y0239436D02*
X0369809Y0239436D01*
X0369781Y0239485D02*
X0369781Y0239485D01*
X0370386Y0238437D02*
X0060615Y0238437D01*
X0060365Y0237439D02*
X0370962Y0237439D01*
X0371646Y0236440D02*
X0061030Y0236440D01*
X0061133Y0235442D02*
X0372836Y0235442D01*
X0373541Y0228650D02*
X0371438Y0226885D01*
X0369781Y0224015D01*
X0369205Y0220750D01*
X0369205Y0220750D01*
X0369781Y0217485D01*
X0371438Y0214615D01*
X0371438Y0214615D01*
X0373977Y0212484D01*
X0373977Y0212484D01*
X0377093Y0211350D01*
X0380407Y0211350D01*
X0383522Y0212484D01*
X0383523Y0212484D01*
X0386062Y0214615D01*
X0386650Y0215633D01*
X0386650Y0200394D01*
X0384824Y0201150D01*
X0382676Y0201150D01*
X0380691Y0200328D01*
X0379172Y0198809D01*
X0378350Y0196824D01*
X0378350Y0194676D01*
X0379172Y0192691D01*
X0380691Y0191172D01*
X0381710Y0190750D01*
X0380691Y0190328D01*
X0379172Y0188809D01*
X0378350Y0186824D01*
X0378350Y0184676D01*
X0379172Y0182691D01*
X0380691Y0181172D01*
X0381710Y0180750D01*
X0380691Y0180328D01*
X0379172Y0178809D01*
X0378350Y0176824D01*
X0378350Y0174676D01*
X0379172Y0172691D01*
X0380691Y0171172D01*
X0381974Y0170641D01*
X0381754Y0170569D01*
X0381025Y0170197D01*
X0380362Y0169716D01*
X0379784Y0169138D01*
X0379303Y0168475D01*
X0378931Y0167746D01*
X0378678Y0166968D01*
X0378564Y0166250D01*
X0383250Y0166250D01*
X0383250Y0165250D01*
X0384250Y0165250D01*
X0384250Y0160564D01*
X0384968Y0160678D01*
X0385746Y0160931D01*
X0386475Y0161303D01*
X0386650Y0161429D01*
X0386650Y0145867D01*
X0386062Y0146885D01*
X0386062Y0146885D01*
X0383523Y0149016D01*
X0383522Y0149016D01*
X0380407Y0150150D01*
X0377093Y0150150D01*
X0373977Y0149016D01*
X0371438Y0146885D01*
X0369781Y0144015D01*
X0369205Y0140750D01*
X0369205Y0140750D01*
X0369781Y0137485D01*
X0371438Y0134615D01*
X0371438Y0134615D01*
X0373541Y0132850D01*
X0061015Y0132850D01*
X0061263Y0134091D01*
X0060157Y0135750D01*
X0061263Y0137409D01*
X0060922Y0139115D01*
X0059474Y0140080D01*
X0057769Y0139739D01*
X0057633Y0139536D01*
X0057498Y0139739D01*
X0055792Y0140080D01*
X0054814Y0139428D01*
X0054083Y0139950D01*
X0052184Y0139950D01*
X0050697Y0138888D01*
X0050036Y0139417D01*
X0049503Y0139950D01*
X0049370Y0139950D01*
X0049266Y0140033D01*
X0048517Y0139950D01*
X0048150Y0139950D01*
X0048150Y0142407D01*
X0047016Y0145522D01*
X0047016Y0145523D01*
X0044885Y0148062D01*
X0042015Y0149719D01*
X0042015Y0149719D01*
X0038750Y0150295D01*
X0038750Y0150295D01*
X0035485Y0149719D01*
X0032615Y0148062D01*
X0030850Y0145959D01*
X0030850Y0151429D01*
X0031025Y0151303D01*
X0031754Y0150931D01*
X0032532Y0150678D01*
X0033250Y0150564D01*
X0033250Y0155250D01*
X0034250Y0155250D01*
X0034250Y0156250D01*
X0038936Y0156250D01*
X0038822Y0156968D01*
X0038569Y0157746D01*
X0038197Y0158475D01*
X0037716Y0159138D01*
X0037138Y0159716D01*
X0036475Y0160197D01*
X0035746Y0160569D01*
X0035526Y0160641D01*
X0036809Y0161172D01*
X0038328Y0162691D01*
X0038395Y0162853D01*
X0050297Y0150950D01*
X0110703Y0150950D01*
X0112353Y0152600D01*
X0112877Y0152600D01*
X0114034Y0153080D01*
X0114920Y0153966D01*
X0115400Y0155123D01*
X0115400Y0155647D01*
X0121050Y0161297D01*
X0121050Y0173800D01*
X0121954Y0173800D01*
X0122950Y0174796D01*
X0122950Y0178450D01*
X0130203Y0178450D01*
X0137550Y0185797D01*
X0137550Y0187703D01*
X0137550Y0198307D01*
X0138293Y0199051D01*
X0138750Y0200153D01*
X0138750Y0201347D01*
X0138293Y0202449D01*
X0137449Y0203293D01*
X0136347Y0203750D01*
X0135153Y0203750D01*
X0134051Y0203293D01*
X0133207Y0202449D01*
X0132750Y0201347D01*
X0132750Y0200153D01*
X0132950Y0199670D01*
X0132950Y0187703D01*
X0128297Y0183050D01*
X0122950Y0183050D01*
X0122950Y0186704D01*
X0121954Y0187700D01*
X0115546Y0187700D01*
X0114896Y0187050D01*
X0111671Y0187050D01*
X0098718Y0200003D01*
X0098718Y0200347D01*
X0098262Y0201449D01*
X0097418Y0202293D01*
X0096315Y0202750D01*
X0095122Y0202750D01*
X0094019Y0202293D01*
X0093175Y0201449D01*
X0092719Y0200347D01*
X0092719Y0199153D01*
X0093175Y0198051D01*
X0094019Y0197207D01*
X0095122Y0196750D01*
X0095466Y0196750D01*
X0098068Y0194148D01*
X0096824Y0193632D01*
X0095868Y0192676D01*
X0095350Y0191426D01*
X0095350Y0190978D01*
X0089750Y0196578D01*
X0089750Y0198507D01*
X0090293Y0199051D01*
X0090750Y0200153D01*
X0090750Y0201347D01*
X0090293Y0202449D01*
X0089449Y0203293D01*
X0088347Y0203750D01*
X0087153Y0203750D01*
X0086051Y0203293D01*
X0085207Y0202449D01*
X0084750Y0201347D01*
X0084750Y0200153D01*
X0085207Y0199051D01*
X0085750Y0198507D01*
X0085750Y0194922D01*
X0086976Y0193695D01*
X0086824Y0193632D01*
X0085868Y0192676D01*
X0085350Y0191426D01*
X0085350Y0190074D01*
X0085868Y0188824D01*
X0086497Y0188194D01*
X0075937Y0188194D01*
X0075394Y0188738D01*
X0074291Y0189194D01*
X0073098Y0189194D01*
X0071995Y0188738D01*
X0071151Y0187894D01*
X0070694Y0186791D01*
X0070694Y0185598D01*
X0071151Y0184495D01*
X0071995Y0183651D01*
X0073098Y0183194D01*
X0074200Y0183194D01*
X0074200Y0179250D01*
X0073153Y0179250D01*
X0072051Y0178793D01*
X0071207Y0177949D01*
X0070750Y0176847D01*
X0070750Y0175653D01*
X0071207Y0174551D01*
X0072051Y0173707D01*
X0073153Y0173250D01*
X0074347Y0173250D01*
X0075449Y0173707D01*
X0075993Y0174250D01*
X0083578Y0174250D01*
X0085750Y0176422D01*
X0085750Y0176153D01*
X0086207Y0175051D01*
X0087051Y0174207D01*
X0087918Y0173847D01*
X0087817Y0173827D01*
X0087234Y0173586D01*
X0086710Y0173236D01*
X0086264Y0172790D01*
X0085914Y0172266D01*
X0085673Y0171683D01*
X0085550Y0171065D01*
X0085550Y0170750D01*
X0088750Y0170750D01*
X0091950Y0170750D01*
X0091950Y0171065D01*
X0091827Y0171683D01*
X0091586Y0172266D01*
X0091236Y0172790D01*
X0090790Y0173236D01*
X0090266Y0173586D01*
X0089683Y0173827D01*
X0089582Y0173847D01*
X0090449Y0174207D01*
X0090993Y0174750D01*
X0091922Y0174750D01*
X0095350Y0171322D01*
X0095350Y0170074D01*
X0095868Y0168824D01*
X0096824Y0167868D01*
X0097108Y0167750D01*
X0089869Y0167750D01*
X0090266Y0167914D01*
X0090790Y0168264D01*
X0091236Y0168710D01*
X0091586Y0169234D01*
X0091827Y0169817D01*
X0091950Y0170435D01*
X0091950Y0170750D01*
X0088750Y0170750D01*
X0088750Y0170750D01*
X0088750Y0170750D01*
X0085550Y0170750D01*
X0085550Y0170435D01*
X0085673Y0169817D01*
X0085914Y0169234D01*
X0086264Y0168710D01*
X0086710Y0168264D01*
X0087234Y0167914D01*
X0087631Y0167750D01*
X0073578Y0167750D01*
X0067250Y0174078D01*
X0067250Y0174847D01*
X0066793Y0175949D01*
X0066193Y0176550D01*
X0066704Y0176550D01*
X0067700Y0177546D01*
X0067700Y0183954D01*
X0066750Y0184904D01*
X0066750Y0185578D01*
X0060750Y0191578D01*
X0060750Y0196007D01*
X0061293Y0196551D01*
X0061750Y0197653D01*
X0061750Y0198847D01*
X0061293Y0199949D01*
X0060449Y0200793D01*
X0059347Y0201250D01*
X0058153Y0201250D01*
X0057051Y0200793D01*
X0056207Y0199949D01*
X0055750Y0198847D01*
X0055750Y0197653D01*
X0056207Y0196551D01*
X0056750Y0196007D01*
X0056750Y0191361D01*
X0051450Y0196661D01*
X0050161Y0197950D01*
X0038684Y0197950D01*
X0038328Y0198809D01*
X0036809Y0200328D01*
X0035526Y0200859D01*
X0035746Y0200931D01*
X0036475Y0201303D01*
X0037138Y0201784D01*
X0037716Y0202362D01*
X0038197Y0203025D01*
X0038569Y0203754D01*
X0038822Y0204532D01*
X0038936Y0205250D01*
X0034250Y0205250D01*
X0034250Y0206250D01*
X0033250Y0206250D01*
X0033250Y0210936D01*
X0032532Y0210822D01*
X0031754Y0210569D01*
X0031025Y0210197D01*
X0030850Y0210071D01*
X0030850Y0215541D01*
X0032615Y0213438D01*
X0035485Y0211781D01*
X0038750Y0211205D01*
X0042015Y0211781D01*
X0044885Y0213438D01*
X0044885Y0213438D01*
X0047016Y0215977D01*
X0047016Y0215977D01*
X0048150Y0219093D01*
X0048150Y0222407D01*
X0047016Y0225522D01*
X0047016Y0225523D01*
X0044885Y0228062D01*
X0043867Y0228650D01*
X0373541Y0228650D01*
X0373305Y0228452D02*
X0044209Y0228452D01*
X0044885Y0228062D02*
X0044885Y0228062D01*
X0044885Y0228062D01*
X0045396Y0227454D02*
X0372115Y0227454D01*
X0371438Y0226885D02*
X0371438Y0226885D01*
X0371438Y0226885D01*
X0371190Y0226455D02*
X0046234Y0226455D01*
X0047040Y0225457D02*
X0370613Y0225457D01*
X0370037Y0224458D02*
X0047404Y0224458D01*
X0047767Y0223460D02*
X0369683Y0223460D01*
X0369781Y0224015D02*
X0369781Y0224015D01*
X0369507Y0222461D02*
X0048130Y0222461D01*
X0048150Y0221463D02*
X0369331Y0221463D01*
X0369255Y0220464D02*
X0048150Y0220464D01*
X0048150Y0219466D02*
X0369431Y0219466D01*
X0369608Y0218467D02*
X0047922Y0218467D01*
X0047559Y0217469D02*
X0369790Y0217469D01*
X0369781Y0217485D02*
X0369781Y0217485D01*
X0370367Y0216470D02*
X0047196Y0216470D01*
X0046592Y0215472D02*
X0370943Y0215472D01*
X0371607Y0214473D02*
X0045754Y0214473D01*
X0044916Y0213475D02*
X0372797Y0213475D01*
X0373999Y0212476D02*
X0043219Y0212476D01*
X0040296Y0211478D02*
X0376742Y0211478D01*
X0380758Y0211478D02*
X0386650Y0211478D01*
X0386650Y0212476D02*
X0383501Y0212476D01*
X0384703Y0213475D02*
X0386650Y0213475D01*
X0386650Y0214473D02*
X0385893Y0214473D01*
X0386062Y0214615D02*
X0386062Y0214615D01*
X0386062Y0214615D01*
X0386557Y0215472D02*
X0386650Y0215472D01*
X0386650Y0210479D02*
X0035923Y0210479D01*
X0035746Y0210569D02*
X0034968Y0210822D01*
X0034250Y0210936D01*
X0034250Y0206250D01*
X0038936Y0206250D01*
X0038822Y0206968D01*
X0038569Y0207746D01*
X0038197Y0208475D01*
X0037716Y0209138D01*
X0037138Y0209716D01*
X0036475Y0210197D01*
X0035746Y0210569D01*
X0034250Y0210479D02*
X0033250Y0210479D01*
X0033250Y0209481D02*
X0034250Y0209481D01*
X0034250Y0208482D02*
X0033250Y0208482D01*
X0033250Y0207484D02*
X0034250Y0207484D01*
X0034250Y0206485D02*
X0033250Y0206485D01*
X0034250Y0205487D02*
X0386650Y0205487D01*
X0386650Y0206485D02*
X0038898Y0206485D01*
X0038654Y0207484D02*
X0386650Y0207484D01*
X0386650Y0208482D02*
X0038193Y0208482D01*
X0037373Y0209481D02*
X0386650Y0209481D01*
X0386650Y0204488D02*
X0038808Y0204488D01*
X0038434Y0203489D02*
X0086524Y0203489D01*
X0085248Y0202491D02*
X0037810Y0202491D01*
X0036737Y0201492D02*
X0084810Y0201492D01*
X0084750Y0200494D02*
X0060749Y0200494D01*
X0061481Y0199495D02*
X0085022Y0199495D01*
X0085750Y0198497D02*
X0061750Y0198497D01*
X0061686Y0197498D02*
X0085750Y0197498D01*
X0085750Y0196500D02*
X0061243Y0196500D01*
X0060750Y0195501D02*
X0085750Y0195501D01*
X0086169Y0194503D02*
X0060750Y0194503D01*
X0060750Y0193504D02*
X0086696Y0193504D01*
X0085797Y0192506D02*
X0060750Y0192506D01*
X0060821Y0191507D02*
X0085384Y0191507D01*
X0085350Y0190509D02*
X0061820Y0190509D01*
X0062818Y0189510D02*
X0085583Y0189510D01*
X0086180Y0188512D02*
X0075620Y0188512D01*
X0071769Y0188512D02*
X0063817Y0188512D01*
X0064815Y0187513D02*
X0070994Y0187513D01*
X0070694Y0186515D02*
X0065814Y0186515D01*
X0066750Y0185516D02*
X0070728Y0185516D01*
X0071142Y0184518D02*
X0067136Y0184518D01*
X0067700Y0183519D02*
X0072313Y0183519D01*
X0074200Y0182521D02*
X0067700Y0182521D01*
X0067700Y0181522D02*
X0074200Y0181522D01*
X0074200Y0180524D02*
X0067700Y0180524D01*
X0067700Y0179525D02*
X0074200Y0179525D01*
X0071784Y0178527D02*
X0067700Y0178527D01*
X0067682Y0177528D02*
X0071032Y0177528D01*
X0070750Y0176530D02*
X0066213Y0176530D01*
X0066966Y0175531D02*
X0070801Y0175531D01*
X0071225Y0174533D02*
X0067250Y0174533D01*
X0067794Y0173534D02*
X0072467Y0173534D01*
X0075033Y0173534D02*
X0087157Y0173534D01*
X0086725Y0174533D02*
X0083861Y0174533D01*
X0084860Y0175531D02*
X0086008Y0175531D01*
X0086095Y0172536D02*
X0068793Y0172536D01*
X0069791Y0171537D02*
X0085644Y0171537D01*
X0085550Y0170539D02*
X0070790Y0170539D01*
X0071788Y0169540D02*
X0085787Y0169540D01*
X0086433Y0168542D02*
X0072787Y0168542D01*
X0073578Y0163750D02*
X0093750Y0163750D01*
X0093750Y0159493D01*
X0093207Y0158949D01*
X0092750Y0157847D01*
X0092750Y0156653D01*
X0093207Y0155551D01*
X0093207Y0155550D01*
X0081750Y0155550D01*
X0081750Y0156347D01*
X0081293Y0157449D01*
X0080449Y0158293D01*
X0079347Y0158750D01*
X0078153Y0158750D01*
X0077051Y0158293D01*
X0076207Y0157449D01*
X0075750Y0156347D01*
X0075750Y0155550D01*
X0052203Y0155550D01*
X0039703Y0168050D01*
X0038642Y0168050D01*
X0038328Y0168809D01*
X0036809Y0170328D01*
X0035790Y0170750D01*
X0036809Y0171172D01*
X0038328Y0172691D01*
X0039150Y0174676D01*
X0039150Y0176824D01*
X0038657Y0178015D01*
X0046750Y0169922D01*
X0046750Y0164922D01*
X0052750Y0158922D01*
X0052750Y0158922D01*
X0053922Y0157750D01*
X0067578Y0157750D01*
X0068750Y0158922D01*
X0073578Y0163750D01*
X0073377Y0163549D02*
X0093750Y0163549D01*
X0093750Y0162551D02*
X0072379Y0162551D01*
X0071380Y0161552D02*
X0093750Y0161552D01*
X0093750Y0160553D02*
X0070382Y0160553D01*
X0069383Y0159555D02*
X0093750Y0159555D01*
X0093044Y0158556D02*
X0079814Y0158556D01*
X0081185Y0157558D02*
X0092750Y0157558D01*
X0092789Y0156559D02*
X0081662Y0156559D01*
X0081750Y0155561D02*
X0093202Y0155561D01*
X0098293Y0155550D02*
X0098293Y0155551D01*
X0098750Y0156653D01*
X0098750Y0157847D01*
X0098293Y0158949D01*
X0097750Y0159493D01*
X0097750Y0163750D01*
X0099578Y0163750D01*
X0100750Y0164922D01*
X0102578Y0166750D01*
X0102578Y0166750D01*
X0103750Y0167922D01*
X0103750Y0173078D01*
X0102578Y0174250D01*
X0101250Y0175578D01*
X0101250Y0175578D01*
X0100078Y0176750D01*
X0097558Y0176750D01*
X0095558Y0178750D01*
X0095942Y0178750D01*
X0096824Y0177868D01*
X0098074Y0177350D01*
X0099426Y0177350D01*
X0100676Y0177868D01*
X0101632Y0178824D01*
X0102150Y0180074D01*
X0102150Y0181426D01*
X0101632Y0182676D01*
X0100750Y0183558D01*
X0100750Y0185578D01*
X0099578Y0186750D01*
X0098978Y0187350D01*
X0099426Y0187350D01*
X0100676Y0187868D01*
X0101632Y0188824D01*
X0102148Y0190068D01*
X0109766Y0182450D01*
X0114550Y0182450D01*
X0114550Y0178796D01*
X0114596Y0178750D01*
X0114550Y0178704D01*
X0114550Y0174796D01*
X0115546Y0173800D01*
X0116450Y0173800D01*
X0116450Y0163203D01*
X0112147Y0158900D01*
X0111623Y0158900D01*
X0110466Y0158420D01*
X0109580Y0157534D01*
X0109100Y0156377D01*
X0109100Y0155853D01*
X0108797Y0155550D01*
X0098293Y0155550D01*
X0098298Y0155561D02*
X0108808Y0155561D01*
X0109176Y0156559D02*
X0098711Y0156559D01*
X0098750Y0157558D02*
X0109603Y0157558D01*
X0110794Y0158556D02*
X0098456Y0158556D01*
X0097750Y0159555D02*
X0112802Y0159555D01*
X0113801Y0160553D02*
X0097750Y0160553D01*
X0097750Y0161552D02*
X0114799Y0161552D01*
X0115798Y0162551D02*
X0097750Y0162551D01*
X0097750Y0163549D02*
X0116450Y0163549D01*
X0116450Y0164548D02*
X0100376Y0164548D01*
X0100750Y0164922D02*
X0100750Y0164922D01*
X0101374Y0165546D02*
X0116450Y0165546D01*
X0116450Y0166545D02*
X0102373Y0166545D01*
X0103371Y0167543D02*
X0116450Y0167543D01*
X0116450Y0168542D02*
X0103750Y0168542D01*
X0103750Y0169540D02*
X0116450Y0169540D01*
X0116450Y0170539D02*
X0103750Y0170539D01*
X0103750Y0171537D02*
X0116450Y0171537D01*
X0116450Y0172536D02*
X0103750Y0172536D01*
X0103294Y0173534D02*
X0116450Y0173534D01*
X0114813Y0174533D02*
X0102296Y0174533D01*
X0102578Y0174250D02*
X0102578Y0174250D01*
X0101297Y0175531D02*
X0114550Y0175531D01*
X0114550Y0176530D02*
X0100299Y0176530D01*
X0099856Y0177528D02*
X0114550Y0177528D01*
X0114550Y0178527D02*
X0101335Y0178527D01*
X0101923Y0179525D02*
X0114550Y0179525D01*
X0114550Y0180524D02*
X0102150Y0180524D01*
X0102110Y0181522D02*
X0114550Y0181522D01*
X0109695Y0182521D02*
X0101697Y0182521D01*
X0100789Y0183519D02*
X0108697Y0183519D01*
X0107698Y0184518D02*
X0100750Y0184518D01*
X0100750Y0185516D02*
X0106700Y0185516D01*
X0105701Y0186515D02*
X0099814Y0186515D01*
X0099821Y0187513D02*
X0104703Y0187513D01*
X0103704Y0188512D02*
X0101320Y0188512D01*
X0101917Y0189510D02*
X0102705Y0189510D01*
X0106215Y0192506D02*
X0132950Y0192506D01*
X0132950Y0193504D02*
X0105217Y0193504D01*
X0104218Y0194503D02*
X0132950Y0194503D01*
X0132950Y0195501D02*
X0103220Y0195501D01*
X0102221Y0196500D02*
X0132950Y0196500D01*
X0132950Y0197498D02*
X0101223Y0197498D01*
X0100224Y0198497D02*
X0132950Y0198497D01*
X0132950Y0199495D02*
X0099226Y0199495D01*
X0098658Y0200494D02*
X0132750Y0200494D01*
X0132810Y0201492D02*
X0098219Y0201492D01*
X0096941Y0202491D02*
X0133248Y0202491D01*
X0134524Y0203489D02*
X0088976Y0203489D01*
X0090252Y0202491D02*
X0094496Y0202491D01*
X0093218Y0201492D02*
X0090690Y0201492D01*
X0090750Y0200494D02*
X0092779Y0200494D01*
X0092719Y0199495D02*
X0090478Y0199495D01*
X0089750Y0198497D02*
X0092990Y0198497D01*
X0093727Y0197498D02*
X0089750Y0197498D01*
X0089829Y0196500D02*
X0095716Y0196500D01*
X0096714Y0195501D02*
X0090827Y0195501D01*
X0091826Y0194503D02*
X0097713Y0194503D01*
X0096696Y0193504D02*
X0092824Y0193504D01*
X0093823Y0192506D02*
X0095797Y0192506D01*
X0095384Y0191507D02*
X0094821Y0191507D01*
X0090407Y0184750D02*
X0084350Y0184750D01*
X0080350Y0180750D01*
X0090407Y0184750D02*
X0092163Y0182994D01*
X0094650Y0182994D01*
X0094791Y0183194D02*
X0095894Y0183651D01*
X0096457Y0184214D01*
X0096750Y0183922D01*
X0096750Y0183558D01*
X0095942Y0182750D01*
X0093255Y0182750D01*
X0091827Y0184178D01*
X0091811Y0184194D01*
X0091952Y0184194D01*
X0092495Y0183651D01*
X0093598Y0183194D01*
X0094791Y0183194D01*
X0095575Y0183519D02*
X0096711Y0183519D01*
X0092813Y0183519D02*
X0092486Y0183519D01*
X0095782Y0178527D02*
X0096165Y0178527D01*
X0096780Y0177528D02*
X0097644Y0177528D01*
X0093137Y0173534D02*
X0090343Y0173534D01*
X0090775Y0174533D02*
X0092139Y0174533D01*
X0091405Y0172536D02*
X0094136Y0172536D01*
X0095134Y0171537D02*
X0091856Y0171537D01*
X0091950Y0170539D02*
X0095350Y0170539D01*
X0095571Y0169540D02*
X0091712Y0169540D01*
X0091067Y0168542D02*
X0096150Y0168542D01*
X0112318Y0152565D02*
X0386650Y0152565D01*
X0386650Y0151567D02*
X0111320Y0151567D01*
X0114519Y0153564D02*
X0386650Y0153564D01*
X0386650Y0154562D02*
X0115168Y0154562D01*
X0115400Y0155561D02*
X0386650Y0155561D01*
X0386650Y0156559D02*
X0116312Y0156559D01*
X0117311Y0157558D02*
X0386650Y0157558D01*
X0386650Y0158556D02*
X0118309Y0158556D01*
X0119308Y0159555D02*
X0386650Y0159555D01*
X0386650Y0160553D02*
X0120306Y0160553D01*
X0121050Y0161552D02*
X0380681Y0161552D01*
X0380362Y0161784D02*
X0381025Y0161303D01*
X0381754Y0160931D01*
X0382532Y0160678D01*
X0383250Y0160564D01*
X0383250Y0165250D01*
X0378564Y0165250D01*
X0378678Y0164532D01*
X0378931Y0163754D01*
X0379303Y0163025D01*
X0379784Y0162362D01*
X0380362Y0161784D01*
X0379647Y0162551D02*
X0121050Y0162551D01*
X0121050Y0163549D02*
X0379035Y0163549D01*
X0378676Y0164548D02*
X0121050Y0164548D01*
X0121050Y0165546D02*
X0383250Y0165546D01*
X0383250Y0164548D02*
X0384250Y0164548D01*
X0384250Y0163549D02*
X0383250Y0163549D01*
X0383250Y0162551D02*
X0384250Y0162551D01*
X0384250Y0161552D02*
X0383250Y0161552D01*
X0378611Y0166545D02*
X0121050Y0166545D01*
X0121050Y0167543D02*
X0378865Y0167543D01*
X0379351Y0168542D02*
X0121050Y0168542D01*
X0121050Y0169540D02*
X0380186Y0169540D01*
X0381694Y0170539D02*
X0121050Y0170539D01*
X0121050Y0171537D02*
X0380326Y0171537D01*
X0379328Y0172536D02*
X0121050Y0172536D01*
X0121050Y0173534D02*
X0378823Y0173534D01*
X0378409Y0174533D02*
X0122687Y0174533D01*
X0122950Y0175531D02*
X0378350Y0175531D01*
X0378350Y0176530D02*
X0122950Y0176530D01*
X0122950Y0177528D02*
X0378642Y0177528D01*
X0379055Y0178527D02*
X0130279Y0178527D01*
X0131278Y0179525D02*
X0379888Y0179525D01*
X0381164Y0180524D02*
X0132276Y0180524D01*
X0133275Y0181522D02*
X0380341Y0181522D01*
X0379342Y0182521D02*
X0134273Y0182521D01*
X0135272Y0183519D02*
X0378829Y0183519D01*
X0378415Y0184518D02*
X0136270Y0184518D01*
X0137269Y0185516D02*
X0378350Y0185516D01*
X0378350Y0186515D02*
X0137550Y0186515D01*
X0137550Y0187513D02*
X0378635Y0187513D01*
X0379049Y0188512D02*
X0137550Y0188512D01*
X0137550Y0189510D02*
X0379874Y0189510D01*
X0381128Y0190509D02*
X0137550Y0190509D01*
X0137550Y0191507D02*
X0380356Y0191507D01*
X0379357Y0192506D02*
X0137550Y0192506D01*
X0137550Y0193504D02*
X0378835Y0193504D01*
X0378422Y0194503D02*
X0137550Y0194503D01*
X0137550Y0195501D02*
X0378350Y0195501D01*
X0378350Y0196500D02*
X0137550Y0196500D01*
X0137550Y0197498D02*
X0378629Y0197498D01*
X0379043Y0198497D02*
X0137740Y0198497D01*
X0138478Y0199495D02*
X0379859Y0199495D01*
X0381092Y0200494D02*
X0138750Y0200494D01*
X0138690Y0201492D02*
X0386650Y0201492D01*
X0386650Y0200494D02*
X0386408Y0200494D01*
X0386650Y0202491D02*
X0138252Y0202491D01*
X0136976Y0203489D02*
X0386650Y0203489D01*
X0386650Y0248422D02*
X0386329Y0248422D01*
X0386650Y0249421D02*
X0385424Y0249421D01*
X0384234Y0250420D02*
X0386650Y0250420D01*
X0386650Y0251418D02*
X0382419Y0251418D01*
X0386650Y0254414D02*
X0112166Y0254414D01*
X0114367Y0255412D02*
X0386650Y0255412D01*
X0386650Y0256411D02*
X0115105Y0256411D01*
X0115400Y0257409D02*
X0386650Y0257409D01*
X0386650Y0258408D02*
X0116160Y0258408D01*
X0117159Y0259406D02*
X0386650Y0259406D01*
X0386650Y0260405D02*
X0118157Y0260405D01*
X0119156Y0261403D02*
X0386650Y0261403D01*
X0386650Y0262402D02*
X0120154Y0262402D01*
X0121050Y0263400D02*
X0380890Y0263400D01*
X0381025Y0263303D02*
X0381754Y0262931D01*
X0382532Y0262678D01*
X0383250Y0262564D01*
X0383250Y0267250D01*
X0378564Y0267250D01*
X0378678Y0266532D01*
X0378931Y0265754D01*
X0379303Y0265025D01*
X0379784Y0264362D01*
X0380362Y0263784D01*
X0381025Y0263303D01*
X0379757Y0264399D02*
X0121050Y0264399D01*
X0121050Y0265397D02*
X0379113Y0265397D01*
X0378722Y0266396D02*
X0121050Y0266396D01*
X0121050Y0267394D02*
X0383250Y0267394D01*
X0383250Y0266396D02*
X0384250Y0266396D01*
X0384250Y0265397D02*
X0383250Y0265397D01*
X0383250Y0264399D02*
X0384250Y0264399D01*
X0384250Y0263400D02*
X0383250Y0263400D01*
X0386610Y0263400D02*
X0386650Y0263400D01*
X0378587Y0268393D02*
X0121050Y0268393D01*
X0121050Y0269391D02*
X0378816Y0269391D01*
X0379259Y0270390D02*
X0121050Y0270390D01*
X0121050Y0271388D02*
X0380034Y0271388D01*
X0381396Y0272387D02*
X0121050Y0272387D01*
X0121050Y0273385D02*
X0380478Y0273385D01*
X0379479Y0274384D02*
X0121050Y0274384D01*
X0121050Y0275382D02*
X0378886Y0275382D01*
X0378472Y0276381D02*
X0122535Y0276381D01*
X0122950Y0277379D02*
X0378350Y0277379D01*
X0378350Y0278378D02*
X0122950Y0278378D01*
X0122950Y0279376D02*
X0378579Y0279376D01*
X0378992Y0280375D02*
X0122950Y0280375D01*
X0103856Y0290360D02*
X0101168Y0290360D01*
X0101854Y0291358D02*
X0102857Y0291358D01*
X0092981Y0260405D02*
X0080181Y0260405D01*
X0081311Y0259406D02*
X0092750Y0259406D01*
X0092852Y0258408D02*
X0081725Y0258408D01*
X0077319Y0260405D02*
X0068233Y0260405D01*
X0044885Y0250062D02*
X0044885Y0250062D01*
X0044885Y0250062D01*
X0044266Y0250420D02*
X0373266Y0250420D01*
X0373977Y0251016D02*
X0373977Y0251016D01*
X0375081Y0251418D02*
X0042537Y0251418D01*
X0038750Y0252295D02*
X0038750Y0252295D01*
X0033234Y0250420D02*
X0030850Y0250420D01*
X0030850Y0249421D02*
X0032077Y0249421D01*
X0031239Y0248422D02*
X0030850Y0248422D01*
X0030850Y0215472D02*
X0030908Y0215472D01*
X0030850Y0214473D02*
X0031746Y0214473D01*
X0032584Y0213475D02*
X0030850Y0213475D01*
X0030850Y0212476D02*
X0034281Y0212476D01*
X0032615Y0213438D02*
X0032615Y0213438D01*
X0032615Y0213438D01*
X0030850Y0211478D02*
X0037204Y0211478D01*
X0031577Y0210479D02*
X0030850Y0210479D01*
X0036408Y0200494D02*
X0056751Y0200494D01*
X0056019Y0199495D02*
X0037641Y0199495D01*
X0038457Y0198497D02*
X0055750Y0198497D01*
X0055814Y0197498D02*
X0050613Y0197498D01*
X0051611Y0196500D02*
X0056257Y0196500D01*
X0056750Y0195501D02*
X0052610Y0195501D01*
X0053608Y0194503D02*
X0056750Y0194503D01*
X0056750Y0193504D02*
X0054607Y0193504D01*
X0055605Y0192506D02*
X0056750Y0192506D01*
X0056750Y0191507D02*
X0056604Y0191507D01*
X0053377Y0188512D02*
X0038451Y0188512D01*
X0038328Y0188809D02*
X0039150Y0186824D01*
X0039150Y0184676D01*
X0038711Y0183617D01*
X0050750Y0171578D01*
X0050750Y0166578D01*
X0055578Y0161750D01*
X0055917Y0161750D01*
X0055750Y0162153D01*
X0055750Y0163347D01*
X0056207Y0164449D01*
X0056750Y0164993D01*
X0056750Y0171422D01*
X0055922Y0172250D01*
X0054750Y0173422D01*
X0054750Y0176596D01*
X0053800Y0177546D01*
X0053800Y0183954D01*
X0054796Y0184950D01*
X0056939Y0184950D01*
X0048339Y0193550D01*
X0038684Y0193550D01*
X0038328Y0192691D01*
X0036809Y0191172D01*
X0035790Y0190750D01*
X0036809Y0190328D01*
X0038328Y0188809D01*
X0037626Y0189510D02*
X0052378Y0189510D01*
X0051380Y0190509D02*
X0036372Y0190509D01*
X0037144Y0191507D02*
X0050381Y0191507D01*
X0049383Y0192506D02*
X0038143Y0192506D01*
X0038665Y0193504D02*
X0048384Y0193504D01*
X0049250Y0195750D02*
X0033750Y0195750D01*
X0045750Y0195750D01*
X0047250Y0195750D01*
X0049250Y0195750D02*
X0060650Y0184350D01*
X0060650Y0180850D01*
X0060750Y0180750D01*
X0060750Y0173750D01*
X0068750Y0165750D01*
X0068385Y0158556D02*
X0077686Y0158556D01*
X0076315Y0157558D02*
X0050195Y0157558D01*
X0051193Y0156559D02*
X0075838Y0156559D01*
X0075750Y0155561D02*
X0052192Y0155561D01*
X0053115Y0158556D02*
X0049196Y0158556D01*
X0048198Y0159555D02*
X0052117Y0159555D01*
X0051118Y0160553D02*
X0047199Y0160553D01*
X0046201Y0161552D02*
X0050120Y0161552D01*
X0049121Y0162551D02*
X0045202Y0162551D01*
X0044204Y0163549D02*
X0048123Y0163549D01*
X0047124Y0164548D02*
X0043205Y0164548D01*
X0042207Y0165546D02*
X0046750Y0165546D01*
X0046750Y0166545D02*
X0041208Y0166545D01*
X0040210Y0167543D02*
X0046750Y0167543D01*
X0046750Y0168542D02*
X0038439Y0168542D01*
X0037597Y0169540D02*
X0046750Y0169540D01*
X0046133Y0170539D02*
X0036300Y0170539D01*
X0037174Y0171537D02*
X0045134Y0171537D01*
X0044136Y0172536D02*
X0038172Y0172536D01*
X0038677Y0173534D02*
X0043137Y0173534D01*
X0042139Y0174533D02*
X0039091Y0174533D01*
X0039150Y0175531D02*
X0041140Y0175531D01*
X0040142Y0176530D02*
X0039150Y0176530D01*
X0039143Y0177528D02*
X0038858Y0177528D01*
X0041805Y0180524D02*
X0053800Y0180524D01*
X0053800Y0181522D02*
X0040806Y0181522D01*
X0039808Y0182521D02*
X0053800Y0182521D01*
X0053800Y0183519D02*
X0038809Y0183519D01*
X0039084Y0184518D02*
X0054364Y0184518D01*
X0055374Y0186515D02*
X0039150Y0186515D01*
X0039150Y0185516D02*
X0056372Y0185516D01*
X0054375Y0187513D02*
X0038865Y0187513D01*
X0042803Y0179525D02*
X0053800Y0179525D01*
X0053800Y0178527D02*
X0043802Y0178527D01*
X0044800Y0177528D02*
X0053818Y0177528D01*
X0054750Y0176530D02*
X0045799Y0176530D01*
X0046797Y0175531D02*
X0054750Y0175531D01*
X0054750Y0174533D02*
X0047796Y0174533D01*
X0048794Y0173534D02*
X0054750Y0173534D01*
X0055636Y0172536D02*
X0049793Y0172536D01*
X0050750Y0171537D02*
X0056634Y0171537D01*
X0056750Y0170539D02*
X0050750Y0170539D01*
X0050750Y0169540D02*
X0056750Y0169540D01*
X0056750Y0168542D02*
X0050750Y0168542D01*
X0050750Y0167543D02*
X0056750Y0167543D01*
X0056750Y0166545D02*
X0050784Y0166545D01*
X0051782Y0165546D02*
X0056750Y0165546D01*
X0056305Y0164548D02*
X0052781Y0164548D01*
X0053779Y0163549D02*
X0055834Y0163549D01*
X0055750Y0162551D02*
X0054778Y0162551D01*
X0046685Y0154562D02*
X0038827Y0154562D01*
X0038822Y0154532D02*
X0038936Y0155250D01*
X0034250Y0155250D01*
X0034250Y0150564D01*
X0034968Y0150678D01*
X0035746Y0150931D01*
X0036475Y0151303D01*
X0037138Y0151784D01*
X0037716Y0152362D01*
X0038197Y0153025D01*
X0038569Y0153754D01*
X0038822Y0154532D01*
X0038472Y0153564D02*
X0047683Y0153564D01*
X0048682Y0152565D02*
X0037864Y0152565D01*
X0036839Y0151567D02*
X0049680Y0151567D01*
X0045686Y0155561D02*
X0034250Y0155561D01*
X0034250Y0154562D02*
X0033250Y0154562D01*
X0033250Y0153564D02*
X0034250Y0153564D01*
X0034250Y0152565D02*
X0033250Y0152565D01*
X0033250Y0151567D02*
X0034250Y0151567D01*
X0034250Y0150568D02*
X0033250Y0150568D01*
X0033225Y0150568D02*
X0030850Y0150568D01*
X0030850Y0149570D02*
X0035226Y0149570D01*
X0034275Y0150568D02*
X0386650Y0150568D01*
X0386650Y0149570D02*
X0382001Y0149570D01*
X0384053Y0148571D02*
X0386650Y0148571D01*
X0386650Y0147573D02*
X0385243Y0147573D01*
X0386241Y0146574D02*
X0386650Y0146574D01*
X0375499Y0149570D02*
X0042274Y0149570D01*
X0044003Y0148571D02*
X0373447Y0148571D01*
X0373977Y0149016D02*
X0373977Y0149016D01*
X0372257Y0147573D02*
X0045296Y0147573D01*
X0044885Y0148062D02*
X0044885Y0148062D01*
X0044885Y0148062D01*
X0046134Y0146574D02*
X0371259Y0146574D01*
X0371438Y0146885D02*
X0371438Y0146885D01*
X0371438Y0146885D01*
X0370682Y0145576D02*
X0046971Y0145576D01*
X0047360Y0144577D02*
X0370106Y0144577D01*
X0369781Y0144015D02*
X0369781Y0144015D01*
X0369704Y0143579D02*
X0047724Y0143579D01*
X0048087Y0142580D02*
X0369528Y0142580D01*
X0369352Y0141582D02*
X0048150Y0141582D01*
X0048150Y0140583D02*
X0369234Y0140583D01*
X0369410Y0139585D02*
X0060217Y0139585D01*
X0061028Y0138586D02*
X0369587Y0138586D01*
X0369763Y0137588D02*
X0061227Y0137588D01*
X0060717Y0136589D02*
X0370298Y0136589D01*
X0369781Y0137485D02*
X0369781Y0137485D01*
X0370875Y0135591D02*
X0060263Y0135591D01*
X0060929Y0134592D02*
X0371465Y0134592D01*
X0372655Y0133594D02*
X0061164Y0133594D01*
X0057666Y0139585D02*
X0057601Y0139585D01*
X0055050Y0139585D02*
X0054594Y0139585D01*
X0051672Y0139585D02*
X0049868Y0139585D01*
X0043867Y0126650D02*
X0373541Y0126650D01*
X0371438Y0124885D01*
X0369781Y0122015D01*
X0369205Y0118750D01*
X0369205Y0118750D01*
X0369781Y0115485D01*
X0371438Y0112615D01*
X0371438Y0112615D01*
X0373977Y0110484D01*
X0373977Y0110484D01*
X0377093Y0109350D01*
X0380407Y0109350D01*
X0383522Y0110484D01*
X0383523Y0110484D01*
X0386062Y0112615D01*
X0386650Y0113633D01*
X0386650Y0098394D01*
X0384824Y0099150D01*
X0382676Y0099150D01*
X0380691Y0098328D01*
X0379172Y0096809D01*
X0378350Y0094824D01*
X0378350Y0092676D01*
X0379172Y0090691D01*
X0380691Y0089172D01*
X0381710Y0088750D01*
X0380691Y0088328D01*
X0379172Y0086809D01*
X0378350Y0084824D01*
X0378350Y0082676D01*
X0379172Y0080691D01*
X0380691Y0079172D01*
X0381710Y0078750D01*
X0380691Y0078328D01*
X0379172Y0076809D01*
X0378350Y0074824D01*
X0378350Y0072676D01*
X0379172Y0070691D01*
X0380691Y0069172D01*
X0381974Y0068641D01*
X0381754Y0068569D01*
X0381025Y0068197D01*
X0380362Y0067716D01*
X0379784Y0067138D01*
X0379303Y0066475D01*
X0378931Y0065746D01*
X0378678Y0064968D01*
X0378564Y0064250D01*
X0383250Y0064250D01*
X0383250Y0063250D01*
X0384250Y0063250D01*
X0384250Y0058564D01*
X0384968Y0058678D01*
X0385746Y0058931D01*
X0386475Y0059303D01*
X0386650Y0059429D01*
X0386650Y0043867D01*
X0386062Y0044885D01*
X0386062Y0044885D01*
X0383522Y0047016D01*
X0380407Y0048150D01*
X0377093Y0048150D01*
X0373977Y0047016D01*
X0371438Y0044885D01*
X0369781Y0042015D01*
X0369205Y0038750D01*
X0369205Y0038750D01*
X0369781Y0035485D01*
X0371438Y0032615D01*
X0371438Y0032615D01*
X0373541Y0030850D01*
X0061015Y0030850D01*
X0061263Y0032091D01*
X0060157Y0033750D01*
X0061263Y0035409D01*
X0060922Y0037115D01*
X0059474Y0038080D01*
X0057769Y0037739D01*
X0057633Y0037536D01*
X0057498Y0037739D01*
X0055792Y0038080D01*
X0054814Y0037428D01*
X0054083Y0037950D01*
X0052184Y0037950D01*
X0050697Y0036888D01*
X0050036Y0037417D01*
X0049503Y0037950D01*
X0049370Y0037950D01*
X0049266Y0038033D01*
X0048517Y0037950D01*
X0048150Y0037950D01*
X0048150Y0040407D01*
X0047016Y0043522D01*
X0047016Y0043523D01*
X0044885Y0046062D01*
X0042015Y0047719D01*
X0042015Y0047719D01*
X0038750Y0048295D01*
X0035485Y0047719D01*
X0032615Y0046062D01*
X0032615Y0046062D01*
X0030850Y0043959D01*
X0030850Y0049429D01*
X0031025Y0049303D01*
X0031754Y0048931D01*
X0032532Y0048678D01*
X0033250Y0048564D01*
X0033250Y0053250D01*
X0034250Y0053250D01*
X0034250Y0054250D01*
X0038936Y0054250D01*
X0038822Y0054968D01*
X0038569Y0055746D01*
X0038197Y0056475D01*
X0037716Y0057138D01*
X0037138Y0057716D01*
X0036475Y0058197D01*
X0035746Y0058569D01*
X0035526Y0058641D01*
X0036809Y0059172D01*
X0038328Y0060691D01*
X0038395Y0060853D01*
X0050297Y0048950D01*
X0110703Y0048950D01*
X0112353Y0050600D01*
X0112877Y0050600D01*
X0114034Y0051080D01*
X0114920Y0051966D01*
X0115400Y0053123D01*
X0115400Y0053647D01*
X0121050Y0059297D01*
X0121050Y0071800D01*
X0121954Y0071800D01*
X0122950Y0072796D01*
X0122950Y0076450D01*
X0130203Y0076450D01*
X0137550Y0083797D01*
X0137550Y0085703D01*
X0137550Y0096307D01*
X0138293Y0097051D01*
X0138750Y0098153D01*
X0138750Y0099347D01*
X0138293Y0100449D01*
X0137449Y0101293D01*
X0136347Y0101750D01*
X0135153Y0101750D01*
X0134051Y0101293D01*
X0133207Y0100449D01*
X0132750Y0099347D01*
X0132750Y0098153D01*
X0132950Y0097670D01*
X0132950Y0085703D01*
X0128297Y0081050D01*
X0122950Y0081050D01*
X0122950Y0084704D01*
X0121954Y0085700D01*
X0115546Y0085700D01*
X0114896Y0085050D01*
X0111671Y0085050D01*
X0098718Y0098003D01*
X0098718Y0098347D01*
X0098262Y0099449D01*
X0097418Y0100293D01*
X0096315Y0100750D01*
X0095122Y0100750D01*
X0094019Y0100293D01*
X0093175Y0099449D01*
X0092719Y0098347D01*
X0092719Y0097153D01*
X0093175Y0096051D01*
X0094019Y0095207D01*
X0095122Y0094750D01*
X0095466Y0094750D01*
X0098068Y0092148D01*
X0096824Y0091632D01*
X0095868Y0090676D01*
X0095350Y0089426D01*
X0095350Y0088978D01*
X0089750Y0094578D01*
X0089750Y0096507D01*
X0090293Y0097051D01*
X0090750Y0098153D01*
X0090750Y0099347D01*
X0090293Y0100449D01*
X0089449Y0101293D01*
X0088347Y0101750D01*
X0087153Y0101750D01*
X0086051Y0101293D01*
X0085207Y0100449D01*
X0084750Y0099347D01*
X0084750Y0098153D01*
X0085207Y0097051D01*
X0085750Y0096507D01*
X0085750Y0092922D01*
X0086922Y0091750D01*
X0086976Y0091695D01*
X0086824Y0091632D01*
X0085868Y0090676D01*
X0085350Y0089426D01*
X0085350Y0088074D01*
X0085868Y0086824D01*
X0086497Y0086194D01*
X0075937Y0086194D01*
X0075394Y0086738D01*
X0074291Y0087194D01*
X0073098Y0087194D01*
X0071995Y0086738D01*
X0071151Y0085894D01*
X0070694Y0084791D01*
X0070694Y0083598D01*
X0071151Y0082495D01*
X0071995Y0081651D01*
X0073098Y0081194D01*
X0074200Y0081194D01*
X0074200Y0077250D01*
X0073153Y0077250D01*
X0072051Y0076793D01*
X0071207Y0075949D01*
X0070750Y0074847D01*
X0070750Y0073653D01*
X0071207Y0072551D01*
X0072051Y0071707D01*
X0073153Y0071250D01*
X0074347Y0071250D01*
X0075449Y0071707D01*
X0075993Y0072250D01*
X0083578Y0072250D01*
X0085750Y0074422D01*
X0085750Y0074153D01*
X0086207Y0073051D01*
X0087051Y0072207D01*
X0087918Y0071847D01*
X0087817Y0071827D01*
X0087234Y0071586D01*
X0086710Y0071236D01*
X0086264Y0070790D01*
X0085914Y0070266D01*
X0085673Y0069683D01*
X0085550Y0069065D01*
X0085550Y0068750D01*
X0088750Y0068750D01*
X0091950Y0068750D01*
X0091950Y0069065D01*
X0091827Y0069683D01*
X0091586Y0070266D01*
X0091236Y0070790D01*
X0090790Y0071236D01*
X0090266Y0071586D01*
X0089683Y0071827D01*
X0089582Y0071847D01*
X0090449Y0072207D01*
X0090993Y0072750D01*
X0091922Y0072750D01*
X0095350Y0069322D01*
X0095350Y0068074D01*
X0095868Y0066824D01*
X0096824Y0065868D01*
X0097108Y0065750D01*
X0089869Y0065750D01*
X0090266Y0065914D01*
X0090790Y0066264D01*
X0091236Y0066710D01*
X0091586Y0067234D01*
X0091827Y0067817D01*
X0091950Y0068435D01*
X0091950Y0068750D01*
X0088750Y0068750D01*
X0088750Y0068750D01*
X0088750Y0068750D01*
X0085550Y0068750D01*
X0085550Y0068435D01*
X0085673Y0067817D01*
X0085914Y0067234D01*
X0086264Y0066710D01*
X0086710Y0066264D01*
X0087234Y0065914D01*
X0087631Y0065750D01*
X0073578Y0065750D01*
X0067250Y0072078D01*
X0067250Y0072847D01*
X0066793Y0073949D01*
X0066193Y0074550D01*
X0066704Y0074550D01*
X0067700Y0075546D01*
X0067700Y0081954D01*
X0066750Y0082904D01*
X0066750Y0083578D01*
X0060750Y0089578D01*
X0060750Y0094007D01*
X0061293Y0094551D01*
X0061750Y0095653D01*
X0061750Y0096847D01*
X0061293Y0097949D01*
X0060449Y0098793D01*
X0059347Y0099250D01*
X0058153Y0099250D01*
X0057051Y0098793D01*
X0056207Y0097949D01*
X0055750Y0096847D01*
X0055750Y0095653D01*
X0056207Y0094551D01*
X0056750Y0094007D01*
X0056750Y0089361D01*
X0051450Y0094661D01*
X0050161Y0095950D01*
X0038684Y0095950D01*
X0038328Y0096809D01*
X0036809Y0098328D01*
X0035526Y0098859D01*
X0035746Y0098931D01*
X0036475Y0099303D01*
X0037138Y0099784D01*
X0037716Y0100362D01*
X0038197Y0101025D01*
X0038569Y0101754D01*
X0038822Y0102532D01*
X0038936Y0103250D01*
X0034250Y0103250D01*
X0034250Y0104250D01*
X0033250Y0104250D01*
X0033250Y0108936D01*
X0032532Y0108822D01*
X0031754Y0108569D01*
X0031025Y0108197D01*
X0030850Y0108071D01*
X0030850Y0113541D01*
X0032615Y0111438D01*
X0035485Y0109781D01*
X0035485Y0109781D01*
X0038750Y0109205D01*
X0042015Y0109781D01*
X0044885Y0111438D01*
X0044885Y0111438D01*
X0047016Y0113977D01*
X0047016Y0113977D01*
X0048150Y0117093D01*
X0048150Y0120407D01*
X0047016Y0123522D01*
X0044885Y0126062D01*
X0043867Y0126650D01*
X0043946Y0126604D02*
X0373486Y0126604D01*
X0372296Y0125606D02*
X0045268Y0125606D01*
X0044885Y0126062D02*
X0044885Y0126062D01*
X0046106Y0124607D02*
X0371277Y0124607D01*
X0371438Y0124885D02*
X0371438Y0124885D01*
X0371438Y0124885D01*
X0370701Y0123609D02*
X0046944Y0123609D01*
X0047348Y0122610D02*
X0370124Y0122610D01*
X0369781Y0122015D02*
X0369781Y0122015D01*
X0369710Y0121612D02*
X0047712Y0121612D01*
X0048075Y0120613D02*
X0369534Y0120613D01*
X0369357Y0119615D02*
X0048150Y0119615D01*
X0048150Y0120407D02*
X0048150Y0120407D01*
X0048150Y0118616D02*
X0369229Y0118616D01*
X0369405Y0117618D02*
X0048150Y0117618D01*
X0047978Y0116619D02*
X0369581Y0116619D01*
X0369757Y0115620D02*
X0047614Y0115620D01*
X0047251Y0114622D02*
X0370279Y0114622D01*
X0369781Y0115485D02*
X0369781Y0115485D01*
X0370856Y0113623D02*
X0046719Y0113623D01*
X0045881Y0112625D02*
X0371432Y0112625D01*
X0372616Y0111626D02*
X0045043Y0111626D01*
X0043482Y0110628D02*
X0373806Y0110628D01*
X0376325Y0109629D02*
X0041157Y0109629D01*
X0042015Y0109781D02*
X0042015Y0109781D01*
X0038750Y0109205D02*
X0038750Y0109205D01*
X0037221Y0107632D02*
X0386650Y0107632D01*
X0386650Y0106634D02*
X0038082Y0106634D01*
X0038197Y0106475D02*
X0037716Y0107138D01*
X0037138Y0107716D01*
X0036475Y0108197D01*
X0035746Y0108569D01*
X0034968Y0108822D01*
X0034250Y0108936D01*
X0034250Y0104250D01*
X0038936Y0104250D01*
X0038822Y0104968D01*
X0038569Y0105746D01*
X0038197Y0106475D01*
X0038605Y0105635D02*
X0386650Y0105635D01*
X0386650Y0104637D02*
X0038874Y0104637D01*
X0038839Y0102640D02*
X0386650Y0102640D01*
X0386650Y0103638D02*
X0034250Y0103638D01*
X0034250Y0104637D02*
X0033250Y0104637D01*
X0033250Y0105635D02*
X0034250Y0105635D01*
X0034250Y0106634D02*
X0033250Y0106634D01*
X0033250Y0107632D02*
X0034250Y0107632D01*
X0034250Y0108631D02*
X0033250Y0108631D01*
X0031944Y0108631D02*
X0030850Y0108631D01*
X0030850Y0109629D02*
X0036343Y0109629D01*
X0035556Y0108631D02*
X0386650Y0108631D01*
X0386650Y0109629D02*
X0381175Y0109629D01*
X0383694Y0110628D02*
X0386650Y0110628D01*
X0386650Y0111626D02*
X0384884Y0111626D01*
X0386062Y0112615D02*
X0386062Y0112615D01*
X0386062Y0112615D01*
X0386068Y0112625D02*
X0386650Y0112625D01*
X0386644Y0113623D02*
X0386650Y0113623D01*
X0386650Y0101641D02*
X0136609Y0101641D01*
X0134891Y0101641D02*
X0088609Y0101641D01*
X0086891Y0101641D02*
X0038512Y0101641D01*
X0037920Y0100643D02*
X0085400Y0100643D01*
X0084873Y0099644D02*
X0036946Y0099644D01*
X0036041Y0098646D02*
X0056903Y0098646D01*
X0056082Y0097647D02*
X0037489Y0097647D01*
X0038394Y0096649D02*
X0055750Y0096649D01*
X0055751Y0095650D02*
X0050461Y0095650D01*
X0051460Y0094652D02*
X0056165Y0094652D01*
X0056750Y0093653D02*
X0052458Y0093653D01*
X0053457Y0092655D02*
X0056750Y0092655D01*
X0056750Y0091656D02*
X0054455Y0091656D01*
X0055454Y0090658D02*
X0056750Y0090658D01*
X0056750Y0089659D02*
X0056452Y0089659D01*
X0060750Y0089659D02*
X0085446Y0089659D01*
X0085350Y0088661D02*
X0061668Y0088661D01*
X0062666Y0087662D02*
X0085520Y0087662D01*
X0086028Y0086664D02*
X0075468Y0086664D01*
X0071921Y0086664D02*
X0063665Y0086664D01*
X0064663Y0085665D02*
X0071056Y0085665D01*
X0070694Y0084667D02*
X0065662Y0084667D01*
X0066660Y0083668D02*
X0070694Y0083668D01*
X0071079Y0082670D02*
X0066985Y0082670D01*
X0067700Y0081671D02*
X0071975Y0081671D01*
X0074200Y0080673D02*
X0067700Y0080673D01*
X0067700Y0079674D02*
X0074200Y0079674D01*
X0074200Y0078676D02*
X0067700Y0078676D01*
X0067700Y0077677D02*
X0074200Y0077677D01*
X0071936Y0076679D02*
X0067700Y0076679D01*
X0067700Y0075680D02*
X0071095Y0075680D01*
X0070750Y0074682D02*
X0066836Y0074682D01*
X0066904Y0073683D02*
X0070750Y0073683D01*
X0071151Y0072684D02*
X0067250Y0072684D01*
X0067642Y0071686D02*
X0072101Y0071686D01*
X0069639Y0069689D02*
X0085675Y0069689D01*
X0085550Y0068690D02*
X0070638Y0068690D01*
X0071636Y0067692D02*
X0085725Y0067692D01*
X0086281Y0066693D02*
X0072635Y0066693D01*
X0068750Y0063750D02*
X0060750Y0071750D01*
X0060750Y0078750D01*
X0060650Y0078850D01*
X0060650Y0082350D01*
X0049250Y0093750D01*
X0033750Y0093750D01*
X0045750Y0093750D01*
X0047250Y0093750D01*
X0048339Y0091550D02*
X0056939Y0082950D01*
X0054796Y0082950D01*
X0053800Y0081954D01*
X0053800Y0075546D01*
X0054750Y0074596D01*
X0054750Y0071422D01*
X0055922Y0070250D01*
X0056750Y0069422D01*
X0056750Y0062993D01*
X0056207Y0062449D01*
X0055750Y0061347D01*
X0055750Y0060153D01*
X0055917Y0059750D01*
X0055578Y0059750D01*
X0050750Y0064578D01*
X0050750Y0069578D01*
X0038711Y0081617D01*
X0039150Y0082676D01*
X0039150Y0084824D01*
X0038328Y0086809D01*
X0036809Y0088328D01*
X0035790Y0088750D01*
X0036809Y0089172D01*
X0038328Y0090691D01*
X0038684Y0091550D01*
X0048339Y0091550D01*
X0049231Y0090658D02*
X0038294Y0090658D01*
X0037296Y0089659D02*
X0050230Y0089659D01*
X0051228Y0088661D02*
X0036005Y0088661D01*
X0037475Y0087662D02*
X0052227Y0087662D01*
X0053225Y0086664D02*
X0038388Y0086664D01*
X0038802Y0085665D02*
X0054224Y0085665D01*
X0055222Y0084667D02*
X0039150Y0084667D01*
X0039150Y0083668D02*
X0056221Y0083668D01*
X0054515Y0082670D02*
X0039147Y0082670D01*
X0038734Y0081671D02*
X0053800Y0081671D01*
X0053800Y0080673D02*
X0039656Y0080673D01*
X0040654Y0079674D02*
X0053800Y0079674D01*
X0053800Y0078676D02*
X0041653Y0078676D01*
X0042651Y0077677D02*
X0053800Y0077677D01*
X0053800Y0076679D02*
X0043650Y0076679D01*
X0044648Y0075680D02*
X0053800Y0075680D01*
X0054664Y0074682D02*
X0045647Y0074682D01*
X0046645Y0073683D02*
X0054750Y0073683D01*
X0054750Y0072684D02*
X0047644Y0072684D01*
X0048642Y0071686D02*
X0054750Y0071686D01*
X0055484Y0070687D02*
X0049641Y0070687D01*
X0050639Y0069689D02*
X0056483Y0069689D01*
X0056750Y0068690D02*
X0050750Y0068690D01*
X0050750Y0067692D02*
X0056750Y0067692D01*
X0056750Y0066693D02*
X0050750Y0066693D01*
X0050750Y0065695D02*
X0056750Y0065695D01*
X0056750Y0064696D02*
X0050750Y0064696D01*
X0051631Y0063698D02*
X0056750Y0063698D01*
X0056457Y0062699D02*
X0052629Y0062699D01*
X0053628Y0061701D02*
X0055897Y0061701D01*
X0055750Y0060702D02*
X0054626Y0060702D01*
X0051965Y0057707D02*
X0048046Y0057707D01*
X0047047Y0058705D02*
X0050966Y0058705D01*
X0049968Y0059704D02*
X0046049Y0059704D01*
X0045050Y0060702D02*
X0048969Y0060702D01*
X0047971Y0061701D02*
X0044052Y0061701D01*
X0043053Y0062699D02*
X0046972Y0062699D01*
X0046750Y0062922D02*
X0053922Y0055750D01*
X0067578Y0055750D01*
X0068750Y0056922D01*
X0073578Y0061750D01*
X0093750Y0061750D01*
X0093750Y0057493D01*
X0093207Y0056949D01*
X0092750Y0055847D01*
X0092750Y0054653D01*
X0093207Y0053551D01*
X0093207Y0053550D01*
X0081750Y0053550D01*
X0081750Y0054347D01*
X0081293Y0055449D01*
X0080449Y0056293D01*
X0079347Y0056750D01*
X0078153Y0056750D01*
X0077051Y0056293D01*
X0076207Y0055449D01*
X0075750Y0054347D01*
X0075750Y0053550D01*
X0052203Y0053550D01*
X0039703Y0066050D01*
X0038642Y0066050D01*
X0038328Y0066809D01*
X0036809Y0068328D01*
X0035790Y0068750D01*
X0036809Y0069172D01*
X0038328Y0070691D01*
X0039150Y0072676D01*
X0039150Y0074824D01*
X0038657Y0076015D01*
X0046750Y0067922D01*
X0046750Y0062922D01*
X0046750Y0063698D02*
X0042055Y0063698D01*
X0041056Y0064696D02*
X0046750Y0064696D01*
X0046750Y0065695D02*
X0040058Y0065695D01*
X0038376Y0066693D02*
X0046750Y0066693D01*
X0046750Y0067692D02*
X0037445Y0067692D01*
X0035934Y0068690D02*
X0045981Y0068690D01*
X0044983Y0069689D02*
X0037326Y0069689D01*
X0038324Y0070687D02*
X0043984Y0070687D01*
X0042986Y0071686D02*
X0038740Y0071686D01*
X0039150Y0072684D02*
X0041987Y0072684D01*
X0040989Y0073683D02*
X0039150Y0073683D01*
X0039150Y0074682D02*
X0039990Y0074682D01*
X0038992Y0075680D02*
X0038795Y0075680D01*
X0038545Y0060702D02*
X0038333Y0060702D01*
X0037341Y0059704D02*
X0039543Y0059704D01*
X0040542Y0058705D02*
X0035682Y0058705D01*
X0037147Y0057707D02*
X0041540Y0057707D01*
X0042539Y0056708D02*
X0038028Y0056708D01*
X0038581Y0055710D02*
X0043537Y0055710D01*
X0044536Y0054711D02*
X0038863Y0054711D01*
X0038936Y0053250D02*
X0034250Y0053250D01*
X0034250Y0048564D01*
X0034968Y0048678D01*
X0035746Y0048931D01*
X0036475Y0049303D01*
X0037138Y0049784D01*
X0037716Y0050362D01*
X0038197Y0051025D01*
X0038569Y0051754D01*
X0038822Y0052532D01*
X0038936Y0053250D01*
X0038851Y0052714D02*
X0046533Y0052714D01*
X0047532Y0051716D02*
X0038550Y0051716D01*
X0037974Y0050717D02*
X0048530Y0050717D01*
X0049529Y0049719D02*
X0037048Y0049719D01*
X0035098Y0048720D02*
X0386650Y0048720D01*
X0386650Y0047722D02*
X0381584Y0047722D01*
X0383872Y0046723D02*
X0386650Y0046723D01*
X0386650Y0045725D02*
X0385062Y0045725D01*
X0386154Y0044726D02*
X0386650Y0044726D01*
X0386650Y0049719D02*
X0111471Y0049719D01*
X0113160Y0050717D02*
X0386650Y0050717D01*
X0386650Y0051716D02*
X0114671Y0051716D01*
X0115231Y0052714D02*
X0386650Y0052714D01*
X0386650Y0053713D02*
X0115465Y0053713D01*
X0116464Y0054711D02*
X0386650Y0054711D01*
X0386650Y0055710D02*
X0117462Y0055710D01*
X0118461Y0056708D02*
X0386650Y0056708D01*
X0386650Y0057707D02*
X0119460Y0057707D01*
X0120458Y0058705D02*
X0382448Y0058705D01*
X0382532Y0058678D02*
X0383250Y0058564D01*
X0383250Y0063250D01*
X0378564Y0063250D01*
X0378678Y0062532D01*
X0378931Y0061754D01*
X0379303Y0061025D01*
X0379784Y0060362D01*
X0380362Y0059784D01*
X0381025Y0059303D01*
X0381754Y0058931D01*
X0382532Y0058678D01*
X0383250Y0058705D02*
X0384250Y0058705D01*
X0385052Y0058705D02*
X0386650Y0058705D01*
X0384250Y0059704D02*
X0383250Y0059704D01*
X0383250Y0060702D02*
X0384250Y0060702D01*
X0384250Y0061701D02*
X0383250Y0061701D01*
X0383250Y0062699D02*
X0384250Y0062699D01*
X0383250Y0063698D02*
X0121050Y0063698D01*
X0121050Y0064696D02*
X0378635Y0064696D01*
X0378914Y0065695D02*
X0121050Y0065695D01*
X0121050Y0066693D02*
X0379461Y0066693D01*
X0380338Y0067692D02*
X0121050Y0067692D01*
X0121050Y0068690D02*
X0381854Y0068690D01*
X0380174Y0069689D02*
X0121050Y0069689D01*
X0121050Y0070687D02*
X0379176Y0070687D01*
X0378760Y0071686D02*
X0121050Y0071686D01*
X0122839Y0072684D02*
X0378350Y0072684D01*
X0378350Y0073683D02*
X0122950Y0073683D01*
X0122950Y0074682D02*
X0378350Y0074682D01*
X0378705Y0075680D02*
X0122950Y0075680D01*
X0116450Y0071800D02*
X0116450Y0061203D01*
X0112147Y0056900D01*
X0111623Y0056900D01*
X0110466Y0056420D01*
X0109580Y0055534D01*
X0109100Y0054377D01*
X0109100Y0053853D01*
X0108797Y0053550D01*
X0098293Y0053550D01*
X0098293Y0053551D01*
X0098750Y0054653D01*
X0098750Y0055847D01*
X0098293Y0056949D01*
X0097750Y0057493D01*
X0097750Y0061750D01*
X0099578Y0061750D01*
X0100750Y0062922D01*
X0103750Y0065922D01*
X0103750Y0071078D01*
X0100078Y0074750D01*
X0097558Y0074750D01*
X0095558Y0076750D01*
X0095942Y0076750D01*
X0096824Y0075868D01*
X0098074Y0075350D01*
X0099426Y0075350D01*
X0100676Y0075868D01*
X0101632Y0076824D01*
X0102150Y0078074D01*
X0102150Y0079426D01*
X0101632Y0080676D01*
X0100750Y0081558D01*
X0100750Y0083578D01*
X0099578Y0084750D01*
X0098978Y0085350D01*
X0099426Y0085350D01*
X0100676Y0085868D01*
X0101632Y0086824D01*
X0102148Y0088068D01*
X0109766Y0080450D01*
X0114550Y0080450D01*
X0114550Y0076796D01*
X0114596Y0076750D01*
X0114550Y0076704D01*
X0114550Y0072796D01*
X0115546Y0071800D01*
X0116450Y0071800D01*
X0116450Y0071686D02*
X0103142Y0071686D01*
X0103750Y0070687D02*
X0116450Y0070687D01*
X0116450Y0069689D02*
X0103750Y0069689D01*
X0103750Y0068690D02*
X0116450Y0068690D01*
X0116450Y0067692D02*
X0103750Y0067692D01*
X0103750Y0066693D02*
X0116450Y0066693D01*
X0116450Y0065695D02*
X0103523Y0065695D01*
X0102525Y0064696D02*
X0116450Y0064696D01*
X0116450Y0063698D02*
X0101526Y0063698D01*
X0100528Y0062699D02*
X0116450Y0062699D01*
X0116450Y0061701D02*
X0097750Y0061701D01*
X0097750Y0060702D02*
X0115950Y0060702D01*
X0114951Y0059704D02*
X0097750Y0059704D01*
X0097750Y0058705D02*
X0113953Y0058705D01*
X0112954Y0057707D02*
X0097750Y0057707D01*
X0098393Y0056708D02*
X0111161Y0056708D01*
X0109755Y0055710D02*
X0098750Y0055710D01*
X0098750Y0054711D02*
X0109239Y0054711D01*
X0108960Y0053713D02*
X0098360Y0053713D01*
X0093140Y0053713D02*
X0081750Y0053713D01*
X0081599Y0054711D02*
X0092750Y0054711D01*
X0092750Y0055710D02*
X0081033Y0055710D01*
X0079447Y0056708D02*
X0093107Y0056708D01*
X0093750Y0057707D02*
X0069535Y0057707D01*
X0068537Y0056708D02*
X0078053Y0056708D01*
X0076467Y0055710D02*
X0050043Y0055710D01*
X0049044Y0056708D02*
X0052963Y0056708D01*
X0051041Y0054711D02*
X0075901Y0054711D01*
X0075750Y0053713D02*
X0052040Y0053713D01*
X0045535Y0053713D02*
X0034250Y0053713D01*
X0034250Y0052714D02*
X0033250Y0052714D01*
X0033250Y0051716D02*
X0034250Y0051716D01*
X0034250Y0050717D02*
X0033250Y0050717D01*
X0033250Y0049719D02*
X0034250Y0049719D01*
X0034250Y0048720D02*
X0033250Y0048720D01*
X0032402Y0048720D02*
X0030850Y0048720D01*
X0030850Y0047722D02*
X0035499Y0047722D01*
X0035485Y0047719D02*
X0035485Y0047719D01*
X0033760Y0046723D02*
X0030850Y0046723D01*
X0030850Y0045725D02*
X0032332Y0045725D01*
X0031494Y0044726D02*
X0030850Y0044726D01*
X0038750Y0048295D02*
X0038750Y0048295D01*
X0042001Y0047722D02*
X0375916Y0047722D01*
X0373977Y0047016D02*
X0373977Y0047016D01*
X0373628Y0046723D02*
X0043740Y0046723D01*
X0044885Y0046062D02*
X0044885Y0046062D01*
X0044885Y0046062D01*
X0045168Y0045725D02*
X0372438Y0045725D01*
X0371438Y0044885D02*
X0371438Y0044885D01*
X0371438Y0044885D01*
X0371346Y0044726D02*
X0046006Y0044726D01*
X0046844Y0043728D02*
X0370770Y0043728D01*
X0370193Y0042729D02*
X0047305Y0042729D01*
X0047668Y0041731D02*
X0369731Y0041731D01*
X0369781Y0042015D02*
X0369781Y0042015D01*
X0369555Y0040732D02*
X0048032Y0040732D01*
X0048150Y0039734D02*
X0369378Y0039734D01*
X0369208Y0038735D02*
X0048150Y0038735D01*
X0049717Y0037737D02*
X0051885Y0037737D01*
X0054382Y0037737D02*
X0055277Y0037737D01*
X0057499Y0037737D02*
X0057767Y0037737D01*
X0059989Y0037737D02*
X0369384Y0037737D01*
X0369560Y0036738D02*
X0060997Y0036738D01*
X0061197Y0035740D02*
X0369736Y0035740D01*
X0369781Y0035485D02*
X0369781Y0035485D01*
X0370210Y0034741D02*
X0060818Y0034741D01*
X0060162Y0033743D02*
X0370787Y0033743D01*
X0371363Y0032744D02*
X0060828Y0032744D01*
X0061194Y0031746D02*
X0372474Y0031746D01*
X0380472Y0059704D02*
X0121050Y0059704D01*
X0121050Y0060702D02*
X0379537Y0060702D01*
X0378958Y0061701D02*
X0121050Y0061701D01*
X0121050Y0062699D02*
X0378652Y0062699D01*
X0379118Y0076679D02*
X0130431Y0076679D01*
X0131430Y0077677D02*
X0380040Y0077677D01*
X0381531Y0078676D02*
X0132428Y0078676D01*
X0133427Y0079674D02*
X0380189Y0079674D01*
X0379191Y0080673D02*
X0134425Y0080673D01*
X0135424Y0081671D02*
X0378766Y0081671D01*
X0378353Y0082670D02*
X0136422Y0082670D01*
X0137421Y0083668D02*
X0378350Y0083668D01*
X0378350Y0084667D02*
X0137550Y0084667D01*
X0137550Y0085665D02*
X0378698Y0085665D01*
X0379112Y0086664D02*
X0137550Y0086664D01*
X0137550Y0087662D02*
X0380025Y0087662D01*
X0381495Y0088661D02*
X0137550Y0088661D01*
X0137550Y0089659D02*
X0380204Y0089659D01*
X0379206Y0090658D02*
X0137550Y0090658D01*
X0137550Y0091656D02*
X0378772Y0091656D01*
X0378359Y0092655D02*
X0137550Y0092655D01*
X0137550Y0093653D02*
X0378350Y0093653D01*
X0378350Y0094652D02*
X0137550Y0094652D01*
X0137550Y0095650D02*
X0378692Y0095650D01*
X0379106Y0096649D02*
X0137891Y0096649D01*
X0138540Y0097647D02*
X0380011Y0097647D01*
X0381459Y0098646D02*
X0138750Y0098646D01*
X0138627Y0099644D02*
X0386650Y0099644D01*
X0386650Y0098646D02*
X0386041Y0098646D01*
X0386650Y0100643D02*
X0138100Y0100643D01*
X0133400Y0100643D02*
X0096574Y0100643D01*
X0094863Y0100643D02*
X0090100Y0100643D01*
X0090627Y0099644D02*
X0093370Y0099644D01*
X0092842Y0098646D02*
X0090750Y0098646D01*
X0090540Y0097647D02*
X0092719Y0097647D01*
X0092927Y0096649D02*
X0089891Y0096649D01*
X0089750Y0095650D02*
X0093576Y0095650D01*
X0095564Y0094652D02*
X0089750Y0094652D01*
X0090675Y0093653D02*
X0096563Y0093653D01*
X0097561Y0092655D02*
X0091674Y0092655D01*
X0092672Y0091656D02*
X0096882Y0091656D01*
X0095860Y0090658D02*
X0093671Y0090658D01*
X0094669Y0089659D02*
X0095446Y0089659D01*
X0100187Y0085665D02*
X0104551Y0085665D01*
X0105549Y0084667D02*
X0099662Y0084667D01*
X0099578Y0084750D02*
X0099578Y0084750D01*
X0100660Y0083668D02*
X0106548Y0083668D01*
X0107546Y0082670D02*
X0100750Y0082670D01*
X0100750Y0081671D02*
X0108545Y0081671D01*
X0109543Y0080673D02*
X0101634Y0080673D01*
X0102047Y0079674D02*
X0114550Y0079674D01*
X0114550Y0078676D02*
X0102150Y0078676D01*
X0101986Y0077677D02*
X0114550Y0077677D01*
X0114550Y0076679D02*
X0101487Y0076679D01*
X0100223Y0075680D02*
X0114550Y0075680D01*
X0114550Y0074682D02*
X0100147Y0074682D01*
X0101145Y0073683D02*
X0114550Y0073683D01*
X0114661Y0072684D02*
X0102144Y0072684D01*
X0097277Y0075680D02*
X0096628Y0075680D01*
X0096013Y0076679D02*
X0095630Y0076679D01*
X0095942Y0080750D02*
X0093255Y0080750D01*
X0091827Y0082178D01*
X0091811Y0082194D01*
X0091952Y0082194D01*
X0092495Y0081651D01*
X0093598Y0081194D01*
X0094791Y0081194D01*
X0095894Y0081651D01*
X0096457Y0082214D01*
X0096750Y0081922D01*
X0096750Y0081558D01*
X0095942Y0080750D01*
X0095914Y0081671D02*
X0096750Y0081671D01*
X0094650Y0080994D02*
X0092163Y0080994D01*
X0090407Y0082750D01*
X0084350Y0082750D01*
X0080350Y0078750D01*
X0085011Y0073683D02*
X0085945Y0073683D01*
X0086573Y0072684D02*
X0084013Y0072684D01*
X0086196Y0070687D02*
X0068641Y0070687D01*
X0075399Y0071686D02*
X0087476Y0071686D01*
X0090024Y0071686D02*
X0092986Y0071686D01*
X0093984Y0070687D02*
X0091304Y0070687D01*
X0091825Y0069689D02*
X0094983Y0069689D01*
X0095350Y0068690D02*
X0091950Y0068690D01*
X0091775Y0067692D02*
X0095508Y0067692D01*
X0095998Y0066693D02*
X0091219Y0066693D01*
X0093750Y0061701D02*
X0073529Y0061701D01*
X0072531Y0060702D02*
X0093750Y0060702D01*
X0093750Y0059704D02*
X0071532Y0059704D01*
X0070534Y0058705D02*
X0093750Y0058705D01*
X0091987Y0072684D02*
X0090927Y0072684D01*
X0092334Y0081671D02*
X0092475Y0081671D01*
X0101472Y0086664D02*
X0103552Y0086664D01*
X0102554Y0087662D02*
X0101980Y0087662D01*
X0105065Y0091656D02*
X0132950Y0091656D01*
X0132950Y0090658D02*
X0106063Y0090658D01*
X0107062Y0089659D02*
X0132950Y0089659D01*
X0132950Y0088661D02*
X0108060Y0088661D01*
X0109059Y0087662D02*
X0132950Y0087662D01*
X0132950Y0086664D02*
X0110058Y0086664D01*
X0111056Y0085665D02*
X0115511Y0085665D01*
X0121989Y0085665D02*
X0132912Y0085665D01*
X0131914Y0084667D02*
X0122950Y0084667D01*
X0122950Y0083668D02*
X0130915Y0083668D01*
X0129917Y0082670D02*
X0122950Y0082670D01*
X0122950Y0081671D02*
X0128918Y0081671D01*
X0132950Y0092655D02*
X0104066Y0092655D01*
X0103068Y0093653D02*
X0132950Y0093653D01*
X0132950Y0094652D02*
X0102069Y0094652D01*
X0101071Y0095650D02*
X0132950Y0095650D01*
X0132950Y0096649D02*
X0100072Y0096649D01*
X0099074Y0097647D02*
X0132950Y0097647D01*
X0132750Y0098646D02*
X0098595Y0098646D01*
X0098067Y0099644D02*
X0132873Y0099644D01*
X0086922Y0091750D02*
X0086922Y0091750D01*
X0086882Y0091656D02*
X0060750Y0091656D01*
X0060750Y0090658D02*
X0085860Y0090658D01*
X0086017Y0092655D02*
X0060750Y0092655D01*
X0060750Y0093653D02*
X0085750Y0093653D01*
X0085750Y0094652D02*
X0061335Y0094652D01*
X0061749Y0095650D02*
X0085750Y0095650D01*
X0085609Y0096649D02*
X0061750Y0096649D01*
X0061418Y0097647D02*
X0084960Y0097647D01*
X0084750Y0098646D02*
X0060597Y0098646D01*
X0034018Y0110628D02*
X0030850Y0110628D01*
X0030850Y0111626D02*
X0032457Y0111626D01*
X0032615Y0111438D02*
X0032615Y0111438D01*
X0032615Y0111438D01*
X0031619Y0112625D02*
X0030850Y0112625D01*
X0030850Y0146574D02*
X0031366Y0146574D01*
X0030850Y0147573D02*
X0032204Y0147573D01*
X0033497Y0148571D02*
X0030850Y0148571D01*
X0038887Y0156559D02*
X0044688Y0156559D01*
X0043689Y0157558D02*
X0038630Y0157558D01*
X0038139Y0158556D02*
X0042691Y0158556D01*
X0041692Y0159555D02*
X0037299Y0159555D01*
X0035777Y0160553D02*
X0040694Y0160553D01*
X0039695Y0161552D02*
X0037189Y0161552D01*
X0038187Y0162551D02*
X0038697Y0162551D01*
X0107214Y0191507D02*
X0132950Y0191507D01*
X0132950Y0190509D02*
X0108212Y0190509D01*
X0109211Y0189510D02*
X0132950Y0189510D01*
X0132950Y0188512D02*
X0110209Y0188512D01*
X0111208Y0187513D02*
X0115359Y0187513D01*
X0122141Y0187513D02*
X0132761Y0187513D01*
X0131762Y0186515D02*
X0122950Y0186515D01*
X0122950Y0185516D02*
X0130764Y0185516D01*
X0129765Y0184518D02*
X0122950Y0184518D01*
X0122950Y0183519D02*
X0128767Y0183519D01*
D21*
X0101750Y0172250D02*
X0099250Y0174750D01*
X0096730Y0174750D01*
X0090730Y0180750D01*
X0088750Y0180750D01*
X0089827Y0183350D02*
X0087450Y0183350D01*
X0084300Y0180200D01*
X0084300Y0177800D01*
X0082750Y0176250D01*
X0073750Y0176250D01*
X0064250Y0174250D02*
X0072750Y0165750D01*
X0095750Y0165750D01*
X0095750Y0157250D01*
X0095750Y0165750D02*
X0098750Y0165750D01*
X0101750Y0168750D01*
X0101750Y0172250D01*
X0098750Y0170750D02*
X0092750Y0176750D01*
X0088750Y0176750D01*
X0092427Y0180750D02*
X0089827Y0183350D01*
X0092427Y0180750D02*
X0098750Y0180750D01*
X0098750Y0184750D01*
X0087750Y0195750D01*
X0087750Y0200750D01*
X0094194Y0186194D02*
X0077250Y0186194D01*
X0073694Y0186194D01*
X0077150Y0186094D02*
X0077150Y0180750D01*
X0077150Y0186094D02*
X0077250Y0186194D01*
X0084250Y0180150D02*
X0084300Y0180200D01*
X0072750Y0165750D02*
X0066750Y0159750D01*
X0054750Y0159750D01*
X0048750Y0165750D01*
X0048750Y0170750D01*
X0033750Y0185750D01*
X0045750Y0195750D02*
X0049250Y0195750D01*
X0058750Y0198250D02*
X0058750Y0190750D01*
X0064750Y0184750D01*
X0064750Y0180750D01*
X0056750Y0180750D02*
X0056750Y0174250D01*
X0058750Y0172250D01*
X0058750Y0162750D01*
X0087750Y0098750D02*
X0087750Y0093750D01*
X0098750Y0082750D01*
X0098750Y0078750D01*
X0092427Y0078750D01*
X0089827Y0081350D01*
X0087450Y0081350D01*
X0084300Y0078200D01*
X0084300Y0075800D01*
X0082750Y0074250D01*
X0073750Y0074250D01*
X0077150Y0078750D02*
X0077150Y0084094D01*
X0077250Y0084194D01*
X0073694Y0084194D01*
X0077250Y0084194D02*
X0094194Y0084194D01*
X0090730Y0078750D02*
X0096730Y0072750D01*
X0099250Y0072750D01*
X0101750Y0070250D01*
X0101750Y0066750D01*
X0098750Y0063750D01*
X0095750Y0063750D01*
X0095750Y0055250D01*
X0095750Y0063750D02*
X0072750Y0063750D01*
X0066750Y0057750D01*
X0054750Y0057750D01*
X0048750Y0063750D01*
X0048750Y0068750D01*
X0033750Y0083750D01*
X0045750Y0093750D02*
X0049250Y0093750D01*
X0058750Y0096250D02*
X0058750Y0088750D01*
X0064750Y0082750D01*
X0064750Y0078750D01*
X0064250Y0072250D02*
X0072750Y0063750D01*
X0058750Y0060750D02*
X0058750Y0070250D01*
X0056750Y0072250D01*
X0056750Y0078750D01*
X0084250Y0078150D02*
X0084300Y0078200D01*
X0088750Y0078750D02*
X0090730Y0078750D01*
X0088750Y0074750D02*
X0092750Y0074750D01*
X0098750Y0068750D01*
X0095750Y0259250D02*
X0095750Y0267750D01*
X0098750Y0267750D01*
X0101750Y0270750D01*
X0101750Y0274250D01*
X0099250Y0276750D01*
X0096730Y0276750D01*
X0090730Y0282750D01*
X0088750Y0282750D01*
X0089827Y0285350D02*
X0092427Y0282750D01*
X0098750Y0282750D01*
X0098750Y0286750D01*
X0087750Y0297750D01*
X0087750Y0302750D01*
X0094194Y0288194D02*
X0077250Y0288194D01*
X0073694Y0288194D01*
X0077150Y0288094D02*
X0077150Y0282750D01*
X0077150Y0288094D02*
X0077250Y0288194D01*
X0084250Y0282150D02*
X0084300Y0282200D01*
X0084300Y0279800D01*
X0082750Y0278250D01*
X0073750Y0278250D01*
X0064250Y0276250D02*
X0072750Y0267750D01*
X0095750Y0267750D01*
X0098750Y0272750D02*
X0092750Y0278750D01*
X0088750Y0278750D01*
X0084300Y0282200D02*
X0087450Y0285350D01*
X0089827Y0285350D01*
X0072750Y0267750D02*
X0066750Y0261750D01*
X0054750Y0261750D01*
X0048750Y0267750D01*
X0048750Y0272750D01*
X0033750Y0287750D01*
X0045750Y0297750D02*
X0049250Y0297750D01*
X0058750Y0300250D02*
X0058750Y0292750D01*
X0064750Y0286750D01*
X0064750Y0282750D01*
X0056750Y0282750D02*
X0056750Y0276250D01*
X0058750Y0274250D01*
X0058750Y0264750D01*
D22*
X0112250Y0257750D03*
X0112250Y0155750D03*
X0112250Y0053750D03*
M02*
