%
M48
M72
T01C0.0120
T02C0.0150
T03C0.0200
T04C0.0400
T05C0.1300
%
T01
X6375Y4875
X6675Y5475
X6875Y6375
X7675Y5875
X7875Y5375
X8775Y4275
X9575Y5525
X10175Y6275
X8875Y7475
X9465Y8099
X9419Y8419
X9572Y9775
X9975Y10175
X8775Y9875
X7375Y9375
X7369Y8419
X7375Y7425
X6425Y7225
X5875Y6075
X5225Y6775
X5875Y9625
X11425Y8625
X13575Y9875
X8775Y14475
X7875Y15575
X7675Y16075
X6875Y16575
X6675Y15675
X6375Y15075
X5875Y16275
X5225Y16975
X6425Y17425
X7375Y17625
X7369Y18619
X7375Y19575
X8775Y20075
X9572Y19975
X9975Y20375
X9419Y18619
X9465Y18299
X8875Y17675
X10175Y16475
X9575Y15725
X10875Y14975
X11425Y18825
X13575Y20075
X8775Y24675
X7875Y25775
X7675Y26275
X6875Y26775
X6675Y25875
X6375Y25275
X5875Y26475
X5225Y27175
X6425Y27625
X7375Y27825
X7369Y28819
X7375Y29775
X8775Y30275
X9572Y30175
X9975Y30575
X11425Y29025
X9419Y28819
X9465Y28499
X8875Y27875
X10175Y26675
X9575Y25925
X10875Y25175
X5875Y30025
X13575Y30275
X5875Y19825
X10875Y4775
T02
X11225Y5375
X11225Y15575
X11225Y25775
T03
X9875Y27275
X8875Y27275
X8875Y28275
X8875Y29275
X9875Y29275
X9875Y28275
X9875Y19075
X9875Y18075
X8875Y18075
X8875Y19075
X8875Y17075
X9875Y17075
X9875Y8875
X8875Y8875
X8875Y7875
X8875Y6875
X9875Y6875
X9875Y7875
T04
X3375Y7375
X3375Y8375
X3375Y9375
X3375Y10375
X3375Y6375
X3375Y5375
X3375Y15575
X3375Y16575
X3375Y17575
X3375Y18575
X3375Y19575
X3375Y20575
X3375Y25775
X3375Y26775
X3375Y27775
X3375Y28775
X3375Y29775
X3375Y30775
X38375Y29775
X38375Y28775
X38375Y27775
X38375Y26775
X38375Y19575
X38375Y18575
X38375Y17575
X38375Y16575
X38375Y9375
X38375Y8375
X38375Y7375
X38375Y6375
T05
X3875Y3875
X3875Y11875
X3875Y14075
X3875Y22075
X3875Y24275
X3875Y32275
X37875Y32275
X37875Y24275
X37875Y22075
X37875Y14075
X37875Y11875
X37875Y3875
M30
