G75*
%MOIN*%
%OFA0B0*%
%FSLAX25Y25*%
%IPPOS*%
%LPD*%
%AMOC8*
5,1,8,0,0,1.08239X$1,22.5*
%
%ADD10C,0.13800*%
%ADD11R,0.03300X0.05800*%
%ADD12C,0.00500*%
%ADD13C,0.08200*%
%ADD14C,0.03300*%
%ADD15C,0.04808*%
%ADD16R,0.05800X0.03300*%
D10*
X0038750Y0038750D03*
X0038750Y0118750D03*
X0038750Y0140750D03*
X0038750Y0220750D03*
X0038750Y0242750D03*
X0038750Y0322750D03*
X0378750Y0322750D03*
X0378750Y0242750D03*
X0378750Y0220750D03*
X0378750Y0140750D03*
X0378750Y0118750D03*
X0378750Y0038750D03*
D11*
X0080350Y0078750D03*
X0077150Y0078750D03*
X0064750Y0078750D03*
X0060750Y0078750D03*
X0056750Y0078750D03*
X0056750Y0180750D03*
X0060750Y0180750D03*
X0064750Y0180750D03*
X0077150Y0180750D03*
X0080350Y0180750D03*
X0080350Y0282750D03*
X0077150Y0282750D03*
X0064750Y0282750D03*
X0060750Y0282750D03*
X0056750Y0282750D03*
D12*
X0058000Y0282991D02*
X0063500Y0282991D01*
X0063500Y0283250D02*
X0063500Y0282250D01*
X0058000Y0282250D01*
X0058000Y0283250D01*
X0063500Y0283250D01*
X0063500Y0282492D02*
X0058000Y0282492D01*
X0118250Y0284000D02*
X0119250Y0284000D01*
X0119250Y0285500D01*
X0118250Y0285500D01*
X0118250Y0284000D01*
X0118250Y0284486D02*
X0119250Y0284486D01*
X0119250Y0284985D02*
X0118250Y0284985D01*
X0118250Y0285483D02*
X0119250Y0285483D01*
X0119250Y0183500D02*
X0118250Y0183500D01*
X0118250Y0182000D01*
X0119250Y0182000D01*
X0119250Y0183500D01*
X0119250Y0183289D02*
X0118250Y0183289D01*
X0118250Y0182790D02*
X0119250Y0182790D01*
X0119250Y0182291D02*
X0118250Y0182291D01*
X0063500Y0181250D02*
X0063500Y0180250D01*
X0058000Y0180250D01*
X0058000Y0181250D01*
X0063500Y0181250D01*
X0063500Y0180796D02*
X0058000Y0180796D01*
X0058000Y0180297D02*
X0063500Y0180297D01*
X0118250Y0081500D02*
X0118250Y0080000D01*
X0119250Y0080000D01*
X0119250Y0081500D01*
X0118250Y0081500D01*
X0118250Y0081094D02*
X0119250Y0081094D01*
X0119250Y0080595D02*
X0118250Y0080595D01*
X0118250Y0080097D02*
X0119250Y0080097D01*
X0063500Y0079250D02*
X0063500Y0078250D01*
X0058000Y0078250D01*
X0058000Y0079250D01*
X0063500Y0079250D01*
X0063500Y0079100D02*
X0058000Y0079100D01*
X0058000Y0078601D02*
X0063500Y0078601D01*
D13*
X0033750Y0073750D03*
X0033750Y0083750D03*
X0033750Y0093750D03*
X0033750Y0103750D03*
X0033750Y0063750D03*
X0033750Y0053750D03*
X0033750Y0155750D03*
X0033750Y0165750D03*
X0033750Y0175750D03*
X0033750Y0185750D03*
X0033750Y0195750D03*
X0033750Y0205750D03*
X0033750Y0257750D03*
X0033750Y0267750D03*
X0033750Y0277750D03*
X0033750Y0287750D03*
X0033750Y0297750D03*
X0033750Y0307750D03*
X0383750Y0297750D03*
X0383750Y0287750D03*
X0383750Y0277750D03*
X0383750Y0267750D03*
X0383750Y0195750D03*
X0383750Y0185750D03*
X0383750Y0175750D03*
X0383750Y0165750D03*
X0383750Y0093750D03*
X0383750Y0083750D03*
X0383750Y0073750D03*
X0383750Y0063750D03*
D14*
X0031750Y0031750D03*
X0031750Y0133750D03*
X0031750Y0235750D03*
X0385250Y0227250D03*
X0385250Y0125250D03*
X0385250Y0329250D03*
D15*
X0098750Y0292750D03*
X0098750Y0282750D03*
X0088750Y0282750D03*
X0088750Y0292750D03*
X0088750Y0272750D03*
X0098750Y0272750D03*
X0098750Y0190750D03*
X0098750Y0180750D03*
X0088750Y0180750D03*
X0088750Y0190750D03*
X0088750Y0170750D03*
X0098750Y0170750D03*
X0098750Y0088750D03*
X0088750Y0088750D03*
X0088750Y0078750D03*
X0088750Y0068750D03*
X0098750Y0068750D03*
X0098750Y0078750D03*
D16*
X0118750Y0078750D03*
X0118750Y0074750D03*
X0118750Y0082750D03*
X0118750Y0176750D03*
X0118750Y0180750D03*
X0118750Y0184750D03*
X0118750Y0278750D03*
X0118750Y0282750D03*
X0118750Y0286750D03*
M02*
