G75*
%MOIN*%
%OFA0B0*%
%FSLAX25Y25*%
%IPPOS*%
%LPD*%
%AMOC8*
5,1,8,0,0,1.08239X$1,22.5*
%
%ADD10C,0.13800*%
%ADD11C,0.03300*%
%ADD12R,0.04737X0.05131*%
%ADD13R,0.05524X0.08674*%
%ADD14R,0.03162X0.06115*%
%ADD15C,0.08200*%
%ADD16R,0.05131X0.04737*%
%ADD17C,0.01421*%
%ADD18R,0.09500X0.03200*%
%ADD19R,0.04737X0.09461*%
%ADD20R,0.05131X0.09461*%
%ADD21C,0.04737*%
%ADD22C,0.05000*%
%ADD23C,0.06706*%
D10*
X0038750Y0038750D03*
X0038750Y0118750D03*
X0038750Y0140750D03*
X0038750Y0220750D03*
X0038750Y0242750D03*
X0038750Y0322750D03*
X0378750Y0322750D03*
X0378750Y0242750D03*
X0378750Y0220750D03*
X0378750Y0140750D03*
X0378750Y0118750D03*
X0378750Y0038750D03*
D11*
X0031750Y0031750D03*
X0031750Y0133750D03*
X0031750Y0235750D03*
X0385250Y0227250D03*
X0385250Y0125250D03*
X0385250Y0329250D03*
D12*
X0068250Y0286096D03*
X0068250Y0279404D03*
X0058750Y0276096D03*
X0058750Y0269404D03*
X0058750Y0289404D03*
X0058750Y0296096D03*
X0058750Y0194096D03*
X0058750Y0187404D03*
X0068250Y0184096D03*
X0068250Y0177404D03*
X0058750Y0174096D03*
X0058750Y0167404D03*
X0058750Y0092096D03*
X0058750Y0085404D03*
X0068250Y0082096D03*
X0068250Y0075404D03*
X0058750Y0072096D03*
X0058750Y0065404D03*
D13*
X0082726Y0034281D03*
X0104774Y0034281D03*
X0104774Y0123219D03*
X0104774Y0136281D03*
X0082726Y0136281D03*
X0082726Y0123219D03*
X0082726Y0225219D03*
X0082726Y0238281D03*
X0104774Y0238281D03*
X0104774Y0225219D03*
X0104774Y0327219D03*
X0082726Y0327219D03*
D14*
X0087844Y0312750D03*
X0091781Y0312750D03*
X0095719Y0312750D03*
X0099656Y0312750D03*
X0099656Y0252750D03*
X0095719Y0252750D03*
X0091781Y0252750D03*
X0087844Y0252750D03*
X0087844Y0210750D03*
X0091781Y0210750D03*
X0095719Y0210750D03*
X0099656Y0210750D03*
X0099656Y0150750D03*
X0095719Y0150750D03*
X0091781Y0150750D03*
X0087844Y0150750D03*
X0087844Y0108750D03*
X0091781Y0108750D03*
X0095719Y0108750D03*
X0099656Y0108750D03*
X0099656Y0048750D03*
X0095719Y0048750D03*
X0091781Y0048750D03*
X0087844Y0048750D03*
D15*
X0033750Y0053750D03*
X0033750Y0063750D03*
X0033750Y0073750D03*
X0033750Y0083750D03*
X0033750Y0093750D03*
X0033750Y0103750D03*
X0033750Y0155750D03*
X0033750Y0165750D03*
X0033750Y0175750D03*
X0033750Y0185750D03*
X0033750Y0195750D03*
X0033750Y0205750D03*
X0033750Y0257750D03*
X0033750Y0267750D03*
X0033750Y0277750D03*
X0033750Y0287750D03*
X0033750Y0297750D03*
X0033750Y0307750D03*
X0383750Y0297750D03*
X0383750Y0287750D03*
X0383750Y0277750D03*
X0383750Y0267750D03*
X0383750Y0195750D03*
X0383750Y0185750D03*
X0383750Y0175750D03*
X0383750Y0165750D03*
X0383750Y0093750D03*
X0383750Y0083750D03*
X0383750Y0073750D03*
X0383750Y0063750D03*
D16*
X0127096Y0053750D03*
X0120404Y0053750D03*
X0097096Y0062750D03*
X0090404Y0062750D03*
X0064596Y0032750D03*
X0057904Y0032750D03*
X0057904Y0134750D03*
X0064596Y0134750D03*
X0090404Y0164750D03*
X0097096Y0164750D03*
X0120404Y0155750D03*
X0127096Y0155750D03*
X0064596Y0236750D03*
X0057904Y0236750D03*
X0090404Y0266750D03*
X0097096Y0266750D03*
X0120404Y0257750D03*
X0127096Y0257750D03*
D17*
X0063045Y0243908D02*
X0063045Y0240592D01*
X0063045Y0243908D02*
X0066361Y0243908D01*
X0066361Y0240592D01*
X0063045Y0240592D01*
X0063045Y0242012D02*
X0066361Y0242012D01*
X0066361Y0243432D02*
X0063045Y0243432D01*
X0056139Y0243908D02*
X0056139Y0240592D01*
X0056139Y0243908D02*
X0059455Y0243908D01*
X0059455Y0240592D01*
X0056139Y0240592D01*
X0056139Y0242012D02*
X0059455Y0242012D01*
X0059455Y0243432D02*
X0056139Y0243432D01*
X0056139Y0141908D02*
X0056139Y0138592D01*
X0056139Y0141908D02*
X0059455Y0141908D01*
X0059455Y0138592D01*
X0056139Y0138592D01*
X0056139Y0140012D02*
X0059455Y0140012D01*
X0059455Y0141432D02*
X0056139Y0141432D01*
X0063045Y0141908D02*
X0063045Y0138592D01*
X0063045Y0141908D02*
X0066361Y0141908D01*
X0066361Y0138592D01*
X0063045Y0138592D01*
X0063045Y0140012D02*
X0066361Y0140012D01*
X0066361Y0141432D02*
X0063045Y0141432D01*
X0063045Y0039908D02*
X0063045Y0036592D01*
X0063045Y0039908D02*
X0066361Y0039908D01*
X0066361Y0036592D01*
X0063045Y0036592D01*
X0063045Y0038012D02*
X0066361Y0038012D01*
X0066361Y0039432D02*
X0063045Y0039432D01*
X0056139Y0039908D02*
X0056139Y0036592D01*
X0056139Y0039908D02*
X0059455Y0039908D01*
X0059455Y0036592D01*
X0056139Y0036592D01*
X0056139Y0038012D02*
X0059455Y0038012D01*
X0059455Y0039432D02*
X0056139Y0039432D01*
D18*
X0080550Y0071250D03*
X0080550Y0076250D03*
X0080550Y0081250D03*
X0080550Y0086250D03*
X0107050Y0086250D03*
X0107050Y0081250D03*
X0107050Y0076250D03*
X0107050Y0071250D03*
X0107050Y0173250D03*
X0107050Y0178250D03*
X0107050Y0183250D03*
X0107050Y0188250D03*
X0080550Y0188250D03*
X0080550Y0183250D03*
X0080550Y0178250D03*
X0080550Y0173250D03*
X0080550Y0275250D03*
X0080550Y0280250D03*
X0080550Y0285250D03*
X0080550Y0290250D03*
X0107050Y0290250D03*
X0107050Y0285250D03*
X0107050Y0280250D03*
X0107050Y0275250D03*
D19*
X0121860Y0274482D03*
X0135640Y0274482D03*
X0146860Y0274482D03*
X0160640Y0274482D03*
X0171860Y0274482D03*
X0185640Y0274482D03*
X0196860Y0274482D03*
X0210640Y0274482D03*
X0221860Y0274482D03*
X0235640Y0274482D03*
X0246860Y0274482D03*
X0260640Y0274482D03*
X0271860Y0274482D03*
X0285640Y0274482D03*
X0296860Y0274482D03*
X0310640Y0274482D03*
X0321860Y0274482D03*
X0335640Y0274482D03*
X0346860Y0274482D03*
X0360640Y0274482D03*
X0360640Y0291018D03*
X0346860Y0291018D03*
X0335640Y0291018D03*
X0321860Y0291018D03*
X0310640Y0291018D03*
X0296860Y0291018D03*
X0285640Y0291018D03*
X0271860Y0291018D03*
X0260640Y0291018D03*
X0246860Y0291018D03*
X0235640Y0291018D03*
X0221860Y0291018D03*
X0210640Y0291018D03*
X0196860Y0291018D03*
X0185640Y0291018D03*
X0171860Y0291018D03*
X0160640Y0291018D03*
X0146860Y0291018D03*
X0135640Y0291018D03*
X0121860Y0291018D03*
X0121860Y0189018D03*
X0135640Y0189018D03*
X0146860Y0189018D03*
X0160640Y0189018D03*
X0171860Y0189018D03*
X0185640Y0189018D03*
X0196860Y0189018D03*
X0210640Y0189018D03*
X0221860Y0189018D03*
X0235640Y0189018D03*
X0246860Y0189018D03*
X0260640Y0189018D03*
X0271860Y0189018D03*
X0285640Y0189018D03*
X0296860Y0189018D03*
X0310640Y0189018D03*
X0321860Y0189018D03*
X0335640Y0189018D03*
X0346860Y0189018D03*
X0360640Y0189018D03*
X0360640Y0172482D03*
X0346860Y0172482D03*
X0335640Y0172482D03*
X0321860Y0172482D03*
X0310640Y0172482D03*
X0296860Y0172482D03*
X0285640Y0172482D03*
X0271860Y0172482D03*
X0260640Y0172482D03*
X0246860Y0172482D03*
X0235640Y0172482D03*
X0221860Y0172482D03*
X0210640Y0172482D03*
X0196860Y0172482D03*
X0185640Y0172482D03*
X0171860Y0172482D03*
X0160640Y0172482D03*
X0146860Y0172482D03*
X0135640Y0172482D03*
X0121860Y0172482D03*
X0121860Y0087018D03*
X0135640Y0087018D03*
X0146860Y0087018D03*
X0160640Y0087018D03*
X0171860Y0087018D03*
X0185640Y0087018D03*
X0196860Y0087018D03*
X0210640Y0087018D03*
X0221860Y0087018D03*
X0235640Y0087018D03*
X0246860Y0087018D03*
X0260640Y0087018D03*
X0271860Y0087018D03*
X0285640Y0087018D03*
X0296860Y0087018D03*
X0310640Y0087018D03*
X0321860Y0087018D03*
X0335640Y0087018D03*
X0346860Y0087018D03*
X0360640Y0087018D03*
X0360640Y0070482D03*
X0346860Y0070482D03*
X0335640Y0070482D03*
X0321860Y0070482D03*
X0310640Y0070482D03*
X0296860Y0070482D03*
X0285640Y0070482D03*
X0271860Y0070482D03*
X0260640Y0070482D03*
X0246860Y0070482D03*
X0235640Y0070482D03*
X0221860Y0070482D03*
X0210640Y0070482D03*
X0196860Y0070482D03*
X0185640Y0070482D03*
X0171860Y0070482D03*
X0160640Y0070482D03*
X0146860Y0070482D03*
X0135640Y0070482D03*
X0121860Y0070482D03*
D20*
X0128750Y0070482D03*
X0128750Y0087018D03*
X0153750Y0087018D03*
X0153750Y0070482D03*
X0178750Y0070482D03*
X0178750Y0087018D03*
X0203750Y0087018D03*
X0203750Y0070482D03*
X0228750Y0070482D03*
X0228750Y0087018D03*
X0253750Y0087018D03*
X0253750Y0070482D03*
X0278750Y0070482D03*
X0278750Y0087018D03*
X0303750Y0087018D03*
X0303750Y0070482D03*
X0328750Y0070482D03*
X0328750Y0087018D03*
X0353750Y0087018D03*
X0353750Y0070482D03*
X0353750Y0172482D03*
X0353750Y0189018D03*
X0328750Y0189018D03*
X0328750Y0172482D03*
X0303750Y0172482D03*
X0303750Y0189018D03*
X0278750Y0189018D03*
X0278750Y0172482D03*
X0253750Y0172482D03*
X0253750Y0189018D03*
X0228750Y0189018D03*
X0228750Y0172482D03*
X0203750Y0172482D03*
X0203750Y0189018D03*
X0178750Y0189018D03*
X0178750Y0172482D03*
X0153750Y0172482D03*
X0153750Y0189018D03*
X0128750Y0189018D03*
X0128750Y0172482D03*
X0128750Y0274482D03*
X0128750Y0291018D03*
X0153750Y0291018D03*
X0153750Y0274482D03*
X0178750Y0274482D03*
X0178750Y0291018D03*
X0203750Y0291018D03*
X0203750Y0274482D03*
X0228750Y0274482D03*
X0228750Y0291018D03*
X0253750Y0291018D03*
X0253750Y0274482D03*
X0278750Y0274482D03*
X0278750Y0291018D03*
X0303750Y0291018D03*
X0303750Y0274482D03*
X0328750Y0274482D03*
X0328750Y0291018D03*
X0353750Y0291018D03*
X0353750Y0274482D03*
D21*
X0361750Y0341000D03*
X0055750Y0341000D03*
D22*
X0052185Y0020500D02*
X0052187Y0020619D01*
X0052193Y0020738D01*
X0052203Y0020857D01*
X0052217Y0020975D01*
X0052235Y0021093D01*
X0052256Y0021210D01*
X0052282Y0021326D01*
X0052312Y0021442D01*
X0052345Y0021556D01*
X0052382Y0021669D01*
X0052423Y0021781D01*
X0052468Y0021892D01*
X0052516Y0022001D01*
X0052568Y0022108D01*
X0052624Y0022213D01*
X0052683Y0022317D01*
X0052745Y0022418D01*
X0052811Y0022518D01*
X0052880Y0022615D01*
X0052952Y0022709D01*
X0053028Y0022802D01*
X0053106Y0022891D01*
X0053187Y0022978D01*
X0053272Y0023063D01*
X0053359Y0023144D01*
X0053448Y0023222D01*
X0053541Y0023298D01*
X0053635Y0023370D01*
X0053732Y0023439D01*
X0053832Y0023505D01*
X0053933Y0023567D01*
X0054037Y0023626D01*
X0054142Y0023682D01*
X0054249Y0023734D01*
X0054358Y0023782D01*
X0054469Y0023827D01*
X0054581Y0023868D01*
X0054694Y0023905D01*
X0054808Y0023938D01*
X0054924Y0023968D01*
X0055040Y0023994D01*
X0055157Y0024015D01*
X0055275Y0024033D01*
X0055393Y0024047D01*
X0055512Y0024057D01*
X0055631Y0024063D01*
X0055750Y0024065D01*
X0055869Y0024063D01*
X0055988Y0024057D01*
X0056107Y0024047D01*
X0056225Y0024033D01*
X0056343Y0024015D01*
X0056460Y0023994D01*
X0056576Y0023968D01*
X0056692Y0023938D01*
X0056806Y0023905D01*
X0056919Y0023868D01*
X0057031Y0023827D01*
X0057142Y0023782D01*
X0057251Y0023734D01*
X0057358Y0023682D01*
X0057463Y0023626D01*
X0057567Y0023567D01*
X0057668Y0023505D01*
X0057768Y0023439D01*
X0057865Y0023370D01*
X0057959Y0023298D01*
X0058052Y0023222D01*
X0058141Y0023144D01*
X0058228Y0023063D01*
X0058313Y0022978D01*
X0058394Y0022891D01*
X0058472Y0022802D01*
X0058548Y0022709D01*
X0058620Y0022615D01*
X0058689Y0022518D01*
X0058755Y0022418D01*
X0058817Y0022317D01*
X0058876Y0022213D01*
X0058932Y0022108D01*
X0058984Y0022001D01*
X0059032Y0021892D01*
X0059077Y0021781D01*
X0059118Y0021669D01*
X0059155Y0021556D01*
X0059188Y0021442D01*
X0059218Y0021326D01*
X0059244Y0021210D01*
X0059265Y0021093D01*
X0059283Y0020975D01*
X0059297Y0020857D01*
X0059307Y0020738D01*
X0059313Y0020619D01*
X0059315Y0020500D01*
X0059313Y0020381D01*
X0059307Y0020262D01*
X0059297Y0020143D01*
X0059283Y0020025D01*
X0059265Y0019907D01*
X0059244Y0019790D01*
X0059218Y0019674D01*
X0059188Y0019558D01*
X0059155Y0019444D01*
X0059118Y0019331D01*
X0059077Y0019219D01*
X0059032Y0019108D01*
X0058984Y0018999D01*
X0058932Y0018892D01*
X0058876Y0018787D01*
X0058817Y0018683D01*
X0058755Y0018582D01*
X0058689Y0018482D01*
X0058620Y0018385D01*
X0058548Y0018291D01*
X0058472Y0018198D01*
X0058394Y0018109D01*
X0058313Y0018022D01*
X0058228Y0017937D01*
X0058141Y0017856D01*
X0058052Y0017778D01*
X0057959Y0017702D01*
X0057865Y0017630D01*
X0057768Y0017561D01*
X0057668Y0017495D01*
X0057567Y0017433D01*
X0057463Y0017374D01*
X0057358Y0017318D01*
X0057251Y0017266D01*
X0057142Y0017218D01*
X0057031Y0017173D01*
X0056919Y0017132D01*
X0056806Y0017095D01*
X0056692Y0017062D01*
X0056576Y0017032D01*
X0056460Y0017006D01*
X0056343Y0016985D01*
X0056225Y0016967D01*
X0056107Y0016953D01*
X0055988Y0016943D01*
X0055869Y0016937D01*
X0055750Y0016935D01*
X0055631Y0016937D01*
X0055512Y0016943D01*
X0055393Y0016953D01*
X0055275Y0016967D01*
X0055157Y0016985D01*
X0055040Y0017006D01*
X0054924Y0017032D01*
X0054808Y0017062D01*
X0054694Y0017095D01*
X0054581Y0017132D01*
X0054469Y0017173D01*
X0054358Y0017218D01*
X0054249Y0017266D01*
X0054142Y0017318D01*
X0054037Y0017374D01*
X0053933Y0017433D01*
X0053832Y0017495D01*
X0053732Y0017561D01*
X0053635Y0017630D01*
X0053541Y0017702D01*
X0053448Y0017778D01*
X0053359Y0017856D01*
X0053272Y0017937D01*
X0053187Y0018022D01*
X0053106Y0018109D01*
X0053028Y0018198D01*
X0052952Y0018291D01*
X0052880Y0018385D01*
X0052811Y0018482D01*
X0052745Y0018582D01*
X0052683Y0018683D01*
X0052624Y0018787D01*
X0052568Y0018892D01*
X0052516Y0018999D01*
X0052468Y0019108D01*
X0052423Y0019219D01*
X0052382Y0019331D01*
X0052345Y0019444D01*
X0052312Y0019558D01*
X0052282Y0019674D01*
X0052256Y0019790D01*
X0052235Y0019907D01*
X0052217Y0020025D01*
X0052203Y0020143D01*
X0052193Y0020262D01*
X0052187Y0020381D01*
X0052185Y0020500D01*
D23*
X0055750Y0020500D03*
M02*
