G75*
%MOIN*%
%OFA0B0*%
%FSLAX25Y25*%
%IPPOS*%
%LPD*%
%AMOC8*
5,1,8,0,0,1.08239X$1,22.5*
%
%ADD10C,0.02500*%
%ADD11R,0.03937X0.04331*%
%ADD12R,0.04724X0.07874*%
%ADD13R,0.02362X0.05315*%
%ADD14C,0.07400*%
%ADD15R,0.04331X0.03937*%
%ADD16C,0.01181*%
%ADD17R,0.08700X0.02400*%
%ADD18R,0.03937X0.08661*%
%ADD19R,0.04331X0.08661*%
%ADD20C,0.03400*%
%ADD21C,0.03937*%
%ADD22C,0.05906*%
%ADD23C,0.01000*%
%ADD24C,0.02600*%
%ADD25C,0.00600*%
%ADD26C,0.01200*%
%ADD27C,0.02900*%
D10*
X0031750Y0031750D03*
X0031750Y0133750D03*
X0031750Y0235750D03*
X0385250Y0227250D03*
X0385250Y0125250D03*
X0385250Y0329250D03*
D11*
X0068250Y0286096D03*
X0068250Y0279404D03*
X0058750Y0276096D03*
X0058750Y0269404D03*
X0058750Y0289404D03*
X0058750Y0296096D03*
X0058750Y0194096D03*
X0058750Y0187404D03*
X0068250Y0184096D03*
X0068250Y0177404D03*
X0058750Y0174096D03*
X0058750Y0167404D03*
X0058750Y0092096D03*
X0058750Y0085404D03*
X0068250Y0082096D03*
X0068250Y0075404D03*
X0058750Y0072096D03*
X0058750Y0065404D03*
D12*
X0082726Y0034281D03*
X0104774Y0034281D03*
X0104774Y0123219D03*
X0104774Y0136281D03*
X0082726Y0136281D03*
X0082726Y0123219D03*
X0082726Y0225219D03*
X0082726Y0238281D03*
X0104774Y0238281D03*
X0104774Y0225219D03*
X0104774Y0327219D03*
X0082726Y0327219D03*
D13*
X0087844Y0312750D03*
X0091781Y0312750D03*
X0095719Y0312750D03*
X0099656Y0312750D03*
X0099656Y0252750D03*
X0095719Y0252750D03*
X0091781Y0252750D03*
X0087844Y0252750D03*
X0087844Y0210750D03*
X0091781Y0210750D03*
X0095719Y0210750D03*
X0099656Y0210750D03*
X0099656Y0150750D03*
X0095719Y0150750D03*
X0091781Y0150750D03*
X0087844Y0150750D03*
X0087844Y0108750D03*
X0091781Y0108750D03*
X0095719Y0108750D03*
X0099656Y0108750D03*
X0099656Y0048750D03*
X0095719Y0048750D03*
X0091781Y0048750D03*
X0087844Y0048750D03*
D14*
X0033750Y0053750D03*
X0033750Y0063750D03*
X0033750Y0073750D03*
X0033750Y0083750D03*
X0033750Y0093750D03*
X0033750Y0103750D03*
X0033750Y0155750D03*
X0033750Y0165750D03*
X0033750Y0175750D03*
X0033750Y0185750D03*
X0033750Y0195750D03*
X0033750Y0205750D03*
X0033750Y0257750D03*
X0033750Y0267750D03*
X0033750Y0277750D03*
X0033750Y0287750D03*
X0033750Y0297750D03*
X0033750Y0307750D03*
X0383750Y0297750D03*
X0383750Y0287750D03*
X0383750Y0277750D03*
X0383750Y0267750D03*
X0383750Y0195750D03*
X0383750Y0185750D03*
X0383750Y0175750D03*
X0383750Y0165750D03*
X0383750Y0093750D03*
X0383750Y0083750D03*
X0383750Y0073750D03*
X0383750Y0063750D03*
D15*
X0127096Y0053750D03*
X0120404Y0053750D03*
X0097096Y0062750D03*
X0090404Y0062750D03*
X0064596Y0032750D03*
X0057904Y0032750D03*
X0057904Y0134750D03*
X0064596Y0134750D03*
X0090404Y0164750D03*
X0097096Y0164750D03*
X0120404Y0155750D03*
X0127096Y0155750D03*
X0064596Y0236750D03*
X0057904Y0236750D03*
X0090404Y0266750D03*
X0097096Y0266750D03*
X0120404Y0257750D03*
X0127096Y0257750D03*
D16*
X0063325Y0243628D02*
X0063325Y0240872D01*
X0063325Y0243628D02*
X0066081Y0243628D01*
X0066081Y0240872D01*
X0063325Y0240872D01*
X0063325Y0242052D02*
X0066081Y0242052D01*
X0066081Y0243232D02*
X0063325Y0243232D01*
X0056419Y0243628D02*
X0056419Y0240872D01*
X0056419Y0243628D02*
X0059175Y0243628D01*
X0059175Y0240872D01*
X0056419Y0240872D01*
X0056419Y0242052D02*
X0059175Y0242052D01*
X0059175Y0243232D02*
X0056419Y0243232D01*
X0056419Y0141628D02*
X0056419Y0138872D01*
X0056419Y0141628D02*
X0059175Y0141628D01*
X0059175Y0138872D01*
X0056419Y0138872D01*
X0056419Y0140052D02*
X0059175Y0140052D01*
X0059175Y0141232D02*
X0056419Y0141232D01*
X0063325Y0141628D02*
X0063325Y0138872D01*
X0063325Y0141628D02*
X0066081Y0141628D01*
X0066081Y0138872D01*
X0063325Y0138872D01*
X0063325Y0140052D02*
X0066081Y0140052D01*
X0066081Y0141232D02*
X0063325Y0141232D01*
X0063325Y0039628D02*
X0063325Y0036872D01*
X0063325Y0039628D02*
X0066081Y0039628D01*
X0066081Y0036872D01*
X0063325Y0036872D01*
X0063325Y0038052D02*
X0066081Y0038052D01*
X0066081Y0039232D02*
X0063325Y0039232D01*
X0056419Y0039628D02*
X0056419Y0036872D01*
X0056419Y0039628D02*
X0059175Y0039628D01*
X0059175Y0036872D01*
X0056419Y0036872D01*
X0056419Y0038052D02*
X0059175Y0038052D01*
X0059175Y0039232D02*
X0056419Y0039232D01*
D17*
X0080550Y0071250D03*
X0080550Y0076250D03*
X0080550Y0081250D03*
X0080550Y0086250D03*
X0107050Y0086250D03*
X0107050Y0081250D03*
X0107050Y0076250D03*
X0107050Y0071250D03*
X0107050Y0173250D03*
X0107050Y0178250D03*
X0107050Y0183250D03*
X0107050Y0188250D03*
X0080550Y0188250D03*
X0080550Y0183250D03*
X0080550Y0178250D03*
X0080550Y0173250D03*
X0080550Y0275250D03*
X0080550Y0280250D03*
X0080550Y0285250D03*
X0080550Y0290250D03*
X0107050Y0290250D03*
X0107050Y0285250D03*
X0107050Y0280250D03*
X0107050Y0275250D03*
D18*
X0121860Y0274482D03*
X0135640Y0274482D03*
X0146860Y0274482D03*
X0160640Y0274482D03*
X0171860Y0274482D03*
X0185640Y0274482D03*
X0196860Y0274482D03*
X0210640Y0274482D03*
X0221860Y0274482D03*
X0235640Y0274482D03*
X0246860Y0274482D03*
X0260640Y0274482D03*
X0271860Y0274482D03*
X0285640Y0274482D03*
X0296860Y0274482D03*
X0310640Y0274482D03*
X0321860Y0274482D03*
X0335640Y0274482D03*
X0346860Y0274482D03*
X0360640Y0274482D03*
X0360640Y0291018D03*
X0346860Y0291018D03*
X0335640Y0291018D03*
X0321860Y0291018D03*
X0310640Y0291018D03*
X0296860Y0291018D03*
X0285640Y0291018D03*
X0271860Y0291018D03*
X0260640Y0291018D03*
X0246860Y0291018D03*
X0235640Y0291018D03*
X0221860Y0291018D03*
X0210640Y0291018D03*
X0196860Y0291018D03*
X0185640Y0291018D03*
X0171860Y0291018D03*
X0160640Y0291018D03*
X0146860Y0291018D03*
X0135640Y0291018D03*
X0121860Y0291018D03*
X0121860Y0189018D03*
X0135640Y0189018D03*
X0146860Y0189018D03*
X0160640Y0189018D03*
X0171860Y0189018D03*
X0185640Y0189018D03*
X0196860Y0189018D03*
X0210640Y0189018D03*
X0221860Y0189018D03*
X0235640Y0189018D03*
X0246860Y0189018D03*
X0260640Y0189018D03*
X0271860Y0189018D03*
X0285640Y0189018D03*
X0296860Y0189018D03*
X0310640Y0189018D03*
X0321860Y0189018D03*
X0335640Y0189018D03*
X0346860Y0189018D03*
X0360640Y0189018D03*
X0360640Y0172482D03*
X0346860Y0172482D03*
X0335640Y0172482D03*
X0321860Y0172482D03*
X0310640Y0172482D03*
X0296860Y0172482D03*
X0285640Y0172482D03*
X0271860Y0172482D03*
X0260640Y0172482D03*
X0246860Y0172482D03*
X0235640Y0172482D03*
X0221860Y0172482D03*
X0210640Y0172482D03*
X0196860Y0172482D03*
X0185640Y0172482D03*
X0171860Y0172482D03*
X0160640Y0172482D03*
X0146860Y0172482D03*
X0135640Y0172482D03*
X0121860Y0172482D03*
X0121860Y0087018D03*
X0135640Y0087018D03*
X0146860Y0087018D03*
X0160640Y0087018D03*
X0171860Y0087018D03*
X0185640Y0087018D03*
X0196860Y0087018D03*
X0210640Y0087018D03*
X0221860Y0087018D03*
X0235640Y0087018D03*
X0246860Y0087018D03*
X0260640Y0087018D03*
X0271860Y0087018D03*
X0285640Y0087018D03*
X0296860Y0087018D03*
X0310640Y0087018D03*
X0321860Y0087018D03*
X0335640Y0087018D03*
X0346860Y0087018D03*
X0360640Y0087018D03*
X0360640Y0070482D03*
X0346860Y0070482D03*
X0335640Y0070482D03*
X0321860Y0070482D03*
X0310640Y0070482D03*
X0296860Y0070482D03*
X0285640Y0070482D03*
X0271860Y0070482D03*
X0260640Y0070482D03*
X0246860Y0070482D03*
X0235640Y0070482D03*
X0221860Y0070482D03*
X0210640Y0070482D03*
X0196860Y0070482D03*
X0185640Y0070482D03*
X0171860Y0070482D03*
X0160640Y0070482D03*
X0146860Y0070482D03*
X0135640Y0070482D03*
X0121860Y0070482D03*
D19*
X0128750Y0070482D03*
X0128750Y0087018D03*
X0153750Y0087018D03*
X0153750Y0070482D03*
X0178750Y0070482D03*
X0178750Y0087018D03*
X0203750Y0087018D03*
X0203750Y0070482D03*
X0228750Y0070482D03*
X0228750Y0087018D03*
X0253750Y0087018D03*
X0253750Y0070482D03*
X0278750Y0070482D03*
X0278750Y0087018D03*
X0303750Y0087018D03*
X0303750Y0070482D03*
X0328750Y0070482D03*
X0328750Y0087018D03*
X0353750Y0087018D03*
X0353750Y0070482D03*
X0353750Y0172482D03*
X0353750Y0189018D03*
X0328750Y0189018D03*
X0328750Y0172482D03*
X0303750Y0172482D03*
X0303750Y0189018D03*
X0278750Y0189018D03*
X0278750Y0172482D03*
X0253750Y0172482D03*
X0253750Y0189018D03*
X0228750Y0189018D03*
X0228750Y0172482D03*
X0203750Y0172482D03*
X0203750Y0189018D03*
X0178750Y0189018D03*
X0178750Y0172482D03*
X0153750Y0172482D03*
X0153750Y0189018D03*
X0128750Y0189018D03*
X0128750Y0172482D03*
X0128750Y0274482D03*
X0128750Y0291018D03*
X0153750Y0291018D03*
X0153750Y0274482D03*
X0178750Y0274482D03*
X0178750Y0291018D03*
X0203750Y0291018D03*
X0203750Y0274482D03*
X0228750Y0274482D03*
X0228750Y0291018D03*
X0253750Y0291018D03*
X0253750Y0274482D03*
X0278750Y0274482D03*
X0278750Y0291018D03*
X0303750Y0291018D03*
X0303750Y0274482D03*
X0328750Y0274482D03*
X0328750Y0291018D03*
X0353750Y0291018D03*
X0353750Y0274482D03*
D20*
X0098750Y0272750D03*
X0088750Y0272750D03*
X0088750Y0282750D03*
X0088750Y0292750D03*
X0098750Y0292750D03*
X0098750Y0282750D03*
X0098750Y0190750D03*
X0098750Y0180750D03*
X0088750Y0180750D03*
X0088750Y0190750D03*
X0088750Y0170750D03*
X0098750Y0170750D03*
X0098750Y0088750D03*
X0088750Y0088750D03*
X0088750Y0078750D03*
X0088750Y0068750D03*
X0098750Y0068750D03*
X0098750Y0078750D03*
D21*
X0055750Y0341000D03*
X0361750Y0341000D03*
D22*
X0055750Y0020500D03*
D23*
X0053822Y0030850D02*
X0043867Y0030850D01*
X0044885Y0031438D01*
X0044885Y0031438D01*
X0047016Y0033977D01*
X0047016Y0033977D01*
X0048150Y0037093D01*
X0048150Y0040407D01*
X0047016Y0043522D01*
X0047016Y0043523D01*
X0044885Y0046062D01*
X0042015Y0047719D01*
X0042015Y0047719D01*
X0038750Y0048295D01*
X0035485Y0047719D01*
X0032615Y0046062D01*
X0032615Y0046062D01*
X0030850Y0043959D01*
X0030850Y0049429D01*
X0031025Y0049303D01*
X0031754Y0048931D01*
X0032532Y0048678D01*
X0033250Y0048564D01*
X0033250Y0053250D01*
X0034250Y0053250D01*
X0034250Y0054250D01*
X0038936Y0054250D01*
X0038822Y0054968D01*
X0038569Y0055746D01*
X0038197Y0056475D01*
X0037716Y0057138D01*
X0037138Y0057716D01*
X0036475Y0058197D01*
X0035746Y0058569D01*
X0035526Y0058641D01*
X0036809Y0059172D01*
X0038328Y0060691D01*
X0039150Y0062676D01*
X0039150Y0064824D01*
X0038328Y0066809D01*
X0036809Y0068328D01*
X0035790Y0068750D01*
X0036809Y0069172D01*
X0038328Y0070691D01*
X0039150Y0072676D01*
X0039150Y0074824D01*
X0038711Y0075883D01*
X0041578Y0078750D01*
X0058922Y0078750D01*
X0058250Y0078078D01*
X0058250Y0078047D01*
X0057922Y0077718D01*
X0057922Y0077718D01*
X0056750Y0076547D01*
X0056750Y0075962D01*
X0056077Y0075962D01*
X0055081Y0074966D01*
X0055081Y0069227D01*
X0055558Y0068750D01*
X0055081Y0068273D01*
X0055081Y0062534D01*
X0055902Y0061714D01*
X0055750Y0061347D01*
X0055750Y0060153D01*
X0056207Y0059051D01*
X0057051Y0058207D01*
X0058153Y0057750D01*
X0059347Y0057750D01*
X0060449Y0058207D01*
X0061293Y0059051D01*
X0061750Y0060153D01*
X0061750Y0061347D01*
X0061598Y0061714D01*
X0062418Y0062534D01*
X0062418Y0068273D01*
X0061942Y0068750D01*
X0062418Y0069227D01*
X0062418Y0069839D01*
X0062551Y0069707D01*
X0063653Y0069250D01*
X0064847Y0069250D01*
X0065949Y0069707D01*
X0066250Y0070007D01*
X0066250Y0065493D01*
X0066207Y0065449D01*
X0065750Y0064347D01*
X0065750Y0063153D01*
X0066207Y0062051D01*
X0066550Y0061707D01*
X0066550Y0057839D01*
X0071550Y0052839D01*
X0072839Y0051550D01*
X0076550Y0051550D01*
X0076550Y0044661D01*
X0068056Y0036167D01*
X0068171Y0036597D01*
X0068171Y0037766D01*
X0065187Y0037766D01*
X0065187Y0038734D01*
X0068171Y0038734D01*
X0068171Y0039903D01*
X0068029Y0040435D01*
X0067754Y0040912D01*
X0067364Y0041301D01*
X0066888Y0041576D01*
X0066356Y0041718D01*
X0065187Y0041718D01*
X0065187Y0038734D01*
X0064218Y0038734D01*
X0064218Y0041718D01*
X0063050Y0041718D01*
X0062518Y0041576D01*
X0062041Y0041301D01*
X0061652Y0040912D01*
X0061461Y0040581D01*
X0060124Y0041918D01*
X0055471Y0041918D01*
X0054129Y0040577D01*
X0054129Y0040250D01*
X0053922Y0040250D01*
X0052922Y0039250D01*
X0051750Y0038078D01*
X0051750Y0032922D01*
X0052922Y0031750D01*
X0053822Y0030850D01*
X0052926Y0031746D02*
X0045143Y0031746D01*
X0045981Y0032744D02*
X0051928Y0032744D01*
X0051750Y0033743D02*
X0046819Y0033743D01*
X0047294Y0034741D02*
X0051750Y0034741D01*
X0051750Y0035740D02*
X0047658Y0035740D01*
X0048021Y0036738D02*
X0051750Y0036738D01*
X0051750Y0037737D02*
X0048150Y0037737D01*
X0048150Y0038735D02*
X0052407Y0038735D01*
X0053405Y0039734D02*
X0048150Y0039734D01*
X0048032Y0040732D02*
X0054284Y0040732D01*
X0055283Y0041731D02*
X0047668Y0041731D01*
X0047305Y0042729D02*
X0074618Y0042729D01*
X0073619Y0041731D02*
X0060312Y0041731D01*
X0061310Y0040732D02*
X0061548Y0040732D01*
X0064218Y0040732D02*
X0065187Y0040732D01*
X0065187Y0039734D02*
X0064218Y0039734D01*
X0064218Y0038735D02*
X0065187Y0038735D01*
X0068171Y0038735D02*
X0070624Y0038735D01*
X0071622Y0039734D02*
X0068171Y0039734D01*
X0067857Y0040732D02*
X0072621Y0040732D01*
X0069625Y0037737D02*
X0068171Y0037737D01*
X0068171Y0036738D02*
X0068627Y0036738D01*
X0067750Y0032750D02*
X0064596Y0032750D01*
X0067750Y0032750D02*
X0078750Y0043750D01*
X0078750Y0053750D01*
X0091781Y0053750D01*
X0091781Y0061372D01*
X0090404Y0062750D01*
X0091750Y0064096D01*
X0091750Y0071750D01*
X0086750Y0071750D01*
X0086250Y0071250D01*
X0080550Y0071250D01*
X0085567Y0068350D02*
X0085673Y0067817D01*
X0085914Y0067234D01*
X0086264Y0066710D01*
X0086710Y0066264D01*
X0087112Y0065996D01*
X0086538Y0065423D01*
X0086538Y0060077D01*
X0087534Y0059081D01*
X0089350Y0059081D01*
X0089350Y0055950D01*
X0080793Y0055950D01*
X0080449Y0056293D01*
X0079347Y0056750D01*
X0078153Y0056750D01*
X0077051Y0056293D01*
X0076707Y0055950D01*
X0074661Y0055950D01*
X0070950Y0059661D01*
X0070950Y0061707D01*
X0071293Y0062051D01*
X0071750Y0063153D01*
X0071750Y0064347D01*
X0071293Y0065449D01*
X0070449Y0066293D01*
X0070250Y0066376D01*
X0070250Y0071538D01*
X0070923Y0071538D01*
X0071571Y0072186D01*
X0072051Y0071707D01*
X0073153Y0071250D01*
X0074347Y0071250D01*
X0074500Y0071313D01*
X0074500Y0069346D01*
X0075496Y0068350D01*
X0085567Y0068350D01*
X0085725Y0067692D02*
X0070250Y0067692D01*
X0070250Y0068690D02*
X0075155Y0068690D01*
X0074500Y0069689D02*
X0070250Y0069689D01*
X0070250Y0070687D02*
X0074500Y0070687D01*
X0072101Y0071686D02*
X0071070Y0071686D01*
X0070250Y0066693D02*
X0086281Y0066693D01*
X0086810Y0065695D02*
X0071048Y0065695D01*
X0071605Y0064696D02*
X0086538Y0064696D01*
X0086538Y0063698D02*
X0071750Y0063698D01*
X0071562Y0062699D02*
X0086538Y0062699D01*
X0086538Y0061701D02*
X0070950Y0061701D01*
X0070950Y0060702D02*
X0086538Y0060702D01*
X0086912Y0059704D02*
X0070950Y0059704D01*
X0071906Y0058705D02*
X0089350Y0058705D01*
X0089350Y0057707D02*
X0072904Y0057707D01*
X0073903Y0056708D02*
X0078053Y0056708D01*
X0079447Y0056708D02*
X0089350Y0056708D01*
X0091781Y0053750D02*
X0091781Y0048750D01*
X0087935Y0048659D02*
X0087935Y0044593D01*
X0089223Y0044593D01*
X0089596Y0044693D01*
X0089896Y0044393D01*
X0093667Y0044393D01*
X0093750Y0044476D01*
X0093833Y0044393D01*
X0097604Y0044393D01*
X0097687Y0044476D01*
X0097770Y0044393D01*
X0101541Y0044393D01*
X0102537Y0045388D01*
X0102537Y0052112D01*
X0101655Y0052993D01*
X0101655Y0055613D01*
X0097987Y0059281D01*
X0099459Y0059281D01*
X0099841Y0059384D01*
X0100183Y0059581D01*
X0100462Y0059860D01*
X0100660Y0060203D01*
X0100762Y0060584D01*
X0100762Y0062266D01*
X0097581Y0062266D01*
X0097581Y0063234D01*
X0100762Y0063234D01*
X0100762Y0064916D01*
X0100660Y0065297D01*
X0100462Y0065640D01*
X0100363Y0065738D01*
X0100676Y0065868D01*
X0101632Y0066824D01*
X0102150Y0068074D01*
X0102150Y0068350D01*
X0112104Y0068350D01*
X0113100Y0069346D01*
X0113100Y0073154D01*
X0112504Y0073750D01*
X0113004Y0074250D01*
X0118192Y0074250D01*
X0118192Y0065447D01*
X0119188Y0064452D01*
X0124533Y0064452D01*
X0125207Y0065125D01*
X0125880Y0064452D01*
X0131620Y0064452D01*
X0132444Y0065277D01*
X0132471Y0065231D01*
X0132750Y0064951D01*
X0133092Y0064754D01*
X0133474Y0064652D01*
X0135155Y0064652D01*
X0135155Y0069998D01*
X0136124Y0069998D01*
X0136124Y0064652D01*
X0137806Y0064652D01*
X0138187Y0064754D01*
X0138529Y0064951D01*
X0138809Y0065231D01*
X0139006Y0065573D01*
X0139108Y0065954D01*
X0139108Y0069998D01*
X0136124Y0069998D01*
X0136124Y0070967D01*
X0135155Y0070967D01*
X0135155Y0076313D01*
X0133474Y0076313D01*
X0133092Y0076211D01*
X0132750Y0076013D01*
X0132471Y0075734D01*
X0132444Y0075688D01*
X0131620Y0076513D01*
X0130750Y0076513D01*
X0130750Y0076951D01*
X0144220Y0076951D01*
X0144659Y0076513D01*
X0144188Y0076513D01*
X0143192Y0075517D01*
X0143192Y0065447D01*
X0144188Y0064452D01*
X0149533Y0064452D01*
X0150207Y0065125D01*
X0150880Y0064452D01*
X0156620Y0064452D01*
X0157444Y0065277D01*
X0157471Y0065231D01*
X0157750Y0064951D01*
X0158092Y0064754D01*
X0158474Y0064652D01*
X0160155Y0064652D01*
X0160155Y0069998D01*
X0161124Y0069998D01*
X0161124Y0064652D01*
X0162806Y0064652D01*
X0163187Y0064754D01*
X0163529Y0064951D01*
X0163809Y0065231D01*
X0164006Y0065573D01*
X0164108Y0065954D01*
X0164108Y0069998D01*
X0161124Y0069998D01*
X0161124Y0070967D01*
X0160155Y0070967D01*
X0160155Y0076313D01*
X0158474Y0076313D01*
X0158092Y0076211D01*
X0157750Y0076013D01*
X0157471Y0075734D01*
X0157444Y0075688D01*
X0156620Y0076513D01*
X0155750Y0076513D01*
X0155750Y0077050D01*
X0168122Y0077050D01*
X0168923Y0076248D01*
X0168192Y0075517D01*
X0168192Y0065447D01*
X0169188Y0064452D01*
X0174533Y0064452D01*
X0175207Y0065125D01*
X0175880Y0064452D01*
X0181620Y0064452D01*
X0182444Y0065277D01*
X0182471Y0065231D01*
X0182750Y0064951D01*
X0183092Y0064754D01*
X0183474Y0064652D01*
X0185155Y0064652D01*
X0185155Y0069998D01*
X0186124Y0069998D01*
X0186124Y0064652D01*
X0187806Y0064652D01*
X0188187Y0064754D01*
X0188529Y0064951D01*
X0188809Y0065231D01*
X0189006Y0065573D01*
X0189108Y0065954D01*
X0189108Y0069998D01*
X0186124Y0069998D01*
X0186124Y0070967D01*
X0185155Y0070967D01*
X0185155Y0076313D01*
X0183474Y0076313D01*
X0183092Y0076211D01*
X0182750Y0076013D01*
X0182471Y0075734D01*
X0182444Y0075688D01*
X0181620Y0076513D01*
X0180750Y0076513D01*
X0180750Y0077050D01*
X0193122Y0077050D01*
X0193923Y0076248D01*
X0193192Y0075517D01*
X0193192Y0065447D01*
X0194188Y0064452D01*
X0199533Y0064452D01*
X0200207Y0065125D01*
X0200880Y0064452D01*
X0206620Y0064452D01*
X0207444Y0065277D01*
X0207471Y0065231D01*
X0207750Y0064951D01*
X0208092Y0064754D01*
X0208474Y0064652D01*
X0210155Y0064652D01*
X0210155Y0069998D01*
X0211124Y0069998D01*
X0211124Y0064652D01*
X0212806Y0064652D01*
X0213187Y0064754D01*
X0213529Y0064951D01*
X0213809Y0065231D01*
X0214006Y0065573D01*
X0214108Y0065954D01*
X0214108Y0069998D01*
X0211124Y0069998D01*
X0211124Y0070967D01*
X0210155Y0070967D01*
X0210155Y0076313D01*
X0208474Y0076313D01*
X0208092Y0076211D01*
X0207750Y0076013D01*
X0207471Y0075734D01*
X0207444Y0075688D01*
X0206620Y0076513D01*
X0205750Y0076513D01*
X0205750Y0077050D01*
X0218122Y0077050D01*
X0218923Y0076248D01*
X0218192Y0075517D01*
X0218192Y0065447D01*
X0219188Y0064452D01*
X0224533Y0064452D01*
X0225207Y0065125D01*
X0225880Y0064452D01*
X0231620Y0064452D01*
X0232444Y0065277D01*
X0232471Y0065231D01*
X0232750Y0064951D01*
X0233092Y0064754D01*
X0233474Y0064652D01*
X0235155Y0064652D01*
X0235155Y0069998D01*
X0236124Y0069998D01*
X0236124Y0064652D01*
X0237806Y0064652D01*
X0238187Y0064754D01*
X0238529Y0064951D01*
X0238809Y0065231D01*
X0239006Y0065573D01*
X0239108Y0065954D01*
X0239108Y0069998D01*
X0236124Y0069998D01*
X0236124Y0070967D01*
X0235155Y0070967D01*
X0235155Y0076313D01*
X0233474Y0076313D01*
X0233092Y0076211D01*
X0232750Y0076013D01*
X0232471Y0075734D01*
X0232444Y0075688D01*
X0231620Y0076513D01*
X0230750Y0076513D01*
X0230750Y0077050D01*
X0243122Y0077050D01*
X0243923Y0076248D01*
X0243192Y0075517D01*
X0243192Y0065447D01*
X0244188Y0064452D01*
X0249533Y0064452D01*
X0250207Y0065125D01*
X0250880Y0064452D01*
X0256620Y0064452D01*
X0257444Y0065277D01*
X0257471Y0065231D01*
X0257750Y0064951D01*
X0258092Y0064754D01*
X0258474Y0064652D01*
X0260155Y0064652D01*
X0260155Y0069998D01*
X0261124Y0069998D01*
X0261124Y0064652D01*
X0262806Y0064652D01*
X0263187Y0064754D01*
X0263529Y0064951D01*
X0263809Y0065231D01*
X0264006Y0065573D01*
X0264108Y0065954D01*
X0264108Y0069998D01*
X0261124Y0069998D01*
X0261124Y0070967D01*
X0260155Y0070967D01*
X0260155Y0076313D01*
X0258474Y0076313D01*
X0258092Y0076211D01*
X0257750Y0076013D01*
X0257471Y0075734D01*
X0257444Y0075688D01*
X0256620Y0076513D01*
X0255750Y0076513D01*
X0255750Y0077050D01*
X0268122Y0077050D01*
X0268923Y0076248D01*
X0268192Y0075517D01*
X0268192Y0065447D01*
X0269188Y0064452D01*
X0274533Y0064452D01*
X0275207Y0065125D01*
X0275880Y0064452D01*
X0281620Y0064452D01*
X0282444Y0065277D01*
X0282471Y0065231D01*
X0282750Y0064951D01*
X0283092Y0064754D01*
X0283474Y0064652D01*
X0285155Y0064652D01*
X0285155Y0069998D01*
X0286124Y0069998D01*
X0286124Y0064652D01*
X0287806Y0064652D01*
X0288187Y0064754D01*
X0288529Y0064951D01*
X0288809Y0065231D01*
X0289006Y0065573D01*
X0289108Y0065954D01*
X0289108Y0069998D01*
X0286124Y0069998D01*
X0286124Y0070967D01*
X0285155Y0070967D01*
X0285155Y0076313D01*
X0283474Y0076313D01*
X0283092Y0076211D01*
X0282750Y0076013D01*
X0282471Y0075734D01*
X0282444Y0075688D01*
X0281620Y0076513D01*
X0280750Y0076513D01*
X0280750Y0077050D01*
X0293122Y0077050D01*
X0293923Y0076248D01*
X0293192Y0075517D01*
X0293192Y0065447D01*
X0294188Y0064452D01*
X0299533Y0064452D01*
X0300207Y0065125D01*
X0300880Y0064452D01*
X0306620Y0064452D01*
X0307444Y0065277D01*
X0307471Y0065231D01*
X0307750Y0064951D01*
X0308092Y0064754D01*
X0308474Y0064652D01*
X0310155Y0064652D01*
X0310155Y0069998D01*
X0311124Y0069998D01*
X0311124Y0064652D01*
X0312806Y0064652D01*
X0313187Y0064754D01*
X0313529Y0064951D01*
X0313809Y0065231D01*
X0314006Y0065573D01*
X0314108Y0065954D01*
X0314108Y0069998D01*
X0311124Y0069998D01*
X0311124Y0070967D01*
X0310155Y0070967D01*
X0310155Y0076313D01*
X0308474Y0076313D01*
X0308092Y0076211D01*
X0307750Y0076013D01*
X0307471Y0075734D01*
X0307444Y0075688D01*
X0306620Y0076513D01*
X0305750Y0076513D01*
X0305750Y0077050D01*
X0318122Y0077050D01*
X0318923Y0076248D01*
X0318192Y0075517D01*
X0318192Y0065447D01*
X0319188Y0064452D01*
X0324533Y0064452D01*
X0325207Y0065125D01*
X0325880Y0064452D01*
X0331620Y0064452D01*
X0332444Y0065277D01*
X0332471Y0065231D01*
X0332750Y0064951D01*
X0333092Y0064754D01*
X0333474Y0064652D01*
X0335155Y0064652D01*
X0335155Y0069998D01*
X0336124Y0069998D01*
X0336124Y0064652D01*
X0337806Y0064652D01*
X0338187Y0064754D01*
X0338529Y0064951D01*
X0338809Y0065231D01*
X0339006Y0065573D01*
X0339108Y0065954D01*
X0339108Y0069998D01*
X0336124Y0069998D01*
X0336124Y0070967D01*
X0335155Y0070967D01*
X0335155Y0076313D01*
X0333474Y0076313D01*
X0333092Y0076211D01*
X0332750Y0076013D01*
X0332471Y0075734D01*
X0332444Y0075688D01*
X0331620Y0076513D01*
X0330750Y0076513D01*
X0330750Y0077050D01*
X0344227Y0077050D01*
X0344764Y0076513D01*
X0344188Y0076513D01*
X0343192Y0075517D01*
X0343192Y0065447D01*
X0344188Y0064452D01*
X0349533Y0064452D01*
X0350207Y0065125D01*
X0350880Y0064452D01*
X0356620Y0064452D01*
X0357444Y0065277D01*
X0357471Y0065231D01*
X0357750Y0064951D01*
X0358092Y0064754D01*
X0358474Y0064652D01*
X0360155Y0064652D01*
X0360155Y0069998D01*
X0361124Y0069998D01*
X0361124Y0064652D01*
X0362806Y0064652D01*
X0363187Y0064754D01*
X0363529Y0064951D01*
X0363809Y0065231D01*
X0364006Y0065573D01*
X0364108Y0065954D01*
X0364108Y0069998D01*
X0361124Y0069998D01*
X0361124Y0070967D01*
X0360155Y0070967D01*
X0360155Y0076313D01*
X0358474Y0076313D01*
X0358092Y0076211D01*
X0357750Y0076013D01*
X0357471Y0075734D01*
X0357444Y0075688D01*
X0356620Y0076513D01*
X0355750Y0076513D01*
X0355750Y0076750D01*
X0377922Y0076750D01*
X0378789Y0075883D01*
X0378350Y0074824D01*
X0378350Y0072676D01*
X0379172Y0070691D01*
X0380691Y0069172D01*
X0381974Y0068641D01*
X0381754Y0068569D01*
X0381025Y0068197D01*
X0380362Y0067716D01*
X0379784Y0067138D01*
X0379303Y0066475D01*
X0378931Y0065746D01*
X0378678Y0064968D01*
X0378564Y0064250D01*
X0383250Y0064250D01*
X0383250Y0063250D01*
X0384250Y0063250D01*
X0384250Y0058564D01*
X0384968Y0058678D01*
X0385746Y0058931D01*
X0386475Y0059303D01*
X0386650Y0059429D01*
X0386650Y0043867D01*
X0386062Y0044885D01*
X0386062Y0044885D01*
X0383523Y0047016D01*
X0383522Y0047016D01*
X0380407Y0048150D01*
X0377093Y0048150D01*
X0373977Y0047016D01*
X0371438Y0044885D01*
X0369781Y0042015D01*
X0369205Y0038750D01*
X0369205Y0038750D01*
X0369781Y0035485D01*
X0371438Y0032615D01*
X0371438Y0032615D01*
X0373541Y0030850D01*
X0108836Y0030850D01*
X0108836Y0038923D01*
X0107840Y0039918D01*
X0101707Y0039918D01*
X0100711Y0038923D01*
X0100711Y0030850D01*
X0086789Y0030850D01*
X0086789Y0038923D01*
X0085793Y0039918D01*
X0079660Y0039918D01*
X0078664Y0038923D01*
X0078664Y0030850D01*
X0068961Y0030850D01*
X0069950Y0031839D01*
X0080950Y0042839D01*
X0080950Y0051550D01*
X0085163Y0051550D01*
X0085163Y0048841D01*
X0087754Y0048841D01*
X0087754Y0048659D01*
X0087935Y0048659D01*
X0087754Y0048659D02*
X0087754Y0044593D01*
X0086466Y0044593D01*
X0086084Y0044695D01*
X0085742Y0044892D01*
X0085463Y0045171D01*
X0085266Y0045514D01*
X0085163Y0045895D01*
X0085163Y0048659D01*
X0087754Y0048659D01*
X0087754Y0048720D02*
X0080950Y0048720D01*
X0080950Y0047722D02*
X0085163Y0047722D01*
X0085163Y0046723D02*
X0080950Y0046723D01*
X0080950Y0045725D02*
X0085209Y0045725D01*
X0086030Y0044726D02*
X0080950Y0044726D01*
X0080950Y0043728D02*
X0370770Y0043728D01*
X0371346Y0044726D02*
X0101874Y0044726D01*
X0102537Y0045725D02*
X0372438Y0045725D01*
X0371438Y0044885D02*
X0371438Y0044885D01*
X0371438Y0044885D01*
X0370193Y0042729D02*
X0080840Y0042729D01*
X0079842Y0041731D02*
X0369731Y0041731D01*
X0369781Y0042015D02*
X0369781Y0042015D01*
X0369555Y0040732D02*
X0078843Y0040732D01*
X0079475Y0039734D02*
X0077845Y0039734D01*
X0078664Y0038735D02*
X0076846Y0038735D01*
X0075848Y0037737D02*
X0078664Y0037737D01*
X0078664Y0036738D02*
X0074849Y0036738D01*
X0073851Y0035740D02*
X0078664Y0035740D01*
X0078664Y0034741D02*
X0072852Y0034741D01*
X0071854Y0033743D02*
X0078664Y0033743D01*
X0078664Y0032744D02*
X0070855Y0032744D01*
X0069857Y0031746D02*
X0078664Y0031746D01*
X0086789Y0031746D02*
X0100711Y0031746D01*
X0100711Y0032744D02*
X0086789Y0032744D01*
X0086789Y0033743D02*
X0100711Y0033743D01*
X0100711Y0034741D02*
X0086789Y0034741D01*
X0086789Y0035740D02*
X0100711Y0035740D01*
X0100711Y0036738D02*
X0086789Y0036738D01*
X0086789Y0037737D02*
X0100711Y0037737D01*
X0100711Y0038735D02*
X0086789Y0038735D01*
X0085978Y0039734D02*
X0101522Y0039734D01*
X0108025Y0039734D02*
X0369378Y0039734D01*
X0369208Y0038735D02*
X0108836Y0038735D01*
X0108836Y0037737D02*
X0369384Y0037737D01*
X0369560Y0036738D02*
X0108836Y0036738D01*
X0108836Y0035740D02*
X0369736Y0035740D01*
X0369781Y0035485D02*
X0369781Y0035485D01*
X0370210Y0034741D02*
X0108836Y0034741D01*
X0108836Y0033743D02*
X0370787Y0033743D01*
X0371363Y0032744D02*
X0108836Y0032744D01*
X0108836Y0031746D02*
X0372474Y0031746D01*
X0373628Y0046723D02*
X0102537Y0046723D01*
X0102537Y0047722D02*
X0375916Y0047722D01*
X0373977Y0047016D02*
X0373977Y0047016D01*
X0381584Y0047722D02*
X0386650Y0047722D01*
X0386650Y0048720D02*
X0102537Y0048720D01*
X0102537Y0049719D02*
X0386650Y0049719D01*
X0386650Y0050717D02*
X0130319Y0050717D01*
X0130183Y0050581D02*
X0130462Y0050860D01*
X0130660Y0051203D01*
X0130762Y0051584D01*
X0130762Y0053266D01*
X0127581Y0053266D01*
X0127581Y0054234D01*
X0130762Y0054234D01*
X0130762Y0055916D01*
X0130660Y0056297D01*
X0130462Y0056640D01*
X0130183Y0056919D01*
X0129841Y0057116D01*
X0129459Y0057218D01*
X0127581Y0057218D01*
X0127581Y0054234D01*
X0126612Y0054234D01*
X0126612Y0057218D01*
X0124734Y0057218D01*
X0124352Y0057116D01*
X0124010Y0056919D01*
X0123891Y0056800D01*
X0123273Y0057418D01*
X0117534Y0057418D01*
X0116538Y0056423D01*
X0116538Y0056050D01*
X0114405Y0056050D01*
X0114034Y0056420D01*
X0112877Y0056900D01*
X0111623Y0056900D01*
X0110466Y0056420D01*
X0109580Y0055534D01*
X0109100Y0054377D01*
X0109100Y0053123D01*
X0109580Y0051966D01*
X0110466Y0051080D01*
X0111623Y0050600D01*
X0112877Y0050600D01*
X0114034Y0051080D01*
X0114405Y0051450D01*
X0116538Y0051450D01*
X0116538Y0051077D01*
X0117534Y0050081D01*
X0123273Y0050081D01*
X0123891Y0050700D01*
X0124010Y0050581D01*
X0124352Y0050384D01*
X0124734Y0050281D01*
X0126612Y0050281D01*
X0126612Y0053266D01*
X0127581Y0053266D01*
X0127581Y0050281D01*
X0129459Y0050281D01*
X0129841Y0050384D01*
X0130183Y0050581D01*
X0130762Y0051716D02*
X0386650Y0051716D01*
X0386650Y0052714D02*
X0130762Y0052714D01*
X0130762Y0054711D02*
X0386650Y0054711D01*
X0386650Y0053713D02*
X0127581Y0053713D01*
X0127581Y0054711D02*
X0126612Y0054711D01*
X0126612Y0055710D02*
X0127581Y0055710D01*
X0127581Y0056708D02*
X0126612Y0056708D01*
X0130393Y0056708D02*
X0386650Y0056708D01*
X0386650Y0055710D02*
X0130762Y0055710D01*
X0127581Y0052714D02*
X0126612Y0052714D01*
X0126612Y0051716D02*
X0127581Y0051716D01*
X0127581Y0050717D02*
X0126612Y0050717D01*
X0116898Y0050717D02*
X0113160Y0050717D01*
X0111340Y0050717D02*
X0102537Y0050717D01*
X0102537Y0051716D02*
X0109829Y0051716D01*
X0109269Y0052714D02*
X0101934Y0052714D01*
X0101655Y0053713D02*
X0109100Y0053713D01*
X0109239Y0054711D02*
X0101655Y0054711D01*
X0101558Y0055710D02*
X0109755Y0055710D01*
X0111161Y0056708D02*
X0100560Y0056708D01*
X0099561Y0057707D02*
X0386650Y0057707D01*
X0386650Y0058705D02*
X0385052Y0058705D01*
X0384250Y0058705D02*
X0383250Y0058705D01*
X0383250Y0058564D02*
X0383250Y0063250D01*
X0378564Y0063250D01*
X0378678Y0062532D01*
X0378931Y0061754D01*
X0379303Y0061025D01*
X0379784Y0060362D01*
X0380362Y0059784D01*
X0381025Y0059303D01*
X0381754Y0058931D01*
X0382532Y0058678D01*
X0383250Y0058564D01*
X0382448Y0058705D02*
X0098563Y0058705D01*
X0100305Y0059704D02*
X0380472Y0059704D01*
X0379537Y0060702D02*
X0100762Y0060702D01*
X0100762Y0061701D02*
X0378958Y0061701D01*
X0378652Y0062699D02*
X0097581Y0062699D01*
X0100762Y0063698D02*
X0383250Y0063698D01*
X0383250Y0062699D02*
X0384250Y0062699D01*
X0384250Y0061701D02*
X0383250Y0061701D01*
X0383250Y0060702D02*
X0384250Y0060702D01*
X0384250Y0059704D02*
X0383250Y0059704D01*
X0378635Y0064696D02*
X0362973Y0064696D01*
X0364039Y0065695D02*
X0378914Y0065695D01*
X0379461Y0066693D02*
X0364108Y0066693D01*
X0364108Y0067692D02*
X0380338Y0067692D01*
X0381854Y0068690D02*
X0364108Y0068690D01*
X0364108Y0069689D02*
X0380174Y0069689D01*
X0379176Y0070687D02*
X0361124Y0070687D01*
X0361124Y0070967D02*
X0364108Y0070967D01*
X0364108Y0075010D01*
X0364006Y0075392D01*
X0363809Y0075734D01*
X0363529Y0076013D01*
X0363187Y0076211D01*
X0362806Y0076313D01*
X0361124Y0076313D01*
X0361124Y0070967D01*
X0361124Y0071686D02*
X0360155Y0071686D01*
X0360155Y0072684D02*
X0361124Y0072684D01*
X0361124Y0073683D02*
X0360155Y0073683D01*
X0360155Y0074682D02*
X0361124Y0074682D01*
X0361124Y0075680D02*
X0360155Y0075680D01*
X0363840Y0075680D02*
X0378705Y0075680D01*
X0378350Y0074682D02*
X0364108Y0074682D01*
X0364108Y0073683D02*
X0378350Y0073683D01*
X0378350Y0072684D02*
X0364108Y0072684D01*
X0364108Y0071686D02*
X0378760Y0071686D01*
X0377993Y0076679D02*
X0355750Y0076679D01*
X0360155Y0069689D02*
X0361124Y0069689D01*
X0361124Y0068690D02*
X0360155Y0068690D01*
X0360155Y0067692D02*
X0361124Y0067692D01*
X0361124Y0066693D02*
X0360155Y0066693D01*
X0360155Y0065695D02*
X0361124Y0065695D01*
X0361124Y0064696D02*
X0360155Y0064696D01*
X0358306Y0064696D02*
X0356864Y0064696D01*
X0350636Y0064696D02*
X0349778Y0064696D01*
X0343943Y0064696D02*
X0337973Y0064696D01*
X0339039Y0065695D02*
X0343192Y0065695D01*
X0343192Y0066693D02*
X0339108Y0066693D01*
X0339108Y0067692D02*
X0343192Y0067692D01*
X0343192Y0068690D02*
X0339108Y0068690D01*
X0339108Y0069689D02*
X0343192Y0069689D01*
X0343192Y0070687D02*
X0336124Y0070687D01*
X0336124Y0070967D02*
X0339108Y0070967D01*
X0339108Y0075010D01*
X0339006Y0075392D01*
X0338809Y0075734D01*
X0338529Y0076013D01*
X0338187Y0076211D01*
X0337806Y0076313D01*
X0336124Y0076313D01*
X0336124Y0070967D01*
X0336124Y0071686D02*
X0335155Y0071686D01*
X0335155Y0072684D02*
X0336124Y0072684D01*
X0336124Y0073683D02*
X0335155Y0073683D01*
X0335155Y0074682D02*
X0336124Y0074682D01*
X0336124Y0075680D02*
X0335155Y0075680D01*
X0338840Y0075680D02*
X0343355Y0075680D01*
X0343192Y0074682D02*
X0339108Y0074682D01*
X0339108Y0073683D02*
X0343192Y0073683D01*
X0343192Y0072684D02*
X0339108Y0072684D01*
X0339108Y0071686D02*
X0343192Y0071686D01*
X0336124Y0069689D02*
X0335155Y0069689D01*
X0335155Y0068690D02*
X0336124Y0068690D01*
X0336124Y0067692D02*
X0335155Y0067692D01*
X0335155Y0066693D02*
X0336124Y0066693D01*
X0336124Y0065695D02*
X0335155Y0065695D01*
X0335155Y0064696D02*
X0336124Y0064696D01*
X0333306Y0064696D02*
X0331864Y0064696D01*
X0325636Y0064696D02*
X0324778Y0064696D01*
X0318943Y0064696D02*
X0312973Y0064696D01*
X0314039Y0065695D02*
X0318192Y0065695D01*
X0318192Y0066693D02*
X0314108Y0066693D01*
X0314108Y0067692D02*
X0318192Y0067692D01*
X0318192Y0068690D02*
X0314108Y0068690D01*
X0314108Y0069689D02*
X0318192Y0069689D01*
X0318192Y0070687D02*
X0311124Y0070687D01*
X0311124Y0070967D02*
X0314108Y0070967D01*
X0314108Y0075010D01*
X0314006Y0075392D01*
X0313809Y0075734D01*
X0313529Y0076013D01*
X0313187Y0076211D01*
X0312806Y0076313D01*
X0311124Y0076313D01*
X0311124Y0070967D01*
X0311124Y0071686D02*
X0310155Y0071686D01*
X0310155Y0072684D02*
X0311124Y0072684D01*
X0311124Y0073683D02*
X0310155Y0073683D01*
X0310155Y0074682D02*
X0311124Y0074682D01*
X0311124Y0075680D02*
X0310155Y0075680D01*
X0313840Y0075680D02*
X0318355Y0075680D01*
X0318493Y0076679D02*
X0305750Y0076679D01*
X0314108Y0074682D02*
X0318192Y0074682D01*
X0318192Y0073683D02*
X0314108Y0073683D01*
X0314108Y0072684D02*
X0318192Y0072684D01*
X0318192Y0071686D02*
X0314108Y0071686D01*
X0311124Y0069689D02*
X0310155Y0069689D01*
X0310155Y0068690D02*
X0311124Y0068690D01*
X0311124Y0067692D02*
X0310155Y0067692D01*
X0310155Y0066693D02*
X0311124Y0066693D01*
X0311124Y0065695D02*
X0310155Y0065695D01*
X0310155Y0064696D02*
X0311124Y0064696D01*
X0308306Y0064696D02*
X0306864Y0064696D01*
X0300636Y0064696D02*
X0299778Y0064696D01*
X0293943Y0064696D02*
X0287973Y0064696D01*
X0289039Y0065695D02*
X0293192Y0065695D01*
X0293192Y0066693D02*
X0289108Y0066693D01*
X0289108Y0067692D02*
X0293192Y0067692D01*
X0293192Y0068690D02*
X0289108Y0068690D01*
X0289108Y0069689D02*
X0293192Y0069689D01*
X0293192Y0070687D02*
X0286124Y0070687D01*
X0286124Y0070967D02*
X0289108Y0070967D01*
X0289108Y0075010D01*
X0289006Y0075392D01*
X0288809Y0075734D01*
X0288529Y0076013D01*
X0288187Y0076211D01*
X0287806Y0076313D01*
X0286124Y0076313D01*
X0286124Y0070967D01*
X0286124Y0071686D02*
X0285155Y0071686D01*
X0285155Y0072684D02*
X0286124Y0072684D01*
X0286124Y0073683D02*
X0285155Y0073683D01*
X0285155Y0074682D02*
X0286124Y0074682D01*
X0286124Y0075680D02*
X0285155Y0075680D01*
X0288840Y0075680D02*
X0293355Y0075680D01*
X0293493Y0076679D02*
X0280750Y0076679D01*
X0289108Y0074682D02*
X0293192Y0074682D01*
X0293192Y0073683D02*
X0289108Y0073683D01*
X0289108Y0072684D02*
X0293192Y0072684D01*
X0293192Y0071686D02*
X0289108Y0071686D01*
X0286124Y0069689D02*
X0285155Y0069689D01*
X0285155Y0068690D02*
X0286124Y0068690D01*
X0286124Y0067692D02*
X0285155Y0067692D01*
X0285155Y0066693D02*
X0286124Y0066693D01*
X0286124Y0065695D02*
X0285155Y0065695D01*
X0285155Y0064696D02*
X0286124Y0064696D01*
X0283306Y0064696D02*
X0281864Y0064696D01*
X0275636Y0064696D02*
X0274778Y0064696D01*
X0268943Y0064696D02*
X0262973Y0064696D01*
X0264039Y0065695D02*
X0268192Y0065695D01*
X0268192Y0066693D02*
X0264108Y0066693D01*
X0264108Y0067692D02*
X0268192Y0067692D01*
X0268192Y0068690D02*
X0264108Y0068690D01*
X0264108Y0069689D02*
X0268192Y0069689D01*
X0268192Y0070687D02*
X0261124Y0070687D01*
X0261124Y0070967D02*
X0264108Y0070967D01*
X0264108Y0075010D01*
X0264006Y0075392D01*
X0263809Y0075734D01*
X0263529Y0076013D01*
X0263187Y0076211D01*
X0262806Y0076313D01*
X0261124Y0076313D01*
X0261124Y0070967D01*
X0261124Y0071686D02*
X0260155Y0071686D01*
X0260155Y0072684D02*
X0261124Y0072684D01*
X0261124Y0073683D02*
X0260155Y0073683D01*
X0260155Y0074682D02*
X0261124Y0074682D01*
X0261124Y0075680D02*
X0260155Y0075680D01*
X0263840Y0075680D02*
X0268355Y0075680D01*
X0268493Y0076679D02*
X0255750Y0076679D01*
X0260155Y0069689D02*
X0261124Y0069689D01*
X0261124Y0068690D02*
X0260155Y0068690D01*
X0260155Y0067692D02*
X0261124Y0067692D01*
X0261124Y0066693D02*
X0260155Y0066693D01*
X0260155Y0065695D02*
X0261124Y0065695D01*
X0261124Y0064696D02*
X0260155Y0064696D01*
X0258306Y0064696D02*
X0256864Y0064696D01*
X0264108Y0071686D02*
X0268192Y0071686D01*
X0268192Y0072684D02*
X0264108Y0072684D01*
X0264108Y0073683D02*
X0268192Y0073683D01*
X0268192Y0074682D02*
X0264108Y0074682D01*
X0250636Y0064696D02*
X0249778Y0064696D01*
X0243943Y0064696D02*
X0237973Y0064696D01*
X0239039Y0065695D02*
X0243192Y0065695D01*
X0243192Y0066693D02*
X0239108Y0066693D01*
X0239108Y0067692D02*
X0243192Y0067692D01*
X0243192Y0068690D02*
X0239108Y0068690D01*
X0239108Y0069689D02*
X0243192Y0069689D01*
X0243192Y0070687D02*
X0236124Y0070687D01*
X0236124Y0070967D02*
X0239108Y0070967D01*
X0239108Y0075010D01*
X0239006Y0075392D01*
X0238809Y0075734D01*
X0238529Y0076013D01*
X0238187Y0076211D01*
X0237806Y0076313D01*
X0236124Y0076313D01*
X0236124Y0070967D01*
X0236124Y0071686D02*
X0235155Y0071686D01*
X0235155Y0072684D02*
X0236124Y0072684D01*
X0236124Y0073683D02*
X0235155Y0073683D01*
X0235155Y0074682D02*
X0236124Y0074682D01*
X0236124Y0075680D02*
X0235155Y0075680D01*
X0238840Y0075680D02*
X0243355Y0075680D01*
X0243493Y0076679D02*
X0230750Y0076679D01*
X0235155Y0069689D02*
X0236124Y0069689D01*
X0236124Y0068690D02*
X0235155Y0068690D01*
X0235155Y0067692D02*
X0236124Y0067692D01*
X0236124Y0066693D02*
X0235155Y0066693D01*
X0235155Y0065695D02*
X0236124Y0065695D01*
X0236124Y0064696D02*
X0235155Y0064696D01*
X0233306Y0064696D02*
X0231864Y0064696D01*
X0239108Y0071686D02*
X0243192Y0071686D01*
X0243192Y0072684D02*
X0239108Y0072684D01*
X0239108Y0073683D02*
X0243192Y0073683D01*
X0243192Y0074682D02*
X0239108Y0074682D01*
X0225636Y0064696D02*
X0224778Y0064696D01*
X0218943Y0064696D02*
X0212973Y0064696D01*
X0214039Y0065695D02*
X0218192Y0065695D01*
X0218192Y0066693D02*
X0214108Y0066693D01*
X0214108Y0067692D02*
X0218192Y0067692D01*
X0218192Y0068690D02*
X0214108Y0068690D01*
X0214108Y0069689D02*
X0218192Y0069689D01*
X0218192Y0070687D02*
X0211124Y0070687D01*
X0211124Y0070967D02*
X0214108Y0070967D01*
X0214108Y0075010D01*
X0214006Y0075392D01*
X0213809Y0075734D01*
X0213529Y0076013D01*
X0213187Y0076211D01*
X0212806Y0076313D01*
X0211124Y0076313D01*
X0211124Y0070967D01*
X0211124Y0071686D02*
X0210155Y0071686D01*
X0210155Y0072684D02*
X0211124Y0072684D01*
X0211124Y0073683D02*
X0210155Y0073683D01*
X0210155Y0074682D02*
X0211124Y0074682D01*
X0211124Y0075680D02*
X0210155Y0075680D01*
X0213840Y0075680D02*
X0218355Y0075680D01*
X0218493Y0076679D02*
X0205750Y0076679D01*
X0210155Y0069689D02*
X0211124Y0069689D01*
X0211124Y0068690D02*
X0210155Y0068690D01*
X0210155Y0067692D02*
X0211124Y0067692D01*
X0211124Y0066693D02*
X0210155Y0066693D01*
X0210155Y0065695D02*
X0211124Y0065695D01*
X0211124Y0064696D02*
X0210155Y0064696D01*
X0208306Y0064696D02*
X0206864Y0064696D01*
X0214108Y0071686D02*
X0218192Y0071686D01*
X0218192Y0072684D02*
X0214108Y0072684D01*
X0214108Y0073683D02*
X0218192Y0073683D01*
X0218192Y0074682D02*
X0214108Y0074682D01*
X0200636Y0064696D02*
X0199778Y0064696D01*
X0193943Y0064696D02*
X0187973Y0064696D01*
X0189039Y0065695D02*
X0193192Y0065695D01*
X0193192Y0066693D02*
X0189108Y0066693D01*
X0189108Y0067692D02*
X0193192Y0067692D01*
X0193192Y0068690D02*
X0189108Y0068690D01*
X0189108Y0069689D02*
X0193192Y0069689D01*
X0193192Y0070687D02*
X0186124Y0070687D01*
X0186124Y0070967D02*
X0189108Y0070967D01*
X0189108Y0075010D01*
X0189006Y0075392D01*
X0188809Y0075734D01*
X0188529Y0076013D01*
X0188187Y0076211D01*
X0187806Y0076313D01*
X0186124Y0076313D01*
X0186124Y0070967D01*
X0186124Y0071686D02*
X0185155Y0071686D01*
X0185155Y0072684D02*
X0186124Y0072684D01*
X0186124Y0073683D02*
X0185155Y0073683D01*
X0185155Y0074682D02*
X0186124Y0074682D01*
X0186124Y0075680D02*
X0185155Y0075680D01*
X0188840Y0075680D02*
X0193355Y0075680D01*
X0193493Y0076679D02*
X0180750Y0076679D01*
X0185155Y0069689D02*
X0186124Y0069689D01*
X0186124Y0068690D02*
X0185155Y0068690D01*
X0185155Y0067692D02*
X0186124Y0067692D01*
X0186124Y0066693D02*
X0185155Y0066693D01*
X0185155Y0065695D02*
X0186124Y0065695D01*
X0186124Y0064696D02*
X0185155Y0064696D01*
X0183306Y0064696D02*
X0181864Y0064696D01*
X0175636Y0064696D02*
X0174778Y0064696D01*
X0168943Y0064696D02*
X0162973Y0064696D01*
X0164039Y0065695D02*
X0168192Y0065695D01*
X0168192Y0066693D02*
X0164108Y0066693D01*
X0164108Y0067692D02*
X0168192Y0067692D01*
X0168192Y0068690D02*
X0164108Y0068690D01*
X0164108Y0069689D02*
X0168192Y0069689D01*
X0168192Y0070687D02*
X0161124Y0070687D01*
X0161124Y0070967D02*
X0164108Y0070967D01*
X0164108Y0075010D01*
X0164006Y0075392D01*
X0163809Y0075734D01*
X0163529Y0076013D01*
X0163187Y0076211D01*
X0162806Y0076313D01*
X0161124Y0076313D01*
X0161124Y0070967D01*
X0161124Y0071686D02*
X0160155Y0071686D01*
X0160155Y0072684D02*
X0161124Y0072684D01*
X0161124Y0073683D02*
X0160155Y0073683D01*
X0160155Y0074682D02*
X0161124Y0074682D01*
X0161124Y0075680D02*
X0160155Y0075680D01*
X0163840Y0075680D02*
X0168355Y0075680D01*
X0168493Y0076679D02*
X0155750Y0076679D01*
X0160155Y0069689D02*
X0161124Y0069689D01*
X0161124Y0068690D02*
X0160155Y0068690D01*
X0160155Y0067692D02*
X0161124Y0067692D01*
X0161124Y0066693D02*
X0160155Y0066693D01*
X0160155Y0065695D02*
X0161124Y0065695D01*
X0161124Y0064696D02*
X0160155Y0064696D01*
X0158306Y0064696D02*
X0156864Y0064696D01*
X0150636Y0064696D02*
X0149778Y0064696D01*
X0143943Y0064696D02*
X0137973Y0064696D01*
X0139039Y0065695D02*
X0143192Y0065695D01*
X0143192Y0066693D02*
X0139108Y0066693D01*
X0139108Y0067692D02*
X0143192Y0067692D01*
X0143192Y0068690D02*
X0139108Y0068690D01*
X0139108Y0069689D02*
X0143192Y0069689D01*
X0143192Y0070687D02*
X0136124Y0070687D01*
X0136124Y0070967D02*
X0139108Y0070967D01*
X0139108Y0075010D01*
X0139006Y0075392D01*
X0138809Y0075734D01*
X0138529Y0076013D01*
X0138187Y0076211D01*
X0137806Y0076313D01*
X0136124Y0076313D01*
X0136124Y0070967D01*
X0136124Y0071686D02*
X0135155Y0071686D01*
X0135155Y0072684D02*
X0136124Y0072684D01*
X0136124Y0073683D02*
X0135155Y0073683D01*
X0135155Y0074682D02*
X0136124Y0074682D01*
X0136124Y0075680D02*
X0135155Y0075680D01*
X0138840Y0075680D02*
X0143355Y0075680D01*
X0143192Y0074682D02*
X0139108Y0074682D01*
X0139108Y0073683D02*
X0143192Y0073683D01*
X0143192Y0072684D02*
X0139108Y0072684D01*
X0139108Y0071686D02*
X0143192Y0071686D01*
X0144493Y0076679D02*
X0130750Y0076679D01*
X0135155Y0069689D02*
X0136124Y0069689D01*
X0136124Y0068690D02*
X0135155Y0068690D01*
X0135155Y0067692D02*
X0136124Y0067692D01*
X0136124Y0066693D02*
X0135155Y0066693D01*
X0135155Y0065695D02*
X0136124Y0065695D01*
X0136124Y0064696D02*
X0135155Y0064696D01*
X0133306Y0064696D02*
X0131864Y0064696D01*
X0125636Y0064696D02*
X0124778Y0064696D01*
X0118943Y0064696D02*
X0100762Y0064696D01*
X0100407Y0065695D02*
X0118192Y0065695D01*
X0118192Y0066693D02*
X0101502Y0066693D01*
X0101992Y0067692D02*
X0118192Y0067692D01*
X0118192Y0068690D02*
X0112445Y0068690D01*
X0113100Y0069689D02*
X0118192Y0069689D01*
X0118192Y0070687D02*
X0113100Y0070687D01*
X0113100Y0071686D02*
X0118192Y0071686D01*
X0118192Y0072684D02*
X0113100Y0072684D01*
X0112571Y0073683D02*
X0118192Y0073683D01*
X0118192Y0083250D02*
X0113004Y0083250D01*
X0112363Y0083891D01*
X0112600Y0084129D01*
X0112798Y0084471D01*
X0112900Y0084853D01*
X0112900Y0086150D01*
X0107150Y0086150D01*
X0107150Y0086350D01*
X0106950Y0086350D01*
X0106950Y0088950D01*
X0102503Y0088950D01*
X0102150Y0088856D01*
X0102150Y0089426D01*
X0101632Y0090676D01*
X0100676Y0091632D01*
X0099426Y0092150D01*
X0098074Y0092150D01*
X0098018Y0092127D01*
X0098018Y0095807D01*
X0098262Y0096051D01*
X0098718Y0097153D01*
X0098718Y0098347D01*
X0098262Y0099449D01*
X0098018Y0099693D01*
X0098018Y0104662D01*
X0098277Y0104593D01*
X0099565Y0104593D01*
X0099565Y0108659D01*
X0099746Y0108659D01*
X0099746Y0104593D01*
X0101034Y0104593D01*
X0101416Y0104695D01*
X0101758Y0104892D01*
X0102037Y0105171D01*
X0102234Y0105514D01*
X0102337Y0105895D01*
X0102337Y0108659D01*
X0099746Y0108659D01*
X0099746Y0108841D01*
X0099565Y0108841D01*
X0099565Y0112907D01*
X0098277Y0112907D01*
X0097904Y0112807D01*
X0097604Y0113107D01*
X0093833Y0113107D01*
X0093750Y0113024D01*
X0093667Y0113107D01*
X0089896Y0113107D01*
X0089813Y0113024D01*
X0089730Y0113107D01*
X0085959Y0113107D01*
X0084963Y0112112D01*
X0084963Y0105388D01*
X0085844Y0104507D01*
X0085844Y0101087D01*
X0085507Y0100750D01*
X0066922Y0100750D01*
X0062250Y0096078D01*
X0062250Y0095134D01*
X0061744Y0095640D01*
X0061750Y0095653D01*
X0061750Y0096847D01*
X0061293Y0097949D01*
X0060449Y0098793D01*
X0059347Y0099250D01*
X0058153Y0099250D01*
X0057051Y0098793D01*
X0056207Y0097949D01*
X0055750Y0096847D01*
X0055750Y0095653D01*
X0055756Y0095640D01*
X0055081Y0094966D01*
X0055081Y0089227D01*
X0055558Y0088750D01*
X0055081Y0088273D01*
X0055081Y0082750D01*
X0039922Y0082750D01*
X0038750Y0081578D01*
X0038657Y0081485D01*
X0039150Y0082676D01*
X0039150Y0084824D01*
X0038328Y0086809D01*
X0036809Y0088328D01*
X0035790Y0088750D01*
X0036809Y0089172D01*
X0038328Y0090691D01*
X0039150Y0092676D01*
X0039150Y0094824D01*
X0038328Y0096809D01*
X0036809Y0098328D01*
X0035526Y0098859D01*
X0035746Y0098931D01*
X0036475Y0099303D01*
X0037138Y0099784D01*
X0037716Y0100362D01*
X0038197Y0101025D01*
X0038569Y0101754D01*
X0038822Y0102532D01*
X0038936Y0103250D01*
X0034250Y0103250D01*
X0034250Y0104250D01*
X0033250Y0104250D01*
X0033250Y0108936D01*
X0032532Y0108822D01*
X0031754Y0108569D01*
X0031025Y0108197D01*
X0030850Y0108071D01*
X0030850Y0113541D01*
X0032615Y0111438D01*
X0035485Y0109781D01*
X0035485Y0109781D01*
X0038750Y0109205D01*
X0042015Y0109781D01*
X0044885Y0111438D01*
X0047016Y0113977D01*
X0048150Y0117093D01*
X0048150Y0120407D01*
X0047016Y0123522D01*
X0047016Y0123523D01*
X0044885Y0126062D01*
X0043867Y0126650D01*
X0078664Y0126650D01*
X0078664Y0118577D01*
X0079660Y0117581D01*
X0085793Y0117581D01*
X0086789Y0118577D01*
X0086789Y0126650D01*
X0100711Y0126650D01*
X0100711Y0118577D01*
X0101707Y0117581D01*
X0107840Y0117581D01*
X0108836Y0118577D01*
X0108836Y0126650D01*
X0373541Y0126650D01*
X0371438Y0124885D01*
X0369781Y0122015D01*
X0369205Y0118750D01*
X0369205Y0118750D01*
X0369781Y0115485D01*
X0371438Y0112615D01*
X0371438Y0112615D01*
X0373977Y0110484D01*
X0373977Y0110484D01*
X0377093Y0109350D01*
X0380407Y0109350D01*
X0383522Y0110484D01*
X0383523Y0110484D01*
X0386062Y0112615D01*
X0386650Y0113633D01*
X0386650Y0098394D01*
X0384824Y0099150D01*
X0382676Y0099150D01*
X0381917Y0098836D01*
X0381050Y0099703D01*
X0379703Y0101050D01*
X0359687Y0101050D01*
X0334687Y0101050D01*
X0137693Y0101050D01*
X0137449Y0101293D01*
X0136347Y0101750D01*
X0135153Y0101750D01*
X0134051Y0101293D01*
X0133207Y0100449D01*
X0132750Y0099347D01*
X0132750Y0098153D01*
X0133207Y0097051D01*
X0133340Y0096918D01*
X0133340Y0093048D01*
X0132967Y0093048D01*
X0132293Y0092375D01*
X0131620Y0093048D01*
X0125880Y0093048D01*
X0125207Y0092375D01*
X0124533Y0093048D01*
X0119188Y0093048D01*
X0118192Y0092053D01*
X0118192Y0083250D01*
X0118192Y0083668D02*
X0112586Y0083668D01*
X0112850Y0084667D02*
X0118192Y0084667D01*
X0118192Y0085665D02*
X0112900Y0085665D01*
X0112900Y0086350D02*
X0112900Y0087647D01*
X0112798Y0088029D01*
X0112600Y0088371D01*
X0112321Y0088650D01*
X0111979Y0088848D01*
X0111597Y0088950D01*
X0107150Y0088950D01*
X0107150Y0086350D01*
X0112900Y0086350D01*
X0112900Y0086664D02*
X0118192Y0086664D01*
X0118192Y0087662D02*
X0112896Y0087662D01*
X0112303Y0088661D02*
X0118192Y0088661D01*
X0118192Y0089659D02*
X0102054Y0089659D01*
X0101640Y0090658D02*
X0118192Y0090658D01*
X0118192Y0091656D02*
X0100618Y0091656D01*
X0098018Y0092655D02*
X0118794Y0092655D01*
X0124927Y0092655D02*
X0125487Y0092655D01*
X0132013Y0092655D02*
X0132573Y0092655D01*
X0133340Y0093653D02*
X0098018Y0093653D01*
X0098018Y0094652D02*
X0133340Y0094652D01*
X0133340Y0095650D02*
X0098018Y0095650D01*
X0098510Y0096649D02*
X0133340Y0096649D01*
X0132960Y0097647D02*
X0098718Y0097647D01*
X0098595Y0098646D02*
X0132750Y0098646D01*
X0132873Y0099644D02*
X0098067Y0099644D01*
X0098018Y0100643D02*
X0133400Y0100643D01*
X0134891Y0101641D02*
X0098018Y0101641D01*
X0098018Y0102640D02*
X0386650Y0102640D01*
X0386650Y0103638D02*
X0098018Y0103638D01*
X0098018Y0104637D02*
X0098111Y0104637D01*
X0099565Y0104637D02*
X0099746Y0104637D01*
X0099746Y0105635D02*
X0099565Y0105635D01*
X0099565Y0106634D02*
X0099746Y0106634D01*
X0099746Y0107632D02*
X0099565Y0107632D01*
X0099565Y0108631D02*
X0099746Y0108631D01*
X0099746Y0108841D02*
X0102337Y0108841D01*
X0102337Y0111605D01*
X0102234Y0111986D01*
X0102037Y0112328D01*
X0101758Y0112608D01*
X0101416Y0112805D01*
X0101034Y0112907D01*
X0099746Y0112907D01*
X0099746Y0108841D01*
X0099746Y0109629D02*
X0099565Y0109629D01*
X0099565Y0110628D02*
X0099746Y0110628D01*
X0099746Y0111626D02*
X0099565Y0111626D01*
X0099565Y0112625D02*
X0099746Y0112625D01*
X0101728Y0112625D02*
X0371432Y0112625D01*
X0370856Y0113623D02*
X0046719Y0113623D01*
X0047016Y0113977D02*
X0047016Y0113977D01*
X0047251Y0114622D02*
X0370279Y0114622D01*
X0369781Y0115485D02*
X0369781Y0115485D01*
X0369757Y0115620D02*
X0047614Y0115620D01*
X0047978Y0116619D02*
X0369581Y0116619D01*
X0369405Y0117618D02*
X0107876Y0117618D01*
X0108836Y0118616D02*
X0369229Y0118616D01*
X0369357Y0119615D02*
X0108836Y0119615D01*
X0108836Y0120613D02*
X0369534Y0120613D01*
X0369710Y0121612D02*
X0108836Y0121612D01*
X0108836Y0122610D02*
X0370124Y0122610D01*
X0370701Y0123609D02*
X0108836Y0123609D01*
X0108836Y0124607D02*
X0371277Y0124607D01*
X0371438Y0124885D02*
X0371438Y0124885D01*
X0372296Y0125606D02*
X0108836Y0125606D01*
X0108836Y0126604D02*
X0373486Y0126604D01*
X0373541Y0132850D02*
X0108836Y0132850D01*
X0108836Y0140923D01*
X0107840Y0141918D01*
X0101707Y0141918D01*
X0100711Y0140923D01*
X0100711Y0132850D01*
X0086789Y0132850D01*
X0086789Y0140923D01*
X0085793Y0141918D01*
X0079660Y0141918D01*
X0078664Y0140923D01*
X0078664Y0132850D01*
X0068961Y0132850D01*
X0069950Y0133839D01*
X0080950Y0144839D01*
X0080950Y0153550D01*
X0085163Y0153550D01*
X0085163Y0150841D01*
X0087754Y0150841D01*
X0087754Y0150659D01*
X0087935Y0150659D01*
X0087935Y0146593D01*
X0089223Y0146593D01*
X0089596Y0146693D01*
X0089896Y0146393D01*
X0093667Y0146393D01*
X0093750Y0146476D01*
X0093833Y0146393D01*
X0097604Y0146393D01*
X0097687Y0146476D01*
X0097770Y0146393D01*
X0101541Y0146393D01*
X0102537Y0147388D01*
X0102537Y0154112D01*
X0101655Y0154993D01*
X0101655Y0157613D01*
X0097987Y0161281D01*
X0099459Y0161281D01*
X0099841Y0161384D01*
X0100183Y0161581D01*
X0100462Y0161860D01*
X0100660Y0162203D01*
X0100762Y0162584D01*
X0100762Y0164266D01*
X0097581Y0164266D01*
X0097581Y0165234D01*
X0100762Y0165234D01*
X0100762Y0166916D01*
X0100660Y0167297D01*
X0100462Y0167640D01*
X0100363Y0167738D01*
X0100676Y0167868D01*
X0101632Y0168824D01*
X0102150Y0170074D01*
X0102150Y0170350D01*
X0112104Y0170350D01*
X0113100Y0171346D01*
X0113100Y0175154D01*
X0112504Y0175750D01*
X0113004Y0176250D01*
X0118192Y0176250D01*
X0118192Y0167447D01*
X0119188Y0166452D01*
X0124533Y0166452D01*
X0125207Y0167125D01*
X0125880Y0166452D01*
X0131620Y0166452D01*
X0132444Y0167277D01*
X0132471Y0167231D01*
X0132750Y0166951D01*
X0133092Y0166754D01*
X0133474Y0166652D01*
X0135155Y0166652D01*
X0135155Y0171998D01*
X0136124Y0171998D01*
X0136124Y0166652D01*
X0137806Y0166652D01*
X0138187Y0166754D01*
X0138529Y0166951D01*
X0138809Y0167231D01*
X0139006Y0167573D01*
X0139108Y0167954D01*
X0139108Y0171998D01*
X0136124Y0171998D01*
X0136124Y0172967D01*
X0135155Y0172967D01*
X0135155Y0178313D01*
X0133474Y0178313D01*
X0133092Y0178211D01*
X0132750Y0178013D01*
X0132471Y0177734D01*
X0132444Y0177688D01*
X0131620Y0178513D01*
X0130750Y0178513D01*
X0130750Y0178951D01*
X0144220Y0178951D01*
X0144659Y0178513D01*
X0144188Y0178513D01*
X0143192Y0177517D01*
X0143192Y0167447D01*
X0144188Y0166452D01*
X0149533Y0166452D01*
X0150207Y0167125D01*
X0150880Y0166452D01*
X0156620Y0166452D01*
X0157444Y0167277D01*
X0157471Y0167231D01*
X0157750Y0166951D01*
X0158092Y0166754D01*
X0158474Y0166652D01*
X0160155Y0166652D01*
X0160155Y0171998D01*
X0161124Y0171998D01*
X0161124Y0166652D01*
X0162806Y0166652D01*
X0163187Y0166754D01*
X0163529Y0166951D01*
X0163809Y0167231D01*
X0164006Y0167573D01*
X0164108Y0167954D01*
X0164108Y0171998D01*
X0161124Y0171998D01*
X0161124Y0172967D01*
X0160155Y0172967D01*
X0160155Y0178313D01*
X0158474Y0178313D01*
X0158092Y0178211D01*
X0157750Y0178013D01*
X0157471Y0177734D01*
X0157444Y0177688D01*
X0156620Y0178513D01*
X0155750Y0178513D01*
X0155750Y0179050D01*
X0168122Y0179050D01*
X0168923Y0178248D01*
X0168192Y0177517D01*
X0168192Y0167447D01*
X0169188Y0166452D01*
X0174533Y0166452D01*
X0175207Y0167125D01*
X0175880Y0166452D01*
X0181620Y0166452D01*
X0182444Y0167277D01*
X0182471Y0167231D01*
X0182750Y0166951D01*
X0183092Y0166754D01*
X0183474Y0166652D01*
X0185155Y0166652D01*
X0185155Y0171998D01*
X0186124Y0171998D01*
X0186124Y0166652D01*
X0187806Y0166652D01*
X0188187Y0166754D01*
X0188529Y0166951D01*
X0188809Y0167231D01*
X0189006Y0167573D01*
X0189108Y0167954D01*
X0189108Y0171998D01*
X0186124Y0171998D01*
X0186124Y0172967D01*
X0185155Y0172967D01*
X0185155Y0178313D01*
X0183474Y0178313D01*
X0183092Y0178211D01*
X0182750Y0178013D01*
X0182471Y0177734D01*
X0182444Y0177688D01*
X0181620Y0178513D01*
X0180750Y0178513D01*
X0180750Y0179050D01*
X0193122Y0179050D01*
X0193923Y0178248D01*
X0193192Y0177517D01*
X0193192Y0167447D01*
X0194188Y0166452D01*
X0199533Y0166452D01*
X0200207Y0167125D01*
X0200880Y0166452D01*
X0206620Y0166452D01*
X0207444Y0167277D01*
X0207471Y0167231D01*
X0207750Y0166951D01*
X0208092Y0166754D01*
X0208474Y0166652D01*
X0210155Y0166652D01*
X0210155Y0171998D01*
X0211124Y0171998D01*
X0211124Y0166652D01*
X0212806Y0166652D01*
X0213187Y0166754D01*
X0213529Y0166951D01*
X0213809Y0167231D01*
X0214006Y0167573D01*
X0214108Y0167954D01*
X0214108Y0171998D01*
X0211124Y0171998D01*
X0211124Y0172967D01*
X0210155Y0172967D01*
X0210155Y0178313D01*
X0208474Y0178313D01*
X0208092Y0178211D01*
X0207750Y0178013D01*
X0207471Y0177734D01*
X0207444Y0177688D01*
X0206620Y0178513D01*
X0205750Y0178513D01*
X0205750Y0179050D01*
X0218122Y0179050D01*
X0218923Y0178248D01*
X0218192Y0177517D01*
X0218192Y0167447D01*
X0219188Y0166452D01*
X0224533Y0166452D01*
X0225207Y0167125D01*
X0225880Y0166452D01*
X0231620Y0166452D01*
X0232444Y0167277D01*
X0232471Y0167231D01*
X0232750Y0166951D01*
X0233092Y0166754D01*
X0233474Y0166652D01*
X0235155Y0166652D01*
X0235155Y0171998D01*
X0236124Y0171998D01*
X0236124Y0166652D01*
X0237806Y0166652D01*
X0238187Y0166754D01*
X0238529Y0166951D01*
X0238809Y0167231D01*
X0239006Y0167573D01*
X0239108Y0167954D01*
X0239108Y0171998D01*
X0236124Y0171998D01*
X0236124Y0172967D01*
X0235155Y0172967D01*
X0235155Y0178313D01*
X0233474Y0178313D01*
X0233092Y0178211D01*
X0232750Y0178013D01*
X0232471Y0177734D01*
X0232444Y0177688D01*
X0231620Y0178513D01*
X0230750Y0178513D01*
X0230750Y0179050D01*
X0243122Y0179050D01*
X0243923Y0178248D01*
X0243192Y0177517D01*
X0243192Y0167447D01*
X0244188Y0166452D01*
X0249533Y0166452D01*
X0250207Y0167125D01*
X0250880Y0166452D01*
X0256620Y0166452D01*
X0257444Y0167277D01*
X0257471Y0167231D01*
X0257750Y0166951D01*
X0258092Y0166754D01*
X0258474Y0166652D01*
X0260155Y0166652D01*
X0260155Y0171998D01*
X0261124Y0171998D01*
X0261124Y0166652D01*
X0262806Y0166652D01*
X0263187Y0166754D01*
X0263529Y0166951D01*
X0263809Y0167231D01*
X0264006Y0167573D01*
X0264108Y0167954D01*
X0264108Y0171998D01*
X0261124Y0171998D01*
X0261124Y0172967D01*
X0260155Y0172967D01*
X0260155Y0178313D01*
X0258474Y0178313D01*
X0258092Y0178211D01*
X0257750Y0178013D01*
X0257471Y0177734D01*
X0257444Y0177688D01*
X0256620Y0178513D01*
X0255750Y0178513D01*
X0255750Y0179050D01*
X0268122Y0179050D01*
X0268923Y0178248D01*
X0268192Y0177517D01*
X0268192Y0167447D01*
X0269188Y0166452D01*
X0274533Y0166452D01*
X0275207Y0167125D01*
X0275880Y0166452D01*
X0281620Y0166452D01*
X0282444Y0167277D01*
X0282471Y0167231D01*
X0282750Y0166951D01*
X0283092Y0166754D01*
X0283474Y0166652D01*
X0285155Y0166652D01*
X0285155Y0171998D01*
X0286124Y0171998D01*
X0286124Y0166652D01*
X0287806Y0166652D01*
X0288187Y0166754D01*
X0288529Y0166951D01*
X0288809Y0167231D01*
X0289006Y0167573D01*
X0289108Y0167954D01*
X0289108Y0171998D01*
X0286124Y0171998D01*
X0286124Y0172967D01*
X0285155Y0172967D01*
X0285155Y0178313D01*
X0283474Y0178313D01*
X0283092Y0178211D01*
X0282750Y0178013D01*
X0282471Y0177734D01*
X0282444Y0177688D01*
X0281620Y0178513D01*
X0280750Y0178513D01*
X0280750Y0179050D01*
X0293122Y0179050D01*
X0293923Y0178248D01*
X0293192Y0177517D01*
X0293192Y0167447D01*
X0294188Y0166452D01*
X0299533Y0166452D01*
X0300207Y0167125D01*
X0300880Y0166452D01*
X0306620Y0166452D01*
X0307444Y0167277D01*
X0307471Y0167231D01*
X0307750Y0166951D01*
X0308092Y0166754D01*
X0308474Y0166652D01*
X0310155Y0166652D01*
X0310155Y0171998D01*
X0311124Y0171998D01*
X0311124Y0166652D01*
X0312806Y0166652D01*
X0313187Y0166754D01*
X0313529Y0166951D01*
X0313809Y0167231D01*
X0314006Y0167573D01*
X0314108Y0167954D01*
X0314108Y0171998D01*
X0311124Y0171998D01*
X0311124Y0172967D01*
X0310155Y0172967D01*
X0310155Y0178313D01*
X0308474Y0178313D01*
X0308092Y0178211D01*
X0307750Y0178013D01*
X0307471Y0177734D01*
X0307444Y0177688D01*
X0306620Y0178513D01*
X0305750Y0178513D01*
X0305750Y0179050D01*
X0318122Y0179050D01*
X0318923Y0178248D01*
X0318192Y0177517D01*
X0318192Y0167447D01*
X0319188Y0166452D01*
X0324533Y0166452D01*
X0325207Y0167125D01*
X0325880Y0166452D01*
X0331620Y0166452D01*
X0332444Y0167277D01*
X0332471Y0167231D01*
X0332750Y0166951D01*
X0333092Y0166754D01*
X0333474Y0166652D01*
X0335155Y0166652D01*
X0335155Y0171998D01*
X0336124Y0171998D01*
X0336124Y0166652D01*
X0337806Y0166652D01*
X0338187Y0166754D01*
X0338529Y0166951D01*
X0338809Y0167231D01*
X0339006Y0167573D01*
X0339108Y0167954D01*
X0339108Y0171998D01*
X0336124Y0171998D01*
X0336124Y0172967D01*
X0335155Y0172967D01*
X0335155Y0178313D01*
X0333474Y0178313D01*
X0333092Y0178211D01*
X0332750Y0178013D01*
X0332471Y0177734D01*
X0332444Y0177688D01*
X0331620Y0178513D01*
X0330750Y0178513D01*
X0330750Y0179050D01*
X0344227Y0179050D01*
X0344764Y0178513D01*
X0344188Y0178513D01*
X0343192Y0177517D01*
X0343192Y0167447D01*
X0344188Y0166452D01*
X0349533Y0166452D01*
X0350207Y0167125D01*
X0350880Y0166452D01*
X0356620Y0166452D01*
X0357444Y0167277D01*
X0357471Y0167231D01*
X0357750Y0166951D01*
X0358092Y0166754D01*
X0358474Y0166652D01*
X0360155Y0166652D01*
X0360155Y0171998D01*
X0361124Y0171998D01*
X0361124Y0166652D01*
X0362806Y0166652D01*
X0363187Y0166754D01*
X0363529Y0166951D01*
X0363809Y0167231D01*
X0364006Y0167573D01*
X0364108Y0167954D01*
X0364108Y0171998D01*
X0361124Y0171998D01*
X0361124Y0172967D01*
X0360155Y0172967D01*
X0360155Y0178313D01*
X0358474Y0178313D01*
X0358092Y0178211D01*
X0357750Y0178013D01*
X0357471Y0177734D01*
X0357444Y0177688D01*
X0356620Y0178513D01*
X0355750Y0178513D01*
X0355750Y0178750D01*
X0377922Y0178750D01*
X0378789Y0177883D01*
X0378350Y0176824D01*
X0378350Y0174676D01*
X0379172Y0172691D01*
X0380691Y0171172D01*
X0381974Y0170641D01*
X0381754Y0170569D01*
X0381025Y0170197D01*
X0380362Y0169716D01*
X0379784Y0169138D01*
X0379303Y0168475D01*
X0378931Y0167746D01*
X0378678Y0166968D01*
X0378564Y0166250D01*
X0383250Y0166250D01*
X0383250Y0165250D01*
X0384250Y0165250D01*
X0384250Y0160564D01*
X0384968Y0160678D01*
X0385746Y0160931D01*
X0386475Y0161303D01*
X0386650Y0161429D01*
X0386650Y0145867D01*
X0386062Y0146885D01*
X0386062Y0146885D01*
X0383523Y0149016D01*
X0383522Y0149016D01*
X0380407Y0150150D01*
X0377093Y0150150D01*
X0373977Y0149016D01*
X0371438Y0146885D01*
X0369781Y0144015D01*
X0369205Y0140750D01*
X0369205Y0140750D01*
X0369781Y0137485D01*
X0371438Y0134615D01*
X0371438Y0134615D01*
X0373541Y0132850D01*
X0372655Y0133594D02*
X0108836Y0133594D01*
X0108836Y0134592D02*
X0371465Y0134592D01*
X0370875Y0135591D02*
X0108836Y0135591D01*
X0108836Y0136589D02*
X0370298Y0136589D01*
X0369781Y0137485D02*
X0369781Y0137485D01*
X0369763Y0137588D02*
X0108836Y0137588D01*
X0108836Y0138586D02*
X0369587Y0138586D01*
X0369410Y0139585D02*
X0108836Y0139585D01*
X0108836Y0140583D02*
X0369234Y0140583D01*
X0369352Y0141582D02*
X0108177Y0141582D01*
X0101371Y0141582D02*
X0086129Y0141582D01*
X0086789Y0140583D02*
X0100711Y0140583D01*
X0100711Y0139585D02*
X0086789Y0139585D01*
X0086789Y0138586D02*
X0100711Y0138586D01*
X0100711Y0137588D02*
X0086789Y0137588D01*
X0086789Y0136589D02*
X0100711Y0136589D01*
X0100711Y0135591D02*
X0086789Y0135591D01*
X0086789Y0134592D02*
X0100711Y0134592D01*
X0100711Y0133594D02*
X0086789Y0133594D01*
X0086789Y0126604D02*
X0100711Y0126604D01*
X0100711Y0125606D02*
X0086789Y0125606D01*
X0086789Y0124607D02*
X0100711Y0124607D01*
X0100711Y0123609D02*
X0086789Y0123609D01*
X0086789Y0122610D02*
X0100711Y0122610D01*
X0100711Y0121612D02*
X0086789Y0121612D01*
X0086789Y0120613D02*
X0100711Y0120613D01*
X0100711Y0119615D02*
X0086789Y0119615D01*
X0086789Y0118616D02*
X0100711Y0118616D01*
X0101671Y0117618D02*
X0085829Y0117618D01*
X0085477Y0112625D02*
X0045881Y0112625D01*
X0045043Y0111626D02*
X0084963Y0111626D01*
X0084963Y0110628D02*
X0043482Y0110628D01*
X0044885Y0111438D02*
X0044885Y0111438D01*
X0042015Y0109781D02*
X0042015Y0109781D01*
X0041157Y0109629D02*
X0084963Y0109629D01*
X0084963Y0108631D02*
X0035556Y0108631D01*
X0035746Y0108569D02*
X0034968Y0108822D01*
X0034250Y0108936D01*
X0034250Y0104250D01*
X0038936Y0104250D01*
X0038822Y0104968D01*
X0038569Y0105746D01*
X0038197Y0106475D01*
X0037716Y0107138D01*
X0037138Y0107716D01*
X0036475Y0108197D01*
X0035746Y0108569D01*
X0036343Y0109629D02*
X0030850Y0109629D01*
X0030850Y0108631D02*
X0031944Y0108631D01*
X0033250Y0108631D02*
X0034250Y0108631D01*
X0034250Y0107632D02*
X0033250Y0107632D01*
X0033250Y0106634D02*
X0034250Y0106634D01*
X0034250Y0105635D02*
X0033250Y0105635D01*
X0033250Y0104637D02*
X0034250Y0104637D01*
X0034250Y0103638D02*
X0085844Y0103638D01*
X0085844Y0102640D02*
X0038839Y0102640D01*
X0038512Y0101641D02*
X0085844Y0101641D01*
X0085715Y0104637D02*
X0038874Y0104637D01*
X0038605Y0105635D02*
X0084963Y0105635D01*
X0084963Y0106634D02*
X0038082Y0106634D01*
X0037221Y0107632D02*
X0084963Y0107632D01*
X0085507Y0096750D02*
X0068578Y0096750D01*
X0066250Y0094422D01*
X0066250Y0085962D01*
X0070923Y0085962D01*
X0071104Y0085780D01*
X0071151Y0085894D01*
X0071750Y0086493D01*
X0071750Y0089578D01*
X0076750Y0094578D01*
X0076750Y0094578D01*
X0077922Y0095750D01*
X0085422Y0095750D01*
X0085964Y0096293D01*
X0085507Y0096750D01*
X0085609Y0096649D02*
X0068477Y0096649D01*
X0067479Y0095650D02*
X0077822Y0095650D01*
X0076823Y0094652D02*
X0066480Y0094652D01*
X0066250Y0093653D02*
X0075825Y0093653D01*
X0074826Y0092655D02*
X0066250Y0092655D01*
X0066250Y0091656D02*
X0073828Y0091656D01*
X0072829Y0090658D02*
X0066250Y0090658D01*
X0066250Y0089659D02*
X0071831Y0089659D01*
X0071750Y0088661D02*
X0066250Y0088661D01*
X0066250Y0087662D02*
X0071750Y0087662D01*
X0071750Y0086664D02*
X0066250Y0086664D01*
X0062250Y0095650D02*
X0061749Y0095650D01*
X0061750Y0096649D02*
X0062820Y0096649D01*
X0063819Y0097647D02*
X0061418Y0097647D01*
X0060597Y0098646D02*
X0064817Y0098646D01*
X0065816Y0099644D02*
X0036946Y0099644D01*
X0036041Y0098646D02*
X0056903Y0098646D01*
X0056082Y0097647D02*
X0037489Y0097647D01*
X0038394Y0096649D02*
X0055750Y0096649D01*
X0055751Y0095650D02*
X0038808Y0095650D01*
X0039150Y0094652D02*
X0055081Y0094652D01*
X0055081Y0093653D02*
X0039150Y0093653D01*
X0039141Y0092655D02*
X0055081Y0092655D01*
X0055081Y0091656D02*
X0038728Y0091656D01*
X0038294Y0090658D02*
X0055081Y0090658D01*
X0055081Y0089659D02*
X0037296Y0089659D01*
X0036005Y0088661D02*
X0055469Y0088661D01*
X0055081Y0087662D02*
X0037475Y0087662D01*
X0038388Y0086664D02*
X0055081Y0086664D01*
X0055081Y0085665D02*
X0038802Y0085665D01*
X0039150Y0084667D02*
X0055081Y0084667D01*
X0055081Y0083668D02*
X0039150Y0083668D01*
X0039147Y0082670D02*
X0039841Y0082670D01*
X0038843Y0081671D02*
X0038734Y0081671D01*
X0041504Y0078676D02*
X0058847Y0078676D01*
X0057880Y0077677D02*
X0040505Y0077677D01*
X0039507Y0076679D02*
X0056882Y0076679D01*
X0055796Y0075680D02*
X0038795Y0075680D01*
X0039150Y0074682D02*
X0055081Y0074682D01*
X0055081Y0073683D02*
X0039150Y0073683D01*
X0039150Y0072684D02*
X0055081Y0072684D01*
X0055081Y0071686D02*
X0038740Y0071686D01*
X0038324Y0070687D02*
X0055081Y0070687D01*
X0055081Y0069689D02*
X0037326Y0069689D01*
X0035934Y0068690D02*
X0055499Y0068690D01*
X0055081Y0067692D02*
X0037445Y0067692D01*
X0038376Y0066693D02*
X0055081Y0066693D01*
X0055081Y0065695D02*
X0038789Y0065695D01*
X0039150Y0064696D02*
X0055081Y0064696D01*
X0055081Y0063698D02*
X0039150Y0063698D01*
X0039150Y0062699D02*
X0055081Y0062699D01*
X0055897Y0061701D02*
X0038746Y0061701D01*
X0038333Y0060702D02*
X0055750Y0060702D01*
X0055936Y0059704D02*
X0037341Y0059704D01*
X0035682Y0058705D02*
X0056552Y0058705D01*
X0060948Y0058705D02*
X0066550Y0058705D01*
X0066550Y0059704D02*
X0061564Y0059704D01*
X0061750Y0060702D02*
X0066550Y0060702D01*
X0066550Y0061701D02*
X0061603Y0061701D01*
X0062418Y0062699D02*
X0065938Y0062699D01*
X0065750Y0063698D02*
X0062418Y0063698D01*
X0062418Y0064696D02*
X0065895Y0064696D01*
X0066250Y0065695D02*
X0062418Y0065695D01*
X0062418Y0066693D02*
X0066250Y0066693D01*
X0066250Y0067692D02*
X0062418Y0067692D01*
X0062001Y0068690D02*
X0066250Y0068690D01*
X0066250Y0069689D02*
X0065906Y0069689D01*
X0062593Y0069689D02*
X0062418Y0069689D01*
X0068750Y0063750D02*
X0068750Y0058750D01*
X0073750Y0053750D01*
X0078750Y0053750D01*
X0076550Y0050717D02*
X0037974Y0050717D01*
X0038197Y0051025D02*
X0038569Y0051754D01*
X0038822Y0052532D01*
X0038936Y0053250D01*
X0034250Y0053250D01*
X0034250Y0048564D01*
X0034968Y0048678D01*
X0035746Y0048931D01*
X0036475Y0049303D01*
X0037138Y0049784D01*
X0037716Y0050362D01*
X0038197Y0051025D01*
X0038550Y0051716D02*
X0072673Y0051716D01*
X0071674Y0052714D02*
X0038851Y0052714D01*
X0038863Y0054711D02*
X0069677Y0054711D01*
X0068679Y0055710D02*
X0038581Y0055710D01*
X0038028Y0056708D02*
X0067680Y0056708D01*
X0066682Y0057707D02*
X0037147Y0057707D01*
X0034250Y0053713D02*
X0070676Y0053713D01*
X0076550Y0049719D02*
X0037048Y0049719D01*
X0035098Y0048720D02*
X0076550Y0048720D01*
X0076550Y0047722D02*
X0042001Y0047722D01*
X0043740Y0046723D02*
X0076550Y0046723D01*
X0076550Y0045725D02*
X0045168Y0045725D01*
X0044885Y0046062D02*
X0044885Y0046062D01*
X0044885Y0046062D01*
X0046006Y0044726D02*
X0076550Y0044726D01*
X0075616Y0043728D02*
X0046844Y0043728D01*
X0038750Y0048295D02*
X0038750Y0048295D01*
X0035499Y0047722D02*
X0030850Y0047722D01*
X0030850Y0048720D02*
X0032402Y0048720D01*
X0033250Y0048720D02*
X0034250Y0048720D01*
X0034250Y0049719D02*
X0033250Y0049719D01*
X0033250Y0050717D02*
X0034250Y0050717D01*
X0034250Y0051716D02*
X0033250Y0051716D01*
X0033250Y0052714D02*
X0034250Y0052714D01*
X0035485Y0047719D02*
X0035485Y0047719D01*
X0033760Y0046723D02*
X0030850Y0046723D01*
X0030850Y0045725D02*
X0032332Y0045725D01*
X0031494Y0044726D02*
X0030850Y0044726D01*
X0080950Y0049719D02*
X0085163Y0049719D01*
X0085163Y0050717D02*
X0080950Y0050717D01*
X0087754Y0047722D02*
X0087935Y0047722D01*
X0087935Y0046723D02*
X0087754Y0046723D01*
X0087754Y0045725D02*
X0087935Y0045725D01*
X0087935Y0044726D02*
X0087754Y0044726D01*
X0093950Y0070455D02*
X0093950Y0081194D01*
X0094791Y0081194D01*
X0095894Y0081651D01*
X0096738Y0082495D01*
X0097194Y0083598D01*
X0097194Y0084366D01*
X0098178Y0085350D01*
X0099426Y0085350D01*
X0100676Y0085868D01*
X0101200Y0086392D01*
X0101200Y0086350D01*
X0106950Y0086350D01*
X0106950Y0086150D01*
X0101200Y0086150D01*
X0101200Y0084853D01*
X0101302Y0084471D01*
X0101500Y0084129D01*
X0101737Y0083891D01*
X0101000Y0083154D01*
X0101000Y0081308D01*
X0100676Y0081632D01*
X0099426Y0082150D01*
X0098074Y0082150D01*
X0096824Y0081632D01*
X0095868Y0080676D01*
X0095350Y0079426D01*
X0095350Y0078074D01*
X0095868Y0076824D01*
X0096750Y0075942D01*
X0096750Y0073255D01*
X0093950Y0070455D01*
X0093950Y0070687D02*
X0094182Y0070687D01*
X0093950Y0071686D02*
X0095181Y0071686D01*
X0096179Y0072684D02*
X0093950Y0072684D01*
X0093950Y0073683D02*
X0096750Y0073683D01*
X0096750Y0074682D02*
X0093950Y0074682D01*
X0093950Y0075680D02*
X0096750Y0075680D01*
X0096013Y0076679D02*
X0093950Y0076679D01*
X0093950Y0077677D02*
X0095514Y0077677D01*
X0095350Y0078676D02*
X0093950Y0078676D01*
X0093950Y0079674D02*
X0095453Y0079674D01*
X0095866Y0080673D02*
X0093950Y0080673D01*
X0095914Y0081671D02*
X0096918Y0081671D01*
X0096810Y0082670D02*
X0101000Y0082670D01*
X0101000Y0081671D02*
X0100582Y0081671D01*
X0101514Y0083668D02*
X0097194Y0083668D01*
X0097495Y0084667D02*
X0101250Y0084667D01*
X0101200Y0085665D02*
X0100187Y0085665D01*
X0106950Y0086664D02*
X0107150Y0086664D01*
X0107050Y0086250D02*
X0114250Y0086250D01*
X0107150Y0087662D02*
X0106950Y0087662D01*
X0106950Y0088661D02*
X0107150Y0088661D01*
X0101200Y0104637D02*
X0386650Y0104637D01*
X0386650Y0105635D02*
X0102267Y0105635D01*
X0102337Y0106634D02*
X0386650Y0106634D01*
X0386650Y0107632D02*
X0102337Y0107632D01*
X0102337Y0108631D02*
X0386650Y0108631D01*
X0386650Y0109629D02*
X0381175Y0109629D01*
X0383694Y0110628D02*
X0386650Y0110628D01*
X0386650Y0111626D02*
X0384884Y0111626D01*
X0386062Y0112615D02*
X0386062Y0112615D01*
X0386062Y0112615D01*
X0386068Y0112625D02*
X0386650Y0112625D01*
X0386644Y0113623D02*
X0386650Y0113623D01*
X0376325Y0109629D02*
X0102337Y0109629D01*
X0102337Y0110628D02*
X0373806Y0110628D01*
X0372616Y0111626D02*
X0102331Y0111626D01*
X0079624Y0117618D02*
X0048150Y0117618D01*
X0048150Y0118616D02*
X0078664Y0118616D01*
X0078664Y0119615D02*
X0048150Y0119615D01*
X0048075Y0120613D02*
X0078664Y0120613D01*
X0078664Y0121612D02*
X0047712Y0121612D01*
X0047348Y0122610D02*
X0078664Y0122610D01*
X0078664Y0123609D02*
X0046944Y0123609D01*
X0046106Y0124607D02*
X0078664Y0124607D01*
X0078664Y0125606D02*
X0045268Y0125606D01*
X0044885Y0126062D02*
X0044885Y0126062D01*
X0044885Y0126062D01*
X0043946Y0126604D02*
X0078664Y0126604D01*
X0078664Y0133594D02*
X0069705Y0133594D01*
X0070703Y0134592D02*
X0078664Y0134592D01*
X0078664Y0135591D02*
X0071702Y0135591D01*
X0072700Y0136589D02*
X0078664Y0136589D01*
X0078664Y0137588D02*
X0073699Y0137588D01*
X0074698Y0138586D02*
X0078664Y0138586D01*
X0078664Y0139585D02*
X0075696Y0139585D01*
X0076695Y0140583D02*
X0078664Y0140583D01*
X0079323Y0141582D02*
X0077693Y0141582D01*
X0078692Y0142580D02*
X0369528Y0142580D01*
X0369704Y0143579D02*
X0079690Y0143579D01*
X0080689Y0144577D02*
X0370106Y0144577D01*
X0369781Y0144015D02*
X0369781Y0144015D01*
X0370682Y0145576D02*
X0080950Y0145576D01*
X0080950Y0146574D02*
X0089714Y0146574D01*
X0087754Y0146593D02*
X0087754Y0150659D01*
X0085163Y0150659D01*
X0085163Y0147895D01*
X0085266Y0147514D01*
X0085463Y0147171D01*
X0085742Y0146892D01*
X0086084Y0146695D01*
X0086466Y0146593D01*
X0087754Y0146593D01*
X0087754Y0147573D02*
X0087935Y0147573D01*
X0087935Y0148571D02*
X0087754Y0148571D01*
X0087754Y0149570D02*
X0087935Y0149570D01*
X0087935Y0150568D02*
X0087754Y0150568D01*
X0085163Y0150568D02*
X0080950Y0150568D01*
X0080950Y0149570D02*
X0085163Y0149570D01*
X0085163Y0148571D02*
X0080950Y0148571D01*
X0080950Y0147573D02*
X0085250Y0147573D01*
X0085163Y0151567D02*
X0080950Y0151567D01*
X0080950Y0152565D02*
X0085163Y0152565D01*
X0089350Y0157950D02*
X0080793Y0157950D01*
X0080449Y0158293D01*
X0079347Y0158750D01*
X0078153Y0158750D01*
X0077051Y0158293D01*
X0076707Y0157950D01*
X0074661Y0157950D01*
X0070950Y0161661D01*
X0070950Y0163707D01*
X0071293Y0164051D01*
X0071750Y0165153D01*
X0071750Y0166347D01*
X0071293Y0167449D01*
X0070449Y0168293D01*
X0070250Y0168376D01*
X0070250Y0173538D01*
X0070923Y0173538D01*
X0071571Y0174186D01*
X0072051Y0173707D01*
X0073153Y0173250D01*
X0074347Y0173250D01*
X0074500Y0173313D01*
X0074500Y0171346D01*
X0075496Y0170350D01*
X0085567Y0170350D01*
X0085673Y0169817D01*
X0085914Y0169234D01*
X0086264Y0168710D01*
X0086710Y0168264D01*
X0087112Y0167996D01*
X0086538Y0167423D01*
X0086538Y0162077D01*
X0087534Y0161081D01*
X0089350Y0161081D01*
X0089350Y0157950D01*
X0089350Y0158556D02*
X0079814Y0158556D01*
X0077686Y0158556D02*
X0074055Y0158556D01*
X0073056Y0159555D02*
X0089350Y0159555D01*
X0089350Y0160553D02*
X0072058Y0160553D01*
X0071059Y0161552D02*
X0087064Y0161552D01*
X0086538Y0162551D02*
X0070950Y0162551D01*
X0070950Y0163549D02*
X0086538Y0163549D01*
X0086538Y0164548D02*
X0071499Y0164548D01*
X0071750Y0165546D02*
X0086538Y0165546D01*
X0086538Y0166545D02*
X0071668Y0166545D01*
X0071200Y0167543D02*
X0086659Y0167543D01*
X0086433Y0168542D02*
X0070250Y0168542D01*
X0070250Y0169540D02*
X0085787Y0169540D01*
X0086250Y0173250D02*
X0080550Y0173250D01*
X0086250Y0173250D02*
X0086750Y0173750D01*
X0091750Y0173750D01*
X0091750Y0166096D01*
X0090404Y0164750D01*
X0091781Y0163372D01*
X0091781Y0155750D01*
X0078750Y0155750D01*
X0078750Y0145750D01*
X0067750Y0134750D01*
X0064596Y0134750D01*
X0068056Y0138167D02*
X0068171Y0138597D01*
X0068171Y0139766D01*
X0065187Y0139766D01*
X0065187Y0140734D01*
X0068171Y0140734D01*
X0068171Y0141903D01*
X0068029Y0142435D01*
X0067754Y0142912D01*
X0067364Y0143301D01*
X0066888Y0143576D01*
X0066356Y0143718D01*
X0065187Y0143718D01*
X0065187Y0140734D01*
X0064218Y0140734D01*
X0064218Y0143718D01*
X0063050Y0143718D01*
X0062518Y0143576D01*
X0062041Y0143301D01*
X0061652Y0142912D01*
X0061461Y0142581D01*
X0060124Y0143918D01*
X0055471Y0143918D01*
X0054129Y0142577D01*
X0054129Y0142250D01*
X0053922Y0142250D01*
X0052922Y0141250D01*
X0052922Y0141250D01*
X0051750Y0140078D01*
X0051750Y0134922D01*
X0052922Y0133750D01*
X0053822Y0132850D01*
X0043867Y0132850D01*
X0044885Y0133438D01*
X0044885Y0133438D01*
X0047016Y0135977D01*
X0047016Y0135977D01*
X0048150Y0139093D01*
X0048150Y0142407D01*
X0047016Y0145522D01*
X0047016Y0145523D01*
X0044885Y0148062D01*
X0042015Y0149719D01*
X0042015Y0149719D01*
X0038750Y0150295D01*
X0035485Y0149719D01*
X0032615Y0148062D01*
X0032615Y0148062D01*
X0030850Y0145959D01*
X0030850Y0151429D01*
X0031025Y0151303D01*
X0031754Y0150931D01*
X0032532Y0150678D01*
X0033250Y0150564D01*
X0033250Y0155250D01*
X0034250Y0155250D01*
X0034250Y0156250D01*
X0038936Y0156250D01*
X0038822Y0156968D01*
X0038569Y0157746D01*
X0038197Y0158475D01*
X0037716Y0159138D01*
X0037138Y0159716D01*
X0036475Y0160197D01*
X0035746Y0160569D01*
X0035526Y0160641D01*
X0036809Y0161172D01*
X0038328Y0162691D01*
X0039150Y0164676D01*
X0039150Y0166824D01*
X0038328Y0168809D01*
X0036809Y0170328D01*
X0035790Y0170750D01*
X0036809Y0171172D01*
X0038328Y0172691D01*
X0039150Y0174676D01*
X0039150Y0176824D01*
X0038711Y0177883D01*
X0041578Y0180750D01*
X0058922Y0180750D01*
X0058250Y0180078D01*
X0058250Y0180047D01*
X0057922Y0179718D01*
X0056750Y0178547D01*
X0056750Y0177962D01*
X0056077Y0177962D01*
X0055081Y0176966D01*
X0055081Y0171227D01*
X0055558Y0170750D01*
X0055081Y0170273D01*
X0055081Y0164534D01*
X0055902Y0163714D01*
X0055750Y0163347D01*
X0055750Y0162153D01*
X0056207Y0161051D01*
X0057051Y0160207D01*
X0058153Y0159750D01*
X0059347Y0159750D01*
X0060449Y0160207D01*
X0061293Y0161051D01*
X0061750Y0162153D01*
X0061750Y0163347D01*
X0061598Y0163714D01*
X0062418Y0164534D01*
X0062418Y0170273D01*
X0061942Y0170750D01*
X0062418Y0171227D01*
X0062418Y0171839D01*
X0062551Y0171707D01*
X0063653Y0171250D01*
X0064847Y0171250D01*
X0065949Y0171707D01*
X0066250Y0172007D01*
X0066250Y0167493D01*
X0066207Y0167449D01*
X0065750Y0166347D01*
X0065750Y0165153D01*
X0066207Y0164051D01*
X0066550Y0163707D01*
X0066550Y0159839D01*
X0071550Y0154839D01*
X0072839Y0153550D01*
X0076550Y0153550D01*
X0076550Y0146661D01*
X0068056Y0138167D01*
X0068168Y0138586D02*
X0068475Y0138586D01*
X0068171Y0139585D02*
X0069473Y0139585D01*
X0070472Y0140583D02*
X0065187Y0140583D01*
X0065187Y0141582D02*
X0064218Y0141582D01*
X0064218Y0142580D02*
X0065187Y0142580D01*
X0065187Y0143579D02*
X0064218Y0143579D01*
X0062528Y0143579D02*
X0060464Y0143579D01*
X0055131Y0143579D02*
X0047724Y0143579D01*
X0047360Y0144577D02*
X0074466Y0144577D01*
X0073468Y0143579D02*
X0066877Y0143579D01*
X0067945Y0142580D02*
X0072469Y0142580D01*
X0071471Y0141582D02*
X0068171Y0141582D01*
X0075465Y0145576D02*
X0046971Y0145576D01*
X0046134Y0146574D02*
X0076463Y0146574D01*
X0076550Y0147573D02*
X0045296Y0147573D01*
X0044885Y0148062D02*
X0044885Y0148062D01*
X0044885Y0148062D01*
X0044003Y0148571D02*
X0076550Y0148571D01*
X0076550Y0149570D02*
X0042274Y0149570D01*
X0038750Y0150295D02*
X0038750Y0150295D01*
X0037138Y0151784D02*
X0037716Y0152362D01*
X0038197Y0153025D01*
X0038569Y0153754D01*
X0038822Y0154532D01*
X0038936Y0155250D01*
X0034250Y0155250D01*
X0034250Y0150564D01*
X0034968Y0150678D01*
X0035746Y0150931D01*
X0036475Y0151303D01*
X0037138Y0151784D01*
X0036839Y0151567D02*
X0076550Y0151567D01*
X0076550Y0152565D02*
X0037864Y0152565D01*
X0038472Y0153564D02*
X0072825Y0153564D01*
X0071826Y0154562D02*
X0038827Y0154562D01*
X0038887Y0156559D02*
X0069829Y0156559D01*
X0070828Y0155561D02*
X0034250Y0155561D01*
X0034250Y0154562D02*
X0033250Y0154562D01*
X0033250Y0153564D02*
X0034250Y0153564D01*
X0034250Y0152565D02*
X0033250Y0152565D01*
X0033250Y0151567D02*
X0034250Y0151567D01*
X0034250Y0150568D02*
X0033250Y0150568D01*
X0033225Y0150568D02*
X0030850Y0150568D01*
X0030850Y0149570D02*
X0035226Y0149570D01*
X0035485Y0149719D02*
X0035485Y0149719D01*
X0034275Y0150568D02*
X0076550Y0150568D01*
X0078750Y0155750D02*
X0073750Y0155750D01*
X0068750Y0160750D01*
X0068750Y0165750D01*
X0066001Y0164548D02*
X0062418Y0164548D01*
X0062418Y0165546D02*
X0065750Y0165546D01*
X0065832Y0166545D02*
X0062418Y0166545D01*
X0062418Y0167543D02*
X0066250Y0167543D01*
X0066250Y0168542D02*
X0062418Y0168542D01*
X0062418Y0169540D02*
X0066250Y0169540D01*
X0066250Y0170539D02*
X0062153Y0170539D01*
X0062418Y0171537D02*
X0062960Y0171537D01*
X0065540Y0171537D02*
X0066250Y0171537D01*
X0070250Y0171537D02*
X0074500Y0171537D01*
X0074500Y0172536D02*
X0070250Y0172536D01*
X0070250Y0173534D02*
X0072467Y0173534D01*
X0070250Y0170539D02*
X0075307Y0170539D01*
X0066550Y0163549D02*
X0061666Y0163549D01*
X0061750Y0162551D02*
X0066550Y0162551D01*
X0066550Y0161552D02*
X0061501Y0161552D01*
X0060796Y0160553D02*
X0066550Y0160553D01*
X0066834Y0159555D02*
X0037299Y0159555D01*
X0038139Y0158556D02*
X0067832Y0158556D01*
X0068831Y0157558D02*
X0038630Y0157558D01*
X0035777Y0160553D02*
X0056704Y0160553D01*
X0055999Y0161552D02*
X0037189Y0161552D01*
X0038187Y0162551D02*
X0055750Y0162551D01*
X0055834Y0163549D02*
X0038683Y0163549D01*
X0039097Y0164548D02*
X0055081Y0164548D01*
X0055081Y0165546D02*
X0039150Y0165546D01*
X0039150Y0166545D02*
X0055081Y0166545D01*
X0055081Y0167543D02*
X0038852Y0167543D01*
X0038439Y0168542D02*
X0055081Y0168542D01*
X0055081Y0169540D02*
X0037597Y0169540D01*
X0036300Y0170539D02*
X0055347Y0170539D01*
X0055081Y0171537D02*
X0037174Y0171537D01*
X0038172Y0172536D02*
X0055081Y0172536D01*
X0055081Y0173534D02*
X0038677Y0173534D01*
X0039091Y0174533D02*
X0055081Y0174533D01*
X0055081Y0175531D02*
X0039150Y0175531D01*
X0039150Y0176530D02*
X0055081Y0176530D01*
X0055644Y0177528D02*
X0038858Y0177528D01*
X0039355Y0178527D02*
X0056750Y0178527D01*
X0057728Y0179525D02*
X0040354Y0179525D01*
X0041352Y0180524D02*
X0058695Y0180524D01*
X0055081Y0184750D02*
X0039922Y0184750D01*
X0038750Y0183578D01*
X0038657Y0183485D01*
X0039150Y0184676D01*
X0039150Y0186824D01*
X0038328Y0188809D01*
X0036809Y0190328D01*
X0035790Y0190750D01*
X0036809Y0191172D01*
X0038328Y0192691D01*
X0039150Y0194676D01*
X0039150Y0196824D01*
X0038328Y0198809D01*
X0036809Y0200328D01*
X0035526Y0200859D01*
X0035746Y0200931D01*
X0036475Y0201303D01*
X0037138Y0201784D01*
X0037716Y0202362D01*
X0038197Y0203025D01*
X0038569Y0203754D01*
X0038822Y0204532D01*
X0038936Y0205250D01*
X0034250Y0205250D01*
X0034250Y0206250D01*
X0033250Y0206250D01*
X0033250Y0210936D01*
X0032532Y0210822D01*
X0031754Y0210569D01*
X0031025Y0210197D01*
X0030850Y0210071D01*
X0030850Y0215541D01*
X0032615Y0213438D01*
X0035485Y0211781D01*
X0035485Y0211781D01*
X0038750Y0211205D01*
X0042015Y0211781D01*
X0044885Y0213438D01*
X0044885Y0213438D01*
X0047016Y0215977D01*
X0047016Y0215977D01*
X0048150Y0219093D01*
X0048150Y0222407D01*
X0047016Y0225522D01*
X0047016Y0225523D01*
X0044885Y0228062D01*
X0043867Y0228650D01*
X0078664Y0228650D01*
X0078664Y0220577D01*
X0079660Y0219581D01*
X0085793Y0219581D01*
X0086789Y0220577D01*
X0086789Y0228650D01*
X0100711Y0228650D01*
X0100711Y0220577D01*
X0101707Y0219581D01*
X0107840Y0219581D01*
X0108836Y0220577D01*
X0108836Y0228650D01*
X0373541Y0228650D01*
X0371438Y0226885D01*
X0369781Y0224015D01*
X0369205Y0220750D01*
X0369205Y0220750D01*
X0369781Y0217485D01*
X0371438Y0214615D01*
X0373977Y0212484D01*
X0373977Y0212484D01*
X0377093Y0211350D01*
X0380407Y0211350D01*
X0383522Y0212484D01*
X0383523Y0212484D01*
X0386062Y0214615D01*
X0386650Y0215633D01*
X0386650Y0200394D01*
X0384824Y0201150D01*
X0382676Y0201150D01*
X0381917Y0200836D01*
X0381050Y0201703D01*
X0379703Y0203050D01*
X0359687Y0203050D01*
X0334687Y0203050D01*
X0137693Y0203050D01*
X0137449Y0203293D01*
X0136347Y0203750D01*
X0135153Y0203750D01*
X0134051Y0203293D01*
X0133207Y0202449D01*
X0132750Y0201347D01*
X0132750Y0200153D01*
X0133207Y0199051D01*
X0133340Y0198918D01*
X0133340Y0195048D01*
X0132967Y0195048D01*
X0132293Y0194375D01*
X0131620Y0195048D01*
X0125880Y0195048D01*
X0125207Y0194375D01*
X0124533Y0195048D01*
X0119188Y0195048D01*
X0118192Y0194053D01*
X0118192Y0185250D01*
X0113004Y0185250D01*
X0112363Y0185891D01*
X0112600Y0186129D01*
X0112798Y0186471D01*
X0112900Y0186853D01*
X0112900Y0188150D01*
X0107150Y0188150D01*
X0107150Y0188350D01*
X0106950Y0188350D01*
X0106950Y0190950D01*
X0102503Y0190950D01*
X0102150Y0190856D01*
X0102150Y0191426D01*
X0101632Y0192676D01*
X0100676Y0193632D01*
X0099426Y0194150D01*
X0098074Y0194150D01*
X0098018Y0194127D01*
X0098018Y0197807D01*
X0098262Y0198051D01*
X0098718Y0199153D01*
X0098718Y0200347D01*
X0098262Y0201449D01*
X0098018Y0201693D01*
X0098018Y0206662D01*
X0098277Y0206593D01*
X0099565Y0206593D01*
X0099565Y0210659D01*
X0099746Y0210659D01*
X0099746Y0206593D01*
X0101034Y0206593D01*
X0101416Y0206695D01*
X0101758Y0206892D01*
X0102037Y0207171D01*
X0102234Y0207514D01*
X0102337Y0207895D01*
X0102337Y0210659D01*
X0099746Y0210659D01*
X0099746Y0210841D01*
X0099565Y0210841D01*
X0099565Y0214907D01*
X0098277Y0214907D01*
X0097904Y0214807D01*
X0097604Y0215107D01*
X0093833Y0215107D01*
X0093750Y0215024D01*
X0093667Y0215107D01*
X0089896Y0215107D01*
X0089813Y0215024D01*
X0089730Y0215107D01*
X0085959Y0215107D01*
X0084963Y0214112D01*
X0084963Y0207388D01*
X0085844Y0206507D01*
X0085844Y0203087D01*
X0085507Y0202750D01*
X0066922Y0202750D01*
X0062250Y0198078D01*
X0062250Y0197134D01*
X0061744Y0197640D01*
X0061750Y0197653D01*
X0061750Y0198847D01*
X0061293Y0199949D01*
X0060449Y0200793D01*
X0059347Y0201250D01*
X0058153Y0201250D01*
X0057051Y0200793D01*
X0056207Y0199949D01*
X0055750Y0198847D01*
X0055750Y0197653D01*
X0055756Y0197640D01*
X0055081Y0196966D01*
X0055081Y0191227D01*
X0055558Y0190750D01*
X0055081Y0190273D01*
X0055081Y0184750D01*
X0055081Y0185516D02*
X0039150Y0185516D01*
X0039150Y0186515D02*
X0055081Y0186515D01*
X0055081Y0187513D02*
X0038865Y0187513D01*
X0038451Y0188512D02*
X0055081Y0188512D01*
X0055081Y0189510D02*
X0037626Y0189510D01*
X0036372Y0190509D02*
X0055317Y0190509D01*
X0055081Y0191507D02*
X0037144Y0191507D01*
X0038143Y0192506D02*
X0055081Y0192506D01*
X0055081Y0193504D02*
X0038665Y0193504D01*
X0039078Y0194503D02*
X0055081Y0194503D01*
X0055081Y0195501D02*
X0039150Y0195501D01*
X0039150Y0196500D02*
X0055081Y0196500D01*
X0055614Y0197498D02*
X0038871Y0197498D01*
X0038457Y0198497D02*
X0055750Y0198497D01*
X0056019Y0199495D02*
X0037641Y0199495D01*
X0036408Y0200494D02*
X0056751Y0200494D01*
X0060749Y0200494D02*
X0064666Y0200494D01*
X0065664Y0201492D02*
X0036737Y0201492D01*
X0037810Y0202491D02*
X0066663Y0202491D01*
X0068578Y0198750D02*
X0085507Y0198750D01*
X0085964Y0198293D01*
X0085422Y0197750D01*
X0077922Y0197750D01*
X0076750Y0196578D01*
X0071750Y0191578D01*
X0071750Y0188493D01*
X0071151Y0187894D01*
X0071104Y0187780D01*
X0070923Y0187962D01*
X0066250Y0187962D01*
X0066250Y0196422D01*
X0068578Y0198750D01*
X0068325Y0198497D02*
X0085760Y0198497D01*
X0085844Y0203489D02*
X0038434Y0203489D01*
X0038808Y0204488D02*
X0085844Y0204488D01*
X0085844Y0205487D02*
X0034250Y0205487D01*
X0034250Y0206250D02*
X0038936Y0206250D01*
X0038822Y0206968D01*
X0038569Y0207746D01*
X0038197Y0208475D01*
X0037716Y0209138D01*
X0037138Y0209716D01*
X0036475Y0210197D01*
X0035746Y0210569D01*
X0034968Y0210822D01*
X0034250Y0210936D01*
X0034250Y0206250D01*
X0034250Y0206485D02*
X0033250Y0206485D01*
X0033250Y0207484D02*
X0034250Y0207484D01*
X0034250Y0208482D02*
X0033250Y0208482D01*
X0033250Y0209481D02*
X0034250Y0209481D01*
X0034250Y0210479D02*
X0033250Y0210479D01*
X0031577Y0210479D02*
X0030850Y0210479D01*
X0030850Y0211478D02*
X0037204Y0211478D01*
X0038750Y0211205D02*
X0038750Y0211205D01*
X0040296Y0211478D02*
X0084963Y0211478D01*
X0084963Y0212476D02*
X0043219Y0212476D01*
X0042015Y0211781D02*
X0042015Y0211781D01*
X0044916Y0213475D02*
X0084963Y0213475D01*
X0085325Y0214473D02*
X0045754Y0214473D01*
X0046592Y0215472D02*
X0370943Y0215472D01*
X0370367Y0216470D02*
X0047196Y0216470D01*
X0047559Y0217469D02*
X0369790Y0217469D01*
X0369781Y0217485D02*
X0369781Y0217485D01*
X0369608Y0218467D02*
X0047922Y0218467D01*
X0048150Y0219466D02*
X0369431Y0219466D01*
X0369255Y0220464D02*
X0108723Y0220464D01*
X0108836Y0221463D02*
X0369331Y0221463D01*
X0369507Y0222461D02*
X0108836Y0222461D01*
X0108836Y0223460D02*
X0369683Y0223460D01*
X0369781Y0224015D02*
X0369781Y0224015D01*
X0370037Y0224458D02*
X0108836Y0224458D01*
X0108836Y0225457D02*
X0370613Y0225457D01*
X0371190Y0226455D02*
X0108836Y0226455D01*
X0108836Y0227454D02*
X0372115Y0227454D01*
X0371438Y0226885D02*
X0371438Y0226885D01*
X0371438Y0226885D01*
X0373305Y0228452D02*
X0108836Y0228452D01*
X0108836Y0234850D02*
X0108836Y0242923D01*
X0107840Y0243918D01*
X0101707Y0243918D01*
X0100711Y0242923D01*
X0100711Y0234850D01*
X0086789Y0234850D01*
X0086789Y0242923D01*
X0085793Y0243918D01*
X0079660Y0243918D01*
X0078664Y0242923D01*
X0078664Y0234850D01*
X0068961Y0234850D01*
X0069950Y0235839D01*
X0080950Y0246839D01*
X0080950Y0255550D01*
X0085163Y0255550D01*
X0085163Y0252841D01*
X0087754Y0252841D01*
X0087754Y0252659D01*
X0087935Y0252659D01*
X0087935Y0248593D01*
X0089223Y0248593D01*
X0089596Y0248693D01*
X0089896Y0248393D01*
X0093667Y0248393D01*
X0093750Y0248476D01*
X0093833Y0248393D01*
X0097604Y0248393D01*
X0097687Y0248476D01*
X0097770Y0248393D01*
X0101541Y0248393D01*
X0102537Y0249388D01*
X0102537Y0256112D01*
X0101655Y0256993D01*
X0101655Y0259613D01*
X0097987Y0263281D01*
X0099459Y0263281D01*
X0099841Y0263384D01*
X0100183Y0263581D01*
X0100462Y0263860D01*
X0100660Y0264203D01*
X0100762Y0264584D01*
X0100762Y0266266D01*
X0097581Y0266266D01*
X0097581Y0267234D01*
X0100762Y0267234D01*
X0100762Y0268916D01*
X0100660Y0269297D01*
X0100462Y0269640D01*
X0100363Y0269738D01*
X0100676Y0269868D01*
X0101632Y0270824D01*
X0102150Y0272074D01*
X0102150Y0272350D01*
X0112104Y0272350D01*
X0113100Y0273346D01*
X0113100Y0277154D01*
X0112504Y0277750D01*
X0113004Y0278250D01*
X0118192Y0278250D01*
X0118192Y0269447D01*
X0119188Y0268452D01*
X0124533Y0268452D01*
X0125207Y0269125D01*
X0125880Y0268452D01*
X0131620Y0268452D01*
X0132444Y0269277D01*
X0132471Y0269231D01*
X0132750Y0268951D01*
X0133092Y0268754D01*
X0133474Y0268652D01*
X0135155Y0268652D01*
X0135155Y0273998D01*
X0136124Y0273998D01*
X0136124Y0268652D01*
X0137806Y0268652D01*
X0138187Y0268754D01*
X0138529Y0268951D01*
X0138809Y0269231D01*
X0139006Y0269573D01*
X0139108Y0269954D01*
X0139108Y0273998D01*
X0136124Y0273998D01*
X0136124Y0274967D01*
X0135155Y0274967D01*
X0135155Y0280313D01*
X0133474Y0280313D01*
X0133092Y0280211D01*
X0132750Y0280013D01*
X0132471Y0279734D01*
X0132444Y0279688D01*
X0131620Y0280513D01*
X0130750Y0280513D01*
X0130750Y0280951D01*
X0144220Y0280951D01*
X0144659Y0280513D01*
X0144188Y0280513D01*
X0143192Y0279517D01*
X0143192Y0269447D01*
X0144188Y0268452D01*
X0149533Y0268452D01*
X0150207Y0269125D01*
X0150880Y0268452D01*
X0156620Y0268452D01*
X0157444Y0269277D01*
X0157471Y0269231D01*
X0157750Y0268951D01*
X0158092Y0268754D01*
X0158474Y0268652D01*
X0160155Y0268652D01*
X0160155Y0273998D01*
X0161124Y0273998D01*
X0161124Y0268652D01*
X0162806Y0268652D01*
X0163187Y0268754D01*
X0163529Y0268951D01*
X0163809Y0269231D01*
X0164006Y0269573D01*
X0164108Y0269954D01*
X0164108Y0273998D01*
X0161124Y0273998D01*
X0161124Y0274967D01*
X0160155Y0274967D01*
X0160155Y0280313D01*
X0158474Y0280313D01*
X0158092Y0280211D01*
X0157750Y0280013D01*
X0157471Y0279734D01*
X0157444Y0279688D01*
X0156620Y0280513D01*
X0155750Y0280513D01*
X0155750Y0281050D01*
X0168122Y0281050D01*
X0168923Y0280248D01*
X0168192Y0279517D01*
X0168192Y0269447D01*
X0169188Y0268452D01*
X0174533Y0268452D01*
X0175207Y0269125D01*
X0175880Y0268452D01*
X0181620Y0268452D01*
X0182444Y0269277D01*
X0182471Y0269231D01*
X0182750Y0268951D01*
X0183092Y0268754D01*
X0183474Y0268652D01*
X0185155Y0268652D01*
X0185155Y0273998D01*
X0186124Y0273998D01*
X0186124Y0268652D01*
X0187806Y0268652D01*
X0188187Y0268754D01*
X0188529Y0268951D01*
X0188809Y0269231D01*
X0189006Y0269573D01*
X0189108Y0269954D01*
X0189108Y0273998D01*
X0186124Y0273998D01*
X0186124Y0274967D01*
X0185155Y0274967D01*
X0185155Y0280313D01*
X0183474Y0280313D01*
X0183092Y0280211D01*
X0182750Y0280013D01*
X0182471Y0279734D01*
X0182444Y0279688D01*
X0181620Y0280513D01*
X0180750Y0280513D01*
X0180750Y0281050D01*
X0193122Y0281050D01*
X0193923Y0280248D01*
X0193192Y0279517D01*
X0193192Y0269447D01*
X0194188Y0268452D01*
X0199533Y0268452D01*
X0200207Y0269125D01*
X0200880Y0268452D01*
X0206620Y0268452D01*
X0207444Y0269277D01*
X0207471Y0269231D01*
X0207750Y0268951D01*
X0208092Y0268754D01*
X0208474Y0268652D01*
X0210155Y0268652D01*
X0210155Y0273998D01*
X0211124Y0273998D01*
X0211124Y0268652D01*
X0212806Y0268652D01*
X0213187Y0268754D01*
X0213529Y0268951D01*
X0213809Y0269231D01*
X0214006Y0269573D01*
X0214108Y0269954D01*
X0214108Y0273998D01*
X0211124Y0273998D01*
X0211124Y0274967D01*
X0210155Y0274967D01*
X0210155Y0280313D01*
X0208474Y0280313D01*
X0208092Y0280211D01*
X0207750Y0280013D01*
X0207471Y0279734D01*
X0207444Y0279688D01*
X0206620Y0280513D01*
X0205750Y0280513D01*
X0205750Y0281050D01*
X0218122Y0281050D01*
X0218923Y0280248D01*
X0218192Y0279517D01*
X0218192Y0269447D01*
X0219188Y0268452D01*
X0224533Y0268452D01*
X0225207Y0269125D01*
X0225880Y0268452D01*
X0231620Y0268452D01*
X0232444Y0269277D01*
X0232471Y0269231D01*
X0232750Y0268951D01*
X0233092Y0268754D01*
X0233474Y0268652D01*
X0235155Y0268652D01*
X0235155Y0273998D01*
X0236124Y0273998D01*
X0236124Y0268652D01*
X0237806Y0268652D01*
X0238187Y0268754D01*
X0238529Y0268951D01*
X0238809Y0269231D01*
X0239006Y0269573D01*
X0239108Y0269954D01*
X0239108Y0273998D01*
X0236124Y0273998D01*
X0236124Y0274967D01*
X0235155Y0274967D01*
X0235155Y0280313D01*
X0233474Y0280313D01*
X0233092Y0280211D01*
X0232750Y0280013D01*
X0232471Y0279734D01*
X0232444Y0279688D01*
X0231620Y0280513D01*
X0230750Y0280513D01*
X0230750Y0281050D01*
X0243122Y0281050D01*
X0243923Y0280248D01*
X0243192Y0279517D01*
X0243192Y0269447D01*
X0244188Y0268452D01*
X0249533Y0268452D01*
X0250207Y0269125D01*
X0250880Y0268452D01*
X0256620Y0268452D01*
X0257444Y0269277D01*
X0257471Y0269231D01*
X0257750Y0268951D01*
X0258092Y0268754D01*
X0258474Y0268652D01*
X0260155Y0268652D01*
X0260155Y0273998D01*
X0261124Y0273998D01*
X0261124Y0268652D01*
X0262806Y0268652D01*
X0263187Y0268754D01*
X0263529Y0268951D01*
X0263809Y0269231D01*
X0264006Y0269573D01*
X0264108Y0269954D01*
X0264108Y0273998D01*
X0261124Y0273998D01*
X0261124Y0274967D01*
X0260155Y0274967D01*
X0260155Y0280313D01*
X0258474Y0280313D01*
X0258092Y0280211D01*
X0257750Y0280013D01*
X0257471Y0279734D01*
X0257444Y0279688D01*
X0256620Y0280513D01*
X0255750Y0280513D01*
X0255750Y0281050D01*
X0268122Y0281050D01*
X0268923Y0280248D01*
X0268192Y0279517D01*
X0268192Y0269447D01*
X0269188Y0268452D01*
X0274533Y0268452D01*
X0275207Y0269125D01*
X0275880Y0268452D01*
X0281620Y0268452D01*
X0282444Y0269277D01*
X0282471Y0269231D01*
X0282750Y0268951D01*
X0283092Y0268754D01*
X0283474Y0268652D01*
X0285155Y0268652D01*
X0285155Y0273998D01*
X0286124Y0273998D01*
X0286124Y0268652D01*
X0287806Y0268652D01*
X0288187Y0268754D01*
X0288529Y0268951D01*
X0288809Y0269231D01*
X0289006Y0269573D01*
X0289108Y0269954D01*
X0289108Y0273998D01*
X0286124Y0273998D01*
X0286124Y0274967D01*
X0285155Y0274967D01*
X0285155Y0280313D01*
X0283474Y0280313D01*
X0283092Y0280211D01*
X0282750Y0280013D01*
X0282471Y0279734D01*
X0282444Y0279688D01*
X0281620Y0280513D01*
X0280750Y0280513D01*
X0280750Y0281050D01*
X0293122Y0281050D01*
X0293923Y0280248D01*
X0293192Y0279517D01*
X0293192Y0269447D01*
X0294188Y0268452D01*
X0299533Y0268452D01*
X0300207Y0269125D01*
X0300880Y0268452D01*
X0306620Y0268452D01*
X0307444Y0269277D01*
X0307471Y0269231D01*
X0307750Y0268951D01*
X0308092Y0268754D01*
X0308474Y0268652D01*
X0310155Y0268652D01*
X0310155Y0273998D01*
X0311124Y0273998D01*
X0311124Y0268652D01*
X0312806Y0268652D01*
X0313187Y0268754D01*
X0313529Y0268951D01*
X0313809Y0269231D01*
X0314006Y0269573D01*
X0314108Y0269954D01*
X0314108Y0273998D01*
X0311124Y0273998D01*
X0311124Y0274967D01*
X0310155Y0274967D01*
X0310155Y0280313D01*
X0308474Y0280313D01*
X0308092Y0280211D01*
X0307750Y0280013D01*
X0307471Y0279734D01*
X0307444Y0279688D01*
X0306620Y0280513D01*
X0305750Y0280513D01*
X0305750Y0281050D01*
X0318122Y0281050D01*
X0318923Y0280248D01*
X0318192Y0279517D01*
X0318192Y0269447D01*
X0319188Y0268452D01*
X0324533Y0268452D01*
X0325207Y0269125D01*
X0325880Y0268452D01*
X0331620Y0268452D01*
X0332444Y0269277D01*
X0332471Y0269231D01*
X0332750Y0268951D01*
X0333092Y0268754D01*
X0333474Y0268652D01*
X0335155Y0268652D01*
X0335155Y0273998D01*
X0336124Y0273998D01*
X0336124Y0268652D01*
X0337806Y0268652D01*
X0338187Y0268754D01*
X0338529Y0268951D01*
X0338809Y0269231D01*
X0339006Y0269573D01*
X0339108Y0269954D01*
X0339108Y0273998D01*
X0336124Y0273998D01*
X0336124Y0274967D01*
X0335155Y0274967D01*
X0335155Y0280313D01*
X0333474Y0280313D01*
X0333092Y0280211D01*
X0332750Y0280013D01*
X0332471Y0279734D01*
X0332444Y0279688D01*
X0331620Y0280513D01*
X0330750Y0280513D01*
X0330750Y0281050D01*
X0344227Y0281050D01*
X0344764Y0280513D01*
X0344188Y0280513D01*
X0343192Y0279517D01*
X0343192Y0269447D01*
X0344188Y0268452D01*
X0349533Y0268452D01*
X0350207Y0269125D01*
X0350880Y0268452D01*
X0356620Y0268452D01*
X0357444Y0269277D01*
X0357471Y0269231D01*
X0357750Y0268951D01*
X0358092Y0268754D01*
X0358474Y0268652D01*
X0360155Y0268652D01*
X0360155Y0273998D01*
X0361124Y0273998D01*
X0361124Y0268652D01*
X0362806Y0268652D01*
X0363187Y0268754D01*
X0363529Y0268951D01*
X0363809Y0269231D01*
X0364006Y0269573D01*
X0364108Y0269954D01*
X0364108Y0273998D01*
X0361124Y0273998D01*
X0361124Y0274967D01*
X0360155Y0274967D01*
X0360155Y0280313D01*
X0358474Y0280313D01*
X0358092Y0280211D01*
X0357750Y0280013D01*
X0357471Y0279734D01*
X0357444Y0279688D01*
X0356620Y0280513D01*
X0355750Y0280513D01*
X0355750Y0280750D01*
X0377922Y0280750D01*
X0378789Y0279883D01*
X0378350Y0278824D01*
X0378350Y0276676D01*
X0379172Y0274691D01*
X0380691Y0273172D01*
X0381974Y0272641D01*
X0381754Y0272569D01*
X0381025Y0272197D01*
X0380362Y0271716D01*
X0379784Y0271138D01*
X0379303Y0270475D01*
X0378931Y0269746D01*
X0378678Y0268968D01*
X0378564Y0268250D01*
X0383250Y0268250D01*
X0383250Y0267250D01*
X0384250Y0267250D01*
X0384250Y0262564D01*
X0384968Y0262678D01*
X0385746Y0262931D01*
X0386475Y0263303D01*
X0386650Y0263429D01*
X0386650Y0247867D01*
X0386062Y0248885D01*
X0386062Y0248885D01*
X0383523Y0251016D01*
X0383522Y0251016D01*
X0380407Y0252150D01*
X0377093Y0252150D01*
X0373977Y0251016D01*
X0371438Y0248885D01*
X0369781Y0246015D01*
X0369205Y0242750D01*
X0369205Y0242750D01*
X0369781Y0239485D01*
X0371438Y0236615D01*
X0371438Y0236615D01*
X0373541Y0234850D01*
X0108836Y0234850D01*
X0108836Y0235442D02*
X0372836Y0235442D01*
X0371646Y0236440D02*
X0108836Y0236440D01*
X0108836Y0237439D02*
X0370962Y0237439D01*
X0370386Y0238437D02*
X0108836Y0238437D01*
X0108836Y0239436D02*
X0369809Y0239436D01*
X0369781Y0239485D02*
X0369781Y0239485D01*
X0369613Y0240434D02*
X0108836Y0240434D01*
X0108836Y0241433D02*
X0369437Y0241433D01*
X0369261Y0242431D02*
X0108836Y0242431D01*
X0108329Y0243430D02*
X0369325Y0243430D01*
X0369501Y0244428D02*
X0078540Y0244428D01*
X0079171Y0243430D02*
X0077541Y0243430D01*
X0076543Y0242431D02*
X0078664Y0242431D01*
X0078664Y0241433D02*
X0075544Y0241433D01*
X0074546Y0240434D02*
X0078664Y0240434D01*
X0078664Y0239436D02*
X0073547Y0239436D01*
X0072549Y0238437D02*
X0078664Y0238437D01*
X0078664Y0237439D02*
X0071550Y0237439D01*
X0070552Y0236440D02*
X0078664Y0236440D01*
X0078664Y0235442D02*
X0069553Y0235442D01*
X0067750Y0236750D02*
X0064596Y0236750D01*
X0067750Y0236750D02*
X0078750Y0247750D01*
X0078750Y0257750D01*
X0091781Y0257750D01*
X0091781Y0265372D01*
X0090404Y0266750D01*
X0091750Y0268096D01*
X0091750Y0275750D01*
X0086750Y0275750D01*
X0086250Y0275250D01*
X0080550Y0275250D01*
X0085567Y0272350D02*
X0075496Y0272350D01*
X0074500Y0273346D01*
X0074500Y0275313D01*
X0074347Y0275250D01*
X0073153Y0275250D01*
X0072051Y0275707D01*
X0071571Y0276186D01*
X0070923Y0275538D01*
X0070250Y0275538D01*
X0070250Y0270376D01*
X0070449Y0270293D01*
X0071293Y0269449D01*
X0071750Y0268347D01*
X0071750Y0267153D01*
X0071293Y0266051D01*
X0070950Y0265707D01*
X0070950Y0263661D01*
X0074661Y0259950D01*
X0076707Y0259950D01*
X0077051Y0260293D01*
X0078153Y0260750D01*
X0079347Y0260750D01*
X0080449Y0260293D01*
X0080793Y0259950D01*
X0089350Y0259950D01*
X0089350Y0263081D01*
X0087534Y0263081D01*
X0086538Y0264077D01*
X0086538Y0269423D01*
X0087112Y0269996D01*
X0086710Y0270264D01*
X0086264Y0270710D01*
X0085914Y0271234D01*
X0085673Y0271817D01*
X0085567Y0272350D01*
X0085850Y0271388D02*
X0070250Y0271388D01*
X0070250Y0270390D02*
X0086585Y0270390D01*
X0086538Y0269391D02*
X0071317Y0269391D01*
X0071731Y0268393D02*
X0086538Y0268393D01*
X0086538Y0267394D02*
X0071750Y0267394D01*
X0071436Y0266396D02*
X0086538Y0266396D01*
X0086538Y0265397D02*
X0070950Y0265397D01*
X0070950Y0264399D02*
X0086538Y0264399D01*
X0087215Y0263400D02*
X0071211Y0263400D01*
X0072210Y0262402D02*
X0089350Y0262402D01*
X0089350Y0261403D02*
X0073208Y0261403D01*
X0074207Y0260405D02*
X0077319Y0260405D01*
X0080181Y0260405D02*
X0089350Y0260405D01*
X0091781Y0257750D02*
X0091781Y0252750D01*
X0087935Y0252417D02*
X0087754Y0252417D01*
X0087754Y0252659D02*
X0087754Y0248593D01*
X0086466Y0248593D01*
X0086084Y0248695D01*
X0085742Y0248892D01*
X0085463Y0249171D01*
X0085266Y0249514D01*
X0085163Y0249895D01*
X0085163Y0252659D01*
X0087754Y0252659D01*
X0087754Y0251418D02*
X0087935Y0251418D01*
X0087935Y0250420D02*
X0087754Y0250420D01*
X0087754Y0249421D02*
X0087935Y0249421D01*
X0089866Y0248422D02*
X0080950Y0248422D01*
X0080950Y0247424D02*
X0370594Y0247424D01*
X0370018Y0246425D02*
X0080537Y0246425D01*
X0079538Y0245427D02*
X0369677Y0245427D01*
X0369781Y0246015D02*
X0369781Y0246015D01*
X0371171Y0248422D02*
X0101571Y0248422D01*
X0102537Y0249421D02*
X0372076Y0249421D01*
X0371438Y0248885D02*
X0371438Y0248885D01*
X0371438Y0248885D01*
X0373266Y0250420D02*
X0102537Y0250420D01*
X0102537Y0251418D02*
X0375081Y0251418D01*
X0373977Y0251016D02*
X0373977Y0251016D01*
X0382419Y0251418D02*
X0386650Y0251418D01*
X0386650Y0250420D02*
X0384234Y0250420D01*
X0385424Y0249421D02*
X0386650Y0249421D01*
X0386650Y0248422D02*
X0386329Y0248422D01*
X0386650Y0252417D02*
X0102537Y0252417D01*
X0102537Y0253415D02*
X0386650Y0253415D01*
X0386650Y0254414D02*
X0129892Y0254414D01*
X0129841Y0254384D02*
X0130183Y0254581D01*
X0130462Y0254860D01*
X0130660Y0255203D01*
X0130762Y0255584D01*
X0130762Y0257266D01*
X0127581Y0257266D01*
X0127581Y0258234D01*
X0130762Y0258234D01*
X0130762Y0259916D01*
X0130660Y0260297D01*
X0130462Y0260640D01*
X0130183Y0260919D01*
X0129841Y0261116D01*
X0129459Y0261218D01*
X0127581Y0261218D01*
X0127581Y0258234D01*
X0126612Y0258234D01*
X0126612Y0261218D01*
X0124734Y0261218D01*
X0124352Y0261116D01*
X0124010Y0260919D01*
X0123891Y0260800D01*
X0123273Y0261418D01*
X0117534Y0261418D01*
X0116538Y0260423D01*
X0116538Y0260050D01*
X0114405Y0260050D01*
X0114034Y0260420D01*
X0112877Y0260900D01*
X0111623Y0260900D01*
X0110466Y0260420D01*
X0109580Y0259534D01*
X0109100Y0258377D01*
X0109100Y0257123D01*
X0109580Y0255966D01*
X0110466Y0255080D01*
X0111623Y0254600D01*
X0112877Y0254600D01*
X0114034Y0255080D01*
X0114405Y0255450D01*
X0116538Y0255450D01*
X0116538Y0255077D01*
X0117534Y0254081D01*
X0123273Y0254081D01*
X0123891Y0254700D01*
X0124010Y0254581D01*
X0124352Y0254384D01*
X0124734Y0254281D01*
X0126612Y0254281D01*
X0126612Y0257266D01*
X0127581Y0257266D01*
X0127581Y0254281D01*
X0129459Y0254281D01*
X0129841Y0254384D01*
X0130716Y0255412D02*
X0386650Y0255412D01*
X0386650Y0256411D02*
X0130762Y0256411D01*
X0130762Y0258408D02*
X0386650Y0258408D01*
X0386650Y0259406D02*
X0130762Y0259406D01*
X0130598Y0260405D02*
X0386650Y0260405D01*
X0386650Y0261403D02*
X0123288Y0261403D01*
X0126612Y0260405D02*
X0127581Y0260405D01*
X0127581Y0259406D02*
X0126612Y0259406D01*
X0126612Y0258408D02*
X0127581Y0258408D01*
X0127581Y0257409D02*
X0386650Y0257409D01*
X0386650Y0262402D02*
X0098867Y0262402D01*
X0099865Y0261403D02*
X0117519Y0261403D01*
X0116538Y0260405D02*
X0114050Y0260405D01*
X0110450Y0260405D02*
X0100864Y0260405D01*
X0101655Y0259406D02*
X0109526Y0259406D01*
X0109113Y0258408D02*
X0101655Y0258408D01*
X0101655Y0257409D02*
X0109100Y0257409D01*
X0109395Y0256411D02*
X0102238Y0256411D01*
X0102537Y0255412D02*
X0110133Y0255412D01*
X0114367Y0255412D02*
X0116538Y0255412D01*
X0117202Y0254414D02*
X0102537Y0254414D01*
X0097740Y0248422D02*
X0097634Y0248422D01*
X0093803Y0248422D02*
X0093697Y0248422D01*
X0086281Y0243430D02*
X0101219Y0243430D01*
X0100711Y0242431D02*
X0086789Y0242431D01*
X0086789Y0241433D02*
X0100711Y0241433D01*
X0100711Y0240434D02*
X0086789Y0240434D01*
X0086789Y0239436D02*
X0100711Y0239436D01*
X0100711Y0238437D02*
X0086789Y0238437D01*
X0086789Y0237439D02*
X0100711Y0237439D01*
X0100711Y0236440D02*
X0086789Y0236440D01*
X0086789Y0235442D02*
X0100711Y0235442D01*
X0100711Y0228452D02*
X0086789Y0228452D01*
X0086789Y0227454D02*
X0100711Y0227454D01*
X0100711Y0226455D02*
X0086789Y0226455D01*
X0086789Y0225457D02*
X0100711Y0225457D01*
X0100711Y0224458D02*
X0086789Y0224458D01*
X0086789Y0223460D02*
X0100711Y0223460D01*
X0100711Y0222461D02*
X0086789Y0222461D01*
X0086789Y0221463D02*
X0100711Y0221463D01*
X0100825Y0220464D02*
X0086675Y0220464D01*
X0078777Y0220464D02*
X0048150Y0220464D01*
X0048150Y0221463D02*
X0078664Y0221463D01*
X0078664Y0222461D02*
X0048130Y0222461D01*
X0047767Y0223460D02*
X0078664Y0223460D01*
X0078664Y0224458D02*
X0047404Y0224458D01*
X0047040Y0225457D02*
X0078664Y0225457D01*
X0078664Y0226455D02*
X0046234Y0226455D01*
X0045396Y0227454D02*
X0078664Y0227454D01*
X0078664Y0228452D02*
X0044209Y0228452D01*
X0044885Y0228062D02*
X0044885Y0228062D01*
X0044885Y0228062D01*
X0043867Y0234850D02*
X0044885Y0235438D01*
X0044885Y0235438D01*
X0047016Y0237977D01*
X0047016Y0237977D01*
X0048150Y0241093D01*
X0048150Y0244407D01*
X0047016Y0247522D01*
X0047016Y0247523D01*
X0044885Y0250062D01*
X0042015Y0251719D01*
X0042015Y0251719D01*
X0038750Y0252295D01*
X0035485Y0251719D01*
X0032615Y0250062D01*
X0032615Y0250062D01*
X0030850Y0247959D01*
X0030850Y0253429D01*
X0031025Y0253303D01*
X0031754Y0252931D01*
X0032532Y0252678D01*
X0033250Y0252564D01*
X0033250Y0257250D01*
X0034250Y0257250D01*
X0034250Y0258250D01*
X0038936Y0258250D01*
X0038822Y0258968D01*
X0038569Y0259746D01*
X0038197Y0260475D01*
X0037716Y0261138D01*
X0037138Y0261716D01*
X0036475Y0262197D01*
X0035746Y0262569D01*
X0035526Y0262641D01*
X0036809Y0263172D01*
X0038328Y0264691D01*
X0039150Y0266676D01*
X0039150Y0268824D01*
X0038328Y0270809D01*
X0036809Y0272328D01*
X0035790Y0272750D01*
X0036809Y0273172D01*
X0038328Y0274691D01*
X0039150Y0276676D01*
X0039150Y0278824D01*
X0038711Y0279883D01*
X0041578Y0282750D01*
X0058922Y0282750D01*
X0058250Y0282078D01*
X0058250Y0282047D01*
X0057922Y0281718D01*
X0057922Y0281718D01*
X0056750Y0280547D01*
X0056750Y0279962D01*
X0056077Y0279962D01*
X0055081Y0278966D01*
X0055081Y0273227D01*
X0055558Y0272750D01*
X0055081Y0272273D01*
X0055081Y0266534D01*
X0055902Y0265714D01*
X0055750Y0265347D01*
X0055750Y0264153D01*
X0056207Y0263051D01*
X0057051Y0262207D01*
X0058153Y0261750D01*
X0059347Y0261750D01*
X0060449Y0262207D01*
X0061293Y0263051D01*
X0061750Y0264153D01*
X0061750Y0265347D01*
X0061598Y0265714D01*
X0062418Y0266534D01*
X0062418Y0272273D01*
X0061942Y0272750D01*
X0062418Y0273227D01*
X0062418Y0273839D01*
X0062551Y0273707D01*
X0063653Y0273250D01*
X0064847Y0273250D01*
X0065949Y0273707D01*
X0066250Y0274007D01*
X0066250Y0269493D01*
X0066207Y0269449D01*
X0065750Y0268347D01*
X0065750Y0267153D01*
X0066207Y0266051D01*
X0066550Y0265707D01*
X0066550Y0261839D01*
X0071550Y0256839D01*
X0072839Y0255550D01*
X0076550Y0255550D01*
X0076550Y0248661D01*
X0068056Y0240167D01*
X0068171Y0240597D01*
X0068171Y0241766D01*
X0065187Y0241766D01*
X0065187Y0242734D01*
X0068171Y0242734D01*
X0068171Y0243903D01*
X0068029Y0244435D01*
X0067754Y0244912D01*
X0067364Y0245301D01*
X0066888Y0245576D01*
X0066356Y0245718D01*
X0065187Y0245718D01*
X0065187Y0242734D01*
X0064218Y0242734D01*
X0064218Y0245718D01*
X0063050Y0245718D01*
X0062518Y0245576D01*
X0062041Y0245301D01*
X0061652Y0244912D01*
X0061461Y0244581D01*
X0060124Y0245918D01*
X0055471Y0245918D01*
X0054129Y0244577D01*
X0054129Y0244250D01*
X0053922Y0244250D01*
X0052922Y0243250D01*
X0051750Y0242078D01*
X0051750Y0236922D01*
X0052922Y0235750D01*
X0053822Y0234850D01*
X0043867Y0234850D01*
X0044889Y0235442D02*
X0053230Y0235442D01*
X0052231Y0236440D02*
X0045726Y0236440D01*
X0046564Y0237439D02*
X0051750Y0237439D01*
X0051750Y0238437D02*
X0047184Y0238437D01*
X0047547Y0239436D02*
X0051750Y0239436D01*
X0051750Y0240434D02*
X0047910Y0240434D01*
X0048150Y0241433D02*
X0051750Y0241433D01*
X0052103Y0242431D02*
X0048150Y0242431D01*
X0048150Y0243430D02*
X0053102Y0243430D01*
X0054129Y0244428D02*
X0048142Y0244428D01*
X0047779Y0245427D02*
X0054979Y0245427D01*
X0060616Y0245427D02*
X0062260Y0245427D01*
X0064218Y0245427D02*
X0065187Y0245427D01*
X0065187Y0244428D02*
X0064218Y0244428D01*
X0064218Y0243430D02*
X0065187Y0243430D01*
X0065187Y0242431D02*
X0070320Y0242431D01*
X0069322Y0241433D02*
X0068171Y0241433D01*
X0068128Y0240434D02*
X0068323Y0240434D01*
X0068171Y0243430D02*
X0071319Y0243430D01*
X0072317Y0244428D02*
X0068030Y0244428D01*
X0067146Y0245427D02*
X0073316Y0245427D01*
X0074314Y0246425D02*
X0047416Y0246425D01*
X0047052Y0247424D02*
X0075313Y0247424D01*
X0076311Y0248422D02*
X0046261Y0248422D01*
X0045423Y0249421D02*
X0076550Y0249421D01*
X0076550Y0250420D02*
X0044266Y0250420D01*
X0044885Y0250062D02*
X0044885Y0250062D01*
X0044885Y0250062D01*
X0042537Y0251418D02*
X0076550Y0251418D01*
X0076550Y0252417D02*
X0030850Y0252417D01*
X0030850Y0253415D02*
X0030870Y0253415D01*
X0030850Y0251418D02*
X0034963Y0251418D01*
X0035485Y0251719D02*
X0035485Y0251719D01*
X0034968Y0252678D02*
X0035746Y0252931D01*
X0036475Y0253303D01*
X0037138Y0253784D01*
X0037716Y0254362D01*
X0038197Y0255025D01*
X0038569Y0255754D01*
X0038822Y0256532D01*
X0038936Y0257250D01*
X0034250Y0257250D01*
X0034250Y0252564D01*
X0034968Y0252678D01*
X0034250Y0253415D02*
X0033250Y0253415D01*
X0033250Y0254414D02*
X0034250Y0254414D01*
X0034250Y0255412D02*
X0033250Y0255412D01*
X0033250Y0256411D02*
X0034250Y0256411D01*
X0034250Y0257409D02*
X0070980Y0257409D01*
X0071978Y0256411D02*
X0038782Y0256411D01*
X0038395Y0255412D02*
X0076550Y0255412D01*
X0076550Y0254414D02*
X0037753Y0254414D01*
X0036630Y0253415D02*
X0076550Y0253415D01*
X0080950Y0253415D02*
X0085163Y0253415D01*
X0085163Y0252417D02*
X0080950Y0252417D01*
X0080950Y0251418D02*
X0085163Y0251418D01*
X0085163Y0250420D02*
X0080950Y0250420D01*
X0080950Y0249421D02*
X0085319Y0249421D01*
X0085163Y0254414D02*
X0080950Y0254414D01*
X0080950Y0255412D02*
X0085163Y0255412D01*
X0078750Y0257750D02*
X0073750Y0257750D01*
X0068750Y0262750D01*
X0068750Y0267750D01*
X0066064Y0266396D02*
X0062280Y0266396D01*
X0062418Y0267394D02*
X0065750Y0267394D01*
X0065769Y0268393D02*
X0062418Y0268393D01*
X0062418Y0269391D02*
X0066183Y0269391D01*
X0066250Y0270390D02*
X0062418Y0270390D01*
X0062418Y0271388D02*
X0066250Y0271388D01*
X0066250Y0272387D02*
X0062305Y0272387D01*
X0062418Y0273385D02*
X0063327Y0273385D01*
X0065173Y0273385D02*
X0066250Y0273385D01*
X0070250Y0273385D02*
X0074500Y0273385D01*
X0074500Y0274384D02*
X0070250Y0274384D01*
X0070250Y0275382D02*
X0072834Y0275382D01*
X0070250Y0272387D02*
X0075459Y0272387D01*
X0066550Y0265397D02*
X0061729Y0265397D01*
X0061750Y0264399D02*
X0066550Y0264399D01*
X0066550Y0263400D02*
X0061438Y0263400D01*
X0060644Y0262402D02*
X0066550Y0262402D01*
X0066986Y0261403D02*
X0037451Y0261403D01*
X0038233Y0260405D02*
X0067984Y0260405D01*
X0068983Y0259406D02*
X0038679Y0259406D01*
X0038911Y0258408D02*
X0069981Y0258408D01*
X0056856Y0262402D02*
X0036075Y0262402D01*
X0037037Y0263400D02*
X0056062Y0263400D01*
X0055750Y0264399D02*
X0038035Y0264399D01*
X0038620Y0265397D02*
X0055771Y0265397D01*
X0055220Y0266396D02*
X0039034Y0266396D01*
X0039150Y0267394D02*
X0055081Y0267394D01*
X0055081Y0268393D02*
X0039150Y0268393D01*
X0038915Y0269391D02*
X0055081Y0269391D01*
X0055081Y0270390D02*
X0038502Y0270390D01*
X0037748Y0271388D02*
X0055081Y0271388D01*
X0055195Y0272387D02*
X0036667Y0272387D01*
X0037022Y0273385D02*
X0055081Y0273385D01*
X0055081Y0274384D02*
X0038021Y0274384D01*
X0038614Y0275382D02*
X0055081Y0275382D01*
X0055081Y0276381D02*
X0039028Y0276381D01*
X0039150Y0277379D02*
X0055081Y0277379D01*
X0055081Y0278378D02*
X0039150Y0278378D01*
X0038921Y0279376D02*
X0055492Y0279376D01*
X0056750Y0280375D02*
X0039203Y0280375D01*
X0040202Y0281373D02*
X0057576Y0281373D01*
X0058543Y0282372D02*
X0041200Y0282372D01*
X0038657Y0285485D02*
X0039150Y0286676D01*
X0039150Y0288824D01*
X0038328Y0290809D01*
X0036809Y0292328D01*
X0035790Y0292750D01*
X0036809Y0293172D01*
X0038328Y0294691D01*
X0039150Y0296676D01*
X0039150Y0298824D01*
X0038328Y0300809D01*
X0036809Y0302328D01*
X0035526Y0302859D01*
X0035746Y0302931D01*
X0036475Y0303303D01*
X0037138Y0303784D01*
X0037716Y0304362D01*
X0038197Y0305025D01*
X0038569Y0305754D01*
X0038822Y0306532D01*
X0038936Y0307250D01*
X0034250Y0307250D01*
X0034250Y0308250D01*
X0033250Y0308250D01*
X0033250Y0312936D01*
X0032532Y0312822D01*
X0031754Y0312569D01*
X0031025Y0312197D01*
X0030850Y0312071D01*
X0030850Y0317541D01*
X0032615Y0315438D01*
X0035485Y0313781D01*
X0035485Y0313781D01*
X0038750Y0313205D01*
X0042015Y0313781D01*
X0044885Y0315438D01*
X0044885Y0315438D01*
X0047016Y0317977D01*
X0047016Y0317977D01*
X0048150Y0321093D01*
X0048150Y0324407D01*
X0047016Y0327522D01*
X0047016Y0327523D01*
X0044885Y0330062D01*
X0043867Y0330650D01*
X0078664Y0330650D01*
X0078664Y0322577D01*
X0079660Y0321581D01*
X0085793Y0321581D01*
X0086789Y0322577D01*
X0086789Y0330650D01*
X0100711Y0330650D01*
X0100711Y0322577D01*
X0101707Y0321581D01*
X0107840Y0321581D01*
X0108836Y0322577D01*
X0108836Y0330650D01*
X0373541Y0330650D01*
X0371438Y0328885D01*
X0369781Y0326015D01*
X0369205Y0322750D01*
X0369205Y0322750D01*
X0369781Y0319485D01*
X0371438Y0316615D01*
X0371438Y0316615D01*
X0373977Y0314484D01*
X0373977Y0314484D01*
X0377093Y0313350D01*
X0380407Y0313350D01*
X0383522Y0314484D01*
X0383523Y0314484D01*
X0386062Y0316615D01*
X0386650Y0317633D01*
X0386650Y0302394D01*
X0384824Y0303150D01*
X0382676Y0303150D01*
X0381917Y0302836D01*
X0381050Y0303703D01*
X0379703Y0305050D01*
X0359687Y0305050D01*
X0334687Y0305050D01*
X0137693Y0305050D01*
X0137449Y0305293D01*
X0136347Y0305750D01*
X0135153Y0305750D01*
X0134051Y0305293D01*
X0133207Y0304449D01*
X0132750Y0303347D01*
X0132750Y0302153D01*
X0133207Y0301051D01*
X0133340Y0300918D01*
X0133340Y0297048D01*
X0132967Y0297048D01*
X0132293Y0296375D01*
X0131620Y0297048D01*
X0125880Y0297048D01*
X0125207Y0296375D01*
X0124533Y0297048D01*
X0119188Y0297048D01*
X0118192Y0296053D01*
X0118192Y0287250D01*
X0113004Y0287250D01*
X0112363Y0287891D01*
X0112600Y0288129D01*
X0112798Y0288471D01*
X0112900Y0288853D01*
X0112900Y0290150D01*
X0107150Y0290150D01*
X0107150Y0290350D01*
X0106950Y0290350D01*
X0106950Y0292950D01*
X0102503Y0292950D01*
X0102150Y0292856D01*
X0102150Y0293426D01*
X0101632Y0294676D01*
X0100676Y0295632D01*
X0099426Y0296150D01*
X0098074Y0296150D01*
X0098018Y0296127D01*
X0098018Y0299807D01*
X0098262Y0300051D01*
X0098718Y0301153D01*
X0098718Y0302347D01*
X0098262Y0303449D01*
X0098018Y0303693D01*
X0098018Y0308662D01*
X0098277Y0308593D01*
X0099565Y0308593D01*
X0099565Y0312659D01*
X0099746Y0312659D01*
X0099746Y0308593D01*
X0101034Y0308593D01*
X0101416Y0308695D01*
X0101758Y0308892D01*
X0102037Y0309171D01*
X0102234Y0309514D01*
X0102337Y0309895D01*
X0102337Y0312659D01*
X0099746Y0312659D01*
X0099746Y0312841D01*
X0099565Y0312841D01*
X0099565Y0316907D01*
X0098277Y0316907D01*
X0097904Y0316807D01*
X0097604Y0317107D01*
X0093833Y0317107D01*
X0093750Y0317024D01*
X0093667Y0317107D01*
X0089896Y0317107D01*
X0089813Y0317024D01*
X0089730Y0317107D01*
X0085959Y0317107D01*
X0084963Y0316112D01*
X0084963Y0309388D01*
X0085844Y0308507D01*
X0085844Y0305087D01*
X0085507Y0304750D01*
X0066922Y0304750D01*
X0062250Y0300078D01*
X0062250Y0299134D01*
X0061744Y0299640D01*
X0061750Y0299653D01*
X0061750Y0300847D01*
X0061293Y0301949D01*
X0060449Y0302793D01*
X0059347Y0303250D01*
X0058153Y0303250D01*
X0057051Y0302793D01*
X0056207Y0301949D01*
X0055750Y0300847D01*
X0055750Y0299653D01*
X0055756Y0299640D01*
X0055081Y0298966D01*
X0055081Y0293227D01*
X0055558Y0292750D01*
X0055081Y0292273D01*
X0055081Y0286750D01*
X0039922Y0286750D01*
X0038750Y0285578D01*
X0038657Y0285485D01*
X0039022Y0286366D02*
X0039538Y0286366D01*
X0039150Y0287364D02*
X0055081Y0287364D01*
X0055081Y0288363D02*
X0039150Y0288363D01*
X0038927Y0289361D02*
X0055081Y0289361D01*
X0055081Y0290360D02*
X0038514Y0290360D01*
X0037778Y0291358D02*
X0055081Y0291358D01*
X0055165Y0292357D02*
X0036739Y0292357D01*
X0036992Y0293355D02*
X0055081Y0293355D01*
X0055081Y0294354D02*
X0037991Y0294354D01*
X0038602Y0295353D02*
X0055081Y0295353D01*
X0055081Y0296351D02*
X0039015Y0296351D01*
X0039150Y0297350D02*
X0055081Y0297350D01*
X0055081Y0298348D02*
X0039150Y0298348D01*
X0038934Y0299347D02*
X0055462Y0299347D01*
X0055750Y0300345D02*
X0038520Y0300345D01*
X0037793Y0301344D02*
X0055956Y0301344D01*
X0056599Y0302342D02*
X0036775Y0302342D01*
X0036528Y0303341D02*
X0065512Y0303341D01*
X0066511Y0304339D02*
X0037693Y0304339D01*
X0038357Y0305338D02*
X0085844Y0305338D01*
X0085844Y0306336D02*
X0038758Y0306336D01*
X0038936Y0308250D02*
X0038822Y0308968D01*
X0038569Y0309746D01*
X0038197Y0310475D01*
X0037716Y0311138D01*
X0037138Y0311716D01*
X0036475Y0312197D01*
X0035746Y0312569D01*
X0034968Y0312822D01*
X0034250Y0312936D01*
X0034250Y0308250D01*
X0038936Y0308250D01*
X0038922Y0308333D02*
X0085844Y0308333D01*
X0085844Y0307335D02*
X0034250Y0307335D01*
X0034250Y0308333D02*
X0033250Y0308333D01*
X0033250Y0309332D02*
X0034250Y0309332D01*
X0034250Y0310330D02*
X0033250Y0310330D01*
X0033250Y0311329D02*
X0034250Y0311329D01*
X0034250Y0312327D02*
X0033250Y0312327D01*
X0031279Y0312327D02*
X0030850Y0312327D01*
X0030850Y0313326D02*
X0038065Y0313326D01*
X0038750Y0313205D02*
X0038750Y0313205D01*
X0039435Y0313326D02*
X0084963Y0313326D01*
X0084963Y0314324D02*
X0042956Y0314324D01*
X0042015Y0313781D02*
X0042015Y0313781D01*
X0044686Y0315323D02*
X0084963Y0315323D01*
X0085173Y0316321D02*
X0045626Y0316321D01*
X0046464Y0317320D02*
X0371031Y0317320D01*
X0370454Y0318318D02*
X0047140Y0318318D01*
X0047504Y0319317D02*
X0369878Y0319317D01*
X0369781Y0319485D02*
X0369781Y0319485D01*
X0369634Y0320315D02*
X0047867Y0320315D01*
X0048150Y0321314D02*
X0369458Y0321314D01*
X0369282Y0322312D02*
X0108571Y0322312D01*
X0108836Y0323311D02*
X0369304Y0323311D01*
X0369480Y0324309D02*
X0108836Y0324309D01*
X0108836Y0325308D02*
X0369656Y0325308D01*
X0369781Y0326015D02*
X0369781Y0326015D01*
X0369949Y0326306D02*
X0108836Y0326306D01*
X0108836Y0327305D02*
X0370526Y0327305D01*
X0371102Y0328303D02*
X0108836Y0328303D01*
X0108836Y0329302D02*
X0371934Y0329302D01*
X0371438Y0328885D02*
X0371438Y0328885D01*
X0371438Y0328885D01*
X0373124Y0330300D02*
X0108836Y0330300D01*
X0100711Y0330300D02*
X0086789Y0330300D01*
X0086789Y0329302D02*
X0100711Y0329302D01*
X0100711Y0328303D02*
X0086789Y0328303D01*
X0086789Y0327305D02*
X0100711Y0327305D01*
X0100711Y0326306D02*
X0086789Y0326306D01*
X0086789Y0325308D02*
X0100711Y0325308D01*
X0100711Y0324309D02*
X0086789Y0324309D01*
X0086789Y0323311D02*
X0100711Y0323311D01*
X0100976Y0322312D02*
X0086524Y0322312D01*
X0078929Y0322312D02*
X0048150Y0322312D01*
X0048150Y0323311D02*
X0078664Y0323311D01*
X0078664Y0324309D02*
X0048150Y0324309D01*
X0047822Y0325308D02*
X0078664Y0325308D01*
X0078664Y0326306D02*
X0047459Y0326306D01*
X0047095Y0327305D02*
X0078664Y0327305D01*
X0078664Y0328303D02*
X0046361Y0328303D01*
X0045523Y0329302D02*
X0078664Y0329302D01*
X0078664Y0330300D02*
X0044472Y0330300D01*
X0044885Y0330062D02*
X0044885Y0330062D01*
X0044885Y0330062D01*
X0031036Y0317320D02*
X0030850Y0317320D01*
X0030850Y0316321D02*
X0031874Y0316321D01*
X0032615Y0315438D02*
X0032615Y0315438D01*
X0032615Y0315438D01*
X0032814Y0315323D02*
X0030850Y0315323D01*
X0030850Y0314324D02*
X0034544Y0314324D01*
X0036221Y0312327D02*
X0084963Y0312327D01*
X0084963Y0311329D02*
X0037525Y0311329D01*
X0038271Y0310330D02*
X0084963Y0310330D01*
X0085020Y0309332D02*
X0038704Y0309332D01*
X0060901Y0302342D02*
X0064514Y0302342D01*
X0063515Y0301344D02*
X0061544Y0301344D01*
X0061750Y0300345D02*
X0062517Y0300345D01*
X0062250Y0299347D02*
X0062038Y0299347D01*
X0066250Y0298422D02*
X0068578Y0300750D01*
X0085507Y0300750D01*
X0085964Y0300293D01*
X0085422Y0299750D01*
X0077922Y0299750D01*
X0071750Y0293578D01*
X0071750Y0290493D01*
X0071151Y0289894D01*
X0071104Y0289780D01*
X0070923Y0289962D01*
X0066250Y0289962D01*
X0066250Y0298422D01*
X0066250Y0298348D02*
X0076520Y0298348D01*
X0077518Y0299347D02*
X0067175Y0299347D01*
X0068173Y0300345D02*
X0085912Y0300345D01*
X0075521Y0297350D02*
X0066250Y0297350D01*
X0066250Y0296351D02*
X0074523Y0296351D01*
X0073524Y0295353D02*
X0066250Y0295353D01*
X0066250Y0294354D02*
X0072526Y0294354D01*
X0071750Y0293355D02*
X0066250Y0293355D01*
X0066250Y0292357D02*
X0071750Y0292357D01*
X0071750Y0291358D02*
X0066250Y0291358D01*
X0066250Y0290360D02*
X0071617Y0290360D01*
X0093950Y0285194D02*
X0093950Y0274455D01*
X0096750Y0277255D01*
X0096750Y0279942D01*
X0095868Y0280824D01*
X0095350Y0282074D01*
X0095350Y0283426D01*
X0095868Y0284676D01*
X0096824Y0285632D01*
X0098074Y0286150D01*
X0099426Y0286150D01*
X0100676Y0285632D01*
X0101000Y0285308D01*
X0101000Y0287154D01*
X0101737Y0287891D01*
X0101500Y0288129D01*
X0101302Y0288471D01*
X0101200Y0288853D01*
X0101200Y0290150D01*
X0106950Y0290150D01*
X0106950Y0290350D01*
X0101200Y0290350D01*
X0101200Y0290392D01*
X0100676Y0289868D01*
X0099426Y0289350D01*
X0098178Y0289350D01*
X0097194Y0288366D01*
X0097194Y0287598D01*
X0096738Y0286495D01*
X0095894Y0285651D01*
X0094791Y0285194D01*
X0093950Y0285194D01*
X0093950Y0284369D02*
X0095740Y0284369D01*
X0095350Y0283370D02*
X0093950Y0283370D01*
X0093950Y0282372D02*
X0095350Y0282372D01*
X0095640Y0281373D02*
X0093950Y0281373D01*
X0093950Y0280375D02*
X0096317Y0280375D01*
X0096750Y0279376D02*
X0093950Y0279376D01*
X0093950Y0278378D02*
X0096750Y0278378D01*
X0096750Y0277379D02*
X0093950Y0277379D01*
X0093950Y0276381D02*
X0095875Y0276381D01*
X0094877Y0275382D02*
X0093950Y0275382D01*
X0101198Y0270390D02*
X0118192Y0270390D01*
X0118192Y0271388D02*
X0101866Y0271388D01*
X0100605Y0269391D02*
X0118248Y0269391D01*
X0118192Y0272387D02*
X0112141Y0272387D01*
X0113100Y0273385D02*
X0118192Y0273385D01*
X0118192Y0274384D02*
X0113100Y0274384D01*
X0113100Y0275382D02*
X0118192Y0275382D01*
X0118192Y0276381D02*
X0113100Y0276381D01*
X0112875Y0277379D02*
X0118192Y0277379D01*
X0118192Y0287364D02*
X0112890Y0287364D01*
X0112735Y0288363D02*
X0118192Y0288363D01*
X0118192Y0289361D02*
X0112900Y0289361D01*
X0112900Y0290350D02*
X0112900Y0291647D01*
X0112798Y0292029D01*
X0112600Y0292371D01*
X0112321Y0292650D01*
X0111979Y0292848D01*
X0111597Y0292950D01*
X0107150Y0292950D01*
X0107150Y0290350D01*
X0112900Y0290350D01*
X0112900Y0290360D02*
X0118192Y0290360D01*
X0118192Y0291358D02*
X0112900Y0291358D01*
X0112608Y0292357D02*
X0118192Y0292357D01*
X0118192Y0293355D02*
X0102150Y0293355D01*
X0101766Y0294354D02*
X0118192Y0294354D01*
X0118192Y0295353D02*
X0100956Y0295353D01*
X0098018Y0296351D02*
X0118490Y0296351D01*
X0114250Y0290250D02*
X0107050Y0290250D01*
X0106950Y0290360D02*
X0107150Y0290360D01*
X0107150Y0291358D02*
X0106950Y0291358D01*
X0106950Y0292357D02*
X0107150Y0292357D01*
X0101200Y0290360D02*
X0101168Y0290360D01*
X0101200Y0289361D02*
X0099454Y0289361D01*
X0101365Y0288363D02*
X0097194Y0288363D01*
X0097098Y0287364D02*
X0101210Y0287364D01*
X0101000Y0286366D02*
X0096609Y0286366D01*
X0096559Y0285367D02*
X0095209Y0285367D01*
X0100941Y0285367D02*
X0101000Y0285367D01*
X0098018Y0297350D02*
X0133340Y0297350D01*
X0133340Y0298348D02*
X0098018Y0298348D01*
X0098018Y0299347D02*
X0133340Y0299347D01*
X0133340Y0300345D02*
X0098384Y0300345D01*
X0098718Y0301344D02*
X0133085Y0301344D01*
X0132750Y0302342D02*
X0098718Y0302342D01*
X0098307Y0303341D02*
X0132750Y0303341D01*
X0133161Y0304339D02*
X0098018Y0304339D01*
X0098018Y0305338D02*
X0134158Y0305338D01*
X0137342Y0305338D02*
X0386650Y0305338D01*
X0386650Y0306336D02*
X0098018Y0306336D01*
X0098018Y0307335D02*
X0386650Y0307335D01*
X0386650Y0308333D02*
X0098018Y0308333D01*
X0099565Y0309332D02*
X0099746Y0309332D01*
X0099746Y0310330D02*
X0099565Y0310330D01*
X0099565Y0311329D02*
X0099746Y0311329D01*
X0099746Y0312327D02*
X0099565Y0312327D01*
X0099746Y0312841D02*
X0102337Y0312841D01*
X0102337Y0315605D01*
X0102234Y0315986D01*
X0102037Y0316328D01*
X0101758Y0316608D01*
X0101416Y0316805D01*
X0101034Y0316907D01*
X0099746Y0316907D01*
X0099746Y0312841D01*
X0099746Y0313326D02*
X0099565Y0313326D01*
X0099565Y0314324D02*
X0099746Y0314324D01*
X0099746Y0315323D02*
X0099565Y0315323D01*
X0099565Y0316321D02*
X0099746Y0316321D01*
X0102041Y0316321D02*
X0371788Y0316321D01*
X0372978Y0315323D02*
X0102337Y0315323D01*
X0102337Y0314324D02*
X0374416Y0314324D01*
X0383084Y0314324D02*
X0386650Y0314324D01*
X0386650Y0313326D02*
X0102337Y0313326D01*
X0102337Y0312327D02*
X0386650Y0312327D01*
X0386650Y0311329D02*
X0102337Y0311329D01*
X0102337Y0310330D02*
X0386650Y0310330D01*
X0386650Y0309332D02*
X0102129Y0309332D01*
X0131758Y0280375D02*
X0144049Y0280375D01*
X0143192Y0279376D02*
X0139010Y0279376D01*
X0139006Y0279392D02*
X0138809Y0279734D01*
X0138529Y0280013D01*
X0138187Y0280211D01*
X0137806Y0280313D01*
X0136124Y0280313D01*
X0136124Y0274967D01*
X0139108Y0274967D01*
X0139108Y0279010D01*
X0139006Y0279392D01*
X0139108Y0278378D02*
X0143192Y0278378D01*
X0143192Y0277379D02*
X0139108Y0277379D01*
X0139108Y0276381D02*
X0143192Y0276381D01*
X0143192Y0275382D02*
X0139108Y0275382D01*
X0139108Y0273385D02*
X0143192Y0273385D01*
X0143192Y0272387D02*
X0139108Y0272387D01*
X0139108Y0271388D02*
X0143192Y0271388D01*
X0143192Y0270390D02*
X0139108Y0270390D01*
X0138901Y0269391D02*
X0143248Y0269391D01*
X0143192Y0274384D02*
X0136124Y0274384D01*
X0136124Y0275382D02*
X0135155Y0275382D01*
X0135155Y0276381D02*
X0136124Y0276381D01*
X0136124Y0277379D02*
X0135155Y0277379D01*
X0135155Y0278378D02*
X0136124Y0278378D01*
X0136124Y0279376D02*
X0135155Y0279376D01*
X0135155Y0273385D02*
X0136124Y0273385D01*
X0136124Y0272387D02*
X0135155Y0272387D01*
X0135155Y0271388D02*
X0136124Y0271388D01*
X0136124Y0270390D02*
X0135155Y0270390D01*
X0135155Y0269391D02*
X0136124Y0269391D01*
X0127581Y0256411D02*
X0126612Y0256411D01*
X0126612Y0255412D02*
X0127581Y0255412D01*
X0127581Y0254414D02*
X0126612Y0254414D01*
X0124300Y0254414D02*
X0123605Y0254414D01*
X0100712Y0264399D02*
X0379757Y0264399D01*
X0379784Y0264362D02*
X0380362Y0263784D01*
X0381025Y0263303D01*
X0381754Y0262931D01*
X0382532Y0262678D01*
X0383250Y0262564D01*
X0383250Y0267250D01*
X0378564Y0267250D01*
X0378678Y0266532D01*
X0378931Y0265754D01*
X0379303Y0265025D01*
X0379784Y0264362D01*
X0379113Y0265397D02*
X0100762Y0265397D01*
X0100762Y0267394D02*
X0383250Y0267394D01*
X0383250Y0266396D02*
X0384250Y0266396D01*
X0384250Y0265397D02*
X0383250Y0265397D01*
X0383250Y0264399D02*
X0384250Y0264399D01*
X0384250Y0263400D02*
X0383250Y0263400D01*
X0380890Y0263400D02*
X0099869Y0263400D01*
X0097581Y0266396D02*
X0378722Y0266396D01*
X0378587Y0268393D02*
X0100762Y0268393D01*
X0156758Y0280375D02*
X0168797Y0280375D01*
X0168192Y0279376D02*
X0164010Y0279376D01*
X0164006Y0279392D02*
X0163809Y0279734D01*
X0163529Y0280013D01*
X0163187Y0280211D01*
X0162806Y0280313D01*
X0161124Y0280313D01*
X0161124Y0274967D01*
X0164108Y0274967D01*
X0164108Y0279010D01*
X0164006Y0279392D01*
X0164108Y0278378D02*
X0168192Y0278378D01*
X0168192Y0277379D02*
X0164108Y0277379D01*
X0164108Y0276381D02*
X0168192Y0276381D01*
X0168192Y0275382D02*
X0164108Y0275382D01*
X0164108Y0273385D02*
X0168192Y0273385D01*
X0168192Y0272387D02*
X0164108Y0272387D01*
X0164108Y0271388D02*
X0168192Y0271388D01*
X0168192Y0270390D02*
X0164108Y0270390D01*
X0163901Y0269391D02*
X0168248Y0269391D01*
X0168192Y0274384D02*
X0161124Y0274384D01*
X0161124Y0275382D02*
X0160155Y0275382D01*
X0160155Y0276381D02*
X0161124Y0276381D01*
X0161124Y0277379D02*
X0160155Y0277379D01*
X0160155Y0278378D02*
X0161124Y0278378D01*
X0161124Y0279376D02*
X0160155Y0279376D01*
X0160155Y0273385D02*
X0161124Y0273385D01*
X0161124Y0272387D02*
X0160155Y0272387D01*
X0160155Y0271388D02*
X0161124Y0271388D01*
X0161124Y0270390D02*
X0160155Y0270390D01*
X0160155Y0269391D02*
X0161124Y0269391D01*
X0181758Y0280375D02*
X0193797Y0280375D01*
X0193192Y0279376D02*
X0189010Y0279376D01*
X0189006Y0279392D02*
X0188809Y0279734D01*
X0188529Y0280013D01*
X0188187Y0280211D01*
X0187806Y0280313D01*
X0186124Y0280313D01*
X0186124Y0274967D01*
X0189108Y0274967D01*
X0189108Y0279010D01*
X0189006Y0279392D01*
X0189108Y0278378D02*
X0193192Y0278378D01*
X0193192Y0277379D02*
X0189108Y0277379D01*
X0189108Y0276381D02*
X0193192Y0276381D01*
X0193192Y0275382D02*
X0189108Y0275382D01*
X0189108Y0273385D02*
X0193192Y0273385D01*
X0193192Y0272387D02*
X0189108Y0272387D01*
X0189108Y0271388D02*
X0193192Y0271388D01*
X0193192Y0270390D02*
X0189108Y0270390D01*
X0188901Y0269391D02*
X0193248Y0269391D01*
X0193192Y0274384D02*
X0186124Y0274384D01*
X0186124Y0275382D02*
X0185155Y0275382D01*
X0185155Y0276381D02*
X0186124Y0276381D01*
X0186124Y0277379D02*
X0185155Y0277379D01*
X0185155Y0278378D02*
X0186124Y0278378D01*
X0186124Y0279376D02*
X0185155Y0279376D01*
X0185155Y0273385D02*
X0186124Y0273385D01*
X0186124Y0272387D02*
X0185155Y0272387D01*
X0185155Y0271388D02*
X0186124Y0271388D01*
X0186124Y0270390D02*
X0185155Y0270390D01*
X0185155Y0269391D02*
X0186124Y0269391D01*
X0206758Y0280375D02*
X0218797Y0280375D01*
X0218192Y0279376D02*
X0214010Y0279376D01*
X0214006Y0279392D02*
X0213809Y0279734D01*
X0213529Y0280013D01*
X0213187Y0280211D01*
X0212806Y0280313D01*
X0211124Y0280313D01*
X0211124Y0274967D01*
X0214108Y0274967D01*
X0214108Y0279010D01*
X0214006Y0279392D01*
X0214108Y0278378D02*
X0218192Y0278378D01*
X0218192Y0277379D02*
X0214108Y0277379D01*
X0214108Y0276381D02*
X0218192Y0276381D01*
X0218192Y0275382D02*
X0214108Y0275382D01*
X0214108Y0273385D02*
X0218192Y0273385D01*
X0218192Y0272387D02*
X0214108Y0272387D01*
X0214108Y0271388D02*
X0218192Y0271388D01*
X0218192Y0270390D02*
X0214108Y0270390D01*
X0213901Y0269391D02*
X0218248Y0269391D01*
X0218192Y0274384D02*
X0211124Y0274384D01*
X0211124Y0275382D02*
X0210155Y0275382D01*
X0210155Y0276381D02*
X0211124Y0276381D01*
X0211124Y0277379D02*
X0210155Y0277379D01*
X0210155Y0278378D02*
X0211124Y0278378D01*
X0211124Y0279376D02*
X0210155Y0279376D01*
X0210155Y0273385D02*
X0211124Y0273385D01*
X0211124Y0272387D02*
X0210155Y0272387D01*
X0210155Y0271388D02*
X0211124Y0271388D01*
X0211124Y0270390D02*
X0210155Y0270390D01*
X0210155Y0269391D02*
X0211124Y0269391D01*
X0231758Y0280375D02*
X0243797Y0280375D01*
X0243192Y0279376D02*
X0239010Y0279376D01*
X0239006Y0279392D02*
X0238809Y0279734D01*
X0238529Y0280013D01*
X0238187Y0280211D01*
X0237806Y0280313D01*
X0236124Y0280313D01*
X0236124Y0274967D01*
X0239108Y0274967D01*
X0239108Y0279010D01*
X0239006Y0279392D01*
X0239108Y0278378D02*
X0243192Y0278378D01*
X0243192Y0277379D02*
X0239108Y0277379D01*
X0239108Y0276381D02*
X0243192Y0276381D01*
X0243192Y0275382D02*
X0239108Y0275382D01*
X0239108Y0273385D02*
X0243192Y0273385D01*
X0243192Y0272387D02*
X0239108Y0272387D01*
X0239108Y0271388D02*
X0243192Y0271388D01*
X0243192Y0270390D02*
X0239108Y0270390D01*
X0238901Y0269391D02*
X0243248Y0269391D01*
X0243192Y0274384D02*
X0236124Y0274384D01*
X0236124Y0275382D02*
X0235155Y0275382D01*
X0235155Y0276381D02*
X0236124Y0276381D01*
X0236124Y0277379D02*
X0235155Y0277379D01*
X0235155Y0278378D02*
X0236124Y0278378D01*
X0236124Y0279376D02*
X0235155Y0279376D01*
X0235155Y0273385D02*
X0236124Y0273385D01*
X0236124Y0272387D02*
X0235155Y0272387D01*
X0235155Y0271388D02*
X0236124Y0271388D01*
X0236124Y0270390D02*
X0235155Y0270390D01*
X0235155Y0269391D02*
X0236124Y0269391D01*
X0256758Y0280375D02*
X0268797Y0280375D01*
X0268192Y0279376D02*
X0264010Y0279376D01*
X0264006Y0279392D02*
X0263809Y0279734D01*
X0263529Y0280013D01*
X0263187Y0280211D01*
X0262806Y0280313D01*
X0261124Y0280313D01*
X0261124Y0274967D01*
X0264108Y0274967D01*
X0264108Y0279010D01*
X0264006Y0279392D01*
X0264108Y0278378D02*
X0268192Y0278378D01*
X0268192Y0277379D02*
X0264108Y0277379D01*
X0264108Y0276381D02*
X0268192Y0276381D01*
X0268192Y0275382D02*
X0264108Y0275382D01*
X0264108Y0273385D02*
X0268192Y0273385D01*
X0268192Y0272387D02*
X0264108Y0272387D01*
X0264108Y0271388D02*
X0268192Y0271388D01*
X0268192Y0270390D02*
X0264108Y0270390D01*
X0263901Y0269391D02*
X0268248Y0269391D01*
X0268192Y0274384D02*
X0261124Y0274384D01*
X0261124Y0275382D02*
X0260155Y0275382D01*
X0260155Y0276381D02*
X0261124Y0276381D01*
X0261124Y0277379D02*
X0260155Y0277379D01*
X0260155Y0278378D02*
X0261124Y0278378D01*
X0261124Y0279376D02*
X0260155Y0279376D01*
X0260155Y0273385D02*
X0261124Y0273385D01*
X0261124Y0272387D02*
X0260155Y0272387D01*
X0260155Y0271388D02*
X0261124Y0271388D01*
X0261124Y0270390D02*
X0260155Y0270390D01*
X0260155Y0269391D02*
X0261124Y0269391D01*
X0281758Y0280375D02*
X0293797Y0280375D01*
X0293192Y0279376D02*
X0289010Y0279376D01*
X0289006Y0279392D02*
X0288809Y0279734D01*
X0288529Y0280013D01*
X0288187Y0280211D01*
X0287806Y0280313D01*
X0286124Y0280313D01*
X0286124Y0274967D01*
X0289108Y0274967D01*
X0289108Y0279010D01*
X0289006Y0279392D01*
X0289108Y0278378D02*
X0293192Y0278378D01*
X0293192Y0277379D02*
X0289108Y0277379D01*
X0289108Y0276381D02*
X0293192Y0276381D01*
X0293192Y0275382D02*
X0289108Y0275382D01*
X0289108Y0273385D02*
X0293192Y0273385D01*
X0293192Y0272387D02*
X0289108Y0272387D01*
X0289108Y0271388D02*
X0293192Y0271388D01*
X0293192Y0270390D02*
X0289108Y0270390D01*
X0288901Y0269391D02*
X0293248Y0269391D01*
X0293192Y0274384D02*
X0286124Y0274384D01*
X0286124Y0275382D02*
X0285155Y0275382D01*
X0285155Y0276381D02*
X0286124Y0276381D01*
X0286124Y0277379D02*
X0285155Y0277379D01*
X0285155Y0278378D02*
X0286124Y0278378D01*
X0286124Y0279376D02*
X0285155Y0279376D01*
X0285155Y0273385D02*
X0286124Y0273385D01*
X0286124Y0272387D02*
X0285155Y0272387D01*
X0285155Y0271388D02*
X0286124Y0271388D01*
X0286124Y0270390D02*
X0285155Y0270390D01*
X0285155Y0269391D02*
X0286124Y0269391D01*
X0306758Y0280375D02*
X0318797Y0280375D01*
X0318192Y0279376D02*
X0314010Y0279376D01*
X0314006Y0279392D02*
X0313809Y0279734D01*
X0313529Y0280013D01*
X0313187Y0280211D01*
X0312806Y0280313D01*
X0311124Y0280313D01*
X0311124Y0274967D01*
X0314108Y0274967D01*
X0314108Y0279010D01*
X0314006Y0279392D01*
X0314108Y0278378D02*
X0318192Y0278378D01*
X0318192Y0277379D02*
X0314108Y0277379D01*
X0314108Y0276381D02*
X0318192Y0276381D01*
X0318192Y0275382D02*
X0314108Y0275382D01*
X0314108Y0273385D02*
X0318192Y0273385D01*
X0318192Y0272387D02*
X0314108Y0272387D01*
X0314108Y0271388D02*
X0318192Y0271388D01*
X0318192Y0270390D02*
X0314108Y0270390D01*
X0313901Y0269391D02*
X0318248Y0269391D01*
X0318192Y0274384D02*
X0311124Y0274384D01*
X0311124Y0275382D02*
X0310155Y0275382D01*
X0310155Y0276381D02*
X0311124Y0276381D01*
X0311124Y0277379D02*
X0310155Y0277379D01*
X0310155Y0278378D02*
X0311124Y0278378D01*
X0311124Y0279376D02*
X0310155Y0279376D01*
X0310155Y0273385D02*
X0311124Y0273385D01*
X0311124Y0272387D02*
X0310155Y0272387D01*
X0310155Y0271388D02*
X0311124Y0271388D01*
X0311124Y0270390D02*
X0310155Y0270390D01*
X0310155Y0269391D02*
X0311124Y0269391D01*
X0331758Y0280375D02*
X0344049Y0280375D01*
X0343192Y0279376D02*
X0339010Y0279376D01*
X0339006Y0279392D02*
X0338809Y0279734D01*
X0338529Y0280013D01*
X0338187Y0280211D01*
X0337806Y0280313D01*
X0336124Y0280313D01*
X0336124Y0274967D01*
X0339108Y0274967D01*
X0339108Y0279010D01*
X0339006Y0279392D01*
X0339108Y0278378D02*
X0343192Y0278378D01*
X0343192Y0277379D02*
X0339108Y0277379D01*
X0339108Y0276381D02*
X0343192Y0276381D01*
X0343192Y0275382D02*
X0339108Y0275382D01*
X0339108Y0273385D02*
X0343192Y0273385D01*
X0343192Y0272387D02*
X0339108Y0272387D01*
X0339108Y0271388D02*
X0343192Y0271388D01*
X0343192Y0270390D02*
X0339108Y0270390D01*
X0338901Y0269391D02*
X0343248Y0269391D01*
X0343192Y0274384D02*
X0336124Y0274384D01*
X0336124Y0275382D02*
X0335155Y0275382D01*
X0335155Y0276381D02*
X0336124Y0276381D01*
X0336124Y0277379D02*
X0335155Y0277379D01*
X0335155Y0278378D02*
X0336124Y0278378D01*
X0336124Y0279376D02*
X0335155Y0279376D01*
X0335155Y0273385D02*
X0336124Y0273385D01*
X0336124Y0272387D02*
X0335155Y0272387D01*
X0335155Y0271388D02*
X0336124Y0271388D01*
X0336124Y0270390D02*
X0335155Y0270390D01*
X0335155Y0269391D02*
X0336124Y0269391D01*
X0356758Y0280375D02*
X0378297Y0280375D01*
X0378579Y0279376D02*
X0364010Y0279376D01*
X0364006Y0279392D02*
X0363809Y0279734D01*
X0363529Y0280013D01*
X0363187Y0280211D01*
X0362806Y0280313D01*
X0361124Y0280313D01*
X0361124Y0274967D01*
X0364108Y0274967D01*
X0364108Y0279010D01*
X0364006Y0279392D01*
X0364108Y0278378D02*
X0378350Y0278378D01*
X0378350Y0277379D02*
X0364108Y0277379D01*
X0364108Y0276381D02*
X0378472Y0276381D01*
X0378886Y0275382D02*
X0364108Y0275382D01*
X0364108Y0273385D02*
X0380478Y0273385D01*
X0381396Y0272387D02*
X0364108Y0272387D01*
X0364108Y0271388D02*
X0380034Y0271388D01*
X0379259Y0270390D02*
X0364108Y0270390D01*
X0363901Y0269391D02*
X0378816Y0269391D01*
X0379479Y0274384D02*
X0361124Y0274384D01*
X0361124Y0275382D02*
X0360155Y0275382D01*
X0360155Y0276381D02*
X0361124Y0276381D01*
X0361124Y0277379D02*
X0360155Y0277379D01*
X0360155Y0278378D02*
X0361124Y0278378D01*
X0361124Y0279376D02*
X0360155Y0279376D01*
X0360155Y0273385D02*
X0361124Y0273385D01*
X0361124Y0272387D02*
X0360155Y0272387D01*
X0360155Y0271388D02*
X0361124Y0271388D01*
X0361124Y0270390D02*
X0360155Y0270390D01*
X0360155Y0269391D02*
X0361124Y0269391D01*
X0386610Y0263400D02*
X0386650Y0263400D01*
X0386650Y0303341D02*
X0381412Y0303341D01*
X0380414Y0304339D02*
X0386650Y0304339D01*
X0386650Y0315323D02*
X0384522Y0315323D01*
X0385712Y0316321D02*
X0386650Y0316321D01*
X0386062Y0316615D02*
X0386062Y0316615D01*
X0386062Y0316615D01*
X0386469Y0317320D02*
X0386650Y0317320D01*
X0386557Y0215472D02*
X0386650Y0215472D01*
X0386650Y0214473D02*
X0385893Y0214473D01*
X0386062Y0214615D02*
X0386062Y0214615D01*
X0386062Y0214615D01*
X0386650Y0213475D02*
X0384703Y0213475D01*
X0383501Y0212476D02*
X0386650Y0212476D01*
X0386650Y0211478D02*
X0380758Y0211478D01*
X0376742Y0211478D02*
X0102337Y0211478D01*
X0102337Y0210841D02*
X0102337Y0213605D01*
X0102234Y0213986D01*
X0102037Y0214328D01*
X0101758Y0214608D01*
X0101416Y0214805D01*
X0101034Y0214907D01*
X0099746Y0214907D01*
X0099746Y0210841D01*
X0102337Y0210841D01*
X0102337Y0210479D02*
X0386650Y0210479D01*
X0386650Y0209481D02*
X0102337Y0209481D01*
X0102337Y0208482D02*
X0386650Y0208482D01*
X0386650Y0207484D02*
X0102217Y0207484D01*
X0099746Y0207484D02*
X0099565Y0207484D01*
X0099565Y0208482D02*
X0099746Y0208482D01*
X0099746Y0209481D02*
X0099565Y0209481D01*
X0099565Y0210479D02*
X0099746Y0210479D01*
X0099746Y0211478D02*
X0099565Y0211478D01*
X0099565Y0212476D02*
X0099746Y0212476D01*
X0099746Y0213475D02*
X0099565Y0213475D01*
X0099565Y0214473D02*
X0099746Y0214473D01*
X0101892Y0214473D02*
X0371607Y0214473D01*
X0372797Y0213475D02*
X0102337Y0213475D01*
X0102337Y0212476D02*
X0373999Y0212476D01*
X0380262Y0202491D02*
X0386650Y0202491D01*
X0386650Y0203489D02*
X0136976Y0203489D01*
X0134524Y0203489D02*
X0098018Y0203489D01*
X0098018Y0202491D02*
X0133248Y0202491D01*
X0132810Y0201492D02*
X0098219Y0201492D01*
X0098658Y0200494D02*
X0132750Y0200494D01*
X0133022Y0199495D02*
X0098718Y0199495D01*
X0098447Y0198497D02*
X0133340Y0198497D01*
X0133340Y0197498D02*
X0098018Y0197498D01*
X0098018Y0196500D02*
X0133340Y0196500D01*
X0133340Y0195501D02*
X0098018Y0195501D01*
X0098018Y0194503D02*
X0118642Y0194503D01*
X0118192Y0193504D02*
X0100804Y0193504D01*
X0101703Y0192506D02*
X0118192Y0192506D01*
X0118192Y0191507D02*
X0102116Y0191507D01*
X0101200Y0188392D02*
X0101200Y0188350D01*
X0106950Y0188350D01*
X0106950Y0188150D01*
X0101200Y0188150D01*
X0101200Y0186853D01*
X0101302Y0186471D01*
X0101500Y0186129D01*
X0101737Y0185891D01*
X0101000Y0185154D01*
X0101000Y0183308D01*
X0100676Y0183632D01*
X0099426Y0184150D01*
X0098074Y0184150D01*
X0096824Y0183632D01*
X0095868Y0182676D01*
X0095350Y0181426D01*
X0095350Y0180074D01*
X0095868Y0178824D01*
X0096750Y0177942D01*
X0096750Y0175255D01*
X0093950Y0172455D01*
X0093950Y0183194D01*
X0094791Y0183194D01*
X0095894Y0183651D01*
X0096738Y0184495D01*
X0097194Y0185598D01*
X0097194Y0186366D01*
X0098178Y0187350D01*
X0099426Y0187350D01*
X0100676Y0187868D01*
X0101200Y0188392D01*
X0101200Y0187513D02*
X0099821Y0187513D01*
X0101290Y0186515D02*
X0097343Y0186515D01*
X0097161Y0185516D02*
X0101362Y0185516D01*
X0101000Y0184518D02*
X0096747Y0184518D01*
X0096711Y0183519D02*
X0095575Y0183519D01*
X0095803Y0182521D02*
X0093950Y0182521D01*
X0093950Y0181522D02*
X0095390Y0181522D01*
X0095350Y0180524D02*
X0093950Y0180524D01*
X0093950Y0179525D02*
X0095577Y0179525D01*
X0096165Y0178527D02*
X0093950Y0178527D01*
X0093950Y0177528D02*
X0096750Y0177528D01*
X0096750Y0176530D02*
X0093950Y0176530D01*
X0093950Y0175531D02*
X0096750Y0175531D01*
X0096027Y0174533D02*
X0093950Y0174533D01*
X0093950Y0173534D02*
X0095029Y0173534D01*
X0094030Y0172536D02*
X0093950Y0172536D01*
X0100518Y0167543D02*
X0118192Y0167543D01*
X0118192Y0168542D02*
X0101350Y0168542D01*
X0101929Y0169540D02*
X0118192Y0169540D01*
X0118192Y0170539D02*
X0112293Y0170539D01*
X0113100Y0171537D02*
X0118192Y0171537D01*
X0118192Y0172536D02*
X0113100Y0172536D01*
X0113100Y0173534D02*
X0118192Y0173534D01*
X0118192Y0174533D02*
X0113100Y0174533D01*
X0112723Y0175531D02*
X0118192Y0175531D01*
X0119095Y0166545D02*
X0100762Y0166545D01*
X0100762Y0165546D02*
X0383250Y0165546D01*
X0383250Y0165250D02*
X0378564Y0165250D01*
X0378678Y0164532D01*
X0378931Y0163754D01*
X0379303Y0163025D01*
X0379784Y0162362D01*
X0380362Y0161784D01*
X0381025Y0161303D01*
X0381754Y0160931D01*
X0382532Y0160678D01*
X0383250Y0160564D01*
X0383250Y0165250D01*
X0383250Y0164548D02*
X0384250Y0164548D01*
X0384250Y0163549D02*
X0383250Y0163549D01*
X0383250Y0162551D02*
X0384250Y0162551D01*
X0384250Y0161552D02*
X0383250Y0161552D01*
X0380681Y0161552D02*
X0100132Y0161552D01*
X0100753Y0162551D02*
X0379647Y0162551D01*
X0379035Y0163549D02*
X0100762Y0163549D01*
X0097581Y0164548D02*
X0378676Y0164548D01*
X0378611Y0166545D02*
X0356712Y0166545D01*
X0360155Y0167543D02*
X0361124Y0167543D01*
X0361124Y0168542D02*
X0360155Y0168542D01*
X0360155Y0169540D02*
X0361124Y0169540D01*
X0361124Y0170539D02*
X0360155Y0170539D01*
X0360155Y0171537D02*
X0361124Y0171537D01*
X0361124Y0172536D02*
X0379328Y0172536D01*
X0378823Y0173534D02*
X0364108Y0173534D01*
X0364108Y0172967D02*
X0364108Y0177010D01*
X0364006Y0177392D01*
X0363809Y0177734D01*
X0363529Y0178013D01*
X0363187Y0178211D01*
X0362806Y0178313D01*
X0361124Y0178313D01*
X0361124Y0172967D01*
X0364108Y0172967D01*
X0364108Y0171537D02*
X0380326Y0171537D01*
X0381694Y0170539D02*
X0364108Y0170539D01*
X0364108Y0169540D02*
X0380186Y0169540D01*
X0379351Y0168542D02*
X0364108Y0168542D01*
X0363989Y0167543D02*
X0378865Y0167543D01*
X0386650Y0160553D02*
X0098715Y0160553D01*
X0099713Y0159555D02*
X0386650Y0159555D01*
X0386650Y0158556D02*
X0130510Y0158556D01*
X0130462Y0158640D02*
X0130183Y0158919D01*
X0129841Y0159116D01*
X0129459Y0159218D01*
X0127581Y0159218D01*
X0127581Y0156234D01*
X0130762Y0156234D01*
X0130762Y0157916D01*
X0130660Y0158297D01*
X0130462Y0158640D01*
X0130762Y0157558D02*
X0386650Y0157558D01*
X0386650Y0156559D02*
X0130762Y0156559D01*
X0130762Y0155266D02*
X0127581Y0155266D01*
X0127581Y0156234D01*
X0126612Y0156234D01*
X0126612Y0159218D01*
X0124734Y0159218D01*
X0124352Y0159116D01*
X0124010Y0158919D01*
X0123891Y0158800D01*
X0123273Y0159418D01*
X0117534Y0159418D01*
X0116538Y0158423D01*
X0116538Y0158050D01*
X0114405Y0158050D01*
X0114034Y0158420D01*
X0112877Y0158900D01*
X0111623Y0158900D01*
X0110466Y0158420D01*
X0109580Y0157534D01*
X0109100Y0156377D01*
X0109100Y0155123D01*
X0109580Y0153966D01*
X0110466Y0153080D01*
X0111623Y0152600D01*
X0112877Y0152600D01*
X0114034Y0153080D01*
X0114405Y0153450D01*
X0116538Y0153450D01*
X0116538Y0153077D01*
X0117534Y0152081D01*
X0123273Y0152081D01*
X0123891Y0152700D01*
X0124010Y0152581D01*
X0124352Y0152384D01*
X0124734Y0152281D01*
X0126612Y0152281D01*
X0126612Y0155266D01*
X0127581Y0155266D01*
X0127581Y0152281D01*
X0129459Y0152281D01*
X0129841Y0152384D01*
X0130183Y0152581D01*
X0130462Y0152860D01*
X0130660Y0153203D01*
X0130762Y0153584D01*
X0130762Y0155266D01*
X0130762Y0154562D02*
X0386650Y0154562D01*
X0386650Y0153564D02*
X0130756Y0153564D01*
X0130155Y0152565D02*
X0386650Y0152565D01*
X0386650Y0151567D02*
X0102537Y0151567D01*
X0102537Y0152565D02*
X0117050Y0152565D01*
X0116672Y0158556D02*
X0113706Y0158556D01*
X0110794Y0158556D02*
X0100712Y0158556D01*
X0101655Y0157558D02*
X0109603Y0157558D01*
X0109176Y0156559D02*
X0101655Y0156559D01*
X0101655Y0155561D02*
X0109100Y0155561D01*
X0109332Y0154562D02*
X0102086Y0154562D01*
X0102537Y0153564D02*
X0109981Y0153564D01*
X0102537Y0150568D02*
X0386650Y0150568D01*
X0386650Y0149570D02*
X0382001Y0149570D01*
X0384053Y0148571D02*
X0386650Y0148571D01*
X0386650Y0147573D02*
X0385243Y0147573D01*
X0386241Y0146574D02*
X0386650Y0146574D01*
X0386650Y0155561D02*
X0127581Y0155561D01*
X0127581Y0156559D02*
X0126612Y0156559D01*
X0126612Y0157558D02*
X0127581Y0157558D01*
X0127581Y0158556D02*
X0126612Y0158556D01*
X0126612Y0154562D02*
X0127581Y0154562D01*
X0127581Y0153564D02*
X0126612Y0153564D01*
X0126612Y0152565D02*
X0127581Y0152565D01*
X0124037Y0152565D02*
X0123757Y0152565D01*
X0124626Y0166545D02*
X0125787Y0166545D01*
X0131713Y0166545D02*
X0144095Y0166545D01*
X0143192Y0167543D02*
X0138989Y0167543D01*
X0139108Y0168542D02*
X0143192Y0168542D01*
X0143192Y0169540D02*
X0139108Y0169540D01*
X0139108Y0170539D02*
X0143192Y0170539D01*
X0143192Y0171537D02*
X0139108Y0171537D01*
X0139108Y0172967D02*
X0136124Y0172967D01*
X0136124Y0178313D01*
X0137806Y0178313D01*
X0138187Y0178211D01*
X0138529Y0178013D01*
X0138809Y0177734D01*
X0139006Y0177392D01*
X0139108Y0177010D01*
X0139108Y0172967D01*
X0139108Y0173534D02*
X0143192Y0173534D01*
X0143192Y0172536D02*
X0136124Y0172536D01*
X0136124Y0173534D02*
X0135155Y0173534D01*
X0135155Y0174533D02*
X0136124Y0174533D01*
X0136124Y0175531D02*
X0135155Y0175531D01*
X0135155Y0176530D02*
X0136124Y0176530D01*
X0136124Y0177528D02*
X0135155Y0177528D01*
X0138927Y0177528D02*
X0143203Y0177528D01*
X0143192Y0176530D02*
X0139108Y0176530D01*
X0139108Y0175531D02*
X0143192Y0175531D01*
X0143192Y0174533D02*
X0139108Y0174533D01*
X0136124Y0171537D02*
X0135155Y0171537D01*
X0135155Y0170539D02*
X0136124Y0170539D01*
X0136124Y0169540D02*
X0135155Y0169540D01*
X0135155Y0168542D02*
X0136124Y0168542D01*
X0136124Y0167543D02*
X0135155Y0167543D01*
X0130750Y0178527D02*
X0144645Y0178527D01*
X0155750Y0178527D02*
X0168645Y0178527D01*
X0168203Y0177528D02*
X0163927Y0177528D01*
X0164006Y0177392D02*
X0163809Y0177734D01*
X0163529Y0178013D01*
X0163187Y0178211D01*
X0162806Y0178313D01*
X0161124Y0178313D01*
X0161124Y0172967D01*
X0164108Y0172967D01*
X0164108Y0177010D01*
X0164006Y0177392D01*
X0164108Y0176530D02*
X0168192Y0176530D01*
X0168192Y0175531D02*
X0164108Y0175531D01*
X0164108Y0174533D02*
X0168192Y0174533D01*
X0168192Y0173534D02*
X0164108Y0173534D01*
X0164108Y0171537D02*
X0168192Y0171537D01*
X0168192Y0170539D02*
X0164108Y0170539D01*
X0164108Y0169540D02*
X0168192Y0169540D01*
X0168192Y0168542D02*
X0164108Y0168542D01*
X0163989Y0167543D02*
X0168192Y0167543D01*
X0169095Y0166545D02*
X0156712Y0166545D01*
X0160155Y0167543D02*
X0161124Y0167543D01*
X0161124Y0168542D02*
X0160155Y0168542D01*
X0160155Y0169540D02*
X0161124Y0169540D01*
X0161124Y0170539D02*
X0160155Y0170539D01*
X0160155Y0171537D02*
X0161124Y0171537D01*
X0161124Y0172536D02*
X0168192Y0172536D01*
X0174626Y0166545D02*
X0175787Y0166545D01*
X0181712Y0166545D02*
X0194095Y0166545D01*
X0193192Y0167543D02*
X0188989Y0167543D01*
X0189108Y0168542D02*
X0193192Y0168542D01*
X0193192Y0169540D02*
X0189108Y0169540D01*
X0189108Y0170539D02*
X0193192Y0170539D01*
X0193192Y0171537D02*
X0189108Y0171537D01*
X0189108Y0172967D02*
X0186124Y0172967D01*
X0186124Y0178313D01*
X0187806Y0178313D01*
X0188187Y0178211D01*
X0188529Y0178013D01*
X0188809Y0177734D01*
X0189006Y0177392D01*
X0189108Y0177010D01*
X0189108Y0172967D01*
X0189108Y0173534D02*
X0193192Y0173534D01*
X0193192Y0172536D02*
X0186124Y0172536D01*
X0186124Y0173534D02*
X0185155Y0173534D01*
X0185155Y0174533D02*
X0186124Y0174533D01*
X0186124Y0175531D02*
X0185155Y0175531D01*
X0185155Y0176530D02*
X0186124Y0176530D01*
X0186124Y0177528D02*
X0185155Y0177528D01*
X0188927Y0177528D02*
X0193203Y0177528D01*
X0193192Y0176530D02*
X0189108Y0176530D01*
X0189108Y0175531D02*
X0193192Y0175531D01*
X0193192Y0174533D02*
X0189108Y0174533D01*
X0186124Y0171537D02*
X0185155Y0171537D01*
X0185155Y0170539D02*
X0186124Y0170539D01*
X0186124Y0169540D02*
X0185155Y0169540D01*
X0185155Y0168542D02*
X0186124Y0168542D01*
X0186124Y0167543D02*
X0185155Y0167543D01*
X0180750Y0178527D02*
X0193645Y0178527D01*
X0205750Y0178527D02*
X0218645Y0178527D01*
X0218203Y0177528D02*
X0213927Y0177528D01*
X0214006Y0177392D02*
X0213809Y0177734D01*
X0213529Y0178013D01*
X0213187Y0178211D01*
X0212806Y0178313D01*
X0211124Y0178313D01*
X0211124Y0172967D01*
X0214108Y0172967D01*
X0214108Y0177010D01*
X0214006Y0177392D01*
X0214108Y0176530D02*
X0218192Y0176530D01*
X0218192Y0175531D02*
X0214108Y0175531D01*
X0214108Y0174533D02*
X0218192Y0174533D01*
X0218192Y0173534D02*
X0214108Y0173534D01*
X0214108Y0171537D02*
X0218192Y0171537D01*
X0218192Y0170539D02*
X0214108Y0170539D01*
X0214108Y0169540D02*
X0218192Y0169540D01*
X0218192Y0168542D02*
X0214108Y0168542D01*
X0213989Y0167543D02*
X0218192Y0167543D01*
X0219095Y0166545D02*
X0206712Y0166545D01*
X0210155Y0167543D02*
X0211124Y0167543D01*
X0211124Y0168542D02*
X0210155Y0168542D01*
X0210155Y0169540D02*
X0211124Y0169540D01*
X0211124Y0170539D02*
X0210155Y0170539D01*
X0210155Y0171537D02*
X0211124Y0171537D01*
X0211124Y0172536D02*
X0218192Y0172536D01*
X0224626Y0166545D02*
X0225787Y0166545D01*
X0231712Y0166545D02*
X0244095Y0166545D01*
X0243192Y0167543D02*
X0238989Y0167543D01*
X0239108Y0168542D02*
X0243192Y0168542D01*
X0243192Y0169540D02*
X0239108Y0169540D01*
X0239108Y0170539D02*
X0243192Y0170539D01*
X0243192Y0171537D02*
X0239108Y0171537D01*
X0239108Y0172967D02*
X0239108Y0177010D01*
X0239006Y0177392D01*
X0238809Y0177734D01*
X0238529Y0178013D01*
X0238187Y0178211D01*
X0237806Y0178313D01*
X0236124Y0178313D01*
X0236124Y0172967D01*
X0239108Y0172967D01*
X0239108Y0173534D02*
X0243192Y0173534D01*
X0243192Y0172536D02*
X0236124Y0172536D01*
X0236124Y0173534D02*
X0235155Y0173534D01*
X0235155Y0174533D02*
X0236124Y0174533D01*
X0236124Y0175531D02*
X0235155Y0175531D01*
X0235155Y0176530D02*
X0236124Y0176530D01*
X0236124Y0177528D02*
X0235155Y0177528D01*
X0238927Y0177528D02*
X0243203Y0177528D01*
X0243192Y0176530D02*
X0239108Y0176530D01*
X0239108Y0175531D02*
X0243192Y0175531D01*
X0243192Y0174533D02*
X0239108Y0174533D01*
X0236124Y0171537D02*
X0235155Y0171537D01*
X0235155Y0170539D02*
X0236124Y0170539D01*
X0236124Y0169540D02*
X0235155Y0169540D01*
X0235155Y0168542D02*
X0236124Y0168542D01*
X0236124Y0167543D02*
X0235155Y0167543D01*
X0230750Y0178527D02*
X0243645Y0178527D01*
X0255750Y0178527D02*
X0268645Y0178527D01*
X0268203Y0177528D02*
X0263927Y0177528D01*
X0264006Y0177392D02*
X0263809Y0177734D01*
X0263529Y0178013D01*
X0263187Y0178211D01*
X0262806Y0178313D01*
X0261124Y0178313D01*
X0261124Y0172967D01*
X0264108Y0172967D01*
X0264108Y0177010D01*
X0264006Y0177392D01*
X0264108Y0176530D02*
X0268192Y0176530D01*
X0268192Y0175531D02*
X0264108Y0175531D01*
X0264108Y0174533D02*
X0268192Y0174533D01*
X0268192Y0173534D02*
X0264108Y0173534D01*
X0264108Y0171537D02*
X0268192Y0171537D01*
X0268192Y0170539D02*
X0264108Y0170539D01*
X0264108Y0169540D02*
X0268192Y0169540D01*
X0268192Y0168542D02*
X0264108Y0168542D01*
X0263989Y0167543D02*
X0268192Y0167543D01*
X0269095Y0166545D02*
X0256712Y0166545D01*
X0260155Y0167543D02*
X0261124Y0167543D01*
X0261124Y0168542D02*
X0260155Y0168542D01*
X0260155Y0169540D02*
X0261124Y0169540D01*
X0261124Y0170539D02*
X0260155Y0170539D01*
X0260155Y0171537D02*
X0261124Y0171537D01*
X0261124Y0172536D02*
X0268192Y0172536D01*
X0261124Y0173534D02*
X0260155Y0173534D01*
X0260155Y0174533D02*
X0261124Y0174533D01*
X0261124Y0175531D02*
X0260155Y0175531D01*
X0260155Y0176530D02*
X0261124Y0176530D01*
X0261124Y0177528D02*
X0260155Y0177528D01*
X0250787Y0166545D02*
X0249626Y0166545D01*
X0274626Y0166545D02*
X0275787Y0166545D01*
X0281712Y0166545D02*
X0294095Y0166545D01*
X0293192Y0167543D02*
X0288989Y0167543D01*
X0289108Y0168542D02*
X0293192Y0168542D01*
X0293192Y0169540D02*
X0289108Y0169540D01*
X0289108Y0170539D02*
X0293192Y0170539D01*
X0293192Y0171537D02*
X0289108Y0171537D01*
X0289108Y0172967D02*
X0289108Y0177010D01*
X0289006Y0177392D01*
X0288809Y0177734D01*
X0288529Y0178013D01*
X0288187Y0178211D01*
X0287806Y0178313D01*
X0286124Y0178313D01*
X0286124Y0172967D01*
X0289108Y0172967D01*
X0289108Y0173534D02*
X0293192Y0173534D01*
X0293192Y0172536D02*
X0286124Y0172536D01*
X0286124Y0173534D02*
X0285155Y0173534D01*
X0285155Y0174533D02*
X0286124Y0174533D01*
X0286124Y0175531D02*
X0285155Y0175531D01*
X0285155Y0176530D02*
X0286124Y0176530D01*
X0286124Y0177528D02*
X0285155Y0177528D01*
X0288927Y0177528D02*
X0293203Y0177528D01*
X0293192Y0176530D02*
X0289108Y0176530D01*
X0289108Y0175531D02*
X0293192Y0175531D01*
X0293192Y0174533D02*
X0289108Y0174533D01*
X0286124Y0171537D02*
X0285155Y0171537D01*
X0285155Y0170539D02*
X0286124Y0170539D01*
X0286124Y0169540D02*
X0285155Y0169540D01*
X0285155Y0168542D02*
X0286124Y0168542D01*
X0286124Y0167543D02*
X0285155Y0167543D01*
X0280750Y0178527D02*
X0293645Y0178527D01*
X0305750Y0178527D02*
X0318645Y0178527D01*
X0318203Y0177528D02*
X0313927Y0177528D01*
X0314006Y0177392D02*
X0313809Y0177734D01*
X0313529Y0178013D01*
X0313187Y0178211D01*
X0312806Y0178313D01*
X0311124Y0178313D01*
X0311124Y0172967D01*
X0314108Y0172967D01*
X0314108Y0177010D01*
X0314006Y0177392D01*
X0314108Y0176530D02*
X0318192Y0176530D01*
X0318192Y0175531D02*
X0314108Y0175531D01*
X0314108Y0174533D02*
X0318192Y0174533D01*
X0318192Y0173534D02*
X0314108Y0173534D01*
X0314108Y0171537D02*
X0318192Y0171537D01*
X0318192Y0170539D02*
X0314108Y0170539D01*
X0314108Y0169540D02*
X0318192Y0169540D01*
X0318192Y0168542D02*
X0314108Y0168542D01*
X0313989Y0167543D02*
X0318192Y0167543D01*
X0319095Y0166545D02*
X0306713Y0166545D01*
X0310155Y0167543D02*
X0311124Y0167543D01*
X0311124Y0168542D02*
X0310155Y0168542D01*
X0310155Y0169540D02*
X0311124Y0169540D01*
X0311124Y0170539D02*
X0310155Y0170539D01*
X0310155Y0171537D02*
X0311124Y0171537D01*
X0311124Y0172536D02*
X0318192Y0172536D01*
X0311124Y0173534D02*
X0310155Y0173534D01*
X0310155Y0174533D02*
X0311124Y0174533D01*
X0311124Y0175531D02*
X0310155Y0175531D01*
X0310155Y0176530D02*
X0311124Y0176530D01*
X0311124Y0177528D02*
X0310155Y0177528D01*
X0300787Y0166545D02*
X0299626Y0166545D01*
X0324626Y0166545D02*
X0325787Y0166545D01*
X0331712Y0166545D02*
X0344095Y0166545D01*
X0343192Y0167543D02*
X0338989Y0167543D01*
X0339108Y0168542D02*
X0343192Y0168542D01*
X0343192Y0169540D02*
X0339108Y0169540D01*
X0339108Y0170539D02*
X0343192Y0170539D01*
X0343192Y0171537D02*
X0339108Y0171537D01*
X0339108Y0172967D02*
X0339108Y0177010D01*
X0339006Y0177392D01*
X0338809Y0177734D01*
X0338529Y0178013D01*
X0338187Y0178211D01*
X0337806Y0178313D01*
X0336124Y0178313D01*
X0336124Y0172967D01*
X0339108Y0172967D01*
X0339108Y0173534D02*
X0343192Y0173534D01*
X0343192Y0172536D02*
X0336124Y0172536D01*
X0336124Y0173534D02*
X0335155Y0173534D01*
X0335155Y0174533D02*
X0336124Y0174533D01*
X0336124Y0175531D02*
X0335155Y0175531D01*
X0335155Y0176530D02*
X0336124Y0176530D01*
X0336124Y0177528D02*
X0335155Y0177528D01*
X0338927Y0177528D02*
X0343203Y0177528D01*
X0343192Y0176530D02*
X0339108Y0176530D01*
X0339108Y0175531D02*
X0343192Y0175531D01*
X0343192Y0174533D02*
X0339108Y0174533D01*
X0336124Y0171537D02*
X0335155Y0171537D01*
X0335155Y0170539D02*
X0336124Y0170539D01*
X0336124Y0169540D02*
X0335155Y0169540D01*
X0335155Y0168542D02*
X0336124Y0168542D01*
X0336124Y0167543D02*
X0335155Y0167543D01*
X0330750Y0178527D02*
X0344751Y0178527D01*
X0355750Y0178527D02*
X0378145Y0178527D01*
X0378642Y0177528D02*
X0363927Y0177528D01*
X0364108Y0176530D02*
X0378350Y0176530D01*
X0378350Y0175531D02*
X0364108Y0175531D01*
X0364108Y0174533D02*
X0378409Y0174533D01*
X0361124Y0174533D02*
X0360155Y0174533D01*
X0360155Y0175531D02*
X0361124Y0175531D01*
X0361124Y0176530D02*
X0360155Y0176530D01*
X0360155Y0177528D02*
X0361124Y0177528D01*
X0361124Y0173534D02*
X0360155Y0173534D01*
X0350787Y0166545D02*
X0349626Y0166545D01*
X0373447Y0148571D02*
X0102537Y0148571D01*
X0102537Y0147573D02*
X0372257Y0147573D01*
X0371438Y0146885D02*
X0371438Y0146885D01*
X0371438Y0146885D01*
X0371259Y0146574D02*
X0101723Y0146574D01*
X0102537Y0149570D02*
X0375499Y0149570D01*
X0373977Y0149016D02*
X0373977Y0149016D01*
X0380110Y0100643D02*
X0386650Y0100643D01*
X0386650Y0101641D02*
X0136609Y0101641D01*
X0164108Y0074682D02*
X0168192Y0074682D01*
X0168192Y0073683D02*
X0164108Y0073683D01*
X0164108Y0072684D02*
X0168192Y0072684D01*
X0168192Y0071686D02*
X0164108Y0071686D01*
X0189108Y0071686D02*
X0193192Y0071686D01*
X0193192Y0072684D02*
X0189108Y0072684D01*
X0189108Y0073683D02*
X0193192Y0073683D01*
X0193192Y0074682D02*
X0189108Y0074682D01*
X0116824Y0056708D02*
X0113339Y0056708D01*
X0066814Y0100643D02*
X0037920Y0100643D01*
X0038750Y0109205D02*
X0038750Y0109205D01*
X0034018Y0110628D02*
X0030850Y0110628D01*
X0030850Y0111626D02*
X0032457Y0111626D01*
X0032615Y0111438D02*
X0032615Y0111438D01*
X0032615Y0111438D01*
X0031619Y0112625D02*
X0030850Y0112625D01*
X0045016Y0133594D02*
X0053078Y0133594D01*
X0052079Y0134592D02*
X0045854Y0134592D01*
X0046692Y0135591D02*
X0051750Y0135591D01*
X0051750Y0136589D02*
X0047239Y0136589D01*
X0047602Y0137588D02*
X0051750Y0137588D01*
X0051750Y0138586D02*
X0047966Y0138586D01*
X0048150Y0139585D02*
X0051750Y0139585D01*
X0052255Y0140583D02*
X0048150Y0140583D01*
X0048150Y0141582D02*
X0053253Y0141582D01*
X0054132Y0142580D02*
X0048087Y0142580D01*
X0033497Y0148571D02*
X0030850Y0148571D01*
X0030850Y0147573D02*
X0032204Y0147573D01*
X0031366Y0146574D02*
X0030850Y0146574D01*
X0038671Y0183519D02*
X0038691Y0183519D01*
X0039084Y0184518D02*
X0039689Y0184518D01*
X0061886Y0197498D02*
X0062250Y0197498D01*
X0062669Y0198497D02*
X0061750Y0198497D01*
X0061481Y0199495D02*
X0063667Y0199495D01*
X0066328Y0196500D02*
X0076671Y0196500D01*
X0076750Y0196578D02*
X0076750Y0196578D01*
X0077670Y0197498D02*
X0067327Y0197498D01*
X0066250Y0195501D02*
X0075673Y0195501D01*
X0074674Y0194503D02*
X0066250Y0194503D01*
X0066250Y0193504D02*
X0073676Y0193504D01*
X0072677Y0192506D02*
X0066250Y0192506D01*
X0066250Y0191507D02*
X0071750Y0191507D01*
X0071750Y0190509D02*
X0066250Y0190509D01*
X0066250Y0189510D02*
X0071750Y0189510D01*
X0071750Y0188512D02*
X0066250Y0188512D01*
X0085844Y0206485D02*
X0038898Y0206485D01*
X0038654Y0207484D02*
X0084963Y0207484D01*
X0084963Y0208482D02*
X0038193Y0208482D01*
X0037373Y0209481D02*
X0084963Y0209481D01*
X0084963Y0210479D02*
X0035923Y0210479D01*
X0034281Y0212476D02*
X0030850Y0212476D01*
X0030850Y0213475D02*
X0032584Y0213475D01*
X0032615Y0213438D02*
X0032615Y0213438D01*
X0032615Y0213438D01*
X0031746Y0214473D02*
X0030850Y0214473D01*
X0030850Y0215472D02*
X0030908Y0215472D01*
X0030850Y0248422D02*
X0031239Y0248422D01*
X0030850Y0249421D02*
X0032077Y0249421D01*
X0033234Y0250420D02*
X0030850Y0250420D01*
X0038750Y0252295D02*
X0038750Y0252295D01*
X0098018Y0206485D02*
X0386650Y0206485D01*
X0386650Y0205487D02*
X0098018Y0205487D01*
X0098018Y0204488D02*
X0386650Y0204488D01*
X0386650Y0201492D02*
X0381260Y0201492D01*
X0386408Y0200494D02*
X0386650Y0200494D01*
X0386650Y0099644D02*
X0381108Y0099644D01*
X0386041Y0098646D02*
X0386650Y0098646D01*
X0344599Y0076679D02*
X0330750Y0076679D01*
X0383872Y0046723D02*
X0386650Y0046723D01*
X0386650Y0045725D02*
X0385062Y0045725D01*
X0386154Y0044726D02*
X0386650Y0044726D01*
X0211124Y0173534D02*
X0210155Y0173534D01*
X0210155Y0174533D02*
X0211124Y0174533D01*
X0211124Y0175531D02*
X0210155Y0175531D01*
X0210155Y0176530D02*
X0211124Y0176530D01*
X0211124Y0177528D02*
X0210155Y0177528D01*
X0200787Y0166545D02*
X0199626Y0166545D01*
X0161124Y0173534D02*
X0160155Y0173534D01*
X0160155Y0174533D02*
X0161124Y0174533D01*
X0161124Y0175531D02*
X0160155Y0175531D01*
X0160155Y0176530D02*
X0161124Y0176530D01*
X0161124Y0177528D02*
X0160155Y0177528D01*
X0150787Y0166545D02*
X0149626Y0166545D01*
X0118192Y0185516D02*
X0112738Y0185516D01*
X0112809Y0186515D02*
X0118192Y0186515D01*
X0118192Y0187513D02*
X0112900Y0187513D01*
X0112900Y0188350D02*
X0112900Y0189647D01*
X0112798Y0190029D01*
X0112600Y0190371D01*
X0112321Y0190650D01*
X0111979Y0190848D01*
X0111597Y0190950D01*
X0107150Y0190950D01*
X0107150Y0188350D01*
X0112900Y0188350D01*
X0112900Y0188512D02*
X0118192Y0188512D01*
X0118192Y0189510D02*
X0112900Y0189510D01*
X0112462Y0190509D02*
X0118192Y0190509D01*
X0114250Y0188250D02*
X0107050Y0188250D01*
X0106950Y0188512D02*
X0107150Y0188512D01*
X0107150Y0189510D02*
X0106950Y0189510D01*
X0106950Y0190509D02*
X0107150Y0190509D01*
X0101000Y0183519D02*
X0100789Y0183519D01*
X0125078Y0194503D02*
X0125335Y0194503D01*
X0132165Y0194503D02*
X0132422Y0194503D01*
X0091781Y0155750D02*
X0091781Y0150750D01*
D24*
X0087750Y0144750D03*
X0078750Y0155750D03*
X0076750Y0160750D03*
X0068750Y0165750D03*
X0066750Y0156750D03*
X0063750Y0150750D03*
X0058750Y0162750D03*
X0052250Y0169750D03*
X0064250Y0174250D03*
X0073750Y0176250D03*
X0073694Y0186194D03*
X0073750Y0195750D03*
X0087750Y0200750D03*
X0095719Y0199750D03*
X0099750Y0203750D03*
X0094194Y0186194D03*
X0094650Y0182994D03*
X0088750Y0176750D03*
X0101750Y0164750D03*
X0095750Y0157250D03*
X0108750Y0149750D03*
X0114250Y0188250D03*
X0135750Y0200750D03*
X0087750Y0246750D03*
X0078750Y0257750D03*
X0076750Y0262750D03*
X0068750Y0267750D03*
X0066750Y0258750D03*
X0063750Y0252750D03*
X0058750Y0264750D03*
X0052250Y0271750D03*
X0064250Y0276250D03*
X0073750Y0278250D03*
X0073694Y0288194D03*
X0073750Y0297750D03*
X0087750Y0302750D03*
X0095719Y0301750D03*
X0099750Y0305750D03*
X0114250Y0290250D03*
X0094194Y0288194D03*
X0094650Y0284994D03*
X0088750Y0278750D03*
X0101750Y0266750D03*
X0095750Y0259250D03*
X0108750Y0251750D03*
X0058750Y0300250D03*
X0135750Y0302750D03*
X0058750Y0198250D03*
X0099750Y0101750D03*
X0095719Y0097750D03*
X0087750Y0098750D03*
X0073750Y0093750D03*
X0073694Y0084194D03*
X0073750Y0074250D03*
X0064250Y0072250D03*
X0068750Y0063750D03*
X0066750Y0054750D03*
X0063750Y0048750D03*
X0058750Y0060750D03*
X0052250Y0067750D03*
X0076750Y0058750D03*
X0078750Y0053750D03*
X0087750Y0042750D03*
X0095750Y0055250D03*
X0101750Y0062750D03*
X0088750Y0074750D03*
X0094650Y0080994D03*
X0094194Y0084194D03*
X0114250Y0086250D03*
X0135750Y0098750D03*
X0108750Y0047750D03*
X0058750Y0096250D03*
D25*
X0058750Y0092096D01*
X0058750Y0085404D02*
X0058750Y0080750D01*
X0040750Y0080750D01*
X0033750Y0073750D01*
X0058750Y0072096D02*
X0058750Y0075719D01*
X0060250Y0077219D01*
X0060250Y0077250D01*
X0062750Y0077250D01*
X0064250Y0075750D01*
X0064250Y0072250D01*
X0068250Y0075404D02*
X0068250Y0064250D01*
X0068750Y0063750D01*
X0058750Y0065404D02*
X0058750Y0060750D01*
X0073750Y0074250D02*
X0075750Y0076250D01*
X0080550Y0076250D01*
X0085273Y0078350D02*
X0074953Y0078350D01*
X0071206Y0082096D01*
X0068250Y0082096D01*
X0064250Y0082250D02*
X0064250Y0095250D01*
X0067750Y0098750D01*
X0087750Y0098750D01*
X0087844Y0098844D01*
X0087844Y0108750D01*
X0091781Y0108750D02*
X0091781Y0099281D01*
X0086250Y0093750D01*
X0086050Y0093750D01*
X0086050Y0086450D01*
X0088750Y0083750D01*
X0088750Y0078750D01*
X0085800Y0077823D02*
X0085800Y0077700D01*
X0088750Y0074750D01*
X0085800Y0077823D02*
X0085273Y0078350D01*
X0080550Y0081250D02*
X0073750Y0081250D01*
X0073000Y0082000D01*
X0073000Y0083500D01*
X0073694Y0084194D01*
X0074750Y0086250D02*
X0073750Y0087250D01*
X0073750Y0088750D01*
X0078750Y0093750D01*
X0086050Y0093750D01*
X0080550Y0086250D02*
X0074750Y0086250D01*
X0064250Y0082250D02*
X0062750Y0080750D01*
X0058750Y0080750D01*
X0094194Y0084194D02*
X0098750Y0088750D01*
X0107050Y0081250D02*
X0117750Y0081250D01*
X0121250Y0077750D01*
X0121251Y0077751D01*
X0127249Y0077751D01*
X0128750Y0076250D01*
X0128750Y0070482D01*
X0121860Y0070482D02*
X0121860Y0075640D01*
X0121250Y0076250D01*
X0107050Y0076250D01*
X0107050Y0071250D02*
X0101250Y0071250D01*
X0098750Y0068750D01*
X0098750Y0072427D02*
X0094031Y0067708D01*
X0094031Y0060409D01*
X0099656Y0054784D01*
X0099656Y0048750D01*
X0095719Y0048750D02*
X0095719Y0055219D01*
X0095750Y0055250D01*
X0098750Y0072427D02*
X0098750Y0078750D01*
X0121860Y0081140D02*
X0124049Y0078951D01*
X0145049Y0078951D01*
X0146750Y0077250D01*
X0146750Y0073860D01*
X0146860Y0073750D01*
X0146860Y0070482D01*
X0153750Y0070482D02*
X0153750Y0076250D01*
X0152150Y0077850D01*
X0148453Y0077850D01*
X0146151Y0080151D01*
X0129849Y0080151D01*
X0128750Y0081250D01*
X0128750Y0087018D01*
X0121860Y0087018D02*
X0121860Y0081140D01*
X0146860Y0081140D02*
X0148950Y0079050D01*
X0168950Y0079050D01*
X0171860Y0076140D01*
X0171860Y0070482D01*
X0178750Y0070482D02*
X0178750Y0076250D01*
X0177150Y0077850D01*
X0173453Y0077850D01*
X0171053Y0080250D01*
X0154750Y0080250D01*
X0153750Y0081250D01*
X0153750Y0087018D01*
X0146860Y0087018D02*
X0146860Y0081140D01*
X0171860Y0081140D02*
X0173950Y0079050D01*
X0193950Y0079050D01*
X0196860Y0076140D01*
X0196860Y0070482D01*
X0203750Y0070482D02*
X0203750Y0076250D01*
X0202150Y0077850D01*
X0198453Y0077850D01*
X0196053Y0080250D01*
X0179750Y0080250D01*
X0178750Y0081250D01*
X0178750Y0087018D01*
X0171860Y0087018D02*
X0171860Y0081140D01*
X0196860Y0081140D02*
X0198950Y0079050D01*
X0218950Y0079050D01*
X0221750Y0076250D01*
X0221750Y0073860D01*
X0221860Y0073750D01*
X0221860Y0070482D01*
X0228750Y0070482D02*
X0228750Y0076250D01*
X0227150Y0077850D01*
X0223453Y0077850D01*
X0221053Y0080250D01*
X0204750Y0080250D01*
X0203750Y0081250D01*
X0203750Y0087018D01*
X0196860Y0087018D02*
X0196860Y0081140D01*
X0221860Y0081140D02*
X0223950Y0079050D01*
X0243950Y0079050D01*
X0246860Y0076140D01*
X0246860Y0070482D01*
X0253750Y0070482D02*
X0253750Y0076250D01*
X0252150Y0077850D01*
X0248453Y0077850D01*
X0246053Y0080250D01*
X0229750Y0080250D01*
X0228750Y0081250D01*
X0228750Y0087018D01*
X0221860Y0087018D02*
X0221860Y0081140D01*
X0235640Y0087018D02*
X0235750Y0087128D01*
X0246860Y0087018D02*
X0246860Y0081140D01*
X0248950Y0079050D01*
X0268950Y0079050D01*
X0271860Y0076140D01*
X0271860Y0070482D01*
X0278750Y0070482D02*
X0278750Y0076250D01*
X0277150Y0077850D01*
X0273453Y0077850D01*
X0271053Y0080250D01*
X0254750Y0080250D01*
X0253750Y0081250D01*
X0253750Y0087018D01*
X0260640Y0087018D02*
X0260750Y0087128D01*
X0271860Y0087018D02*
X0271860Y0081140D01*
X0273950Y0079050D01*
X0293950Y0079050D01*
X0296860Y0076140D01*
X0296860Y0070482D01*
X0296860Y0072640D01*
X0296750Y0072750D01*
X0298453Y0077850D02*
X0296053Y0080250D01*
X0279750Y0080250D01*
X0278750Y0081250D01*
X0278750Y0087018D01*
X0285640Y0087018D02*
X0285750Y0087128D01*
X0296860Y0087018D02*
X0296860Y0081140D01*
X0298950Y0079050D01*
X0318950Y0079050D01*
X0321750Y0076250D01*
X0321750Y0070593D01*
X0321860Y0070482D01*
X0328750Y0070482D02*
X0328750Y0076250D01*
X0327150Y0077850D01*
X0323453Y0077850D01*
X0321053Y0080250D01*
X0304750Y0080250D01*
X0303750Y0081250D01*
X0303750Y0087018D01*
X0310640Y0087018D02*
X0310750Y0087128D01*
X0321750Y0086907D02*
X0321860Y0087018D01*
X0321860Y0081140D01*
X0323950Y0079050D01*
X0345056Y0079050D01*
X0346860Y0077246D01*
X0346860Y0070482D01*
X0353750Y0070482D02*
X0353750Y0076250D01*
X0352450Y0077550D01*
X0348253Y0077550D01*
X0345660Y0080143D01*
X0345660Y0080250D01*
X0329750Y0080250D01*
X0328750Y0081250D01*
X0328750Y0087018D01*
X0346860Y0087018D02*
X0346860Y0080640D01*
X0348750Y0078750D01*
X0378750Y0078750D01*
X0383750Y0073750D01*
X0380250Y0080250D02*
X0383750Y0083750D01*
X0380250Y0080250D02*
X0354750Y0080250D01*
X0353750Y0081250D01*
X0353750Y0087018D01*
X0303750Y0076250D02*
X0303750Y0070482D01*
X0303750Y0076250D02*
X0302150Y0077850D01*
X0298453Y0077850D01*
X0296860Y0172482D02*
X0296860Y0178140D01*
X0293950Y0181050D01*
X0273950Y0181050D01*
X0271860Y0183140D01*
X0271860Y0189018D01*
X0278750Y0189018D02*
X0278750Y0183250D01*
X0279750Y0182250D01*
X0296053Y0182250D01*
X0298453Y0179850D01*
X0302150Y0179850D01*
X0303750Y0178250D01*
X0303750Y0172482D01*
X0296860Y0172482D02*
X0296860Y0174640D01*
X0296750Y0174750D01*
X0298950Y0181050D02*
X0296860Y0183140D01*
X0296860Y0189018D01*
X0303750Y0189018D02*
X0303750Y0183250D01*
X0304750Y0182250D01*
X0321053Y0182250D01*
X0323453Y0179850D01*
X0327150Y0179850D01*
X0328750Y0178250D01*
X0328750Y0172482D01*
X0321860Y0172482D02*
X0321750Y0172593D01*
X0321750Y0178250D01*
X0318950Y0181050D01*
X0298950Y0181050D01*
X0285750Y0189128D02*
X0285640Y0189018D01*
X0277150Y0179850D02*
X0273453Y0179850D01*
X0271053Y0182250D01*
X0254750Y0182250D01*
X0253750Y0183250D01*
X0253750Y0189018D01*
X0246860Y0189018D02*
X0246860Y0183140D01*
X0248950Y0181050D01*
X0268950Y0181050D01*
X0271860Y0178140D01*
X0271860Y0172482D01*
X0278750Y0172482D02*
X0278750Y0178250D01*
X0277150Y0179850D01*
X0260750Y0189128D02*
X0260640Y0189018D01*
X0248453Y0179850D02*
X0246053Y0182250D01*
X0229750Y0182250D01*
X0228750Y0183250D01*
X0228750Y0189018D01*
X0221860Y0189018D02*
X0221860Y0183140D01*
X0223950Y0181050D01*
X0243950Y0181050D01*
X0246860Y0178140D01*
X0246860Y0172482D01*
X0253750Y0172482D02*
X0253750Y0178250D01*
X0252150Y0179850D01*
X0248453Y0179850D01*
X0235750Y0189128D02*
X0235640Y0189018D01*
X0227150Y0179850D02*
X0223453Y0179850D01*
X0221053Y0182250D01*
X0204750Y0182250D01*
X0203750Y0183250D01*
X0203750Y0189018D01*
X0196860Y0189018D02*
X0196860Y0183140D01*
X0198950Y0181050D01*
X0218950Y0181050D01*
X0221750Y0178250D01*
X0221750Y0175860D01*
X0221860Y0175750D01*
X0221860Y0172482D01*
X0228750Y0172482D02*
X0228750Y0178250D01*
X0227150Y0179850D01*
X0203750Y0178250D02*
X0203750Y0172482D01*
X0196860Y0172482D02*
X0196860Y0178140D01*
X0193950Y0181050D01*
X0173950Y0181050D01*
X0171860Y0183140D01*
X0171860Y0189018D01*
X0171053Y0182250D02*
X0154750Y0182250D01*
X0153750Y0183250D01*
X0153750Y0189018D01*
X0146860Y0189018D02*
X0146860Y0183140D01*
X0148950Y0181050D01*
X0168950Y0181050D01*
X0171860Y0178140D01*
X0171860Y0172482D01*
X0178750Y0172482D02*
X0178750Y0178250D01*
X0177150Y0179850D01*
X0173453Y0179850D01*
X0171053Y0182250D01*
X0178750Y0183250D02*
X0178750Y0189018D01*
X0178750Y0183250D02*
X0179750Y0182250D01*
X0196053Y0182250D01*
X0198453Y0179850D01*
X0202150Y0179850D01*
X0203750Y0178250D01*
X0153750Y0178250D02*
X0153750Y0172482D01*
X0153750Y0178250D02*
X0152150Y0179850D01*
X0148453Y0179850D01*
X0146151Y0182151D01*
X0129849Y0182151D01*
X0128750Y0183250D01*
X0128750Y0189018D01*
X0121860Y0189018D02*
X0121860Y0183140D01*
X0124049Y0180951D01*
X0145049Y0180951D01*
X0146750Y0179250D01*
X0146750Y0175860D01*
X0146860Y0175750D01*
X0146860Y0172482D01*
X0128750Y0172482D02*
X0128750Y0178250D01*
X0127249Y0179751D01*
X0121251Y0179751D01*
X0121250Y0179750D01*
X0117750Y0183250D01*
X0107050Y0183250D01*
X0107050Y0178250D02*
X0121250Y0178250D01*
X0121860Y0177640D01*
X0121860Y0172482D01*
X0107050Y0173250D02*
X0101250Y0173250D01*
X0098750Y0170750D01*
X0098750Y0174427D02*
X0094031Y0169708D01*
X0094031Y0162409D01*
X0099656Y0156784D01*
X0099656Y0150750D01*
X0095719Y0150750D02*
X0095719Y0157219D01*
X0095750Y0157250D01*
X0098750Y0174427D02*
X0098750Y0180750D01*
X0094194Y0186194D02*
X0098750Y0190750D01*
X0088750Y0185750D02*
X0088750Y0180750D01*
X0085800Y0179823D02*
X0085800Y0179700D01*
X0088750Y0176750D01*
X0085800Y0179823D02*
X0085273Y0180350D01*
X0074953Y0180350D01*
X0071206Y0184096D01*
X0068250Y0184096D01*
X0064250Y0184250D02*
X0064250Y0197250D01*
X0067750Y0200750D01*
X0087750Y0200750D01*
X0087844Y0200844D01*
X0087844Y0210750D01*
X0091781Y0210750D02*
X0091781Y0201281D01*
X0086250Y0195750D01*
X0086050Y0195750D01*
X0086050Y0188450D01*
X0088750Y0185750D01*
X0080550Y0183250D02*
X0073750Y0183250D01*
X0073000Y0184000D01*
X0073000Y0185500D01*
X0073694Y0186194D01*
X0074750Y0188250D02*
X0073750Y0189250D01*
X0073750Y0190750D01*
X0078750Y0195750D01*
X0086050Y0195750D01*
X0080550Y0188250D02*
X0074750Y0188250D01*
X0075750Y0178250D02*
X0073750Y0176250D01*
X0075750Y0178250D02*
X0080550Y0178250D01*
X0068250Y0177404D02*
X0068250Y0166250D01*
X0068750Y0165750D01*
X0064250Y0174250D02*
X0064250Y0177750D01*
X0062750Y0179250D01*
X0060250Y0179250D01*
X0060250Y0179219D01*
X0058750Y0177719D01*
X0058750Y0174096D01*
X0058750Y0167404D02*
X0058750Y0162750D01*
X0058750Y0182750D02*
X0040750Y0182750D01*
X0033750Y0175750D01*
X0058750Y0182750D02*
X0058750Y0187404D01*
X0058750Y0182750D02*
X0062750Y0182750D01*
X0064250Y0184250D01*
X0058750Y0194096D02*
X0058750Y0198250D01*
X0057904Y0236750D02*
X0054750Y0236750D01*
X0053750Y0237750D01*
X0053750Y0241250D01*
X0054750Y0242250D01*
X0057797Y0242250D01*
X0058750Y0264750D02*
X0058750Y0269404D01*
X0058750Y0276096D02*
X0058750Y0279719D01*
X0060250Y0281219D01*
X0060250Y0281250D01*
X0062750Y0281250D01*
X0064250Y0279750D01*
X0064250Y0276250D01*
X0068250Y0279404D02*
X0068250Y0268250D01*
X0068750Y0267750D01*
X0073750Y0278250D02*
X0075750Y0280250D01*
X0080550Y0280250D01*
X0085273Y0282350D02*
X0074953Y0282350D01*
X0071206Y0286096D01*
X0068250Y0286096D01*
X0064250Y0286250D02*
X0064250Y0299250D01*
X0067750Y0302750D01*
X0087750Y0302750D01*
X0087844Y0302844D01*
X0087844Y0312750D01*
X0091781Y0312750D02*
X0091781Y0303281D01*
X0086250Y0297750D01*
X0086050Y0297750D01*
X0086050Y0290450D01*
X0088750Y0287750D01*
X0088750Y0282750D01*
X0085800Y0281823D02*
X0085800Y0281700D01*
X0088750Y0278750D01*
X0085800Y0281823D02*
X0085273Y0282350D01*
X0080550Y0285250D02*
X0073750Y0285250D01*
X0073000Y0286000D01*
X0073000Y0287500D01*
X0073694Y0288194D01*
X0074750Y0290250D02*
X0073750Y0291250D01*
X0073750Y0292750D01*
X0078750Y0297750D01*
X0086050Y0297750D01*
X0080550Y0290250D02*
X0074750Y0290250D01*
X0064250Y0286250D02*
X0062750Y0284750D01*
X0058750Y0284750D01*
X0040750Y0284750D01*
X0033750Y0277750D01*
X0058750Y0284750D02*
X0058750Y0289404D01*
X0058750Y0296096D02*
X0058750Y0300250D01*
X0094194Y0288194D02*
X0098750Y0292750D01*
X0107050Y0285250D02*
X0117750Y0285250D01*
X0121250Y0281750D01*
X0121251Y0281751D01*
X0127249Y0281751D01*
X0128750Y0280250D01*
X0128750Y0274482D01*
X0121860Y0274482D02*
X0121860Y0279640D01*
X0121250Y0280250D01*
X0107050Y0280250D01*
X0107050Y0275250D02*
X0101250Y0275250D01*
X0098750Y0272750D01*
X0098750Y0276427D02*
X0094031Y0271708D01*
X0094031Y0264409D01*
X0099656Y0258784D01*
X0099656Y0252750D01*
X0095719Y0252750D02*
X0095719Y0259219D01*
X0095750Y0259250D01*
X0098750Y0276427D02*
X0098750Y0282750D01*
X0121860Y0285140D02*
X0124049Y0282951D01*
X0145049Y0282951D01*
X0146750Y0281250D01*
X0146750Y0277860D01*
X0146860Y0277750D01*
X0146860Y0274482D01*
X0153750Y0274482D02*
X0153750Y0280250D01*
X0152150Y0281850D01*
X0148453Y0281850D01*
X0146151Y0284151D01*
X0129849Y0284151D01*
X0128750Y0285250D01*
X0128750Y0291018D01*
X0121860Y0291018D02*
X0121860Y0285140D01*
X0146860Y0285140D02*
X0148950Y0283050D01*
X0168950Y0283050D01*
X0171860Y0280140D01*
X0171860Y0274482D01*
X0178750Y0274482D02*
X0178750Y0280250D01*
X0177150Y0281850D01*
X0173453Y0281850D01*
X0171053Y0284250D01*
X0154750Y0284250D01*
X0153750Y0285250D01*
X0153750Y0291018D01*
X0146860Y0291018D02*
X0146860Y0285140D01*
X0171860Y0285140D02*
X0173950Y0283050D01*
X0193950Y0283050D01*
X0196860Y0280140D01*
X0196860Y0274482D01*
X0203750Y0274482D02*
X0203750Y0280250D01*
X0202150Y0281850D01*
X0198453Y0281850D01*
X0196053Y0284250D01*
X0179750Y0284250D01*
X0178750Y0285250D01*
X0178750Y0291018D01*
X0171860Y0291018D02*
X0171860Y0285140D01*
X0196860Y0285140D02*
X0198950Y0283050D01*
X0218950Y0283050D01*
X0221750Y0280250D01*
X0221750Y0277860D01*
X0221860Y0277750D01*
X0221860Y0274482D01*
X0228750Y0274482D02*
X0228750Y0280250D01*
X0227150Y0281850D01*
X0223453Y0281850D01*
X0221053Y0284250D01*
X0204750Y0284250D01*
X0203750Y0285250D01*
X0203750Y0291018D01*
X0196860Y0291018D02*
X0196860Y0285140D01*
X0221860Y0285140D02*
X0223950Y0283050D01*
X0243950Y0283050D01*
X0246860Y0280140D01*
X0246860Y0274482D01*
X0253750Y0274482D02*
X0253750Y0280250D01*
X0252150Y0281850D01*
X0248453Y0281850D01*
X0246053Y0284250D01*
X0229750Y0284250D01*
X0228750Y0285250D01*
X0228750Y0291018D01*
X0221860Y0291018D02*
X0221860Y0285140D01*
X0235640Y0291018D02*
X0235750Y0291128D01*
X0246860Y0291018D02*
X0246860Y0285140D01*
X0248950Y0283050D01*
X0268950Y0283050D01*
X0271860Y0280140D01*
X0271860Y0274482D01*
X0278750Y0274482D02*
X0278750Y0280250D01*
X0277150Y0281850D01*
X0273453Y0281850D01*
X0271053Y0284250D01*
X0254750Y0284250D01*
X0253750Y0285250D01*
X0253750Y0291018D01*
X0260640Y0291018D02*
X0260750Y0291128D01*
X0271860Y0291018D02*
X0271860Y0285140D01*
X0273950Y0283050D01*
X0293950Y0283050D01*
X0296860Y0280140D01*
X0296860Y0274482D01*
X0296860Y0276640D01*
X0296750Y0276750D01*
X0303750Y0274482D02*
X0303750Y0280250D01*
X0302150Y0281850D01*
X0298453Y0281850D01*
X0296053Y0284250D01*
X0279750Y0284250D01*
X0278750Y0285250D01*
X0278750Y0291018D01*
X0285640Y0291018D02*
X0285750Y0291128D01*
X0296860Y0291018D02*
X0296860Y0285140D01*
X0298950Y0283050D01*
X0318950Y0283050D01*
X0321750Y0280250D01*
X0321750Y0274593D01*
X0321860Y0274482D01*
X0328750Y0274482D02*
X0328750Y0280250D01*
X0327150Y0281850D01*
X0323453Y0281850D01*
X0321053Y0284250D01*
X0304750Y0284250D01*
X0303750Y0285250D01*
X0303750Y0291018D01*
X0310640Y0291018D02*
X0310750Y0291128D01*
X0321750Y0290907D02*
X0321860Y0291018D01*
X0321860Y0285140D01*
X0323950Y0283050D01*
X0345056Y0283050D01*
X0346860Y0281246D01*
X0346860Y0274482D01*
X0353750Y0274482D02*
X0353750Y0280250D01*
X0352450Y0281550D01*
X0348253Y0281550D01*
X0345660Y0284143D01*
X0345660Y0284250D01*
X0329750Y0284250D01*
X0328750Y0285250D01*
X0328750Y0291018D01*
X0346860Y0291018D02*
X0346860Y0284640D01*
X0348750Y0282750D01*
X0378750Y0282750D01*
X0383750Y0277750D01*
X0380250Y0284250D02*
X0383750Y0287750D01*
X0380250Y0284250D02*
X0354750Y0284250D01*
X0353750Y0285250D01*
X0353750Y0291018D01*
X0353750Y0189018D02*
X0353750Y0183250D01*
X0354750Y0182250D01*
X0380250Y0182250D01*
X0383750Y0185750D01*
X0378750Y0180750D02*
X0348750Y0180750D01*
X0346860Y0182640D01*
X0346860Y0189018D01*
X0345660Y0182250D02*
X0329750Y0182250D01*
X0328750Y0183250D01*
X0328750Y0189018D01*
X0321860Y0189018D02*
X0321860Y0183140D01*
X0323950Y0181050D01*
X0345056Y0181050D01*
X0346860Y0179246D01*
X0346860Y0172482D01*
X0353750Y0172482D02*
X0353750Y0178250D01*
X0352450Y0179550D01*
X0348253Y0179550D01*
X0345660Y0182143D01*
X0345660Y0182250D01*
X0321860Y0189018D02*
X0321750Y0188907D01*
X0310750Y0189128D02*
X0310640Y0189018D01*
X0378750Y0180750D02*
X0383750Y0175750D01*
X0057797Y0140250D02*
X0054750Y0140250D01*
X0053750Y0139250D01*
X0053750Y0135750D01*
X0054750Y0134750D01*
X0057904Y0134750D01*
X0057797Y0038250D02*
X0054750Y0038250D01*
X0053750Y0037250D01*
X0053750Y0033750D01*
X0054750Y0032750D01*
X0057904Y0032750D01*
D26*
X0091650Y0048881D02*
X0091650Y0088750D01*
X0095719Y0092819D01*
X0095719Y0097750D01*
X0095719Y0108750D01*
X0091650Y0088750D02*
X0088750Y0088750D01*
X0090750Y0088750D01*
X0112250Y0053750D02*
X0120404Y0053750D01*
X0091781Y0048750D02*
X0091650Y0048881D01*
X0135640Y0087018D02*
X0135640Y0098640D01*
X0135750Y0098750D01*
X0160640Y0098750D01*
X0160640Y0087018D01*
X0160640Y0098750D02*
X0185640Y0098750D01*
X0185640Y0087018D01*
X0185640Y0098750D02*
X0210640Y0098750D01*
X0210640Y0087018D01*
X0210640Y0098750D02*
X0235640Y0098750D01*
X0235640Y0087018D01*
X0235640Y0098750D02*
X0260640Y0098750D01*
X0260640Y0087018D01*
X0260640Y0098750D02*
X0285640Y0098750D01*
X0285640Y0087018D01*
X0285640Y0098750D02*
X0310640Y0098750D01*
X0310640Y0087018D01*
X0310640Y0098750D02*
X0335640Y0098750D01*
X0360640Y0098750D01*
X0378750Y0098750D01*
X0383750Y0093750D01*
X0360640Y0098750D02*
X0360640Y0087018D01*
X0335640Y0087018D02*
X0335640Y0098750D01*
X0335640Y0189018D02*
X0335640Y0200750D01*
X0360640Y0200750D01*
X0378750Y0200750D01*
X0383750Y0195750D01*
X0360640Y0200750D02*
X0360640Y0189018D01*
X0335640Y0200750D02*
X0310640Y0200750D01*
X0310640Y0189018D01*
X0310640Y0200750D02*
X0285640Y0200750D01*
X0285640Y0189018D01*
X0285640Y0200750D02*
X0260640Y0200750D01*
X0260640Y0189018D01*
X0260640Y0200750D02*
X0235640Y0200750D01*
X0235640Y0189018D01*
X0235640Y0200750D02*
X0210640Y0200750D01*
X0210640Y0189018D01*
X0210640Y0200750D02*
X0185640Y0200750D01*
X0185640Y0189018D01*
X0185640Y0200750D02*
X0160640Y0200750D01*
X0160640Y0189018D01*
X0160640Y0200750D02*
X0135750Y0200750D01*
X0135640Y0200640D01*
X0135640Y0189018D01*
X0095719Y0194819D02*
X0091650Y0190750D01*
X0088750Y0190750D01*
X0090750Y0190750D01*
X0091650Y0190750D02*
X0091650Y0150881D01*
X0091781Y0150750D01*
X0112250Y0155750D02*
X0120404Y0155750D01*
X0095719Y0194819D02*
X0095719Y0199750D01*
X0095719Y0210750D01*
X0091781Y0252750D02*
X0091650Y0252881D01*
X0091650Y0292750D01*
X0095719Y0296819D01*
X0095719Y0301750D01*
X0095719Y0312750D01*
X0091650Y0292750D02*
X0088750Y0292750D01*
X0090750Y0292750D01*
X0112250Y0257750D02*
X0120404Y0257750D01*
X0135640Y0291018D02*
X0135640Y0302640D01*
X0135750Y0302750D01*
X0160640Y0302750D01*
X0160640Y0291018D01*
X0160640Y0302750D02*
X0185640Y0302750D01*
X0185640Y0291018D01*
X0185640Y0302750D02*
X0210640Y0302750D01*
X0210640Y0291018D01*
X0210640Y0302750D02*
X0235640Y0302750D01*
X0235640Y0291018D01*
X0235640Y0302750D02*
X0260640Y0302750D01*
X0260640Y0291018D01*
X0260640Y0302750D02*
X0285640Y0302750D01*
X0285640Y0291018D01*
X0285640Y0302750D02*
X0310640Y0302750D01*
X0310640Y0291018D01*
X0310640Y0302750D02*
X0335640Y0302750D01*
X0360640Y0302750D01*
X0378750Y0302750D01*
X0383750Y0297750D01*
X0360640Y0302750D02*
X0360640Y0291018D01*
X0335640Y0291018D02*
X0335640Y0302750D01*
D27*
X0112250Y0257750D03*
X0112250Y0155750D03*
X0112250Y0053750D03*
M02*
